<svg width="40" height="40" viewBox="0 0 40 40" fill="none" xmlns="http://www.w3.org/2000/svg">
<mask id="mask0_246_5540" style="mask-type:luminance" maskUnits="userSpaceOnUse" x="-11" y="-173" width="222" height="244">
<path d="M-10.3076 -172.431H210.698V70.6748H-10.3076V-172.431Z" fill="white"/>
</mask>
<g mask="url(#mask0_246_5540)">
<path d="M35.5556 18.0168C36.3516 18.1385 37.0342 18.4554 37.4805 18.924C37.6757 19.1245 37.8285 19.3623 37.9297 19.6232C38.0309 19.8841 38.0785 20.1627 38.0696 20.4424C38.0649 20.6972 38.0223 20.95 37.9433 21.1924L38.9884 20.1476L38.0033 19.1625L35.2468 16.4057C35.4659 17.0477 35.5384 17.6118 35.5556 18.0168Z" fill="#1A1B2E"/>
<path d="M16.8773 30.3127C16.4634 30.1702 16.0587 30.002 15.6657 29.8091C15.5743 30.0514 15.5091 30.3028 15.4712 30.5591C15.9423 30.491 16.4112 30.4089 16.8773 30.3127Z" fill="#1A1B2E"/>
<path d="M3.27406 20.1453L2.85577 19.5263C2.79455 19.4359 2.73757 19.3428 2.68503 19.2471L1.78491 20.1476L4.60026 22.9634L4.91524 18.5022L3.27406 20.1453Z" fill="#1A1B2E"/>
<path d="M30.1559 24.628C29.4627 26.132 28.4329 27.4565 27.146 28.499C28.3759 28.6081 29.2706 28.9676 29.8467 29.2896L32.896 26.2403L35.9452 23.1907C34.5243 23.9337 32.4711 24.3325 30.1559 24.628Z" fill="#1A1B2E"/>
<path d="M10.3549 24.0234C9.77951 24.2753 9.09808 24.4506 8.31063 24.5493L6.41333 24.7766L10.7841 29.147C10.9895 28.2964 11.3673 27.4953 11.9084 26.7593C11.2579 25.9293 10.7343 25.0073 10.3549 24.0234Z" fill="#1A1B2E"/>
<path d="M24.7421 34.3944C23.527 34.5243 22.2858 34.8973 20.9506 35.3004C19.9164 35.6127 18.8607 35.9304 17.7727 36.1354L20.3869 38.75L24.7421 34.3944Z" fill="#1A1B2E"/>
<path d="M37.9436 21.1927C38.0222 20.9499 38.0647 20.6968 38.0699 20.4415C38.0843 19.8689 37.8805 19.3434 37.4809 18.9239C37.0341 18.455 36.3523 18.1369 35.5559 18.0168C35.5301 17.4678 35.426 16.9252 35.2468 16.4056L38.9887 20.1468L37.9436 21.1927ZM29.8465 29.2895C29.2707 28.9667 28.376 28.6077 27.1461 28.4985C28.4328 27.4561 29.4625 26.1318 30.1556 24.6279C32.4712 24.3324 34.5244 23.9328 35.9457 23.1906L29.8465 29.2895ZM23.5351 9.8639C24.62 9.61441 25.4235 9.46784 26.0125 9.38403L26.0113 9.38559C27.4096 9.18677 27.8782 9.34972 27.8782 9.34972C27.8782 9.34972 27.7737 8.51549 26.0998 8.749C25.565 8.82384 24.8403 8.83866 20.5564 10.0054L20.4083 10.0417C20.3763 10.0495 20.3442 10.0573 20.312 10.0651C20.0823 10.1215 19.852 10.1776 19.6212 10.2335C19.2139 10.3322 18.8055 10.4263 18.396 10.5157L18.2011 10.559C17.7519 10.6555 17.3006 10.7422 16.8476 10.819L16.657 10.8494C15.8953 10.9683 15.1542 11.0424 14.4482 11.0424L14.4186 11.042C14.3482 11.042 14.2786 11.0408 14.21 11.0385C14.1963 11.0379 14.1825 11.0372 14.1687 11.0361C14.105 11.0343 14.042 11.0318 13.9796 11.0287L13.9691 11.0279C11.7132 10.8919 10.6357 9.83428 10.6353 9.83428L10.6365 9.8335C10.6372 9.83272 10.6401 9.83129 10.645 9.82921L10.6712 9.81167C10.68 9.80569 10.6905 9.79881 10.7027 9.79101L10.7226 9.77776L10.7799 9.73877L10.8212 9.71109C10.8415 9.69758 10.8632 9.68277 10.8863 9.66665C10.9772 9.6035 11.0867 9.52554 11.2076 9.43743L11.2731 9.38832C11.6282 9.12284 12.0558 8.77316 12.3451 8.43479C12.1124 7.83484 11.9977 7.19553 11.9432 6.76593C11.938 6.72695 11.9334 6.68953 11.9295 6.65366C11.9222 6.58869 11.9161 6.53074 11.9112 6.4798C11.907 6.43484 11.9038 6.3965 11.9015 6.3648L11.9011 6.35895L11.8948 6.26461L11.8625 5.59138L12.4839 5.85139C12.5556 5.88128 12.6273 5.90961 12.699 5.93637C12.7193 5.94417 12.7395 5.95184 12.7595 5.95938C12.8161 5.97991 12.8727 5.99979 12.929 6.01902L12.9789 6.03656C13.0504 6.06021 13.1215 6.08256 13.1922 6.10361C13.2066 6.10829 13.221 6.11102 13.2355 6.1157C13.2937 6.13233 13.3518 6.14832 13.4097 6.16365C13.43 6.16936 13.4501 6.17443 13.4701 6.17885C13.6112 6.21421 13.7533 6.24541 13.8962 6.27241C13.915 6.27497 13.9338 6.27822 13.9523 6.28215C14.0082 6.29177 14.064 6.30061 14.1196 6.30866L14.173 6.31763C14.2436 6.32698 14.3133 6.33712 14.3843 6.34414C14.3949 6.34544 14.4056 6.34661 14.4162 6.34764C14.4771 6.3544 14.5374 6.36012 14.5971 6.3648L14.6575 6.36948C14.7168 6.37389 14.7761 6.37753 14.8353 6.38039L14.8712 6.38273C14.9411 6.38559 15.0109 6.38754 15.0805 6.38858L15.1347 6.38897L15.2224 6.39014L15.2672 6.38936L15.4688 6.38663L15.5432 6.38429C15.6508 6.37927 15.7583 6.37291 15.8656 6.36519C15.941 6.35973 16.016 6.35323 16.0906 6.3457L16.1787 6.33634C16.2431 6.32985 16.3077 6.32231 16.3724 6.31373L16.4597 6.30282C16.5367 6.2919 16.6137 6.28059 16.6909 6.2689C16.7052 6.26708 16.7192 6.26487 16.733 6.26227C16.8245 6.24798 16.9158 6.23239 17.0071 6.2155C17.0317 6.21082 17.0568 6.20614 17.0823 6.20146C17.1499 6.18899 17.2176 6.1756 17.2854 6.16131C17.315 6.15533 17.3448 6.14936 17.3747 6.14338L17.5762 6.09932C17.6019 6.09413 17.6274 6.08841 17.6526 6.08217C17.7443 6.06216 17.8362 6.04059 17.9282 6.01746C17.9368 6.01538 17.9455 6.01343 17.9543 6.01162C18.0375 5.99056 18.1209 5.96951 18.2046 5.94846C18.2332 5.94067 18.262 5.933 18.2911 5.92546L18.4888 5.87284C18.5182 5.86504 18.5475 5.85711 18.5769 5.84906C18.6504 5.82904 18.7241 5.80838 18.7979 5.78708C18.8166 5.78239 18.8354 5.77707 18.8541 5.77109C18.9466 5.74588 19.0391 5.71937 19.1316 5.69156C19.1566 5.68533 19.1815 5.67675 19.2065 5.67051C19.2759 5.65024 19.3455 5.62945 19.4154 5.60814C19.4482 5.59904 19.4806 5.5893 19.5129 5.5789L19.7125 5.52004C19.7418 5.5112 19.7711 5.5025 19.8002 5.49392L20.0485 5.41868C20.055 5.41634 20.0619 5.41439 20.0692 5.41283C20.2264 5.36449 20.3841 5.31681 20.5424 5.26977L20.7007 5.2226L21.1427 5.09356C21.2077 5.07459 21.2731 5.05627 21.3388 5.0386C21.3918 5.02301 21.4451 5.0078 21.4987 4.99299C22.7282 4.65306 23.9881 4.3833 25.2812 4.3833C26.1762 4.3833 26.9613 4.63201 27.5445 5.06706C27.6727 5.16283 27.7926 5.2691 27.9032 5.38477C28.1766 5.67168 28.3801 6.01788 28.4977 6.39637C28.6025 6.47668 28.7245 6.57687 28.8466 6.70083C28.9006 6.75671 28.9538 6.81726 29.006 6.88249C29.2539 7.19436 29.4629 7.62473 29.4672 8.22156C29.4672 8.52913 29.4001 8.83866 29.273 9.13531C29.1773 9.35704 29.0567 9.5672 28.9136 9.76177C28.8702 9.82145 28.8247 9.87957 28.7772 9.93603L32.8657 14.0238L31.2265 14.2347L31.1286 14.6502C31.1271 14.6557 31.0323 15.0576 30.8783 15.6166L29.5198 14.4717C29.0325 13.6902 28.4469 12.9744 27.7773 12.3421C26.5745 11.1982 25.1222 10.3498 23.5351 9.8639ZM20.3869 38.7487L17.7727 36.1349C18.8603 35.9306 19.9156 35.6113 20.9506 35.2999C22.2857 34.8968 23.5266 34.5229 24.742 34.3935L20.3869 38.7487ZM15.4707 30.5584C15.5092 30.3021 15.574 30.0524 15.6653 29.8091C16.0585 30.0021 16.4634 30.1703 16.8776 30.3128C16.4113 30.4092 15.9421 30.4911 15.4707 30.5584ZM13.8362 11.6224C13.1634 12.1419 12.5536 12.7383 12.0192 13.3993C11.9061 13.239 11.7798 13.0831 11.6403 12.9361C11.2138 12.4867 10.684 12.1241 10.072 11.8606L11.031 10.9016C11.6718 11.2447 12.5798 11.5476 13.837 11.6224H13.8362ZM10.7846 29.146L6.41383 24.7757L8.31074 24.5484C9.09872 24.4494 9.78014 24.2743 10.355 24.0233C10.7346 25.0069 11.2583 25.9286 11.9089 26.7583C11.3674 27.4951 10.9896 28.2962 10.7846 29.146ZM20.3869 1.54612L22.8829 4.04181H22.8837C21.8628 4.2453 20.8703 4.54586 19.8957 4.8394C18.6209 5.22338 17.4012 5.59099 16.2017 5.73133L20.3869 1.54612ZM4.60074 22.9629L1.785 20.1468L2.68551 19.2471C2.74476 19.3531 2.80154 19.4463 2.85586 19.5266L3.27376 20.1449L4.91572 18.5021L4.60074 22.9629ZM39.9267 20.1468L39.4577 19.6775L29.5997 9.81947C29.8207 9.46316 30.0667 8.91194 30.0667 8.22078V8.21727C30.0617 7.61264 29.8722 6.75034 29.006 6.03383C28.7557 5.37424 28.2922 4.81718 27.6615 4.4215C26.9964 4.00399 26.1739 3.78452 25.2812 3.78452C24.7464 3.78605 24.2124 3.82552 23.6833 3.90264L20.8562 1.07598L20.3869 0.607021L19.9175 1.07598L15.2029 5.79097C13.2928 5.78395 11.2185 4.67411 11.2181 4.67333C11.2181 4.67411 11.1136 6.61546 11.6578 8.2851C11.1374 8.75913 9.66501 9.69901 9.66423 9.69979C9.66423 9.69979 9.87591 10.1009 10.4595 10.5383L10.4571 10.5368L9.38004 11.6138C9.10479 11.5343 8.82453 11.4732 8.54113 11.431C5.69771 11.0022 2.76113 12.9884 2.25474 15.6813C2.01734 16.9436 2.16196 17.9088 2.3982 18.5961L1.31604 19.6775L0.84668 20.1468L1.31604 20.6162L4.53836 23.8393L4.45611 25.0103L5.57609 24.8758L10.6443 29.9436C10.6245 30.1151 10.6116 30.2874 10.6057 30.4605C10.5554 31.9201 10.9628 33.1394 11.8173 34.0887C12.34 35.4714 13.791 36.3555 15.56 36.3555C16.034 36.3555 16.5018 36.3228 16.963 36.2631L19.9175 39.218L20.3869 39.687L20.8562 39.218L25.7279 34.346C26.5496 34.3547 27.3618 34.5227 28.1195 34.8407L29.6406 35.4761L29.5615 33.8287C29.5557 33.7148 29.5019 32.7952 29.2013 31.8397C29.7451 31.3185 30.5287 30.8129 30.5376 30.8071L31.1828 30.3943L30.6413 29.8528C30.6285 29.8407 30.5536 29.7662 30.4148 29.6602L39.4577 20.6162L39.9267 20.1468Z" fill="white"/>
<path d="M5.78183 14.9838L5.12263 24.3101L8.23425 23.9382C10.7038 23.629 11.7053 22.5652 11.9614 21.2616C12.3984 18.9148 10.1542 18.2837 10.1542 18.2837C10.1542 18.2837 12.062 17.6081 12.0834 15.4754C12.0861 14.0439 10.9174 12.4121 8.44904 12.0402C5.85044 11.648 3.29082 13.5013 2.86006 15.7954C2.54781 17.4549 2.95635 18.5749 3.36567 19.1819L4.89887 17.6463C4.00187 15.0836 6.04886 13.6256 8.04986 13.8997C9.44544 14.0977 9.95261 15.0013 9.97834 15.7985C10.0052 16.6257 9.5429 17.4444 8.66384 17.6611C8.43813 17.7177 8.13874 17.7138 8.13874 17.7138L8.05298 19.0201C8.05298 19.0201 8.41279 19.0002 8.62018 19.0376C9.35384 19.1647 10.0052 19.852 9.81227 20.878C9.65517 21.7154 9.11643 22.2475 8.13835 22.3278C7.87225 22.3528 7.6066 22.3824 7.34154 22.4167L7.88769 14.6103L5.78183 14.9838Z" fill="#1A1B2E"/>
<path d="M34.9259 18.5796C34.9259 18.5796 35.2229 16.5419 33.4535 14.5702L31.7277 14.7916C31.7277 14.7916 30.6331 19.436 29.7634 19.5163C28.7873 19.6387 29.1521 17.3886 29.7965 15.5108L29.312 15.1023L27.1164 15.3849C27.1164 15.3849 26.9968 15.0306 27.2466 14.4365C27.2466 14.4365 25.4238 14.6341 25.402 14.631C25.1845 15.2875 25.1396 16.223 25.7938 16.8592C25.579 17.9512 24.9989 20.3159 24.1615 20.4348C23.1515 20.5615 23.8933 17.8479 24.5303 15.6956L22.6946 15.9311L22.5621 16.5649C22.2611 16.1529 21.7758 15.88 21.0764 15.97C19.7814 16.1365 18.7842 17.4311 18.38 18.9082C17.8631 20.1451 17.0472 21.2924 15.7814 21.4339C13.5321 21.6249 13.8545 18.4739 15.259 18.256C16.1283 18.1741 16.0675 19.4918 14.9643 19.4762L15.0302 20.4796C16.6398 20.8566 17.407 19.7085 17.52 18.7889C17.6557 17.6845 16.7817 16.5384 14.9974 16.7244C11.1112 17.1676 11.2707 23.6547 15.896 23.1257C17.0206 22.9971 17.8334 22.295 18.4084 21.4783C18.7199 22.2104 19.3744 22.67 20.4632 22.5305C21.2444 22.4299 21.5341 21.8584 21.5341 21.8584L21.329 20.5786C20.6811 20.9755 19.8403 20.6133 20.1989 19.0641C20.3209 18.5047 20.6772 17.7789 21.2901 17.7028C22.2588 17.6241 21.8822 19.1507 21.8822 19.1507C21.5649 20.8905 22.1652 22.3332 24.0999 22.0845C26.3711 21.7925 27.1219 17.1391 27.1219 17.1391L27.8376 17.0475C27.1695 19.6239 27.516 21.6452 29.3607 21.4082C31.5281 21.1298 32.7043 16.3373 32.7043 16.3373C33.1888 17.1169 33.333 18.0404 33.3724 18.6252C32.8056 18.7515 32.2836 18.9515 31.8821 19.2158L31.8864 19.4419C31.9098 20.8558 33.648 21.6128 34.5996 19.8633L34.598 19.8695C35.3734 19.6555 36.2326 19.898 36.1196 20.5353C35.741 22.6646 28.2278 21.9711 21.46 22.8201C15.8972 23.5167 11.3681 26.1898 11.2215 30.4814C11.1697 31.9831 11.6574 33.0305 12.3556 33.7634C12.7508 34.9711 13.9839 35.7402 15.5592 35.7402C17.3582 35.7402 19.0938 35.2175 20.7716 34.7103C23.3503 33.933 25.786 33.1982 28.3569 34.2725L28.9779 34.5318L28.9455 33.8589C28.9432 33.8079 28.8847 32.6922 28.4953 31.688C29.0746 31.0132 30.2055 30.2885 30.2055 30.2885C30.2055 30.2885 28.9755 29.0808 26.3925 29.0808C24.51 29.0808 22.3753 29.6051 20.2843 30.1185C17.5204 30.8787 15.8328 31.1668 14.8146 31.2556C14.6813 27.5222 19.0669 25.2203 24.372 24.6297C28.9533 24.1186 33.7486 23.8801 36.0353 22.4299C36.8462 21.9153 37.4302 21.3536 37.4539 20.4262C37.4832 19.2859 36.3223 18.6119 34.9259 18.5796Z" fill="#1A1B2E"/>
<path d="M16.4735 33.2233V32.7353C16.7121 32.7212 16.8314 32.7084 17.0695 32.6745V32.8682C17.1888 32.8515 17.2485 32.8417 17.3674 32.8203L17.3693 32.2995H17.3678C17.2489 32.3213 17.1892 32.3306 17.0695 32.3482V32.5006L16.9109 32.37C16.7211 32.395 16.5303 32.4106 16.339 32.4168C16.2532 32.5053 16.2104 32.5493 16.125 32.6359V33.3446C16.2057 33.4265 16.2462 33.4674 16.3269 33.5469C16.6056 33.5372 16.7456 33.5239 17.0251 33.4857V33.9859C16.8242 34.0156 16.6218 34.0349 16.4189 34.0436V33.8479C16.3191 33.8529 16.2191 33.8553 16.1191 33.8549L16.123 34.3765C16.2404 34.3765 16.2992 34.3749 16.4174 34.3687V34.196C16.4848 34.2622 16.5191 34.2946 16.5877 34.3585C16.8162 34.341 16.9312 34.3277 17.1596 34.2923C17.2454 34.1936 17.2878 34.143 17.3736 34.0416V33.3216C17.2929 33.2526 17.2524 33.2175 17.1721 33.1469C16.9408 33.1855 16.7076 33.211 16.4735 33.2233Z" fill="white"/>
<path d="M20.7798 33.0069L20.1436 33.1952L20.1443 31.8971C20.3989 31.8226 20.526 31.7856 20.7802 31.7123L20.7798 33.0069ZM20.0067 31.6078C19.9198 31.7209 19.8761 31.7774 19.7892 31.8916L19.7888 33.4092C19.8754 33.4727 19.919 33.5035 20.0063 33.5659C20.3704 33.4579 20.5525 33.4026 20.9174 33.2954L21.1345 33.012L21.1349 31.5029C21.048 31.4394 21.0047 31.407 20.9178 31.3439C20.5533 31.4476 20.3712 31.5018 20.0067 31.6078Z" fill="white"/>
<path d="M22.5527 31.2411L22.7129 31.2056C22.7129 31.7186 22.7129 31.9782 22.7121 32.4901C22.4872 32.5404 22.3745 32.568 22.1492 32.6254L22.1496 31.3362C22.2131 31.3202 22.2451 31.3128 22.3094 31.298V30.9764C22.083 31.0295 21.8575 31.0865 21.6331 31.1471V31.4691C21.6978 31.4516 21.7297 31.443 21.7944 31.4262L21.7941 32.8273L22.0116 32.9883C22.3468 32.9002 22.5145 32.8589 22.8497 32.786L23.0672 32.5224L23.0676 31.1335C23.1319 31.1198 23.1643 31.1144 23.229 31.1031V30.783C23.0024 30.823 22.7768 30.869 22.5527 30.921V31.2411Z" fill="white"/>
<path d="M17.9287 32.1834V32.5124C18.0312 32.4886 18.0823 32.4762 18.1844 32.4512L18.184 33.7525C18.0819 33.7782 18.0308 33.7903 17.9287 33.8144V34.1431C18.4569 34.0222 18.7212 33.9427 19.2495 33.7872V33.2636L18.9618 33.347V33.5497C18.7926 33.5981 18.7084 33.6223 18.5396 33.6683V33.1474C18.7587 33.0874 18.8686 33.0562 19.0877 32.9927L19.0881 32.7447C18.9058 32.7985 18.723 32.85 18.5396 32.8995V32.3499C18.7088 32.3039 18.793 32.2797 18.9618 32.2317V32.4321L19.2498 32.3495L19.2502 31.8271L19.244 31.8294C18.7181 31.9815 18.4554 32.0606 17.9287 32.1834Z" fill="white"/>
<path d="M12.9927 33.2135L13.0512 33.2669L13.0703 33.3437C13.1685 33.7449 13.6402 35.0547 15.5597 35.0547C17.257 35.0547 18.9434 34.5456 20.5741 34.0536C23.0316 33.3122 25.5697 32.5469 28.2225 33.4852C28.1797 33.1398 28.0935 32.6214 27.9231 32.1201C27.8766 31.9817 27.823 31.8459 27.7625 31.7131L27.6924 31.5606L27.8019 31.434C27.936 31.2788 28.0869 31.119 28.2514 30.9572C28.295 30.9151 28.337 30.8748 28.3773 30.8363L28.3847 30.8293C28.4958 30.7245 28.6139 30.6184 28.7359 30.5132L28.7547 30.4968C28.8053 30.4531 28.8539 30.4121 28.9004 30.3736L28.9153 30.3619L28.9889 30.3003C26.7474 29.1815 22.9961 30.153 19.6814 31.0125C16.4497 31.8495 13.6589 32.5723 12.4968 31.3872L12.4921 31.3829C12.2294 31.1003 12.0727 30.7428 11.9807 30.3857C11.8973 31.2418 12.0454 32.3501 12.9927 33.2135Z" fill="#E22531"/>
<path d="M24.8563 32.1928C24.6915 32.1975 24.5269 32.2078 24.3628 32.2236L24.3632 30.9543C24.465 30.9461 24.5152 30.9418 24.6166 30.936V30.6116C24.3273 30.6272 24.0389 30.6562 23.7523 30.6985V31.0233C23.8549 31.0092 23.9059 31.0022 24.0085 30.9901V32.2571C23.9059 32.2696 23.8549 32.2766 23.7523 32.2918L23.752 32.6196C24.309 32.537 24.5874 32.5101 25.1444 32.5101V31.994C25.029 31.994 24.9717 31.9951 24.8563 31.9986V32.1928Z" fill="white"/>
<path d="M22.8826 4.04193L20.3869 1.54624L16.2009 5.73145C17.4008 5.59111 18.6206 5.2235 19.8953 4.83952C20.8695 4.54597 21.8616 4.24581 22.8826 4.04193Z" fill="#1A1B2E"/>
<path d="M10.072 11.8608C10.6837 12.1251 11.2138 12.4872 11.6403 12.9371C11.7799 13.0847 11.9062 13.2388 12.0192 13.3994C12.1972 13.1793 12.3846 12.9653 12.5814 12.7574C12.9695 12.3474 13.389 11.9681 13.8358 11.623C12.5798 11.5477 11.6719 11.2452 11.0306 10.9018L10.072 11.8608Z" fill="#1A1B2E"/>
<path d="M28.7773 9.93611C28.8096 9.89751 28.8576 9.83904 28.9137 9.76185L28.9543 9.70533C28.9553 9.70351 28.9563 9.70195 28.9574 9.70065C28.9698 9.68298 28.9825 9.66453 28.9952 9.64529C28.9978 9.64062 29.0006 9.63659 29.0038 9.63321L29.0381 9.57902L29.0502 9.56031L29.0825 9.50769C29.0872 9.49989 29.092 9.49209 29.0969 9.4843L29.1269 9.43167C29.1321 9.42153 29.1376 9.41179 29.1433 9.40243L29.1722 9.34825L29.1889 9.31667L29.2178 9.25741C29.2225 9.24689 29.2275 9.23831 29.2318 9.22857C29.2461 9.19738 29.2598 9.16619 29.2727 9.13501C29.4002 8.83874 29.4673 8.5296 29.4673 8.22203C29.463 7.62481 29.254 7.19483 29.0061 6.88258C28.956 6.8193 28.9026 6.75867 28.8463 6.70092C28.7377 6.59079 28.6211 6.48889 28.4974 6.39607C28.3797 6.01772 28.1763 5.67165 27.9029 5.38485C27.793 5.26879 27.6731 5.16261 27.5446 5.06753C26.9611 4.6317 26.1763 4.38338 25.2813 4.38338C23.9882 4.38338 22.7283 4.65353 21.4988 4.99307C21.4452 5.00763 21.3918 5.02283 21.3385 5.03868C21.2731 5.05632 21.2078 5.0749 21.1429 5.09443C20.995 5.13653 20.8476 5.17928 20.7008 5.22268L20.5425 5.26985C20.384 5.31715 20.2262 5.36471 20.0693 5.41253L20.0486 5.41877L19.8003 5.49361C19.771 5.50258 19.7418 5.51038 19.7126 5.52051C19.6463 5.54 19.5798 5.55949 19.513 5.57899C19.4808 5.58938 19.4483 5.59926 19.4155 5.60861L19.2062 5.67021C19.1812 5.67748 19.1564 5.68463 19.1317 5.69165C19.0392 5.71919 18.9467 5.74583 18.8542 5.77156C18.8355 5.77728 18.8166 5.78248 18.7976 5.78715C18.7238 5.80847 18.6503 5.82926 18.577 5.84953C18.5474 5.85654 18.5181 5.86551 18.4885 5.87292L18.2913 5.92593C18.262 5.93256 18.2332 5.94114 18.2043 5.94854C18.1212 5.96959 18.0377 5.99052 17.9541 6.01131L17.9279 6.01793C17.8365 6.04047 17.7447 6.06179 17.6527 6.08187C17.6274 6.08857 17.602 6.09442 17.5763 6.09941L17.3748 6.14346L17.2855 6.16178C17.2171 6.17581 17.1494 6.18907 17.0824 6.20154C17.0569 6.20596 17.0318 6.21064 17.0072 6.21558C16.9157 6.23221 16.8243 6.2478 16.7331 6.26236L16.691 6.26937C16.6136 6.28081 16.5365 6.29198 16.4598 6.3029C16.4305 6.30602 16.4012 6.30979 16.3721 6.3142C16.3079 6.322 16.2435 6.32954 16.1788 6.33681C16.0746 6.34839 15.9703 6.35775 15.8657 6.36488L15.8155 6.36956C15.7248 6.37567 15.6341 6.38061 15.5433 6.38437L15.4689 6.38632C15.4018 6.38736 15.3347 6.38827 15.2674 6.38905L15.2225 6.39022C15.1934 6.3897 15.164 6.38931 15.1344 6.38905L15.0806 6.38827C15.0107 6.38749 14.9409 6.38567 14.8713 6.38281C14.8591 6.38229 14.8471 6.38151 14.8354 6.38047L14.6577 6.36995L14.5972 6.36488C14.5372 6.35968 14.4769 6.3541 14.4164 6.34812C14.4054 6.34682 14.3948 6.34539 14.3844 6.34383C14.3137 6.3363 14.2433 6.32746 14.1731 6.31732C14.1552 6.31472 14.1372 6.31186 14.1193 6.30875C14.0639 6.30069 14.0083 6.29198 13.9525 6.28263C13.8627 6.26615 13.7732 6.24848 13.6839 6.22961L13.6632 6.22454C13.599 6.21051 13.5347 6.19531 13.4702 6.17893C13.45 6.17452 13.4298 6.16945 13.4098 6.16373C13.3519 6.1484 13.2936 6.13241 13.2352 6.11578C13.2211 6.1111 13.2067 6.10837 13.1923 6.1037C13.1216 6.08265 13.0505 6.06042 12.9791 6.03704C12.9624 6.03106 12.9458 6.02521 12.9292 6.01949C12.8728 6.00026 12.8162 5.98025 12.7596 5.95946C12.7396 5.95192 12.7194 5.94413 12.6992 5.93607C12.6274 5.90982 12.5557 5.88149 12.484 5.85109L11.8622 5.59146L11.8949 6.26431L11.9012 6.35942V6.36449L11.9109 6.47988L11.9292 6.65414L11.9429 6.76602C11.9979 7.19561 12.1121 7.83454 12.3452 8.43527C12.0555 8.77325 11.6279 9.12214 11.2732 9.3884L11.2077 9.43713C11.0802 9.53048 10.9513 9.62184 10.821 9.71118C10.8064 9.72105 10.7928 9.73015 10.78 9.73846L10.7227 9.77784C10.7154 9.78199 10.7087 9.78628 10.7025 9.7907L10.6709 9.81175L10.6448 9.8289C10.6401 9.8315 10.6372 9.83293 10.6362 9.83319C10.6357 9.83423 10.635 9.83475 10.635 9.83475C10.635 9.83475 11.7133 10.8924 13.9688 11.028L13.9797 11.0288C14.0419 11.0319 14.1049 11.0345 14.1688 11.0366L14.2101 11.0385C14.2787 11.0411 14.3483 11.0423 14.4187 11.0421L14.4483 11.0428C15.1543 11.0421 15.8954 10.968 16.6571 10.8495L16.8477 10.8187C17.3664 10.7314 17.8827 10.6306 18.3961 10.5162C18.8035 10.4273 19.212 10.3318 19.6214 10.2332C19.8521 10.1773 20.0824 10.1213 20.3121 10.0651L20.408 10.0418L20.5566 10.0055C24.0584 9.05159 25.1819 8.86759 25.7678 8.79079C25.898 8.77442 26.0025 8.76233 26.0999 8.7483C27.5555 8.54637 27.8241 9.14982 27.8694 9.31082C27.876 9.33538 27.8779 9.34941 27.8779 9.34941C27.8779 9.34941 27.4094 9.18647 26.011 9.38567L26.0126 9.3845C25.4236 9.46753 24.6205 9.6145 23.5345 9.8636C25.1215 10.35 26.574 11.1983 27.7774 12.3417C28.4465 12.9744 29.032 13.6901 29.5195 14.4714L30.8785 15.6167C31.032 15.0573 31.1272 14.6558 31.1283 14.6503L31.2266 14.2344L32.8654 14.0235L28.7773 9.93611Z" fill="#1A1B2E"/>
<path d="M16.4735 33.2233V32.7353C16.7121 32.7212 16.8314 32.7084 17.0695 32.6745V32.8682C17.1888 32.8515 17.2485 32.8417 17.3674 32.8203L17.3693 32.2995H17.3678C17.2489 32.3213 17.1892 32.3306 17.0695 32.3482V32.5006L16.9109 32.37C16.7211 32.395 16.5303 32.4106 16.339 32.4168C16.2532 32.5053 16.2104 32.5493 16.125 32.6359V33.3446C16.2057 33.4265 16.2462 33.4674 16.3269 33.5469C16.6056 33.5372 16.7456 33.5239 17.0251 33.4857V33.9859C16.8242 34.0156 16.6218 34.0349 16.4189 34.0436V33.8479C16.3191 33.8529 16.2191 33.8553 16.1191 33.8549L16.123 34.3765C16.2404 34.3765 16.2992 34.3749 16.4174 34.3687V34.196C16.4848 34.2622 16.5191 34.2946 16.5877 34.3585C16.8162 34.341 16.9312 34.3277 17.1596 34.2923C17.2454 34.1936 17.2878 34.143 17.3736 34.0416V33.3216C17.2929 33.2526 17.2524 33.2175 17.1721 33.1469C16.9408 33.1855 16.7076 33.211 16.4735 33.2233Z" fill="white"/>
<path d="M20.7798 33.0069L20.1436 33.1952L20.1443 31.8971C20.3989 31.8226 20.526 31.7856 20.7802 31.7123L20.7798 33.0069ZM20.0067 31.6078C19.9198 31.7209 19.8761 31.7774 19.7892 31.8916L19.7888 33.4092C19.8754 33.4727 19.919 33.5035 20.0063 33.5659C20.3704 33.4579 20.5525 33.4026 20.9174 33.2954L21.1345 33.012L21.1349 31.5029C21.048 31.4394 21.0047 31.407 20.9178 31.3439C20.5533 31.4476 20.3712 31.5018 20.0067 31.6078Z" fill="white"/>
<path d="M22.5527 31.2411L22.7129 31.2056C22.7129 31.7186 22.7129 31.9782 22.7121 32.4901C22.4872 32.5404 22.3745 32.568 22.1492 32.6254L22.1496 31.3362C22.2131 31.3202 22.2451 31.3128 22.3094 31.298V30.9764C22.083 31.0295 21.8575 31.0865 21.6331 31.1471V31.4691C21.6978 31.4516 21.7297 31.443 21.7944 31.4262L21.7941 32.8273L22.0116 32.9883C22.3468 32.9002 22.5145 32.8589 22.8497 32.786L23.0672 32.5224L23.0676 31.1335C23.1319 31.1198 23.1643 31.1144 23.229 31.1031V30.783C23.0024 30.823 22.7768 30.869 22.5527 30.921V31.2411Z" fill="white"/>
<path d="M17.9287 32.1834V32.5124C18.0312 32.4886 18.0823 32.4762 18.1844 32.4512L18.184 33.7525C18.0819 33.7782 18.0308 33.7903 17.9287 33.8144V34.1431C18.4569 34.0222 18.7212 33.9427 19.2495 33.7872V33.2636L18.9618 33.347V33.5497C18.7926 33.5981 18.7084 33.6223 18.5396 33.6683V33.1474C18.7587 33.0874 18.8686 33.0562 19.0877 32.9927L19.0881 32.7447C18.9058 32.7985 18.723 32.85 18.5396 32.8995V32.3499C18.7088 32.3039 18.793 32.2797 18.9618 32.2317V32.4321L19.2498 32.3495L19.2502 31.8271L19.244 31.8294C18.7181 31.9815 18.4554 32.0606 17.9287 32.1834Z" fill="white"/>
<path d="M24.8563 32.1928C24.6915 32.1975 24.5269 32.2078 24.3628 32.2236L24.3632 30.9543C24.465 30.9461 24.5152 30.9418 24.6166 30.936V30.6116C24.3273 30.6272 24.0389 30.6562 23.7523 30.6985V31.0233C23.8549 31.0092 23.9059 31.0022 24.0085 30.9901V32.2571C23.9059 32.2696 23.8549 32.2766 23.7523 32.2918L23.752 32.6196C24.309 32.537 24.5874 32.5101 25.1444 32.5101V31.994C25.029 31.994 24.9717 31.9951 24.8563 31.9986V32.1928Z" fill="white"/>
<path d="M20.7253 9.26926C21.0259 9.19285 21.3249 9.11566 21.6231 9.0416L22.1954 8.89697C24.2774 8.36992 26.0749 7.91499 27.3302 8.02999C28.1625 8.10718 28.4408 8.64397 28.5332 9.02016C28.6544 8.82485 28.7878 8.54067 28.7882 8.22607C28.7823 7.57974 28.4595 7.21096 27.9761 6.85582L27.9017 6.80086L27.8802 6.71081C27.8478 6.57847 27.8015 6.44991 27.7422 6.32722C27.3629 5.54678 26.4203 5.06339 25.2816 5.06339C23.5828 5.06339 21.8964 5.57212 20.2657 6.06369C17.8067 6.80554 15.2669 7.57194 12.6118 6.62972C12.6551 6.98486 12.7416 7.50294 12.9124 8.00543C12.9625 8.15279 13.0161 8.28871 13.073 8.41319L13.1416 8.56211L13.0348 8.68646C12.8912 8.85065 12.7414 9.00929 12.5857 9.16205C12.5412 9.20455 12.5007 9.24431 12.4598 9.28212L12.4528 9.28953C12.3413 9.394 12.2228 9.50121 12.1015 9.60529L12.084 9.6201C12.0357 9.66262 11.9867 9.70434 11.937 9.74524L11.923 9.75654L11.8403 9.82437C14.0748 10.9697 17.4554 10.1058 20.7253 9.26926Z" fill="#E22531"/>
<path d="M15.569 9.27195C15.4011 9.2869 15.233 9.29834 15.0646 9.30625L15.0654 8.03424C15.2677 8.02372 15.3683 8.01553 15.571 7.99682L15.569 9.27195ZM15.9172 9.34602L15.9195 7.85375C15.8341 7.77851 15.7912 7.73992 15.7066 7.6639C15.21 7.71653 14.9617 7.73212 14.4658 7.73212V8.05022C14.566 8.05022 14.6163 8.04944 14.7169 8.04711L14.7165 9.31873C14.6329 9.32047 14.5494 9.32125 14.4658 9.32107V9.64307C14.9605 9.64307 15.2084 9.62981 15.7031 9.58342C15.7889 9.48947 15.8314 9.4423 15.9172 9.34602Z" fill="white"/>
<path d="M16.8339 7.82385C17.0838 7.7798 17.2086 7.75446 17.4585 7.70261L17.4538 8.99957C17.2047 9.0483 17.0795 9.07052 16.8301 9.11223L16.8339 7.82385ZM17.5875 9.30364C17.6729 9.19839 17.7154 9.14693 17.8011 9.0405L17.8074 7.52017C17.7224 7.45078 17.6795 7.41648 17.5949 7.3467C17.2982 7.41349 16.9997 7.47237 16.6998 7.52329L16.4854 7.77629L16.4819 9.27557C16.5669 9.34886 16.6098 9.38706 16.6944 9.45996C17.0519 9.40616 17.23 9.3742 17.5875 9.30364Z" fill="white"/>
<path d="M18.7243 7.40763C18.9742 7.34487 19.0989 7.31173 19.3492 7.24546L19.3414 8.56893C19.0915 8.63248 18.9671 8.66366 18.7176 8.72292L18.7243 7.40763ZM19.4739 8.87378L19.6883 8.59388L19.6981 7.04236C19.6131 6.97609 19.571 6.94257 19.486 6.87552C19.1281 6.9718 18.9488 7.01975 18.591 7.11019L18.3765 7.3858L18.3691 8.91666L18.5812 9.08936C18.9387 9.00749 19.1168 8.96305 19.4739 8.87378Z" fill="white"/>
<path d="M22.7196 7.30992L22.8978 6.61603L23.0615 7.23118C22.9251 7.26236 22.8564 7.27757 22.7196 7.30992ZM23.242 7.9126C23.4252 7.8705 23.5168 7.8514 23.7004 7.81358L23.7082 7.47833L23.5273 7.51458C23.38 6.99806 23.2307 6.48115 23.0857 5.96306L23.033 5.9732L22.7352 6.03518L22.4335 6.1034L22.43 6.44099L22.63 6.39499C22.506 6.86643 22.3829 7.33825 22.2608 7.81046L22.0698 7.85841L22.0667 8.20068C22.2491 8.15429 22.3403 8.13051 22.5235 8.08529L22.5255 8.08451V8.07633L22.6385 7.64089C22.8393 7.59216 22.9391 7.56838 23.1402 7.52355C23.1812 7.67753 23.2014 7.7555 23.242 7.91221V7.9126Z" fill="white"/>
<path d="M25.8141 5.97632V5.66095C25.5198 5.66095 25.3729 5.6668 25.0785 5.68668L25.0766 6.00868C25.1565 6.00166 25.197 5.99971 25.277 5.99542L25.2727 6.82303C25.0532 6.38564 24.9448 6.17045 24.7292 5.71474C24.5524 5.73098 24.3759 5.751 24.1999 5.77478L24.196 6.1034C24.2806 6.09171 24.3234 6.08586 24.408 6.07573C24.403 6.59303 24.4006 6.84018 24.3948 7.35748C24.3234 7.36842 24.2522 7.38011 24.1811 7.39257L24.1772 7.72314C24.4751 7.67208 24.6236 7.64908 24.9218 7.61048L24.9242 7.28459C24.8458 7.29433 24.8072 7.29901 24.7289 7.30954L24.7355 6.47062C24.9561 6.90918 25.0672 7.12086 25.2918 7.56916C25.5003 7.54772 25.6044 7.53992 25.8141 7.52745V7.20896L25.6075 7.22026L25.6099 5.98061C25.6917 5.97827 25.7327 5.97749 25.8141 5.97632Z" fill="white"/>
<path d="M20.661 7.39409L20.6645 6.89511C20.9027 6.83079 21.022 6.79882 21.2602 6.73645L21.2583 6.93643C21.3772 6.90524 21.4368 6.88965 21.5561 6.85924L21.5623 6.31582C21.5618 6.31582 21.5614 6.31608 21.5612 6.3166C21.4411 6.34662 21.3818 6.3626 21.2625 6.39379L21.2614 6.55518C21.1982 6.50801 21.1666 6.48384 21.1039 6.43589C20.8747 6.4967 20.7608 6.5275 20.5316 6.58987L20.3168 6.87523C20.3145 7.16604 20.3133 7.31028 20.3117 7.59875C20.3917 7.6619 20.4318 7.69231 20.5117 7.75429L21.2084 7.56912L21.2045 8.08214C20.9628 8.14529 20.8415 8.17726 20.6002 8.24158L20.6018 8.03926L20.302 8.11878V8.66064L20.5955 8.58346C20.5959 8.50978 20.5959 8.47431 20.5971 8.40063C20.6645 8.4552 20.6981 8.48327 20.7659 8.53941C20.9939 8.47859 21.1082 8.44858 21.3366 8.38893L21.5514 8.10631L21.5576 7.36914L21.3581 7.20931C21.0789 7.28221 20.9394 7.31963 20.661 7.39409Z" fill="white"/>
<path d="M4.01065 20.1474L4.85931 19.3003L4.91545 18.5082L3.27271 20.1474L4.69909 21.5703L4.74743 20.8834L4.01065 20.1474Z" fill="#E22531"/>
<path d="M20.3876 36.4931L19.5919 35.6986C19.3994 35.7532 19.2059 35.8054 19.0115 35.8553L20.3876 37.2295L22.8723 34.749C22.5371 34.8348 22.1975 34.9303 21.8525 35.0309L20.3876 36.4931Z" fill="#E22531"/>
<path d="M32.672 24.2308L28.2236 28.6717C28.4179 28.717 28.61 28.7709 28.7994 28.8335L33.6216 24.0203C33.3067 24.0977 32.9901 24.1679 32.672 24.2308Z" fill="#E22531"/>
<path d="M8.40701 24.5359C8.37504 24.5409 8.34295 24.5453 8.31072 24.5492L7.74976 24.6162L11.1674 28.0269C11.2417 27.8605 11.3233 27.6965 11.4122 27.5349L8.40701 24.5359Z" fill="#E22531"/>
<path d="M19.1145 5.07324L20.388 3.80162L21.0776 4.49006C21.2692 4.43548 21.4619 4.38233 21.6558 4.33062L20.388 3.06562L18.0896 5.35938C18.4276 5.27205 18.7695 5.17499 19.1145 5.07324Z" fill="#E22531"/>
<path d="M26.6471 9.31283C26.435 9.3309 26.2235 9.35495 26.0128 9.38495C26.0035 9.38573 25.994 9.38677 25.9844 9.38807L31.1527 14.5479L31.2268 14.2352L31.5379 14.1947L26.6471 9.31283Z" fill="#E22531"/>
<path d="M12.1027 11.335L11.0303 12.4047C11.173 12.5086 11.3082 12.6193 11.4361 12.7368L12.6956 11.4792C12.4846 11.4376 12.287 11.3896 12.1027 11.335Z" fill="#E22531"/>
<path d="M25.3938 13.4219C25.471 13.2928 25.54 13.1548 25.6051 13.0246C25.6686 12.8886 25.7275 12.7568 25.7789 12.6204C25.7068 12.6469 25.6324 12.6668 25.5587 12.6894C25.485 12.712 25.4098 12.7295 25.3353 12.749C25.2707 12.8809 25.2011 13.0103 25.1267 13.1369C25.0501 13.2659 24.9686 13.3919 24.8823 13.5146C24.9685 13.5045 25.0535 13.4889 25.1392 13.4737C25.2246 13.4609 25.3088 13.4398 25.3938 13.4219Z" fill="#E22531"/>
<path d="M25.6094 13.3686C25.7392 13.4528 25.8709 13.5261 26.0097 13.601C26.1477 13.6747 26.29 13.7413 26.4374 13.8076L26.1653 13.9031L25.8893 13.9873C25.6066 13.8314 25.3447 13.6661 25.1018 13.4797L25.2297 13.4571L25.3568 13.4298C25.4417 13.4127 25.5259 13.3913 25.6094 13.3686Z" fill="#E22531"/>
<path d="M26.6765 13.0066C26.74 12.8698 26.7946 12.7256 26.8464 12.5899C26.8959 12.4472 26.9408 12.3104 26.9782 12.1701C26.9088 12.2028 26.8367 12.2309 26.7657 12.2613C26.6944 12.2909 26.6211 12.3155 26.5494 12.3432C26.4986 12.4807 26.4427 12.6164 26.3818 12.7497C26.3188 12.886 26.2507 13.0198 26.1775 13.1509C26.2617 13.1306 26.3452 13.1081 26.4282 13.0834C26.512 13.0624 26.5942 13.0324 26.6765 13.0066Z" fill="#E22531"/>
<path d="M26.8856 12.9324C27.0228 13.0025 27.1616 13.0622 27.3074 13.1222C27.4542 13.1814 27.6031 13.2354 27.7538 13.284C27.667 13.3253 27.5799 13.3662 27.4926 13.4068L27.2267 13.519C26.9383 13.3986 26.6593 13.2567 26.3921 13.0945L26.5168 13.059L26.6404 13.0189C26.7231 12.9928 26.8045 12.9628 26.8856 12.9324Z" fill="#E22531"/>
<path d="M24.0415 13.5786C24.2412 13.3572 24.4254 13.1222 24.5927 12.8754C24.5151 12.8845 24.4372 12.8912 24.3592 12.8956L24.2422 12.903L24.1241 12.9062C23.9378 13.1396 23.7368 13.361 23.5222 13.5689C23.6088 13.5732 23.6949 13.5747 23.7818 13.5778L24.0415 13.5786Z" fill="#E22531"/>
<path d="M24.2638 13.5722C24.4863 13.7905 24.7239 13.9928 24.9748 14.1777L24.8322 14.1971L24.6899 14.2116L24.5476 14.2248L24.4057 14.2334C24.1655 14.0256 23.9461 13.8046 23.7441 13.5773C23.8311 13.5804 23.9172 13.5785 24.0042 13.5793C24.0907 13.5777 24.1772 13.5754 24.2638 13.5722Z" fill="#E22531"/>
<path d="M22.6823 13.4893C22.9145 13.2996 23.1375 13.0988 23.3504 12.8878C23.1896 12.8761 23.0283 12.8598 22.8666 12.839C22.6411 13.038 22.4082 13.2285 22.1685 13.4101C22.3392 13.4399 22.5105 13.4662 22.6823 13.4893Z" fill="#E22531"/>
<path d="M22.9029 13.5169C23.083 13.7629 23.2768 14.0022 23.4884 14.2373C23.3018 14.2274 23.1171 14.2127 22.9341 14.1933C22.7419 13.952 22.5597 13.7029 22.3879 13.4467C22.5591 13.4728 22.7306 13.4974 22.9029 13.5169Z" fill="#E22531"/>
<path d="M21.3403 13.249C21.5894 13.0748 21.8346 12.8966 22.0724 12.7138C21.9082 12.6829 21.7433 12.6502 21.5777 12.6159C21.3329 12.7908 21.0846 12.9646 20.8328 13.1371C21.0017 13.1753 21.1709 13.2126 21.3403 13.249Z" fill="#E22531"/>
<path d="M21.558 13.294C21.7159 13.5544 21.88 13.812 22.0546 14.0693C21.8779 14.0387 21.7015 14.0057 21.5256 13.9703C21.3611 13.7091 21.204 13.4483 21.05 13.1856C21.2188 13.2218 21.3884 13.2593 21.558 13.294Z" fill="#E22531"/>
<path d="M20.0099 12.9502L20.7642 12.4348L20.2559 12.3198C20.0025 12.4914 19.7499 12.6648 19.502 12.8407C19.6709 12.8763 19.8402 12.9128 20.0099 12.9502Z" fill="#E22531"/>
<path d="M20.2266 12.9984L20.6855 13.7886L20.1779 13.6736C20.0259 13.4112 19.8746 13.1481 19.7195 12.8869L20.2266 12.9984Z" fill="#E22531"/>
<path d="M18.6723 12.686C18.912 12.4989 19.1611 12.318 19.4134 12.1403C19.2385 12.1057 19.0619 12.0732 18.8836 12.0428C18.6354 12.2248 18.3934 12.4149 18.1577 12.6127C18.3298 12.6338 18.5013 12.6582 18.6723 12.686Z" fill="#E22531"/>
<path d="M18.8916 12.7226C19.0569 12.9787 19.2132 13.236 19.366 13.4956C19.2005 13.4616 19.0357 13.4293 18.8717 13.3989C18.7147 13.1416 18.5502 12.889 18.3782 12.6415L18.6351 12.6805L18.8916 12.7226Z" fill="#E22531"/>
<path d="M17.3165 12.5474C17.5309 12.3294 17.7617 12.124 18.003 11.9225L17.7266 11.8983L17.4483 11.8819C17.276 12.04 17.1099 12.2048 16.9505 12.3758C16.8978 12.4324 16.8468 12.4904 16.7969 12.5466C16.8838 12.5442 16.97 12.5415 17.0569 12.5427L17.1867 12.5435L17.3165 12.5474Z" fill="#E22531"/>
<path d="M17.5392 12.5572C17.7329 12.7903 17.9111 13.0336 18.0779 13.2769L17.8358 13.2507C17.7551 13.2445 17.6744 13.2359 17.5945 13.2312C17.4156 12.9914 17.2236 12.7616 17.0195 12.5428C17.1929 12.542 17.3661 12.5468 17.5392 12.5572Z" fill="#E22531"/>
<path d="M15.9573 12.6248C16.0428 12.499 16.1335 12.3745 16.2294 12.2514C16.3253 12.1309 16.4262 12.0065 16.5326 11.89C16.4379 11.8954 16.3432 11.9034 16.2489 11.9138C16.1537 11.9208 16.0598 11.9352 15.9651 11.9477C15.8676 12.072 15.776 12.2046 15.6891 12.3313C15.6033 12.4642 15.5222 12.5921 15.4478 12.7266C15.6164 12.686 15.7863 12.6521 15.9573 12.6248Z" fill="#E22531"/>
<path d="M16.1774 12.5943C16.2932 12.6906 16.4051 12.7955 16.5119 12.896C16.6191 13.0028 16.7208 13.1054 16.8187 13.2153C16.662 13.2207 16.5056 13.2316 16.3497 13.248C16.2449 13.1463 16.1357 13.0492 16.0215 12.9529C15.9077 12.8613 15.788 12.7643 15.6648 12.6777C15.834 12.6423 16.0055 12.6161 16.1774 12.5943Z" fill="#E22531"/>
<path d="M14.643 12.9781C14.7549 12.6935 14.8921 12.4155 15.0527 12.1372C14.9607 12.1645 14.8687 12.1902 14.7775 12.2202C14.6867 12.2514 14.5959 12.2807 14.5062 12.3138C14.3725 12.5958 14.2589 12.887 14.1663 13.1851C14.2442 13.1466 14.323 13.1106 14.4025 13.0771L14.5218 13.0252L14.643 12.9781Z" fill="#E22531"/>
<path d="M14.852 12.9012C14.9196 12.9376 14.9856 12.9739 15.0501 13.01C15.1153 13.0487 15.1794 13.088 15.2423 13.1277C15.3674 13.2049 15.489 13.2907 15.6048 13.376C15.4543 13.4127 15.3052 13.4554 15.1581 13.5039C14.9703 13.386 14.7756 13.2796 14.5749 13.1854C14.5073 13.1532 14.4386 13.122 14.3687 13.0919C14.4478 13.0572 14.5273 13.0225 14.6084 12.9917C14.6891 12.9605 14.7698 12.9281 14.852 12.9012Z" fill="#E22531"/>
<path d="M13.4296 13.5955C13.4847 13.2953 13.561 12.9939 13.6585 12.6911C13.423 12.8794 13.1213 13.2131 13.1213 13.2131C13.0843 13.3682 13.0963 13.2794 13.0675 13.431C13.0419 13.5825 13.0191 13.7344 12.9993 13.8867L13.2125 13.7378C13.2835 13.6875 13.3575 13.6427 13.4296 13.5955Z" fill="#E22531"/>
<path d="M13.619 13.479C13.6923 13.5001 13.7643 13.5223 13.835 13.5457C13.9071 13.5691 13.9781 13.5952 14.0482 13.6197C14.1179 13.6462 14.1866 13.6728 14.2545 13.6993C14.3231 13.7286 14.3904 13.7581 14.4564 13.7878C14.3149 13.8555 14.176 13.9286 14.04 14.0068C13.7664 13.9086 13.4783 13.8252 13.1816 13.7589C13.2518 13.7082 13.3259 13.6626 13.398 13.6154L13.5071 13.5449L13.619 13.479Z" fill="#E22531"/>
<path d="M17.1042 28.2663C16.9227 28.5248 16.723 28.77 16.5066 29L16.652 28.993L16.7966 28.9817L16.9413 28.9684L17.0843 28.9517C17.2855 28.7002 17.4632 28.4394 17.6231 28.1763C17.5373 28.1946 17.4508 28.209 17.3642 28.2258C17.2781 28.241 17.1911 28.2527 17.1042 28.2663Z" fill="#E22531"/>
<path d="M18.6659 27.8945C18.3965 27.7452 18.1357 27.585 17.8901 27.417C18.0476 27.3754 18.2052 27.3297 18.363 27.2798C18.6199 27.4357 18.8877 27.5807 19.1629 27.7218C18.9982 27.7822 18.8325 27.8398 18.6659 27.8945Z" fill="#E22531"/>
<path d="M18.451 27.9622C18.3142 28.2446 18.1632 28.5199 17.9988 28.7871C18.1828 28.7431 18.3648 28.6959 18.5438 28.6417C18.695 28.3634 18.8276 28.0796 18.9511 27.7977C18.7856 27.856 18.6188 27.9108 18.451 27.9622Z" fill="#E22531"/>
<path d="M19.959 27.4077C19.6787 27.2795 19.4011 27.1469 19.1313 27.0089C19.2894 26.9476 19.4478 26.8846 19.6065 26.8199C19.8828 26.9503 20.1621 27.0784 20.4443 27.2042C20.2829 27.2723 20.1211 27.3401 19.959 27.4077Z" fill="#E22531"/>
<path d="M19.7504 27.4928C19.6401 27.7839 19.5226 28.0722 19.3979 28.3574C19.5695 28.294 19.739 28.2288 19.9067 28.1617C20.0228 27.8709 20.1316 27.5821 20.2369 27.2908C20.0752 27.3597 19.913 27.427 19.7504 27.4928Z" fill="#E22531"/>
<path d="M21.2297 26.8667L20.3838 26.4917L20.8695 26.2835C21.1529 26.4083 21.4363 26.5338 21.7162 26.664C21.5538 26.731 21.3916 26.7986 21.2297 26.8667Z" fill="#E22531"/>
<path d="M21.023 26.9551L20.71 27.8271L21.1949 27.619C21.2982 27.3293 21.4007 27.0401 21.5079 26.7508L21.023 26.9551Z" fill="#E22531"/>
<path d="M22.5144 26.3584C22.2408 26.2157 21.9601 26.0808 21.6755 25.9495C21.8437 25.8829 22.0138 25.8184 22.1858 25.7557C22.4681 25.8929 22.7472 26.0391 23.0138 26.1904C22.8464 26.2435 22.6799 26.2995 22.5144 26.3584Z" fill="#E22531"/>
<path d="M22.3028 26.4353C22.1863 26.7189 22.0759 27.0048 21.9714 27.293C22.1301 27.2286 22.2884 27.1655 22.4462 27.1066C22.5554 26.8224 22.6712 26.5418 22.7994 26.2607L22.5503 26.3461L22.3028 26.4353Z" fill="#E22531"/>
<path d="M23.8404 25.9722C23.5866 25.7948 23.3196 25.6315 23.042 25.4751L23.3125 25.4003L23.5874 25.3325C23.7234 25.4202 23.8548 25.5044 23.9838 25.5968C24.0485 25.642 24.1118 25.6876 24.1737 25.7336C24.2363 25.7809 24.2979 25.8285 24.3584 25.8763C24.2715 25.8895 24.1842 25.9024 24.0984 25.9195L23.969 25.9441L23.8404 25.9722Z" fill="#E22531"/>
<path d="M23.621 26.023C23.4737 26.2887 23.3384 26.561 23.2156 26.8389L23.4522 26.7683C23.5312 26.746 23.6103 26.7246 23.6896 26.7044C23.8222 26.4377 23.9691 26.1723 24.136 25.9134C23.9631 25.9441 23.7914 25.9807 23.621 26.023Z" fill="#E22531"/>
<path d="M25.2095 25.7999C25.1014 25.6905 24.9882 25.583 24.87 25.4775C24.7519 25.375 24.6287 25.2705 24.5012 25.1739C24.5971 25.1602 24.693 25.1528 24.7889 25.1442C24.8844 25.1349 24.9815 25.1314 25.0778 25.1263C25.3134 25.3373 25.5333 25.5651 25.7358 25.8081C25.5608 25.7976 25.385 25.796 25.2095 25.7999Z" fill="#E22531"/>
<path d="M24.9837 25.8097C24.8874 25.9278 24.7947 26.0488 24.7058 26.1726C24.6193 26.2947 24.5368 26.4195 24.4583 26.5469C24.6165 26.5223 24.7744 26.5056 24.9319 26.4931C25.1068 26.2474 25.3003 26.0156 25.5108 25.7996C25.3348 25.7957 25.1592 25.7991 24.9837 25.8097Z" fill="#E22531"/>
<path d="M26.5836 25.9115C26.4153 25.6436 26.2274 25.3884 26.0215 25.1482C26.1178 25.1591 26.2144 25.1677 26.3107 25.1805C26.4066 25.195 26.5029 25.2078 26.5984 25.2238C26.7875 25.4889 26.954 25.7559 27.0962 26.0308C27.0118 26.0066 26.9267 25.985 26.8409 25.9661L26.713 25.9364L26.5836 25.9115Z" fill="#E22531"/>
<path d="M26.3617 25.8734C26.3016 25.9208 26.2424 25.9691 26.1839 26.0184C26.126 26.0688 26.0694 26.1194 26.0143 26.1701C25.905 26.2705 25.7998 26.3753 25.699 26.4843C25.8554 26.4928 26.0114 26.5082 26.1668 26.5303C26.3321 26.3779 26.5067 26.2358 26.6895 26.105C26.7514 26.0608 26.8144 26.0175 26.8786 25.9752C26.7928 25.9541 26.7079 25.9334 26.6209 25.919C26.5348 25.9023 26.4486 25.8843 26.3617 25.8734Z" fill="#E22531"/>
<path d="M27.9058 26.3039C27.7931 26.0095 27.6617 25.7225 27.5125 25.4448C27.6037 25.4748 27.6957 25.5028 27.7861 25.5336L28.0559 25.6331C28.1206 25.7812 28.181 25.9282 28.2371 26.0739C28.2915 26.2229 28.3417 26.3701 28.388 26.5156L28.149 26.4069C28.0691 26.3694 27.9869 26.3386 27.9058 26.3039Z" fill="#E22531"/>
<path d="M27.6961 26.2225C27.6272 26.2581 27.5595 26.2935 27.493 26.3286C27.4255 26.366 27.3593 26.405 27.2945 26.4424C27.2298 26.4808 27.1662 26.52 27.1035 26.5597C27.0404 26.6014 26.9788 26.642 26.918 26.6849C27.0712 26.7246 27.2224 26.7741 27.3729 26.8271C27.6278 26.6775 27.8999 26.5418 28.1834 26.4221C28.1038 26.3839 28.0224 26.3523 27.9413 26.3184L27.8193 26.2681L27.6961 26.2225Z" fill="#E22531"/>
<path d="M17.3063 27.7322C17.2055 27.8109 17.1078 27.8917 17.0132 27.9746C17.1141 28.0635 17.2182 28.1466 17.327 28.2319L17.5855 28.1844C17.672 28.1645 17.7574 28.1473 17.8427 28.1275C17.6556 28.0008 17.4759 27.8702 17.3063 27.7322Z" fill="#E22531"/>
</g>
</svg>
