<svg width="46" height="40" viewBox="0 0 46 40" fill="none" xmlns="http://www.w3.org/2000/svg">
<g clip-path="url(#clip0_246_4122)">
<mask id="mask0_246_4122" style="mask-type:luminance" maskUnits="userSpaceOnUse" x="0" y="0" width="46" height="40">
<path d="M0.140381 0.574219H45.9762V39.9043H0.140381V0.574219Z" fill="white"/>
</mask>
<g mask="url(#mask0_246_4122)">
<path d="M23.0432 1.02783C12.5039 1.02783 3.95923 9.57252 3.95923 20.113C3.95923 30.6526 12.5039 39.197 23.0432 39.197C33.584 39.197 42.1272 30.6526 42.1272 20.113C42.1272 9.57252 33.584 1.02783 23.0432 1.02783Z" fill="#FC4E00"/>
</g>
<mask id="mask1_246_4122" style="mask-type:luminance" maskUnits="userSpaceOnUse" x="0" y="0" width="46" height="40">
<path d="M0.140381 0.574219H45.9762V39.9043H0.140381V0.574219Z" fill="white"/>
</mask>
<g mask="url(#mask1_246_4122)">
<path d="M23.043 1.48206C12.7705 1.48206 4.41297 9.83956 4.41297 20.1133C4.41297 30.3859 12.7705 38.7434 23.043 38.7434C33.3156 38.7434 41.6731 30.3859 41.6731 20.1133C41.6731 9.83956 33.3159 1.48206 23.043 1.48206ZM23.043 39.6515C12.2704 39.6515 3.50513 30.8874 3.50513 20.1133C3.50513 9.33921 12.2704 0.574219 23.043 0.574219C33.8171 0.574219 42.5821 9.33951 42.5821 20.1133C42.5821 30.8871 33.8171 39.6515 23.043 39.6515Z" fill="white"/>
</g>
<mask id="mask2_246_4122" style="mask-type:luminance" maskUnits="userSpaceOnUse" x="0" y="0" width="46" height="40">
<path d="M0.140381 0.574219H45.9762V39.9043H0.140381V0.574219Z" fill="white"/>
</mask>
<g mask="url(#mask2_246_4122)">
<path d="M23.0432 1.02783C12.5039 1.02783 3.95923 9.57252 3.95923 20.113C3.95923 30.6526 12.5039 39.197 23.0432 39.197C33.584 39.197 42.1272 30.6526 42.1272 20.113C42.1272 9.57252 33.584 1.02783 23.0432 1.02783Z" fill="#FC4E00"/>
</g>
<mask id="mask3_246_4122" style="mask-type:luminance" maskUnits="userSpaceOnUse" x="0" y="0" width="46" height="40">
<path d="M0.140381 0.574219H45.9762V39.9043H0.140381V0.574219Z" fill="white"/>
</mask>
<g mask="url(#mask3_246_4122)">
<path d="M14.9424 33.3283C15.134 33.4519 15.2774 33.4436 15.3709 33.3005L15.4667 33.155C15.5613 33.0097 15.5128 32.875 15.3212 32.7508L14.4905 32.2134L14.1117 32.791L14.9424 33.3283ZM14.7715 33.5882L13.942 33.0497L13.5676 33.6205L14.3971 34.1575C14.5899 34.2823 14.7321 34.2731 14.8268 34.1312L14.917 33.9925C15.0116 33.847 14.9643 33.7127 14.7715 33.5882ZM15.2854 33.7382C15.3418 33.8872 15.3226 34.034 15.2277 34.1785L15.1201 34.3423C15.0302 34.4798 14.9054 34.5608 14.7493 34.5839C14.6 34.6048 14.4307 34.5535 14.2412 34.4301L13.0918 33.6864L14.3601 31.7539L15.5084 32.4988C15.6988 32.6224 15.8133 32.7552 15.8526 32.9007C15.8952 33.0533 15.8697 33.1988 15.7787 33.3386L15.6654 33.5096C15.5708 33.6551 15.4448 33.7302 15.2854 33.7382Z" fill="#F3F3F4"/>
</g>
<mask id="mask4_246_4122" style="mask-type:luminance" maskUnits="userSpaceOnUse" x="0" y="0" width="46" height="40">
<path d="M0.140381 0.574219H45.9762V39.9043H0.140381V0.574219Z" fill="white"/>
</mask>
<g mask="url(#mask4_246_4122)">
<path d="M16.736 34.8009L16.215 34.562C16.0476 34.4845 15.9299 34.5179 15.8651 34.6601L15.8397 34.7119C15.7749 34.8518 15.827 34.9615 15.9944 35.0378L16.5154 35.277C16.6877 35.3565 16.8063 35.3256 16.8712 35.1845L16.8942 35.1324C16.9613 34.9903 16.9085 34.8798 16.736 34.8009ZM15.7853 35.2838C15.6317 35.213 15.5301 35.1145 15.4804 34.9881C15.4284 34.8598 15.4331 34.7293 15.4967 34.5942L15.5475 34.4821C15.612 34.3446 15.7081 34.2547 15.8397 34.2107C15.9692 34.1637 16.1109 34.1757 16.2646 34.2464L17.1231 34.6403L17.1264 34.6323C17.205 34.4647 17.1506 34.3378 16.9658 34.2535L16.013 33.8156L16.141 33.5361L17.0894 33.9717C17.2871 34.0626 17.415 34.1819 17.4729 34.3295C17.5344 34.4754 17.5225 34.6402 17.4372 34.824L17.1796 35.3796C17.1135 35.522 17.0134 35.6117 16.8791 35.6487C16.7567 35.6836 16.616 35.6638 16.4566 35.5922L15.7853 35.2838Z" fill="#F3F3F4"/>
</g>
<mask id="mask5_246_4122" style="mask-type:luminance" maskUnits="userSpaceOnUse" x="0" y="0" width="46" height="40">
<path d="M0.140381 0.574219H45.9762V39.9043H0.140381V0.574219Z" fill="white"/>
</mask>
<g mask="url(#mask5_246_4122)">
<path d="M18.8893 35.3798C19.0766 35.4376 19.2044 35.5085 19.2728 35.5925C19.3604 35.6985 19.3804 35.8294 19.3329 35.9852L19.2938 36.1088C19.2471 36.2625 19.1577 36.3592 19.0256 36.3989C18.923 36.4276 18.7763 36.4137 18.588 36.356L17.4858 36.0198L17.5772 35.7196L18.6791 36.0567C18.8312 36.1029 18.9233 36.0744 18.9552 35.9713L18.9759 35.9044C19.0073 35.7992 18.9484 35.7229 18.7959 35.6767L18.2251 35.5011C18.0403 35.4446 17.9134 35.3766 17.844 35.2944C17.7584 35.1873 17.7392 35.0572 17.7863 34.904L17.8244 34.7781C17.8729 34.6198 17.9619 34.5229 18.0912 34.4835C18.1953 34.4522 18.3408 34.4649 18.5244 34.5217L19.5813 34.844L19.489 35.1441L18.4389 34.823C18.2887 34.7769 18.1974 34.8069 18.1651 34.9132L18.1444 34.9815C18.1119 35.0865 18.171 35.1604 18.3189 35.2054L18.8893 35.3798Z" fill="#F3F3F4"/>
</g>
<mask id="mask6_246_4122" style="mask-type:luminance" maskUnits="userSpaceOnUse" x="0" y="0" width="46" height="40">
<path d="M0.140381 0.574219H45.9762V39.9043H0.140381V0.574219Z" fill="white"/>
</mask>
<g mask="url(#mask6_246_4122)">
<path d="M20.4153 35.8557L20.9836 35.9492C21.1682 35.9793 21.273 35.9181 21.298 35.7655L21.3072 35.7088C21.3328 35.5542 21.2531 35.4618 21.0682 35.4317L20.4999 35.3382C20.3161 35.3081 20.2121 35.3704 20.1879 35.5251L20.1787 35.5819C20.1537 35.7343 20.2325 35.8256 20.4153 35.8557ZM21.6688 35.7377L21.649 35.8566C21.6257 36.0039 21.5557 36.1156 21.4387 36.1917C21.3268 36.2693 21.1874 36.2944 21.0206 36.2668L20.0921 36.1145L20.0897 36.126C20.0607 36.307 20.1462 36.4136 20.3461 36.446L21.4423 36.6261L21.3926 36.9321L20.2999 36.7532C20.0876 36.7183 19.9325 36.6378 19.8345 36.5116C19.7383 36.3882 19.7063 36.2273 19.7384 36.029L19.8357 35.4376C19.8599 35.2885 19.9292 35.1753 20.0436 35.0978C20.1559 35.0193 20.2964 34.9939 20.465 35.0215L21.1998 35.1419C21.3686 35.1695 21.494 35.2388 21.5763 35.3498C21.6626 35.4594 21.6935 35.5887 21.6688 35.7377Z" fill="#F3F3F4"/>
</g>
<mask id="mask7_246_4122" style="mask-type:luminance" maskUnits="userSpaceOnUse" x="0" y="0" width="46" height="40">
<path d="M0.140381 0.574219H45.9762V39.9043H0.140381V0.574219Z" fill="white"/>
</mask>
<g mask="url(#mask7_246_4122)">
<path d="M22.3573 36.2785C22.3547 36.4069 22.377 36.505 22.4241 36.5731C22.4832 36.6531 22.5757 36.6943 22.7015 36.6967L23.1276 36.7073C23.2534 36.7107 23.3485 36.6736 23.413 36.5961C23.4623 36.5315 23.4885 36.4349 23.4916 36.3063L23.4973 36.0233C23.4996 35.8917 23.4777 35.7936 23.4304 35.7252C23.3691 35.6436 23.2756 35.6013 23.1498 35.5984L22.3724 35.5798L22.3573 36.2785ZM21.9956 36.288L22.0281 34.6787L22.3883 34.6867L22.378 35.2654L23.1832 35.2852C23.3957 35.2943 23.562 35.3616 23.6821 35.4872C23.8045 35.6108 23.8636 35.7853 23.8589 36.013L23.8533 36.3329C23.8486 36.5581 23.7827 36.7294 23.6558 36.8469C23.5298 36.9658 23.36 37.0249 23.1451 37.0214L22.6713 37.011C22.4564 37.0027 22.289 36.9361 22.1689 36.8111C22.0488 36.6875 21.9911 36.5131 21.9956 36.288Z" fill="#F3F3F4"/>
</g>
<mask id="mask8_246_4122" style="mask-type:luminance" maskUnits="userSpaceOnUse" x="0" y="0" width="46" height="40">
<path d="M0.140381 0.574219H45.9762V39.9043H0.140381V0.574219Z" fill="white"/>
</mask>
<g mask="url(#mask8_246_4122)">
<path d="M25.4434 36.045L24.8741 36.1121C24.6904 36.1338 24.6084 36.2223 24.6281 36.3776L24.6349 36.4356C24.6544 36.5879 24.755 36.655 24.9386 36.6331L25.507 36.5672C25.6952 36.5455 25.7796 36.4573 25.7601 36.3025L25.753 36.2461C25.7347 36.0902 25.6306 36.0231 25.4434 36.045ZM24.8901 36.9519C24.7225 36.9716 24.5839 36.9404 24.4743 36.8582C24.3633 36.776 24.2987 36.6608 24.2803 36.5128L24.2653 36.3904C24.2469 36.2401 24.2815 36.1133 24.3694 36.0068C24.456 35.8995 24.5817 35.8359 24.7493 35.8164L25.6862 35.7079L25.685 35.6984C25.6631 35.515 25.551 35.435 25.3488 35.4583L24.307 35.5807L24.27 35.2746L25.305 35.1534C25.5207 35.1282 25.692 35.1635 25.8189 35.2595C25.9479 35.3522 26.0249 35.4993 26.0499 35.7008L26.125 36.3096C26.1436 36.4643 26.1067 36.5938 26.0129 36.6952C25.9266 36.7887 25.7969 36.8458 25.6238 36.8665L24.8901 36.9519Z" fill="#F3F3F4"/>
</g>
<mask id="mask9_246_4122" style="mask-type:luminance" maskUnits="userSpaceOnUse" x="0" y="0" width="46" height="40">
<path d="M0.140381 0.574219H45.9762V39.9043H0.140381V0.574219Z" fill="white"/>
</mask>
<g mask="url(#mask9_246_4122)">
<path d="M26.675 36.6847L26.1702 34.4207L26.5283 34.3433L27.0331 36.6076L26.675 36.6847Z" fill="#F3F3F4"/>
</g>
<mask id="mask10_246_4122" style="mask-type:luminance" maskUnits="userSpaceOnUse" x="0" y="0" width="46" height="40">
<path d="M0.140381 0.574219H45.9762V39.9043H0.140381V0.574219Z" fill="white"/>
</mask>
<g mask="url(#mask10_246_4122)">
<path d="M27.485 36.4978L26.8657 34.2616L27.2215 34.167L27.8395 36.4032L27.485 36.4978Z" fill="#F3F3F4"/>
</g>
<mask id="mask11_246_4122" style="mask-type:luminance" maskUnits="userSpaceOnUse" x="0" y="0" width="46" height="40">
<path d="M0.140381 0.574219H45.9762V39.9043H0.140381V0.574219Z" fill="white"/>
</mask>
<g mask="url(#mask11_246_4122)">
<path d="M28.8917 35.1914L28.6457 34.6579C28.5368 34.4246 28.5209 34.1981 28.6004 33.9822C28.6699 33.7799 28.8326 33.6217 29.0881 33.5049L30.2118 32.998L30.3437 33.2831L29.2347 33.7847C29.0788 33.855 28.9782 33.9625 28.9331 34.107C28.8949 34.2362 28.9124 34.3749 28.9828 34.5228L29.2149 35.024C29.2819 35.1715 29.3771 35.2739 29.5003 35.3312C29.6403 35.3916 29.7881 35.3865 29.9439 35.3162L31.0528 34.8161L31.1844 35.1003L30.0618 35.6086C29.8063 35.7241 29.5787 35.7426 29.379 35.6639C29.1612 35.5792 28.9987 35.4216 28.8917 35.1914Z" fill="#F3F3F4"/>
</g>
<mask id="mask12_246_4122" style="mask-type:luminance" maskUnits="userSpaceOnUse" x="0" y="0" width="46" height="40">
<path d="M0.140381 0.574219H45.9762V39.9043H0.140381V0.574219Z" fill="white"/>
</mask>
<g mask="url(#mask12_246_4122)">
<path d="M31.6282 34.8172L30.4604 32.8061L30.778 32.626L31.9461 34.636L31.6282 34.8172Z" fill="#F3F3F4"/>
</g>
<mask id="mask13_246_4122" style="mask-type:luminance" maskUnits="userSpaceOnUse" x="0" y="0" width="46" height="40">
<path d="M0.140381 0.574219H45.9762V39.9043H0.140381V0.574219Z" fill="white"/>
</mask>
<g mask="url(#mask13_246_4122)">
<path d="M32.9406 33.989C32.7593 34.1174 32.579 34.167 32.3965 34.1357C32.2167 34.1059 32.0581 33.997 31.9207 33.8089L31.3269 32.9969L31.6191 32.7866L32.2013 33.5824C32.2868 33.6992 32.3699 33.7708 32.4521 33.7938C32.5605 33.8203 32.6668 33.7964 32.7709 33.7223L33.0205 33.5431C33.1275 33.467 33.1845 33.3742 33.1914 33.2648C33.197 33.1782 33.1577 33.0753 33.071 32.9587L32.4902 32.1639L32.7836 31.9536L33.3774 32.7656C33.5134 32.954 33.569 33.1377 33.5412 33.3169C33.5144 33.4967 33.4097 33.6518 33.2272 33.7823L32.9406 33.989Z" fill="#F3F3F4"/>
</g>
<mask id="mask14_246_4122" style="mask-type:luminance" maskUnits="userSpaceOnUse" x="0" y="0" width="46" height="40">
<path d="M0.140381 0.574219H45.9762V39.9043H0.140381V0.574219Z" fill="white"/>
</mask>
<g mask="url(#mask14_246_4122)">
<path d="M33.9687 32.2607C34.0584 32.3533 34.1443 32.4072 34.2263 32.4224C34.3235 32.4374 34.4178 32.4016 34.5093 32.3151L34.8153 32.0229C34.9054 31.9348 34.9454 31.8415 34.9354 31.7432C34.924 31.6614 34.8728 31.5744 34.7819 31.4823L34.5832 31.2777C34.4915 31.1831 34.4053 31.1284 34.3244 31.1136C34.2229 31.0992 34.1266 31.1355 34.0355 31.2224L33.4763 31.7559L33.9687 32.2607ZM33.7215 32.5218L32.5916 31.3608L32.8515 31.1127L33.2569 31.5308L33.8356 30.9773C33.9918 30.8343 34.1566 30.7646 34.3301 30.7682C34.5043 30.7696 34.6714 30.8524 34.8313 31.0166L35.0555 31.2467C35.2132 31.4093 35.2899 31.5768 35.2855 31.7491C35.2832 31.9212 35.2057 32.0829 35.0522 32.232L34.7124 32.5564C34.5567 32.7033 34.3915 32.7745 34.2168 32.7702C34.0447 32.7678 33.8785 32.6847 33.7215 32.5218Z" fill="#F3F3F4"/>
</g>
<mask id="mask15_246_4122" style="mask-type:luminance" maskUnits="userSpaceOnUse" x="0" y="0" width="46" height="40">
<path d="M0.140381 0.574219H45.9762V39.9043H0.140381V0.574219Z" fill="white"/>
</mask>
<g mask="url(#mask15_246_4122)">
<path d="M16.4267 4.25781L17.4489 6.33935L17.1222 6.49992L16.5828 5.40134L15.3502 6.00786L15.8884 7.10525L15.5626 7.26583L14.5403 5.18311L14.8662 5.02371L15.2092 5.72131L16.4441 5.11598L16.1011 4.41839L16.4267 4.25781Z" fill="#F3F3F4"/>
</g>
<mask id="mask16_246_4122" style="mask-type:luminance" maskUnits="userSpaceOnUse" x="0" y="0" width="46" height="40">
<path d="M0.140381 0.574219H45.9762V39.9043H0.140381V0.574219Z" fill="white"/>
</mask>
<g mask="url(#mask16_246_4122)">
<path d="M18.5577 5.09777L18.0091 5.27224C17.8323 5.32863 17.7676 5.43183 17.8151 5.58186L17.8335 5.63597C17.8796 5.78501 17.9917 5.82996 18.1697 5.77466L18.7171 5.59901C18.8984 5.54223 18.9655 5.43981 18.9181 5.29176L18.9007 5.23646C18.8522 5.08624 18.7392 5.04011 18.5577 5.09777ZM18.18 6.09817C18.0184 6.15002 17.8759 6.14539 17.7527 6.08428C17.6279 6.02425 17.5437 5.9237 17.4972 5.78146L17.4603 5.66259C17.4145 5.51867 17.4254 5.38619 17.4928 5.26515C17.5573 5.14292 17.6704 5.05588 17.8323 5.00403L18.7357 4.71778L18.7321 4.70831C18.6758 4.53167 18.5507 4.4743 18.3569 4.53621L17.3529 4.85528L17.2583 4.56046L18.2575 4.24286C18.4655 4.17681 18.6407 4.17957 18.783 4.25114C18.9273 4.31679 19.0314 4.44749 19.0926 4.64148L19.2786 5.227C19.3259 5.37722 19.3132 5.51118 19.2381 5.63035C19.1711 5.73878 19.0541 5.81961 18.8871 5.87284L18.18 6.09817Z" fill="#F3F3F4"/>
</g>
<mask id="mask17_246_4122" style="mask-type:luminance" maskUnits="userSpaceOnUse" x="0" y="0" width="46" height="40">
<path d="M0.140381 0.574219H45.9762V39.9043H0.140381V0.574219Z" fill="white"/>
</mask>
<g mask="url(#mask17_246_4122)">
<path d="M20.0977 3.80066L20.4502 3.74063C20.673 3.70238 20.8593 3.73708 21.0091 3.84472C21.158 3.95275 21.2523 4.1221 21.2921 4.35276L21.4598 5.33808L21.1017 5.39811L20.9364 4.43142C20.9123 4.28849 20.8669 4.18873 20.8001 4.13215C20.7146 4.05941 20.6084 4.03279 20.4768 4.05586L20.1717 4.10672C20.0445 4.129 19.9525 4.18873 19.8958 4.28592C19.8553 4.36084 19.8473 4.46976 19.8715 4.61269L20.0353 5.57968L19.6772 5.64089L19.5099 4.65675C19.4706 4.4259 19.5037 4.23486 19.6092 4.08366C19.7143 3.93205 19.8771 3.83772 20.0977 3.80066Z" fill="#F3F3F4"/>
</g>
<mask id="mask18_246_4122" style="mask-type:luminance" maskUnits="userSpaceOnUse" x="0" y="0" width="46" height="40">
<path d="M0.140381 0.574219H45.9762V39.9043H0.140381V0.574219Z" fill="white"/>
</mask>
<g mask="url(#mask18_246_4122)">
<path d="M23.0166 5.04561C22.8873 5.20115 22.7267 5.27932 22.5349 5.28011H22.311C22.1099 5.28109 21.9494 5.21791 21.8293 5.09056C21.7163 4.97148 21.6594 4.80322 21.6584 4.58577L21.656 3.53805L22.0165 3.53716L22.0186 4.58814C22.0186 4.7149 22.0463 4.80775 22.1019 4.8667C22.1644 4.93274 22.2461 4.96586 22.3468 4.96606L22.505 4.96488C22.6075 4.96488 22.6899 4.93136 22.7522 4.86433C22.8086 4.80618 22.8367 4.71332 22.8365 4.58577L22.8341 3.53598L23.1911 3.5348L23.1934 4.58459C23.1946 4.71174 23.2212 4.80549 23.2753 4.86315C23.339 4.92919 23.421 4.96231 23.5214 4.96251H23.6787C23.7825 4.96133 23.8647 4.9291 23.9271 4.86197C23.9835 4.80342 24.0116 4.71027 24.0114 4.58252L24.009 3.53243L24.3695 3.53125L24.3716 4.57897C24.3716 4.79721 24.3139 4.96606 24.1962 5.08494C24.0779 5.21308 23.9169 5.27696 23.7133 5.27656L23.4927 5.27774C23.3046 5.27774 23.1459 5.20036 23.0166 5.04561Z" fill="#F3F3F4"/>
</g>
<mask id="mask19_246_4122" style="mask-type:luminance" maskUnits="userSpaceOnUse" x="0" y="0" width="46" height="40">
<path d="M0.140381 0.574219H45.9762V39.9043H0.140381V0.574219Z" fill="white"/>
</mask>
<g mask="url(#mask19_246_4122)">
<path d="M25.5569 4.04383C25.4292 4.02214 25.3221 4.04836 25.2358 4.12249C25.1737 4.17926 25.1306 4.27941 25.1065 4.42293L24.9448 5.39081L24.5867 5.33078L24.9702 3.03662L25.3283 3.09783L25.2151 3.77473C25.3317 3.72253 25.4614 3.70686 25.5871 3.72978L25.9393 3.78862C26.162 3.82608 26.3265 3.92002 26.4325 4.07044C26.5382 4.22165 26.5721 4.41268 26.5343 4.64354L26.3689 5.62768L26.0108 5.56883L26.1726 4.60066C26.1968 4.45753 26.1853 4.349 26.1415 4.27389C26.0859 4.1767 25.9924 4.11697 25.8609 4.09469L25.5569 4.04383Z" fill="#F3F3F4"/>
</g>
<mask id="mask20_246_4122" style="mask-type:luminance" maskUnits="userSpaceOnUse" x="0" y="0" width="46" height="40">
<path d="M0.140381 0.574219H45.9762V39.9043H0.140381V0.574219Z" fill="white"/>
</mask>
<g mask="url(#mask20_246_4122)">
<path d="M27.9804 5.23836L27.4316 5.06625C27.2541 5.00987 27.1417 5.05689 27.0942 5.20731L27.077 5.26261C27.0309 5.41047 27.0953 5.51219 27.2734 5.56897L27.8219 5.74108C28.0025 5.79864 28.1161 5.75281 28.1629 5.60357L28.18 5.54916C28.2285 5.39893 28.1605 5.29514 27.9804 5.23836ZM27.0953 5.83925C26.9339 5.78839 26.8203 5.70293 26.7547 5.58287C26.6867 5.46133 26.6748 5.33092 26.7201 5.18779L26.757 5.0698C26.802 4.92549 26.8886 4.82258 27.0122 4.76255C27.1362 4.70026 27.2787 4.69444 27.4395 4.74511L28.3441 5.02929L28.3465 5.0213C28.4031 4.84368 28.3338 4.72431 28.1386 4.66319L27.1335 4.34796L27.2272 4.05225L28.2264 4.3663C28.4342 4.43214 28.5763 4.53535 28.6526 4.67591C28.7324 4.81312 28.7417 4.97912 28.6804 5.17389L28.4955 5.75941C28.4482 5.90963 28.3592 6.01254 28.2309 6.06666C28.1132 6.11653 27.9707 6.11506 27.8036 6.06222L27.0953 5.83925Z" fill="#F3F3F4"/>
</g>
<mask id="mask21_246_4122" style="mask-type:luminance" maskUnits="userSpaceOnUse" x="0" y="0" width="46" height="40">
<path d="M0.140381 0.574219H45.9762V39.9043H0.140381V0.574219Z" fill="white"/>
</mask>
<g mask="url(#mask21_246_4122)">
<path d="M35.9636 20.1132C35.9636 27.2485 30.1797 33.0336 23.0432 33.0336C15.9079 33.0336 10.1243 27.2485 10.1243 20.1132C10.1243 12.9767 15.9079 7.19189 23.0432 7.19189C30.1797 7.19189 35.9636 12.9767 35.9636 20.1132Z" fill="white"/>
</g>
<mask id="mask22_246_4122" style="mask-type:luminance" maskUnits="userSpaceOnUse" x="0" y="0" width="46" height="40">
<path d="M0.140381 0.574219H45.9762V39.9043H0.140381V0.574219Z" fill="white"/>
</mask>
<g mask="url(#mask22_246_4122)">
<path d="M35.4598 21.675C35.4478 21.6596 35.4328 21.6467 35.4158 21.6371C35.4023 21.6299 35.3873 21.6262 35.372 21.6265C35.283 21.6336 35.2599 21.7536 35.2413 21.8208C35.1255 22.2442 35.0008 22.6651 34.8672 23.0832L34.8601 23.1062L34.8693 23.1272C34.9559 23.3535 35.0207 23.588 35.0612 23.826C35.0692 23.8769 35.1038 23.9484 35.1685 23.9334C35.1848 23.9287 35.1996 23.92 35.2114 23.9079C35.3025 23.8272 35.3338 23.6734 35.3188 23.5581C35.293 23.3547 35.2461 23.1545 35.1789 22.9607C35.2842 22.6304 35.3835 22.293 35.4722 21.9639C35.4873 21.9074 35.5012 21.8554 35.4956 21.7965C35.4909 21.7536 35.4829 21.7087 35.4598 21.675Z" fill="#EBBC95"/>
</g>
<mask id="mask23_246_4122" style="mask-type:luminance" maskUnits="userSpaceOnUse" x="0" y="0" width="46" height="40">
<path d="M0.140381 0.574219H45.9762V39.9043H0.140381V0.574219Z" fill="white"/>
</mask>
<g mask="url(#mask23_246_4122)">
<path d="M34.6016 22.1798C34.4652 22.0943 34.3901 22.2966 34.3614 22.3912C34.2218 22.8379 34.0762 23.2827 33.9247 23.7255L33.9143 23.7577L33.9338 23.7855C34.0817 23.9934 34.218 24.2152 34.3348 24.4417C34.3821 24.5331 34.4723 24.5582 34.5403 24.4695C34.6051 24.3852 34.6639 24.2235 34.6166 24.1194C34.5317 23.9285 34.4325 23.7443 34.3197 23.5684C34.4374 23.2207 34.5531 22.8602 34.6604 22.5056C34.6858 22.4237 34.6997 22.3531 34.6699 22.27C34.6568 22.2336 34.633 22.2022 34.6016 22.1798Z" fill="#EBBC95"/>
</g>
<mask id="mask24_246_4122" style="mask-type:luminance" maskUnits="userSpaceOnUse" x="0" y="0" width="46" height="40">
<path d="M0.140381 0.574219H45.9762V39.9043H0.140381V0.574219Z" fill="white"/>
</mask>
<g mask="url(#mask24_246_4122)">
<path d="M33.1865 24.3158C33.3101 23.9461 33.4325 23.5753 33.5481 23.2127C33.5883 23.0891 33.5966 22.9552 33.4579 22.8928C33.4345 22.8816 33.4086 22.8768 33.3828 22.8789C33.2696 22.8928 33.2095 23.0383 33.1817 23.1305C33.0409 23.598 32.8903 24.0624 32.7302 24.5236L32.7151 24.5665L32.7488 24.5952C32.9579 24.7756 33.1587 24.9719 33.3435 25.1775C33.3647 25.2031 33.3922 25.2227 33.4233 25.2342C33.4233 25.2342 33.4786 25.241 33.4902 25.2375C33.6475 25.1937 33.7397 24.935 33.6359 24.8046C33.4981 24.631 33.3479 24.4676 33.1865 24.3158Z" fill="#EBBC95"/>
</g>
<mask id="mask25_246_4122" style="mask-type:luminance" maskUnits="userSpaceOnUse" x="0" y="0" width="46" height="40">
<path d="M0.140381 0.574219H45.9762V39.9043H0.140381V0.574219Z" fill="white"/>
</mask>
<g mask="url(#mask25_246_4122)">
<path d="M32.4358 25.6092C32.2434 25.4617 32.0429 25.3252 31.8352 25.2002C31.9482 24.8261 32.0638 24.4529 32.1782 24.0868C32.2025 24.0105 32.222 23.9286 32.1759 23.8547C32.1342 23.7875 32.0487 23.7598 31.9736 23.776C31.8364 23.805 31.7888 23.9203 31.753 24.0404C31.6155 24.5096 31.4762 24.9782 31.3349 25.4462L31.3201 25.4971L31.3662 25.5225C31.6362 25.6763 31.9002 25.8405 32.1575 26.0146C32.2394 26.0702 32.3376 26.0702 32.4092 25.9986C32.5074 25.9004 32.5618 25.7062 32.4358 25.6092Z" fill="#EBBC95"/>
</g>
<mask id="mask26_246_4122" style="mask-type:luminance" maskUnits="userSpaceOnUse" x="0" y="0" width="46" height="40">
<path d="M0.140381 0.574219H45.9762V39.9043H0.140381V0.574219Z" fill="white"/>
</mask>
<g mask="url(#mask26_246_4122)">
<path d="M31.0703 26.5257C30.8297 26.408 30.5838 26.3012 30.3334 26.2057C30.4349 25.8373 30.531 25.4617 30.6185 25.098C30.6348 25.032 30.6534 24.9569 30.6129 24.8957C30.5937 24.8684 30.5687 24.8457 30.5397 24.8291C30.5107 24.8126 30.4785 24.8026 30.4452 24.7999C30.279 24.7884 30.1856 24.9534 30.1495 25.0909C30.0282 25.5573 29.9124 26.0252 29.802 26.4943L29.7893 26.5511L29.8434 26.5706C30.1661 26.6908 30.4861 26.8179 30.8033 26.9518C30.8423 26.9713 30.8861 26.9791 30.9294 26.9742C30.9727 26.9692 31.0137 26.9518 31.0473 26.924C31.0933 26.884 31.1282 26.8327 31.1487 26.7753C31.1857 26.6827 31.173 26.5694 31.0703 26.5257Z" fill="#EBBC95"/>
</g>
<mask id="mask27_246_4122" style="mask-type:luminance" maskUnits="userSpaceOnUse" x="0" y="0" width="46" height="40">
<path d="M0.140381 0.574219H45.9762V39.9043H0.140381V0.574219Z" fill="white"/>
</mask>
<g mask="url(#mask27_246_4122)">
<path d="M29.7051 27.5776C29.6808 27.5493 29.6486 27.5288 29.6126 27.5188C29.3331 27.4241 29.0454 27.3443 28.7568 27.2831C28.8156 26.9365 28.8825 26.5831 28.9543 26.2321C28.9889 26.0958 28.9138 25.9663 28.7636 25.9639C28.5811 25.9618 28.4841 26.1014 28.4516 26.2608C28.399 26.5204 28.3489 26.7819 28.3014 27.0453C28.2704 27.2317 28.2412 27.4184 28.2138 27.6054L28.2056 27.6678L28.2656 27.6793C28.6388 27.7533 29.0155 27.8423 29.3828 27.9428C29.4159 27.9533 29.4475 27.9586 29.4774 27.9588C29.5803 27.9588 29.6773 27.8872 29.7211 27.7961C29.7581 27.721 29.7525 27.6356 29.7051 27.5776Z" fill="#EBBC95"/>
</g>
<mask id="mask28_246_4122" style="mask-type:luminance" maskUnits="userSpaceOnUse" x="0" y="0" width="46" height="40">
<path d="M0.140381 0.574219H45.9762V39.9043H0.140381V0.574219Z" fill="white"/>
</mask>
<g mask="url(#mask28_246_4122)">
<path d="M28.224 28.6085L28.2101 28.5969C28.1779 28.5759 28.1416 28.5621 28.1036 28.5564C27.7886 28.4956 27.4716 28.4455 27.1532 28.4062C27.1784 28.0832 27.2119 27.7608 27.2537 27.4395C27.2788 27.2443 27.1023 27.1494 26.9267 27.213C26.8042 27.2579 26.7315 27.3747 26.7279 27.5028C26.6774 27.9155 26.6462 28.3303 26.6345 28.746L26.6333 28.8072L26.6933 28.8128C27.1011 28.8498 27.5089 28.9054 27.904 28.9757C27.9328 28.9836 27.9605 28.9875 27.9871 28.9873C28.0401 28.9863 28.0918 28.9711 28.1369 28.9433C28.182 28.9154 28.2188 28.876 28.2435 28.8291C28.2608 28.794 28.2681 28.7549 28.2647 28.716C28.2612 28.6771 28.2471 28.6399 28.224 28.6085Z" fill="#EBBC95"/>
</g>
<mask id="mask29_246_4122" style="mask-type:luminance" maskUnits="userSpaceOnUse" x="0" y="0" width="46" height="40">
<path d="M0.140381 0.574219H45.9762V39.9043H0.140381V0.574219Z" fill="white"/>
</mask>
<g mask="url(#mask29_246_4122)">
<path d="M26.7976 29.6654C26.7651 29.6145 26.7015 29.5855 26.6358 29.5855C26.2993 29.5491 25.9619 29.5209 25.6239 29.5013C25.616 29.2099 25.6098 28.9204 25.6053 28.6327C25.6041 28.5624 25.5881 28.4929 25.521 28.4559C25.477 28.4341 25.4279 28.4249 25.379 28.4293C25.2069 28.4396 25.0798 28.5576 25.0833 28.7345C25.0866 29.0982 25.1028 29.4655 25.1318 29.8271L25.1363 29.8836L25.193 29.8872C25.6227 29.9161 26.0524 29.9472 26.4764 29.9785C26.4962 29.9817 26.5154 29.9832 26.5341 29.983C26.6624 29.983 26.8032 29.8999 26.8183 29.7612C26.823 29.7278 26.8156 29.6938 26.7976 29.6654Z" fill="#EBBC95"/>
</g>
<mask id="mask30_246_4122" style="mask-type:luminance" maskUnits="userSpaceOnUse" x="0" y="0" width="46" height="40">
<path d="M0.140381 0.574219H45.9762V39.9043H0.140381V0.574219Z" fill="white"/>
</mask>
<g mask="url(#mask30_246_4122)">
<path d="M25.4011 30.5813C25.3594 30.5523 25.3041 30.5431 25.2544 30.5431C24.9114 30.536 24.5625 30.5268 24.2194 30.5141C24.1674 30.2657 24.1257 30.0173 24.0934 29.7772C24.0807 29.6894 24.0322 29.6258 23.9456 29.6051C23.8547 29.5852 23.7597 29.6009 23.68 29.6489C23.5943 29.7009 23.5656 29.7923 23.5783 29.8881C23.6308 30.2055 23.6994 30.5201 23.7838 30.8305L23.7966 30.8782L23.845 30.879C24.2771 30.885 24.7079 30.8909 25.1332 30.8953C25.148 30.8977 25.1654 30.8989 25.1805 30.8989C25.2763 30.8989 25.3884 30.8654 25.4404 30.7776C25.4529 30.7574 25.4606 30.7346 25.4628 30.7109C25.465 30.6873 25.4617 30.6635 25.4531 30.6413C25.4416 30.6169 25.4236 30.5961 25.4011 30.5813Z" fill="#EBBC95"/>
</g>
<mask id="mask31_246_4122" style="mask-type:luminance" maskUnits="userSpaceOnUse" x="0" y="0" width="46" height="40">
<path d="M0.140381 0.574219H45.9762V39.9043H0.140381V0.574219Z" fill="white"/>
</mask>
<g mask="url(#mask31_246_4122)">
<path d="M24.1721 31.4221C24.1268 31.3922 24.0632 31.3899 24.0115 31.3887L22.9809 31.368C22.8969 31.1721 22.821 30.9728 22.7535 30.7706C22.7443 30.739 22.727 30.7104 22.7033 30.6875C22.6796 30.6646 22.6503 30.6483 22.6184 30.6402C22.5787 30.6309 22.5377 30.6285 22.4971 30.6331C22.4392 30.6367 22.3803 30.6482 22.333 30.6808C22.2614 30.7304 22.2499 30.818 22.2798 30.8966C22.3676 31.1542 22.475 31.4085 22.6009 31.6498L22.6184 31.6832L22.6565 31.6844C22.9324 31.6948 23.2098 31.7007 23.4845 31.7007C23.6347 31.7007 23.785 31.6983 23.9316 31.6959C24.002 31.6936 24.0842 31.6936 24.1478 31.6566C24.1671 31.6459 24.1839 31.6314 24.1974 31.6139C24.2109 31.5965 24.2207 31.5765 24.2262 31.5552C24.2312 31.5301 24.2288 31.5042 24.2192 31.4805C24.2095 31.4568 24.1931 31.4365 24.1721 31.4221Z" fill="#EBBC95"/>
</g>
<mask id="mask32_246_4122" style="mask-type:luminance" maskUnits="userSpaceOnUse" x="0" y="0" width="46" height="40">
<path d="M0.140381 0.574219H45.9762V39.9043H0.140381V0.574219Z" fill="white"/>
</mask>
<g mask="url(#mask32_246_4122)">
<path d="M23.1334 32.1138C23.0873 32.0609 22.9844 32.0494 22.9255 32.0482C22.594 32.0387 22.2614 32.0296 21.9299 32.018C21.8128 31.8726 21.7081 31.7177 21.6167 31.5549C21.5635 31.4588 21.426 31.4497 21.3337 31.4588C21.294 31.4609 21.2555 31.4729 21.2216 31.4937C21.1545 31.5375 21.1442 31.6241 21.1918 31.6889C21.3198 31.8897 21.4665 32.084 21.6259 32.2617L21.6445 32.2827L21.672 32.2836C22.0665 32.2988 22.4613 32.3066 22.8561 32.3069H22.8735C22.8873 32.3086 22.9013 32.3093 22.9152 32.309C22.9868 32.309 23.0642 32.2975 23.1195 32.2502C23.138 32.2358 23.1507 32.2154 23.1553 32.1925C23.1578 32.1786 23.1571 32.1643 23.1533 32.1507C23.1495 32.1371 23.1427 32.1245 23.1334 32.1138Z" fill="#EBBC95"/>
</g>
<mask id="mask33_246_4122" style="mask-type:luminance" maskUnits="userSpaceOnUse" x="0" y="0" width="46" height="40">
<path d="M0.140381 0.574219H45.9762V39.9043H0.140381V0.574219Z" fill="white"/>
</mask>
<g mask="url(#mask33_246_4122)">
<path d="M22.1943 32.5215C22.1411 32.4892 22.0535 32.4833 22.0059 32.4857C21.6986 32.4723 21.3917 32.4519 21.0854 32.4245C20.9524 32.3214 20.8226 32.2143 20.6962 32.1033C20.6199 32.0353 20.5217 32.0179 20.4235 32.0202C20.3878 32.0198 20.3527 32.0302 20.323 32.0501C20.2665 32.0942 20.2769 32.1843 20.3381 32.2189C20.494 32.36 20.6635 32.4853 20.844 32.593L20.8695 32.6013C21.2403 32.6451 21.6179 32.6752 21.9911 32.6924C22.012 32.6948 22.0335 32.6959 22.0556 32.6959C22.118 32.6959 22.2277 32.6891 22.2383 32.6081C22.2428 32.5676 22.2244 32.5401 22.1943 32.5215Z" fill="#EBBC95"/>
</g>
<mask id="mask34_246_4122" style="mask-type:luminance" maskUnits="userSpaceOnUse" x="0" y="0" width="46" height="40">
<path d="M0.140381 0.574219H45.9762V39.9043H0.140381V0.574219Z" fill="white"/>
</mask>
<g mask="url(#mask34_246_4122)">
<path d="M14.8049 14.6183C14.6121 14.4184 14.3128 14.749 14.4906 14.9314C14.6523 15.1207 14.8256 15.3043 15.0069 15.48C14.8589 15.7849 14.7104 16.0895 14.5612 16.3938C14.5056 16.507 14.5068 16.6351 14.6257 16.7069C14.7715 16.7912 14.8927 16.6768 14.9528 16.5496C15.1398 16.1575 15.3231 15.7636 15.5025 15.3679L15.5235 15.3253L15.4874 15.2928C15.2542 15.0739 15.0266 14.849 14.8049 14.6183Z" fill="#EBBC95"/>
</g>
<mask id="mask35_246_4122" style="mask-type:luminance" maskUnits="userSpaceOnUse" x="0" y="0" width="46" height="40">
<path d="M0.140381 0.574219H45.9762V39.9043H0.140381V0.574219Z" fill="white"/>
</mask>
<g mask="url(#mask35_246_4122)">
<path d="M16.1194 14.0809C15.9715 13.9712 15.7843 14.0357 15.7429 14.2217C15.714 14.3465 15.7926 14.4136 15.8793 14.4828L16.0812 14.6434C16.117 14.6712 16.489 14.9299 16.4834 14.945C16.354 15.2725 16.2176 15.5972 16.0744 15.9188C16.02 16.0389 16.0582 16.1879 16.1877 16.2388C16.3483 16.3 16.4592 16.1752 16.5168 16.0401C16.694 15.6265 16.8627 15.2094 17.0228 14.7889L17.0399 14.7416L16.9985 14.7126C16.7028 14.5059 16.4059 14.2936 16.1194 14.0809Z" fill="#EBBC95"/>
</g>
<mask id="mask36_246_4122" style="mask-type:luminance" maskUnits="userSpaceOnUse" x="0" y="0" width="46" height="40">
<path d="M0.140381 0.574219H45.9762V39.9043H0.140381V0.574219Z" fill="white"/>
</mask>
<g mask="url(#mask36_246_4122)">
<path d="M17.5632 13.4551C17.4547 13.3948 17.3263 13.3972 17.2408 13.4933C17.1518 13.5923 17.1486 13.7636 17.2778 13.8292C17.5445 13.9888 17.8145 14.1429 18.0875 14.2914C17.979 14.6309 17.8692 14.9719 17.7607 15.3078C17.7437 15.3503 17.7358 15.396 17.7377 15.4417C17.74 15.5621 17.8648 15.6198 17.971 15.6233C18.1188 15.6289 18.2055 15.5228 18.2492 15.3909C18.3915 14.9659 18.5243 14.5283 18.6443 14.0903L18.6582 14.0395L18.6121 14.014C18.2611 13.8303 17.9115 13.644 17.5632 13.4551Z" fill="#EBBC95"/>
</g>
<mask id="mask37_246_4122" style="mask-type:luminance" maskUnits="userSpaceOnUse" x="0" y="0" width="46" height="40">
<path d="M0.140381 0.574219H45.9762V39.9043H0.140381V0.574219Z" fill="white"/>
</mask>
<g mask="url(#mask37_246_4122)">
<path d="M20.3265 13.1978L20.2768 13.178C19.8773 13.0225 19.4784 12.8658 19.08 12.7078C18.9242 12.6466 18.7148 12.7054 18.6929 12.8973C18.6722 13.0972 18.9668 13.1652 19.1055 13.2253C19.3215 13.3213 19.5406 13.411 19.7625 13.4944C19.6966 13.8392 19.6243 14.1828 19.5455 14.5249C19.5373 14.557 19.5358 14.5904 19.5411 14.6231C19.5463 14.6558 19.5583 14.6871 19.5762 14.7149C19.5941 14.7428 19.6175 14.7666 19.6451 14.785C19.6726 14.8034 19.7036 14.816 19.7362 14.8218C19.9036 14.8529 20.034 14.7225 20.0642 14.5663C20.1532 14.1911 20.2295 13.8052 20.2895 13.4216L20.3265 13.1978Z" fill="#EBBC95"/>
</g>
<mask id="mask38_246_4122" style="mask-type:luminance" maskUnits="userSpaceOnUse" x="0" y="0" width="46" height="40">
<path d="M0.140381 0.574219H45.9762V39.9043H0.140381V0.574219Z" fill="white"/>
</mask>
<g mask="url(#mask38_246_4122)">
<path d="M20.2559 12.2332C20.2825 12.2586 20.3171 12.277 20.3565 12.2873C20.6903 12.4109 21.0322 12.5218 21.3755 12.6179C21.3629 12.952 21.3386 13.2856 21.3024 13.618C21.2877 13.7567 21.3835 13.8676 21.5186 13.8862C21.6919 13.9105 21.8191 13.7881 21.835 13.6192C21.8767 13.1954 21.8951 12.7634 21.8906 12.3358L21.8894 12.2861L21.8409 12.2734C21.7575 12.2514 21.6742 12.2284 21.5914 12.2042C21.2492 12.1018 20.9065 12.0014 20.5632 11.9029C20.4248 11.8635 20.234 11.8727 20.1971 12.0496C20.1898 12.0826 20.1915 12.117 20.2018 12.1493C20.2121 12.1815 20.2308 12.2105 20.2559 12.2332Z" fill="#EBBC95"/>
</g>
<mask id="mask39_246_4122" style="mask-type:luminance" maskUnits="userSpaceOnUse" x="0" y="0" width="46" height="40">
<path d="M0.140381 0.574219H45.9762V39.9043H0.140381V0.574219Z" fill="white"/>
</mask>
<g mask="url(#mask39_246_4122)">
<path d="M21.7933 11.4339C22.1491 11.5079 22.5104 11.5886 22.8697 11.6717C22.9101 11.9865 22.9372 12.3029 22.9508 12.6201C22.9576 12.7945 23.1125 12.8963 23.2823 12.8593C23.3442 12.845 23.3985 12.8077 23.434 12.7549C23.4696 12.7022 23.4838 12.6379 23.4739 12.5751C23.4521 12.1674 23.4012 11.7617 23.3216 11.3612L23.3121 11.3183L23.2707 11.3091C22.8284 11.2181 22.3857 11.1294 21.9424 11.0433C21.7978 11.0158 21.5899 11.0341 21.5911 11.2305C21.5923 11.3449 21.6869 11.4189 21.7933 11.4339Z" fill="#EBBC95"/>
</g>
<mask id="mask40_246_4122" style="mask-type:luminance" maskUnits="userSpaceOnUse" x="0" y="0" width="46" height="40">
<path d="M0.140381 0.574219H45.9762V39.9043H0.140381V0.574219Z" fill="white"/>
</mask>
<g mask="url(#mask40_246_4122)">
<path d="M22.8676 10.4333C22.8765 10.4496 22.8879 10.4644 22.9013 10.4771C22.9741 10.5498 23.0802 10.5534 23.1761 10.5697C23.2849 10.588 23.3922 10.6054 23.5019 10.6226C23.6105 10.6412 23.7178 10.6575 23.8278 10.6734C23.86 10.6794 24.1327 10.6977 24.1395 10.7187C24.2365 11.0085 24.3199 11.3042 24.3867 11.5931C24.4249 11.7501 24.5763 11.8182 24.7297 11.7859C24.8661 11.7569 24.9249 11.6242 24.8835 11.4973C24.7943 11.124 24.6762 10.7582 24.5301 10.4032L24.5162 10.3686L24.4793 10.3629C24.0357 10.2955 23.5913 10.2339 23.1462 10.1781C23.0663 10.1687 22.9614 10.1642 22.8954 10.2195C22.8307 10.2728 22.8298 10.3638 22.8676 10.4333Z" fill="#EBBC95"/>
</g>
<mask id="mask41_246_4122" style="mask-type:luminance" maskUnits="userSpaceOnUse" x="0" y="0" width="46" height="40">
<path d="M0.140381 0.574219H45.9762V39.9043H0.140381V0.574219Z" fill="white"/>
</mask>
<g mask="url(#mask41_246_4122)">
<path d="M23.9122 9.61342C23.963 9.67138 24.0414 9.69444 24.1153 9.70361C24.4551 9.74412 24.8085 9.78109 25.1666 9.81332C25.3182 10.0594 25.4518 10.3169 25.5673 10.586C25.6285 10.7283 25.8204 10.7827 25.9556 10.7212C26.0641 10.6718 26.0665 10.5526 26.0168 10.458C25.8607 10.1224 25.6768 9.80056 25.467 9.49572L25.4496 9.46911L25.4182 9.46674C24.9951 9.42885 24.5716 9.39425 24.1479 9.36295C24.0784 9.35703 23.9885 9.35023 23.9273 9.38956C23.8474 9.43924 23.8521 9.54422 23.9122 9.61342Z" fill="#EBBC95"/>
</g>
<mask id="mask42_246_4122" style="mask-type:luminance" maskUnits="userSpaceOnUse" x="0" y="0" width="46" height="40">
<path d="M0.140381 0.574219H45.9762V39.9043H0.140381V0.574219Z" fill="white"/>
</mask>
<g mask="url(#mask42_246_4122)">
<path d="M24.6721 8.81722C24.7229 8.90741 24.8303 8.93964 24.9273 8.94556C25.252 8.96626 25.5779 8.98814 25.9023 9.01239C26.0909 9.21744 26.2687 9.43223 26.4348 9.65586C26.5064 9.75966 26.6404 9.81762 26.7663 9.78302C26.9027 9.74606 26.8935 9.59702 26.8113 9.50801C26.6024 9.22999 26.3711 8.96958 26.1196 8.72939L26.1022 8.71312L26.0791 8.71224C25.6828 8.68326 25.2854 8.65664 24.8939 8.63476C24.7898 8.62766 24.5902 8.65664 24.6721 8.81722Z" fill="#EBBC95"/>
</g>
<mask id="mask43_246_4122" style="mask-type:luminance" maskUnits="userSpaceOnUse" x="0" y="0" width="46" height="40">
<path d="M0.140381 0.574219H45.9762V39.9043H0.140381V0.574219Z" fill="white"/>
</mask>
<g mask="url(#mask43_246_4122)">
<path d="M25.2091 8.21675C25.2178 8.22581 25.2271 8.23431 25.2369 8.24219C25.304 8.29305 25.386 8.31257 25.4679 8.3173C25.758 8.33327 26.0537 8.35515 26.347 8.38176C26.5665 8.53435 26.7779 8.70409 26.9754 8.8833C27.0597 8.96048 27.233 9.04594 27.3403 8.95722C27.4214 8.8901 27.3463 8.78955 27.2839 8.74342C27.0299 8.51519 26.7554 8.31097 26.4638 8.13336L26.4349 8.12538C26.0859 8.09669 25.7349 8.07333 25.3975 8.05618C25.3236 8.04346 25.1618 8.04465 25.1804 8.15791C25.184 8.17979 25.1955 8.19931 25.2091 8.21675Z" fill="#EBBC95"/>
</g>
<mask id="mask44_246_4122" style="mask-type:luminance" maskUnits="userSpaceOnUse" x="0" y="0" width="46" height="40">
<path d="M0.140381 0.574219H45.9762V39.9043H0.140381V0.574219Z" fill="white"/>
</mask>
<g mask="url(#mask44_246_4122)">
<path d="M25.4853 7.78713C25.5524 7.85869 25.6633 7.87259 25.7544 7.87939C26.0039 7.89921 26.2568 7.92789 26.5087 7.96486C26.7524 8.06895 26.9893 8.19256 27.2111 8.33213C27.2814 8.37619 27.5148 8.48591 27.56 8.36111C27.5875 8.28482 27.4873 8.22597 27.4328 8.19581C27.1491 8.03449 26.855 7.89214 26.5525 7.76968L26.5389 7.76613C26.2517 7.72275 25.9631 7.68921 25.6736 7.66559C25.6204 7.65997 25.469 7.63218 25.4551 7.71084C25.4507 7.73508 25.461 7.75933 25.4853 7.78713Z" fill="#EBBC95"/>
</g>
<mask id="mask45_246_4122" style="mask-type:luminance" maskUnits="userSpaceOnUse" x="0" y="0" width="46" height="40">
<path d="M0.140381 0.574219H45.9762V39.9043H0.140381V0.574219Z" fill="white"/>
</mask>
<g mask="url(#mask45_246_4122)">
<path d="M45.8804 14.757C45.5708 13.1548 44.7898 11.7939 44.0358 10.4783L43.5724 9.66981L42.5628 9.97943C42.2162 10.0868 41.8744 10.1929 41.529 10.2867C41.1038 10.3999 40.808 10.6758 40.651 11.1067C40.4261 11.7248 40.1783 12.3344 39.9082 12.9342C39.8654 12.8259 39.8141 12.7212 39.7547 12.621C39.3723 11.9672 38.6884 11.5538 37.8787 11.4902C36.949 11.4151 36.071 11.6277 35.2785 12.1234C34.3742 12.6882 33.6337 13.4056 33.0594 14.2705L35.0165 7.3999L33.6 7.78906C33.54 7.80533 33.4915 7.81804 33.4453 7.83194L32.9302 7.99252C32.5153 8.11967 32.1019 8.2489 31.6849 8.37014C31.2887 8.48695 31.0184 8.76078 30.9039 9.16266C30.4485 10.7591 29.993 12.3555 29.5374 13.9518L28.0544 14.4036C27.5875 14.5456 27.1439 14.6807 26.7004 14.8218C26.376 14.9267 26.1935 15.1811 26.1148 15.3183C26.1077 15.3298 26.1021 15.3416 26.0953 15.352C24.8096 15.0746 23.5921 15.3564 22.5467 16.1767C21.9772 16.6224 21.482 17.1557 21.0797 17.7567L21.3325 16.4713L19.7141 16.9645C19.2602 17.102 18.8213 17.236 18.3857 17.3756C18.0335 17.4876 17.8614 17.7869 17.807 17.8815C17.804 17.8882 17.8001 17.8944 17.7955 17.9002C16.801 17.6322 15.8248 17.7686 14.8812 18.3091L13.913 13.5925L11.1741 14.4048C9.7615 14.8357 8.35005 15.2677 6.93712 15.695C5.72883 16.0599 4.31501 16.5487 2.99139 17.401C1.80617 18.1657 1.04263 18.9916 0.588708 20C-0.149397 21.6427 0.0247795 23.0935 1.10828 24.3121C1.53752 24.801 2.07236 25.1858 2.67232 25.4373L3.7641 25.8785C3.32614 27.2545 2.61584 28.2721 1.5971 28.9847C1.08758 29.3393 0.789499 29.79 0.683337 30.3616C0.656723 30.5015 0.615027 30.6378 0.573627 30.7765C0.548393 30.8603 0.52375 30.9453 0.499698 31.0317L0.26283 32.0738L1.48857 32.0055L3.66237 31.3389C5.50941 30.7729 7.35763 30.2069 9.2026 29.6294C10.5377 29.2124 11.4988 28.5435 12.1411 27.5893C12.26 27.4127 12.3676 27.2323 12.4682 27.0522C12.6561 27.1852 12.8612 27.2921 13.0779 27.3698C13.7989 27.6286 14.6352 27.5777 15.3141 27.2303C15.9091 26.9274 16.4186 26.4771 16.869 25.8543C17.3623 26.2807 18.09 26.4215 18.8686 26.2195C19.2908 26.1091 19.6862 25.9141 20.0308 25.6464L20.0574 25.7446C20.1346 26.022 20.2248 26.3384 20.4143 26.6376C21.0702 27.675 22.2901 28.1544 23.6001 27.8841C24.6398 27.6703 25.506 27.0534 26.1749 26.0507C26.6507 25.3392 26.9973 24.5097 27.2643 23.4472C27.688 23.2139 28.1248 22.9711 28.5267 22.6467C28.6734 22.5287 28.8041 22.3995 28.923 22.2699C29.6818 22.7588 30.6718 22.7712 31.6145 22.2516C32.2855 21.8808 32.7256 21.3423 33.0399 20.8215C33.4326 21.0572 33.9409 21.2083 34.6178 21.1864C35.1131 21.1685 35.6046 21.0933 36.0825 20.9623C37.3913 20.6009 38.5313 19.8259 39.6704 18.5238C39.8428 18.326 40.0092 18.1231 40.1693 17.9152C40.2074 17.9578 40.2456 18.0007 40.2873 18.0421C40.9769 18.7388 41.8768 19.0079 42.9671 18.845C43.9364 18.6995 44.7727 18.19 45.3224 17.4116C45.8654 16.6434 46.0641 15.7006 45.8804 14.757Z" fill="white"/>
</g>
<mask id="mask46_246_4122" style="mask-type:luminance" maskUnits="userSpaceOnUse" x="0" y="0" width="46" height="40">
<path d="M0.140381 0.574219H45.9762V39.9043H0.140381V0.574219Z" fill="white"/>
</mask>
<g mask="url(#mask46_246_4122)">
<path d="M34.977 16.2713C35.9322 16.0102 36.7398 15.6198 37.33 14.869C37.5252 14.6206 37.6672 14.3432 37.6754 14.0165C37.6834 13.6746 37.4513 13.4481 37.1222 13.5291C36.898 13.5844 36.6635 13.685 36.489 13.8316C35.7358 14.4612 35.3487 15.3277 34.977 16.2713ZM26.0444 17.4148C25.4458 17.0857 24.8083 17.185 24.2769 17.6875C23.4347 18.4868 22.989 19.4987 22.7463 20.61C22.6413 21.087 22.594 21.5735 22.7303 22.0552C22.8758 22.5691 23.2685 22.7146 23.6946 22.3899C23.9096 22.2261 24.1012 22.0147 24.2606 21.7952C24.7284 21.1494 25.0451 20.4228 25.3072 19.6756C25.5718 18.9259 25.8016 18.1645 26.0444 17.4148ZM17.6579 19.9515C17.6233 19.9145 17.6165 19.9006 17.605 19.8938C17.5797 19.8792 17.5534 19.8664 17.5263 19.8557C16.9003 19.6096 16.3712 19.8004 15.9114 20.238C15.1351 20.9761 14.6928 21.9085 14.405 22.9213C14.2548 23.4459 14.1383 23.9818 14.2202 24.533C14.3116 25.1404 14.7333 25.3344 15.2392 24.9766C15.4933 24.7962 15.715 24.5489 15.8987 24.2926C16.3677 23.6387 16.6646 22.8938 16.9325 22.1406C17.1913 21.4105 17.4213 20.6701 17.6579 19.9515ZM33.8864 8.52148C33.7282 9.08186 33.5804 9.60972 33.429 10.1388C32.5336 13.2631 31.6391 16.3877 30.7456 19.5126C30.7051 19.6525 30.6694 19.7956 30.6614 19.9387C30.6475 20.1721 30.777 20.2714 31.0056 20.2217C31.3891 20.1398 31.6029 19.8512 31.7898 19.5449C32.2624 18.7733 32.4842 17.9093 32.7012 17.0407C33.1531 15.2431 34.1002 13.7808 35.6933 12.7851C36.3376 12.382 37.0491 12.2076 37.815 12.2688C39.0177 12.3646 39.6275 13.4922 39.094 14.6484C38.73 15.4397 38.1051 15.9824 37.3738 16.4191C36.6047 16.8778 35.7681 17.162 34.8892 17.3202C34.7171 17.3512 34.6488 17.4231 34.6603 17.5893C34.6754 17.8273 34.6535 18.0734 34.7068 18.302C34.7863 18.645 35.074 18.8449 35.4286 18.8564C36.0327 18.8751 36.5443 18.6219 37.0192 18.2848C37.8857 17.668 38.5416 16.8536 39.125 15.9779C40.0814 14.5443 40.7952 12.9894 41.3846 11.3745C41.4502 11.1956 41.5369 11.0927 41.7312 11.041C42.2209 10.9103 42.7026 10.7521 43.2038 10.5995C43.9916 11.9775 44.8084 13.328 45.1133 14.906C45.4102 16.4366 44.397 17.8389 42.8504 18.0722C42.0869 18.1866 41.4017 18.0559 40.8428 17.4911C40.6095 17.2566 40.4442 16.9816 40.3934 16.6374C40.6243 16.7172 40.8369 16.8039 41.0575 16.8639C41.4331 16.968 41.8084 16.9402 42.1712 16.8039C42.7798 16.575 43.0802 16.0681 42.9924 15.3599C42.878 14.4322 42.4888 13.596 42.0718 12.7227C41.976 12.9596 41.8985 13.1571 41.8187 13.3523C41.1258 15.034 40.2872 16.6306 39.0825 18.0086C38.2021 19.0146 37.1913 19.8453 35.8745 20.209C35.4545 20.3236 35.0227 20.3895 34.5876 20.4054C33.8681 20.432 33.235 20.2185 32.8236 19.5023C32.7533 19.664 32.7 19.7933 32.6388 19.9192C32.3132 20.5881 31.9102 21.1955 31.2365 21.5675C30.4464 22.0031 29.4566 21.9984 28.8684 21.1391C28.5961 21.4404 28.3509 21.7837 28.0369 22.0377C27.6729 22.3311 27.2547 22.56 26.8437 22.7862C26.6796 22.8764 26.5778 22.9595 26.5317 23.1514C26.3215 24.0223 26.0281 24.8645 25.5257 25.6177C25.0185 26.3753 24.3623 26.9286 23.443 27.1181C22.4609 27.3201 21.5622 26.991 21.0749 26.2206C20.9445 26.0136 20.8762 25.7688 20.807 25.5251C21.1293 25.725 21.4525 25.8519 21.8165 25.8856C22.3837 25.9385 22.8595 25.7504 23.2685 25.3693C23.7017 24.9659 24.0078 24.4715 24.2343 23.9321C24.4881 23.3249 24.7158 22.7072 24.9168 22.0806C24.6696 22.4304 24.4375 22.7909 24.174 23.1283C23.8679 23.5187 23.511 23.8653 23.0375 24.0545C22.245 24.3724 21.3774 24.0811 20.9282 23.3569L20.8209 23.1813C20.6671 23.4873 20.5387 23.7854 20.3726 24.0604C19.9727 24.727 19.4552 25.2572 18.6698 25.4627C18.0621 25.6209 17.4905 25.4917 17.2099 25.0676C17.062 24.8447 16.9937 24.5699 16.8955 24.3343C16.7154 24.63 16.5283 24.973 16.3088 25.293C15.9552 25.8069 15.529 26.2449 14.9607 26.5347C14.1049 26.9714 12.8099 26.7772 12.3445 25.7008C12.3327 25.6753 12.3096 25.6555 12.3211 25.6694C12.0508 26.1594 11.8083 26.6814 11.4919 27.1539C10.8854 28.0561 9.97965 28.5665 8.96801 28.883C6.43343 29.6766 3.89117 30.4494 1.35098 31.2303C1.33116 31.2362 1.30928 31.2339 1.2528 31.2395C1.32318 30.9855 1.40627 30.7486 1.45152 30.5049C1.52308 30.1202 1.71589 29.8547 2.04413 29.6246C3.37012 28.6981 4.14755 27.3884 4.58758 25.8542C5.32332 23.2957 6.06615 20.7393 6.80544 18.1807C6.81934 18.1334 6.82732 18.0837 6.84832 17.9924C6.52126 18.0953 6.21756 18.1807 5.92066 18.2893C4.70646 18.7328 3.6682 19.4168 3.01763 20.5671C2.27154 21.8887 2.22304 23.2425 2.92655 24.6057C2.93808 24.6288 2.94843 24.653 2.97859 24.7178C2.48537 24.5114 2.04565 24.1954 1.69282 23.7937C0.74683 22.7285 0.750083 21.548 1.30248 20.3211C1.74723 19.3325 2.52112 18.6346 3.41507 18.0583C4.57368 17.311 5.85117 16.8397 7.16355 16.4422C9.17116 15.8357 11.1764 15.22 13.184 14.6079C13.2177 14.5975 13.2523 14.5896 13.3171 14.5709L14.0401 18.1021C14.0215 18.1242 14.0147 18.1402 14.0031 18.1438C13.6403 18.2813 13.6427 18.2801 13.428 17.9521C13.2928 17.7451 13.1518 17.5432 13.0087 17.3421C12.5707 16.7264 11.9748 16.5185 11.2492 16.6918C10.7781 16.8051 10.3114 16.9435 9.84451 17.0821C9.78329 17.0996 9.71055 17.1747 9.69339 17.2371C9.23829 18.8195 8.78998 20.4045 8.3405 21.9892C8.3337 22.0147 8.33961 22.0436 8.33961 22.1057C9.3409 21.7997 10.3262 21.4984 11.3509 21.184C11.2249 21.6137 11.1176 22.0031 10.9895 22.3855C10.9697 22.4443 10.8624 22.4893 10.7861 22.5127C9.91163 22.7818 9.03602 23.0485 8.15922 23.3061C8.00102 23.3522 7.93064 23.4332 7.88332 23.5902C7.65 24.3689 7.4362 25.1543 7.1461 25.9122C6.76374 26.9123 6.10785 27.7211 5.22307 28.3368C5.17907 28.3653 5.1445 28.4063 5.12371 28.4545C5.57408 28.3193 6.02446 28.1854 6.47394 28.049C7.26646 27.8089 8.05306 27.5502 8.85001 27.3284C10.3194 26.9182 11.3115 25.9988 11.827 24.5744C12.0464 23.9679 12.1966 23.3374 12.4021 22.7262C12.8513 21.3966 13.585 20.2519 14.6975 19.3763C15.7393 18.5551 16.8772 18.2789 18.1606 18.8612C18.2691 18.6636 18.3717 18.4661 18.4838 18.2733C18.5175 18.2141 18.5648 18.1381 18.6225 18.1207C19.1746 17.9427 19.7303 17.7765 20.3137 17.5985C20.2963 17.6863 20.2883 17.7487 20.272 17.8075C19.7636 19.5866 19.2557 21.3655 18.7485 23.1443C18.7068 23.291 18.6642 23.44 18.6491 23.5902C18.6261 23.841 18.7716 23.9575 19.0164 23.8939C19.392 23.7946 19.6043 23.506 19.7879 23.1975C20.2513 22.4201 20.4973 21.5631 20.6913 20.6896C21.0391 19.1303 21.7541 17.7916 23.0293 16.7912C24.0054 16.0253 25.0948 15.8452 26.2777 16.2065C26.3413 16.2263 26.4025 16.2459 26.4658 16.2645C26.4705 16.2654 26.4785 16.2586 26.5075 16.2459C26.5953 16.0773 26.6887 15.8889 26.7928 15.7077C26.8251 15.6497 26.8807 15.5852 26.9395 15.5654C27.486 15.3921 28.0333 15.2271 28.626 15.0467C28.0679 17.2013 27.5194 19.3243 26.9602 21.4833C27.4872 21.2361 27.8453 20.8629 28.141 20.4264C28.7102 19.5842 29.0131 18.6302 29.289 17.6644C30.0767 14.9012 30.8693 12.1393 31.6547 9.3764C31.6952 9.23534 31.7611 9.16259 31.9054 9.11972C32.4969 8.94761 33.0859 8.76072 33.675 8.57915C33.7341 8.56081 33.7942 8.54573 33.8864 8.52148Z" fill="#07111F"/>
</g>
</g>
<defs>
<clipPath id="clip0_246_4122">
<rect width="45.8067" height="39.0771" fill="white" transform="translate(0.140381 0.574219)"/>
</clipPath>
</defs>
</svg>
