<svg width="51" height="50" viewBox="0 0 51 50" fill="none" xmlns="http://www.w3.org/2000/svg">
<g clip-path="url(#clip0_222_15267)">
<path d="M0.633911 18.7523C0.633911 15.3235 3.42163 12.5357 6.85044 12.5357H7.00585C7.72464 8.99037 10.862 6.3192 14.6211 6.3192C16.0781 6.3192 17.438 6.71745 18.5938 7.40709C19.8857 4.92048 22.4986 3.21094 25.5 3.21094C28.5014 3.21094 31.1143 4.92048 32.4062 7.40709C33.5621 6.71745 34.9219 6.3192 36.3789 6.3192C40.138 6.3192 43.2754 8.99037 43.9942 12.5357H44.1496C47.5784 12.5357 50.3661 15.3235 50.3661 18.7523C50.3661 19.8887 50.065 20.9475 49.5308 21.8605H1.46926C0.935024 20.9475 0.633911 19.8887 0.633911 18.7523ZM0.633911 27.6302C0.633911 26.1635 1.82865 24.9688 3.29536 24.9688H47.695C49.1617 24.9688 50.3564 26.1635 50.3564 27.6302C50.3564 34.4781 46.0437 40.3255 39.9923 42.5985L39.8272 44.0069C39.6329 45.561 38.3119 46.7266 36.7383 46.7266H14.252C12.6881 46.7266 11.3574 45.561 11.1632 44.0069L10.9883 42.6082C4.94663 40.3255 0.633911 34.4781 0.633911 27.6302Z" fill="#4C4C4C"/>
</g>
<defs>
<clipPath id="clip0_222_15267">
<rect width="49.7322" height="49.7322" fill="white" transform="translate(0.633911 0.103027)"/>
</clipPath>
</defs>
</svg>
