<svg width="51" height="50" viewBox="0 0 51 50" fill="none" xmlns="http://www.w3.org/2000/svg">
<path d="M37.8221 47.8945H41.262C43.0026 47.8945 44.4324 46.5476 44.6396 44.8484L48.0587 10.699H37.6978V2.30664H33.6156V10.699H23.3169L23.9386 15.5478C27.482 16.5218 30.7975 18.2831 32.7868 20.231C35.7707 23.1734 37.8221 26.2195 37.8221 31.1928V47.8945ZM2.47083 45.8223V43.7502H33.6156V45.8223C33.6156 46.9413 32.6831 47.8945 31.4813 47.8945H4.543C3.4033 47.8945 2.47083 46.9413 2.47083 45.8223ZM33.6156 31.3171C33.6156 14.7397 2.47083 14.7397 2.47083 31.3171H33.6156ZM2.47083 35.4615H33.5535V39.6058H2.47083V35.4615Z" fill="#4C4C4C"/>
</svg>
