<svg width="53" height="40" viewBox="0 0 53 40" fill="none" xmlns="http://www.w3.org/2000/svg">
<g clip-path="url(#clip0_246_8110)">
<path d="M25.29 0.572754C15.6179 0.572754 7.65382 7.81541 6.4837 17.171C6.29931 17.9717 6.18349 18.7619 6.10347 19.5438H5.18201C5.18201 30.6494 14.1833 39.6526 25.29 39.6526C36.3965 39.6526 45.4006 30.6494 45.4006 19.5438H44.2627C44.2627 20.3664 44.1922 21.1715 44.0906 21.9665C43.9007 21.1528 43.589 20.3423 43.1247 19.5438H44.2627C44.2627 9.06528 35.7676 0.572754 25.29 0.572754Z" fill="#042445"/>
<path d="M25.291 38.5146C35.7686 38.5146 44.2624 30.0216 44.2624 19.5449H43.1256C43.1256 29.3926 35.1396 37.376 25.291 37.376C15.4424 37.376 7.45634 29.3926 7.45634 19.5449H6.31958C6.31958 30.0216 14.8134 38.5146 25.291 38.5146Z" fill="#D01031"/>
<path d="M25.2909 1.71191C20.5609 1.71191 16.0246 3.59074 12.6799 6.93508C9.3353 10.2794 7.4563 14.8153 7.4563 19.5449H8.59504C8.59504 15.1173 10.3541 10.871 13.4851 7.74022C16.6162 4.60941 20.8629 2.85053 25.2909 2.8505C27.4834 2.85048 29.6545 3.28229 31.6802 4.12126C33.7058 4.96022 35.5464 6.18992 37.0968 7.74015C38.6471 9.29037 39.877 11.1308 40.716 13.1562C41.5551 15.1817 41.9869 17.3526 41.9869 19.5449H43.1256C43.1256 17.2031 42.6643 14.8841 41.768 12.7205C40.8718 10.5569 39.5581 8.59102 37.902 6.93507C36.2459 5.27912 34.2798 3.96555 32.116 3.06936C29.9522 2.17317 27.633 1.71191 25.2909 1.71191Z" fill="#62B1E3"/>
<path d="M36.6743 19.545C36.6743 22.5638 35.475 25.4589 33.3402 27.5935C31.2054 29.728 28.3101 30.9272 25.291 30.9272C22.272 30.9272 19.3766 29.728 17.2419 27.5935C15.1071 25.4589 13.9078 22.5638 13.9078 19.545C13.9078 16.5263 15.1071 13.6312 17.2418 11.4966C19.3766 9.36202 22.272 8.16283 25.291 8.16283C28.31 8.16283 31.2054 9.36202 33.3402 11.4966C35.4749 13.6312 36.6743 16.5263 36.6743 19.545ZM13.5061 10.2183L15.2151 11.7112L16.2951 10.4741L15.9749 10.1937L15.2284 11.0463L13.8415 9.83374L13.5061 10.2183ZM17.142 9.76554C16.5471 10.2619 16.0753 10.0668 15.6282 9.53064C15.1829 8.99639 15.073 8.49054 15.666 7.99609C16.2724 7.49025 16.7422 7.70246 17.1837 8.23099C17.6346 8.77284 17.7464 9.26162 17.142 9.76554M15.9446 8.3314C15.5713 8.64209 15.7683 8.90165 16.0222 9.2048C16.297 9.53631 16.5092 9.73146 16.8635 9.4359C17.1855 9.16501 17.142 8.97365 16.7953 8.55688C16.4826 8.18177 16.2837 8.04723 15.9446 8.3314Z" fill="white"/>
<path d="M18.1594 6.82694L19.0878 8.41076L18.635 8.67786L17.7066 7.09211L17.1268 7.43132L16.9089 7.05804L18.5232 6.11273L18.7411 6.48591L18.1594 6.82694ZM20.3004 5.84178L20.9598 7.55634L20.4709 7.74576L19.8097 6.03126L19.1844 6.27182L19.0272 5.86831L20.7741 5.19577L20.9294 5.59929L20.3004 5.84178ZM21.9261 7.23045L21.4637 5.00822L23.0912 4.67099L23.1784 5.09536L22.0549 5.32839L22.1534 5.80198L23.1254 5.60116L23.2125 6.01799L22.2406 6.22068L22.341 6.70759L23.4645 6.47451L23.5517 6.89322L21.9261 7.23045ZM26.8219 6.15627C26.8029 6.59958 26.3861 6.85727 25.867 6.83453C25.5468 6.82127 25.2455 6.70566 25.1091 6.53138C24.95 6.32676 24.878 5.98579 24.8988 5.64288C24.9102 5.36059 24.967 5.05177 25.0977 4.88128C25.3232 4.58385 25.5638 4.51564 25.9466 4.53271C26.407 4.55164 26.8143 4.81495 26.8465 5.34733L26.3293 5.32459C26.3179 5.11997 26.1872 4.98169 25.9314 4.97029C25.7457 4.96275 25.6055 5.00822 25.5506 5.1105C25.4584 5.2804 25.4096 5.47042 25.4085 5.66369C25.3971 5.90998 25.4425 6.14493 25.5354 6.26428C25.5942 6.33816 25.7305 6.39122 25.8822 6.39309C26.1303 6.40069 26.2819 6.30028 26.2895 6.12787L26.297 5.96112L25.8404 5.94219L25.8574 5.55382L26.8446 5.59362L26.8219 6.15627ZM27.2501 6.95195L27.7579 7.0429L28.152 4.80735L27.6442 4.71646L27.2501 6.95195ZM29.7378 7.59042L29.7037 7.09216L28.9231 6.84208L28.6181 7.23237L28.1008 7.06563L29.6563 5.18063L30.0788 5.31705L30.2493 7.75341L29.7378 7.59042ZM29.6355 5.97059L29.2016 6.49345L29.6847 6.64693L29.6355 5.97059ZM31.8239 8.59451L31.606 6.90836L30.9485 8.12087L30.4957 7.87458L31.5756 5.87965L31.9262 6.06913L32.1459 7.75903L32.8034 6.54465L33.26 6.79094L32.1782 8.78586L31.8239 8.59451ZM34.5598 8.29328L33.4173 9.73122L33.0062 9.40533L34.1486 7.96745L33.6219 7.54874L33.8909 7.20964L35.3574 8.37475L35.0884 8.71199L34.5598 8.29328ZM34.628 10.9437C34.4177 10.7031 34.3286 10.417 34.3495 10.0287L34.8118 10.0192C34.7834 10.3147 34.8269 10.4776 34.9747 10.6444C35.1414 10.8395 35.3044 10.8849 35.4295 10.7789C35.5014 10.7183 35.5317 10.578 35.418 10.4114L35.276 10.1859C35.0922 9.90171 35.0334 9.51334 35.3347 9.25191C35.6587 8.97341 36.0926 9.03402 36.4336 9.42619C36.627 9.65693 36.7276 9.95136 36.7159 10.2522L36.2669 10.2673C36.282 9.94531 36.1797 9.81264 36.0926 9.71223C35.9524 9.54939 35.8122 9.52853 35.6776 9.64215C35.5848 9.72363 35.5981 9.82788 35.689 9.97564C35.7155 10.0211 35.7989 10.1442 35.8216 10.1765C36.0585 10.5231 36.0698 10.9305 35.78 11.1786C35.454 11.4628 34.9842 11.3567 34.628 10.9437ZM48.6391 19.1488L52.2391 15.5493H39.63L40.2912 13.0883H36.3767L35.7174 15.5493H11.1226L13.5856 13.0864H5.25286C4.61516 13.0874 3.99553 13.2983 3.48972 13.6866C2.98391 14.0749 2.62006 14.619 2.4544 15.2348L0.290711 23.311C0.195778 23.6587 0.182987 24.0237 0.253348 24.3771C0.323709 24.7306 0.475295 25.0628 0.696133 25.3476C1.14328 25.9331 1.82348 26.2665 2.55861 26.2665H45.8331C46.4707 26.2663 47.0905 26.0558 47.5964 25.6678C48.1023 25.2797 48.4661 24.7357 48.6316 24.12L49.9238 19.2985H48.4894L48.6391 19.1488Z" fill="white"/>
<path d="M11.7157 25.6982L14.283 16.1177H14.643L12.0757 25.6982H11.7157ZM19.4668 24.6411H17.4964C17.3525 24.6426 17.2102 24.6105 17.0809 24.5476C16.9515 24.4846 16.8385 24.3925 16.7509 24.2784C16.6632 24.1643 16.6033 24.0314 16.5759 23.8901C16.5484 23.7489 16.5541 23.6033 16.5926 23.4646L18.0174 18.1486C18.0924 17.8693 18.2575 17.6225 18.4869 17.4465C18.7164 17.2704 18.9976 17.175 19.2868 17.1749H23.7507L21.4657 25.6982H21.1057L23.2959 17.5216H19.2868C19.0741 17.5219 18.8674 17.5925 18.6989 17.7223C18.5303 17.8521 18.4093 18.0339 18.3546 18.2395L16.9298 23.5556C16.9058 23.6424 16.9022 23.7337 16.9195 23.8222C16.9367 23.9106 16.9743 23.9939 17.0292 24.0654C17.0842 24.1368 17.155 24.1946 17.236 24.234C17.3171 24.2734 17.4062 24.2934 17.4964 24.2925H19.8135L19.4668 24.6411ZM25.7439 25.6982L27.7428 18.2396C27.7979 18.034 27.9193 17.8524 28.0882 17.7229C28.2571 17.5934 28.464 17.5233 28.6769 17.5234H32.686L30.4938 25.6982H30.8557L33.1388 17.1749H28.6769C28.3875 17.1752 28.1062 17.2707 27.8764 17.4467C27.6467 17.6227 27.4812 17.8693 27.4055 18.1486L25.3839 25.6982H25.7439ZM39.1033 24.6411H36.2764C36.133 24.642 35.9914 24.6093 35.8628 24.5459C35.7342 24.4824 35.6222 24.3898 35.5356 24.2755C35.4473 24.1623 35.3867 24.03 35.3584 23.8893C35.3301 23.7486 35.335 23.6032 35.3727 23.4646L38.0024 13.6567H38.3625L37.4189 17.1749H41.5152L41.1666 17.5234H37.326L35.7099 23.5556C35.6858 23.6424 35.6823 23.7337 35.6995 23.8222C35.7167 23.9107 35.7543 23.9939 35.8093 24.0654C35.8642 24.1369 35.935 24.1946 36.0161 24.234C36.0972 24.2734 36.1863 24.2934 36.2764 24.2925H39.1961L39.1033 24.6411ZM40.7346 24.2925H45.7082C45.9207 24.2923 46.1272 24.222 46.2957 24.0925C46.4642 23.9631 46.5853 23.7817 46.6403 23.5764L47.3091 21.0813H42.7827L43.5672 18.1486C43.6425 17.869 43.8078 17.6219 44.0376 17.4455C44.2674 17.2692 44.5488 17.1734 44.8385 17.173H49.8082L49.4596 17.5215H44.8385C44.6258 17.522 44.4192 17.5924 44.2504 17.7218C44.0816 17.8512 43.9601 18.0325 43.9044 18.2377L43.2356 20.7328H47.7639L46.9775 23.6654C46.9026 23.945 46.7376 24.192 46.5082 24.3684C46.2787 24.5447 45.9976 24.6406 45.7082 24.6411H40.6417L40.7346 24.2925ZM5.37987 14.7139C5.09062 14.714 4.80948 14.8095 4.57998 14.9855C4.35049 15.1616 4.18545 15.4083 4.11043 15.6877L2.02629 23.4647C1.98866 23.6031 1.98361 23.7483 2.01155 23.889C2.03949 24.0297 2.09966 24.162 2.18733 24.2756C2.2741 24.3897 2.38617 24.4821 2.51472 24.5455C2.64327 24.609 2.78478 24.6417 2.92814 24.6412H8.08165L9.47237 19.4521H6.41819L6.06953 19.7988H9.01955L7.81453 24.2945H2.92814C2.83829 24.2949 2.74958 24.2744 2.66902 24.2346C2.58846 24.1948 2.51825 24.1368 2.46392 24.0653C2.40838 23.9941 2.37021 23.911 2.35245 23.8226C2.33469 23.7341 2.33783 23.6427 2.36163 23.5556L4.44576 15.7787C4.50085 15.5731 4.62228 15.3915 4.79118 15.262C4.96009 15.1325 5.16703 15.0624 5.37987 15.0625H10.8081L11.1548 14.714L5.37987 14.7139Z" fill="white"/>
<path d="M22.7787 12.0332C21.9753 12.0332 21.5622 12.5258 21.5622 13.0828C21.5622 13.6379 21.9962 14.1324 22.7787 14.1324C23.546 14.1324 23.9969 13.6379 23.9969 13.0828C23.9969 12.5258 23.5839 12.0332 22.7787 12.0332ZM24.3095 12.1147V12.3458H25.0674V14.0471H25.6605V12.3458H26.4203V12.1147H24.3095ZM26.6855 12.1147V12.3458H27.4434V14.0471H28.0364V12.3458H28.7944V12.1147H26.6855ZM19.5975 12.1167V13.7932C19.5975 13.9675 19.6884 14.049 19.8476 14.049H21.297V13.816H20.3023C20.2037 13.816 20.1848 13.761 20.1848 13.6834V12.1167H19.5975ZM29.4251 12.1167C29.285 12.1167 29.1505 12.145 29.1505 12.397V13.7687C29.1505 14.0244 29.2774 14.0509 29.4442 14.0509H30.9826V13.8179H29.8742C29.7416 13.8179 29.7379 13.7592 29.7379 13.6815V13.1358H30.9637V12.9067L29.7379 12.9066V12.486C29.7379 12.3628 29.7833 12.3477 29.8895 12.3477H30.9826V12.1167H29.4251ZM22.7787 12.2493C23.1443 12.2493 23.4228 12.6281 23.4228 13.0828C23.4228 13.5393 23.1443 13.9107 22.7787 13.9107C22.413 13.9107 22.1345 13.5393 22.1345 13.0828C22.1345 12.6281 22.4129 12.2493 22.7787 12.2493ZM5.2548 13.6568C4.74198 13.6567 4.24347 13.8258 3.83653 14.1379C3.4296 14.4499 3.13695 14.8874 3.00396 15.3827L0.840219 23.4571C0.769602 23.7209 0.760615 23.9975 0.813953 24.2653C0.867291 24.5332 0.981525 24.7852 1.14782 25.0018C1.31412 25.2185 1.52802 25.394 1.77299 25.5148C2.01795 25.6355 2.28742 25.6984 2.56055 25.6984H8.98543L10.8934 18.5788H7.28783L6.41814 19.4503H9.47228L8.08156 24.6412H2.92815C2.78444 24.6424 2.64243 24.6101 2.5133 24.547C2.38418 24.4839 2.27146 24.3918 2.18403 24.2777C2.09659 24.1637 2.03684 24.0309 2.00946 23.8898C1.98208 23.7487 1.98783 23.6032 2.02625 23.4648L4.11039 15.6877C4.18543 15.4084 4.3505 15.1616 4.58001 14.9856C4.80952 14.8096 5.09068 14.7141 5.37993 14.714H11.1548L12.2119 13.6569L5.2548 13.6568ZM36.8145 13.6569L34.1865 23.459C34.1163 23.7227 34.1076 23.9991 34.1611 24.2666C34.2146 24.5342 34.3289 24.786 34.4952 25.0024C34.6615 25.2188 34.8752 25.3941 35.12 25.5147C35.3648 25.6354 35.6341 25.6982 35.907 25.6983H38.8191L39.1014 24.6411H36.2746C36.1312 24.6417 35.9897 24.6089 35.8611 24.5455C35.7326 24.4821 35.6205 24.3897 35.5337 24.2756C35.446 24.1621 35.3858 24.0298 35.3579 23.8891C35.33 23.7484 35.335 23.6032 35.3727 23.4648L38.0005 13.6569H36.8145ZM38.3605 13.6569L37.4169 17.1749H41.5113L42.5686 16.1178H38.8872L39.5466 13.6569H38.3605ZM5.37977 15.0607C5.16695 15.0605 4.96002 15.1306 4.79112 15.2601C4.62221 15.3896 4.50078 15.5712 4.44567 15.7767L4.44577 15.7768L2.36164 23.5538C2.33785 23.6408 2.3347 23.7322 2.35245 23.8207C2.3702 23.9091 2.40835 23.9922 2.46388 24.0634C2.5182 24.1349 2.58842 24.1929 2.66898 24.2327C2.74954 24.2725 2.83825 24.293 2.9281 24.2926H7.81449L9.01951 19.797H6.06954L5.19793 20.6684H7.59851L6.91072 23.2354H3.63483L5.54278 16.1178H9.7508L10.8081 15.0607H5.37977ZM13.0968 16.1159L10.5295 25.6965H11.7175L14.2848 16.1159H13.0968ZM14.6447 16.1159L12.0774 25.6965H13.2636L15.8309 16.1159H14.6447ZM19.1618 16.1178C18.6493 16.1182 18.1512 16.2875 17.7446 16.5995C17.338 16.9115 17.0457 17.3488 16.9127 17.8437L15.4084 23.4571C15.3379 23.7208 15.3288 23.9971 15.3821 24.2648C15.4353 24.5325 15.5494 24.7844 15.7155 25.001C15.8815 25.2177 16.0952 25.3932 16.3399 25.5141C16.5846 25.635 16.8539 25.6981 17.1268 25.6984H18.4095L19.4668 24.6412H17.4963C17.3524 24.6426 17.2102 24.6106 17.0808 24.5477C16.9514 24.4847 16.8385 24.3925 16.7508 24.2785C16.6632 24.1644 16.6033 24.0315 16.5758 23.8903C16.5483 23.7491 16.554 23.6034 16.5925 23.4648L18.0172 18.1487C18.0923 17.8693 18.2573 17.6225 18.4868 17.4465C18.7163 17.2705 18.9975 17.175 19.2867 17.1749H23.7506L21.4656 25.6983H22.6536L25.2209 16.1178H19.1618ZM28.5499 16.1178C28.0374 16.1182 27.5393 16.2875 27.1327 16.5995C26.7261 16.9115 26.4338 17.3488 26.3009 17.8437L24.1959 25.6982H25.3819L27.4055 18.1488V18.1486C27.4805 17.8693 27.6456 17.6225 27.875 17.4465C28.1045 17.2705 28.3856 17.175 28.6749 17.1749H33.1388L30.8537 25.6982H32.0417L34.609 16.1178L28.5499 16.1178ZM44.7133 16.1178C44.2009 16.1182 43.7028 16.2875 43.2962 16.5995C42.8897 16.9115 42.5973 17.3488 42.4644 17.8437L41.3636 21.9491H45.8918L45.5471 23.2374H41.0188L40.7365 24.2945H45.7082C45.9212 24.2945 46.1283 24.2241 46.2973 24.0942C46.4662 23.9644 46.5874 23.7823 46.6421 23.5764L47.311 21.0833H42.7828L43.569 18.1506C43.6439 17.8711 43.8089 17.624 44.0384 17.4477C44.2678 17.2713 44.549 17.1754 44.8385 17.1749H49.8101L50.8674 16.1178H44.7133ZM28.6749 17.5216C28.4623 17.5219 28.2558 17.5922 28.0873 17.7217C27.9188 17.8511 27.7977 18.0325 27.7427 18.2378L25.7438 25.6964H26.9299L28.8379 18.5788H31.2157L29.3077 25.6965H30.4938L32.6841 17.5217L28.6749 17.5216ZM19.2868 17.5235C19.0742 17.524 18.8675 17.5943 18.6988 17.7237C18.53 17.8531 18.4084 18.0344 18.3527 18.2396C17.9984 19.5695 16.9279 23.5557 16.9279 23.5557C16.9043 23.6426 16.901 23.7339 16.9185 23.8223C16.9359 23.9107 16.9734 23.9938 17.0283 24.0653C17.0831 24.1368 17.1537 24.1947 17.2345 24.2345C17.3154 24.2742 17.4043 24.2948 17.4944 24.2945H19.8135L20.4709 23.6371L19.9177 25.6984H21.1057L23.2959 17.5236L19.2868 17.5235ZM37.3261 17.5235L35.7098 23.5557C35.6858 23.6427 35.6823 23.734 35.6996 23.8226C35.7168 23.9112 35.7544 23.9945 35.8093 24.0661C35.8642 24.1377 35.9349 24.1956 36.016 24.2352C36.0971 24.2749 36.1862 24.2952 36.2764 24.2945H39.1961L39.4802 23.2374H36.9831L38.2298 18.5807H40.1093L41.1665 17.5236L37.3261 17.5235ZM44.8385 17.5235C44.626 17.5238 44.4195 17.5941 44.251 17.7235C44.0825 17.853 43.9613 18.0344 43.9063 18.2396L43.2374 20.7348H47.7638L46.9775 23.6674C46.9025 23.9467 46.7375 24.1935 46.508 24.3695C46.2785 24.5456 45.9974 24.6411 45.7082 24.6412H40.6417L40.3594 25.6983H45.8331C46.3459 25.6983 46.8444 25.5292 47.2513 25.2172C47.6583 24.9052 47.9509 24.4676 48.0839 23.9724L49.1828 19.8671H44.6565L45.0013 18.5807H48.4041L49.4614 17.5236L44.8385 17.5235ZM19.4496 18.5807H21.8257L20.577 23.2375H18.2011L19.4496 18.5807Z" fill="#D01031"/>
<path d="M12.5664 29.1464L14.3076 27.6914L15.3724 28.9665L15.0408 29.243L14.3057 28.3621L13.9324 28.6728L14.5691 29.4344L14.2413 29.7091L13.6065 28.9475L13.2238 29.2677L13.959 30.1467L13.6312 30.4214L12.5664 29.1464ZM14.5425 31.346C14.3094 31.1281 14.192 30.8515 14.1749 30.4631L14.6354 30.4081C14.6354 30.7037 14.696 30.8628 14.8589 31.0125C15.0427 31.1925 15.2094 31.2209 15.325 31.1035C15.3894 31.0353 15.4046 30.8932 15.2777 30.7378L15.1128 30.5275C14.9006 30.2642 14.8059 29.8834 15.0787 29.5935C15.3724 29.2828 15.812 29.3018 16.189 29.6579C16.4044 29.8684 16.534 30.1512 16.5528 30.4517L16.1056 30.5123C16.0905 30.1903 15.9749 30.0672 15.8782 29.9762C15.721 29.8265 15.5808 29.8209 15.4576 29.9478C15.3743 30.0368 15.397 30.1391 15.5012 30.2774C15.5508 30.3412 15.602 30.4038 15.6547 30.465C15.9237 30.787 15.9768 31.1906 15.7134 31.4653C15.416 31.7798 14.9385 31.7211 14.5425 31.346ZM17.6536 31.382L16.6286 32.9051L16.1928 32.6115L17.2178 31.0883L16.6608 30.7132L16.9032 30.3551L18.4551 31.4008L18.2125 31.7589L17.6536 31.382ZM17.2197 33.4829L17.7578 33.7804L18.042 33.2613L17.5039 32.9639L17.2197 33.4829ZM19.8249 32.4731L19.6316 32.9847L20.1981 32.8558L19.6051 34.4301L20.0769 34.6083L20.8878 32.458L20.5032 32.314L19.8249 32.4731ZM22.0606 32.78C22.5513 32.8994 22.792 33.3143 22.6972 33.7008C22.637 33.8988 22.5342 34.0811 22.3959 34.2351L21.6571 35.0592L21.0962 34.9228L21.765 34.2048C21.6563 34.206 21.5486 34.1826 21.4502 34.1363C21.3518 34.09 21.2651 34.022 21.1967 33.9374C21.1284 33.8528 21.08 33.7538 21.0554 33.6479C21.0308 33.5419 21.0305 33.4318 21.0546 33.3257C21.153 32.924 21.5415 32.6531 22.0606 32.78ZM21.801 33.7993C22.0417 33.8581 22.1554 33.7463 22.1951 33.5796C22.2349 33.4186 22.1554 33.2575 21.9564 33.2083C21.7442 33.1571 21.6021 33.2594 21.5585 33.4413C21.5149 33.6175 21.604 33.7519 21.801 33.7993ZM23.6124 35.4362C23.0477 35.3775 22.7863 35.0251 22.828 34.6215C22.8405 34.5167 22.8812 34.4173 22.9455 34.3336C23.0099 34.2499 23.0956 34.1851 23.1936 34.146C23.1177 34.0923 23.0576 34.0191 23.0199 33.934C22.9822 33.8489 22.9683 33.7553 22.9795 33.6629C23.0212 33.2632 23.3661 33.0359 23.8492 33.087C24.3702 33.1401 24.6336 33.4488 24.5957 33.8259C24.5896 33.9195 24.5577 34.0096 24.5035 34.0862C24.4493 34.1627 24.375 34.2228 24.2887 34.2597C24.3737 34.3194 24.442 34.3998 24.4871 34.4933C24.5322 34.5868 24.5526 34.6903 24.5464 34.794C24.5067 35.1785 24.1883 35.4968 23.6124 35.4362ZM23.709 34.4321C23.5214 34.4113 23.3699 34.5382 23.3547 34.6765C23.3395 34.8224 23.4229 34.9644 23.654 34.9872C23.8947 35.0137 24.0027 34.8906 24.0178 34.7447C24.033 34.6045 23.9155 34.4529 23.709 34.4321ZM23.8037 33.5132C23.618 33.4943 23.5063 33.5834 23.4911 33.7255C23.4779 33.8561 23.5877 33.9717 23.7545 33.9907C23.9402 34.0096 24.0633 33.9149 24.0803 33.7804C24.0974 33.6421 23.997 33.5341 23.8037 33.5132M24.9481 35.4778L24.9368 35.1085L25.8311 34.146C25.9333 34.0305 25.9883 33.9149 25.9864 33.8221C25.9826 33.6951 25.8879 33.5909 25.7022 33.5966C25.4843 33.6023 25.3896 33.7671 25.3782 33.9623L24.8761 33.9774C24.8704 33.4754 25.2702 33.1723 25.687 33.1609C26.1171 33.1495 26.4961 33.3806 26.5074 33.8107C26.5131 34.0002 26.4468 34.1915 26.2535 34.4018L25.6738 35.0194L26.5605 34.9948L26.5737 35.4324L24.9481 35.4778ZM29.2206 34.972L28.2202 35.2145L27.684 33.0093L28.6276 32.7801C29.1183 32.6607 29.4821 32.8482 29.5787 33.2442C29.6013 33.4044 29.5686 33.5675 29.4859 33.7065C29.6318 33.7955 29.7852 33.9376 29.8288 34.1176C29.9311 34.5344 29.6943 34.8564 29.2206 34.972ZM28.7773 33.1893L28.2827 33.3105L28.3945 33.769L28.9061 33.644C29.0577 33.608 29.1031 33.464 29.0785 33.3617C29.0704 33.3304 29.0561 33.301 29.0365 33.2753C29.0169 33.2496 28.9923 33.2281 28.9642 33.212C28.9362 33.196 28.9052 33.1857 28.8731 33.1818C28.8409 33.1779 28.8084 33.1804 28.7773 33.1893ZM29.0084 34.0532L28.4931 34.1782L28.6162 34.6803L29.1449 34.5514C29.3021 34.5135 29.3476 34.3733 29.3172 34.2483C29.287 34.1214 29.1752 34.0134 29.0084 34.0532ZM32.0759 33.1628C32.2729 33.6307 31.9755 34.0229 31.4753 34.2332C30.9884 34.4397 30.4901 34.3829 30.293 33.9149L29.6962 32.5016L30.1793 32.2989L30.7819 33.7254C30.8652 33.9187 31.0812 33.9281 31.3066 33.8315C31.5359 33.7349 31.6799 33.5739 31.5984 33.3806L30.9959 31.9541L31.4791 31.7495L32.0759 33.1628ZM33.5917 33.1779C33.3169 33.3409 33.0194 33.375 32.6405 33.2841L32.7163 32.8256C33.0024 32.9089 33.171 32.8956 33.3605 32.782C33.5841 32.655 33.6599 32.5015 33.5784 32.3595C33.531 32.2761 33.3984 32.2231 33.2146 32.3027L32.9664 32.4012C32.6538 32.53 32.2597 32.5149 32.0588 32.172C31.8447 31.8025 31.985 31.3876 32.4321 31.1243C32.6943 30.9761 33.0023 30.9309 33.2961 30.9973L33.2297 31.4426C32.9152 31.3687 32.7656 31.4444 32.6519 31.5107C32.4643 31.6206 32.4169 31.7533 32.506 31.9067C32.5685 32.0128 32.6727 32.0204 32.8357 31.9579C32.9102 31.9279 32.9841 31.8963 33.0573 31.8631C33.442 31.6945 33.8436 31.7589 34.035 32.0886C34.2548 32.4599 34.0634 32.9032 33.5917 33.1779ZM35.9903 31.3422L35.5508 31.1053L34.9236 31.6339L35.0903 32.1L34.6754 32.4504L33.9062 30.1296L34.2453 29.8436L36.4015 30.9973L35.9903 31.3422ZM34.5636 30.5673L34.7758 31.2114L35.1642 30.8837L34.5636 30.5673ZM37.7372 29.4798L36.0434 29.3378L37.0892 30.2357L36.7539 30.626L35.0316 29.1502L35.2893 28.849L36.9888 28.9892L35.9392 28.0912L36.2764 27.6971L38.0006 29.1729L37.7372 29.4798Z" fill="white"/>
</g>
<defs>
<clipPath id="clip0_246_8110">
<rect width="52.0306" height="39.08" fill="white" transform="translate(0.208618 0.572754)"/>
</clipPath>
</defs>
</svg>
