<svg width="33" height="33" viewBox="0 0 33 33" fill="none" xmlns="http://www.w3.org/2000/svg">
<path d="M16.8062 29.222C13.8533 29.222 11.3388 28.2007 9.26244 26.1581C7.18612 24.1156 6.1484 21.629 6.14929 18.6983C6.14929 17.2996 6.42149 15.9621 6.96588 14.686C7.51027 13.4098 8.28156 12.2828 9.27976 11.3051L14.9412 5.7435C15.2077 5.49928 15.5021 5.31057 15.8244 5.17736C16.1468 5.04414 16.4741 4.97754 16.8062 4.97754C17.1383 4.97754 17.466 5.04414 17.7893 5.17736C18.1126 5.31057 18.4065 5.49928 18.6712 5.7435L24.3326 11.3051C25.3317 12.282 26.1035 13.4089 26.6479 14.686C27.1922 15.963 27.464 17.3005 27.4631 18.6983C27.4631 21.629 26.4254 24.1156 24.35 26.1581C22.2745 28.2007 19.7599 29.222 16.8062 29.222ZM8.81352 18.6983H24.7989C24.7989 17.6548 24.5991 16.6615 24.1994 15.7184C23.7998 14.7752 23.2225 13.948 22.4677 13.2366L16.8062 7.64177L11.1447 13.2366C10.3899 13.9471 9.8126 14.7743 9.41297 15.7184C9.01334 16.6624 8.81352 17.6557 8.81352 18.6983Z" fill="#4C4C4C"/>
</svg>
