<svg width="53" height="40" viewBox="0 0 53 40" fill="none" xmlns="http://www.w3.org/2000/svg">
<path d="M11.7878 0.606934V9.16159L0.0587158 9.15221L3.19543 13.3335L5.7115 13.2044L5.70905 22.1867L11.7878 20.725V29.3778L26.2526 39.6869L40.7263 29.3734V20.7416L47.0238 22.4532C48.9339 22.5003 49.4256 21.4336 49.5517 20.7206C49.6127 20.3676 49.6504 19.9891 49.6639 19.6821C49.6771 19.4644 49.68 19.2481 49.6802 19.0353C49.6804 18.7437 49.6798 18.36 49.679 17.9774C49.6775 17.2123 49.6749 16.4525 49.6749 16.4521V16.4517C49.6739 16.0198 49.6318 15.5254 49.3668 15.0382C49.1822 14.6995 48.8994 14.4147 48.5644 14.1915L52.4615 9.16792L40.7265 9.16731V0.606934H11.7878Z" fill="white"/>
<path d="M26.2543 35.4432L12.8442 27.8281V28.836L26.2543 38.3865L39.664 28.836V27.8281L26.2543 35.4432Z" fill="#06141F"/>
<path d="M23.9054 29.4581H28.606L29.7348 31.8175L39.6642 26.7032V20.908C30.8285 18.9763 21.6798 18.9766 12.8442 20.909V26.7034L22.7732 31.8177L23.9054 29.4581Z" fill="#06141F"/>
<path d="M22.7159 10.2383H16.0989C16.2023 10.2844 17.0441 10.5751 17.0441 11.4216L17.0388 17.1703C17.026 17.9911 17.6311 18.3857 18.8 18.2659C20.6949 18.0779 22.5963 17.9638 24.5001 17.9238V13.7757C23.2511 13.7877 22.1775 13.8145 20.9294 13.8573V15.2508C21.3336 15.2321 21.5493 15.2165 21.9545 15.2008V16.6433C21.2471 16.6751 20.6511 16.7168 19.9417 16.7655C19.7563 16.7778 19.6712 16.7166 19.6712 16.5697V11.8293C19.6712 11.7054 19.7601 11.6434 19.9425 11.6412C20.5242 11.6316 21.0496 11.6242 21.6311 11.6179C21.8127 11.6165 21.8867 11.682 21.8867 11.8213V12.6513C22.7626 12.6356 23.642 12.6242 24.517 12.6183L24.5213 11.4553C24.5228 10.6947 23.8705 10.2383 22.7163 10.2383" fill="#EA0029"/>
<path d="M37.9976 12.0317V14.0591C37.9976 14.2093 37.9133 14.2964 37.7319 14.2825C37.0713 14.2331 36.5431 14.1876 35.8798 14.1442V11.7169C36.5421 11.7332 37.0631 11.752 37.7242 11.7685C37.907 11.7754 37.9976 11.856 37.9976 12.0317ZM40.6295 14.7053V11.6861C40.612 10.7792 39.865 10.2391 38.7107 10.2383H32.3042C32.4162 10.2852 33.2825 10.5647 33.2825 11.3908L33.2852 18.2643C34.1349 18.3463 35.0337 18.4461 35.8798 18.5577V15.5626C36.3054 15.5981 36.7561 15.6368 37.1817 15.6783C37.6332 16.7412 37.9694 17.793 38.4199 18.9129C39.2734 19.0578 40.2029 19.254 41.0519 19.4295C40.5911 18.249 40.1172 17.0736 39.6304 15.9035C40.2784 15.7835 40.6399 15.3518 40.6295 14.7053Z" fill="#EA0029"/>
<path d="M3.74835 12.2282C4.77767 12.1714 5.7572 12.117 6.78958 12.0684V20.4907C7.63691 20.2609 8.56543 20.0459 9.41949 19.8449V11.9511C10.0371 11.9252 10.7573 11.9007 11.3737 11.8789V10.2385H2.23059C2.72376 10.9113 3.22977 11.5748 3.74835 12.2282ZM47.6575 14.9101C46.8679 14.5561 45.0561 13.7322 44.4971 13.4727C44.2922 13.3764 44.2161 13.2122 44.2161 13.0998V12.271C44.2135 12.0951 44.3043 12.009 44.4844 12.018C45.8284 12.0788 47.4 12.1465 48.7386 12.221L50.2762 10.2385H40.6551C40.7875 10.3099 41.6517 10.6068 41.6517 11.5824C41.6517 11.5824 41.6589 12.6291 41.6589 13.1871C41.6589 13.7467 41.9478 14.1966 42.6468 14.5163C43.3437 14.8358 45.6123 15.809 45.7855 15.9031C46.012 16.0231 46.0499 16.1408 46.0499 16.4742V18.5318C46.051 18.8113 45.8494 18.7662 45.7837 18.7513C45.3226 18.6469 44.9398 18.5687 44.4763 18.4708C44.4106 18.4569 44.2457 18.4122 44.2427 18.1468V16.7855C43.402 16.6455 42.5596 16.5158 41.7158 16.3964V17.9642C41.7321 18.9709 42.4599 19.7186 43.612 20.0057C44.6946 20.2705 45.7351 20.559 46.8055 20.8738C47.9447 21.2186 48.608 20.7481 48.6058 19.5272C48.614 19.4966 48.6038 16.455 48.6038 16.455C48.6017 15.745 48.4469 15.2669 47.6573 14.9101M12.7404 11.5181V19.1422C13.6108 18.9829 14.4957 18.8362 15.372 18.7064V10.2383H11.8001C12.0372 10.3077 12.7407 10.7006 12.7407 11.5183M24.7942 10.2383C24.9252 10.2983 25.7943 10.5741 25.7943 11.3404C25.7921 13.5307 25.7921 15.7197 25.7906 17.9085C27.8421 17.8983 29.8587 17.9762 31.9039 18.1364V16.7355C30.7199 16.6573 29.5344 16.6041 28.3481 16.576V14.8177C29.405 14.8387 30.4584 14.8622 31.5136 14.9079V13.4666C30.4587 13.4338 29.4035 13.4113 28.3481 13.3991C28.351 11.6512 28.3481 11.6512 28.3481 11.6071C29.5284 11.6155 30.6357 11.6263 31.815 11.6426V10.2385L24.7942 10.2383Z" fill="#EA0029"/>
<path d="M17.4519 23.6858C17.5365 23.6748 17.5967 23.6462 17.632 23.6001C17.6667 23.5552 17.684 23.4967 17.684 23.4263C17.684 23.3459 17.6643 23.2888 17.621 23.259C17.5802 23.23 17.5239 23.2192 17.4517 23.2278C17.3309 23.2447 17.2095 23.2612 17.0877 23.2778V23.7338C17.2095 23.7174 17.3309 23.7015 17.4519 23.6858ZM17.4049 22.964C17.4892 22.9523 17.5494 22.9244 17.5841 22.8803C17.6198 22.8369 17.6375 22.781 17.6375 22.7122C17.6363 22.6316 17.6173 22.5769 17.5773 22.5484C17.5371 22.5198 17.4798 22.5108 17.4049 22.5208C17.2991 22.5343 17.1933 22.5485 17.0877 22.5637V23.007C17.195 22.9927 17.2988 22.9772 17.4049 22.964ZM17.4117 22.2493C17.5116 22.2358 17.5943 22.2342 17.6643 22.2448C17.7344 22.2556 17.7891 22.278 17.8346 22.3123C17.8775 22.3482 17.9111 22.3945 17.9293 22.4533C17.9481 22.5118 17.9587 22.5839 17.9587 22.6696C17.9587 22.7446 17.9466 22.8118 17.9252 22.8687C17.9028 22.9244 17.8681 22.9736 17.8228 23.0184C17.8797 23.0415 17.9252 23.0811 17.9574 23.1374C17.9893 23.1937 18.0054 23.2765 18.0054 23.3861C18.0054 23.4779 17.9936 23.5554 17.9666 23.6222C17.9428 23.6859 17.9046 23.7434 17.855 23.7901C17.8028 23.838 17.7416 23.8753 17.6751 23.8998C17.5985 23.929 17.5187 23.9488 17.4374 23.9588C17.2174 23.9874 16.9975 24.018 16.7773 24.048V22.3362C16.9879 22.3066 17.2003 22.2774 17.4117 22.2493ZM18.8056 23.1088C18.9429 23.0935 19.0826 23.0778 19.2202 23.0629C19.1518 22.8507 19.0841 22.6383 19.0145 22.4261C18.9455 22.653 18.8729 22.8805 18.8056 23.1088ZM19.3089 23.3253C19.1118 23.3457 18.9141 23.3673 18.7185 23.3898C18.6746 23.5314 18.6317 23.673 18.5893 23.8156C18.4785 23.8284 18.3694 23.8417 18.2598 23.8543C18.4438 23.2612 18.6303 22.6696 18.8135 22.0775C18.9468 22.0628 19.0816 22.0487 19.2144 22.0342L19.767 23.6909C19.6574 23.7015 19.5482 23.7123 19.4391 23.7246C19.3938 23.5907 19.3522 23.4579 19.3089 23.3253ZM21.1029 22.1803C21.0171 22.1645 20.9301 22.1556 20.8428 22.1536C20.7612 22.1501 20.6857 22.1536 20.6143 22.1576C20.5759 22.1612 20.5378 22.1669 20.5 22.1748C20.4629 22.1809 20.4323 22.1934 20.4039 22.2109C20.377 22.2259 20.3545 22.2477 20.3386 22.2741C20.3209 22.3011 20.3135 22.3354 20.3135 22.378C20.3111 22.4108 20.3174 22.4437 20.3319 22.4733C20.3444 22.4985 20.3646 22.519 20.3896 22.5318C20.4174 22.5484 20.4519 22.5606 20.4961 22.5702C20.5386 22.5804 20.592 22.5894 20.6543 22.6C20.7414 22.6155 20.8175 22.633 20.8838 22.6526C20.9517 22.6714 21.007 22.6989 21.0521 22.7332C21.0962 22.7677 21.1307 22.8097 21.1545 22.8601C21.177 22.9117 21.1907 22.9746 21.1907 23.0495C21.1907 23.23 21.135 23.3673 21.0242 23.4648C20.9148 23.5624 20.761 23.6162 20.5674 23.6303C20.4827 23.635 20.3929 23.635 20.2976 23.6285C20.2039 23.6229 20.1107 23.6106 20.0187 23.5918V23.3396C20.1236 23.3512 20.2201 23.3579 20.3082 23.3608C20.3945 23.3661 20.4796 23.3643 20.5653 23.3575C20.6694 23.3484 20.7469 23.3216 20.7934 23.279C20.8428 23.2361 20.8654 23.1694 20.8654 23.0803C20.8662 23.052 20.8587 23.0242 20.844 23C20.8293 22.9759 20.808 22.9565 20.7826 22.9442C20.7498 22.928 20.7148 22.9167 20.6788 22.9107C20.6379 22.9021 20.5853 22.8932 20.5304 22.8846C20.452 22.873 20.3746 22.8551 20.2991 22.8311C20.2373 22.8122 20.1794 22.7823 20.1281 22.743C20.0825 22.7072 20.0463 22.6609 20.0226 22.6079C19.9974 22.5448 19.9849 22.4774 19.9859 22.4094C19.9859 22.2625 20.0336 22.143 20.1309 22.0513C20.2268 21.9595 20.3786 21.9061 20.592 21.8873C20.7633 21.8729 20.9358 21.886 21.1029 21.9261V22.1803ZM21.5504 21.8298C21.936 21.8028 22.3228 21.7796 22.7092 21.7578C22.7082 21.8492 22.7082 21.9402 22.7092 22.0309C22.432 22.0462 22.1533 22.062 21.8762 22.0805V22.5184C22.1441 22.5018 22.412 22.4857 22.6803 22.4712C22.6456 22.5641 22.6091 22.6575 22.5736 22.7501C22.3418 22.7636 22.1084 22.7763 21.8762 22.7924V23.2463C22.1533 23.228 22.432 23.2123 22.7092 23.1978C22.7082 23.2882 22.7082 23.38 22.7092 23.4712C22.3228 23.4906 21.936 23.515 21.5504 23.5422V21.8298ZM23.7734 23.1521C23.8589 23.15 23.9187 23.1262 23.953 23.0847C23.9885 23.0415 24.0068 22.9868 24.0068 22.9152C24.0068 22.8336 23.9869 22.7756 23.9436 22.7416C23.9028 22.7089 23.844 22.6926 23.7734 22.6959C23.6506 22.7006 23.5294 22.7051 23.4064 22.7091V23.1662C23.5294 23.1617 23.6504 23.1566 23.7734 23.1521ZM23.7251 22.4264C23.8106 22.4231 23.8706 22.4008 23.9067 22.3592C23.9409 22.3201 23.9587 22.2642 23.9587 22.1964C23.9587 22.1168 23.9403 22.0597 23.8985 22.0279C23.8589 21.9948 23.8016 21.9803 23.7251 21.9828C23.6188 21.9869 23.5135 21.9908 23.4064 21.9956V22.4384C23.5135 22.4341 23.6186 22.4294 23.7251 22.4264ZM23.7337 21.711C23.832 21.7078 23.9161 21.7155 23.9869 21.732C24.056 21.7484 24.1148 21.7777 24.1586 21.8163C24.2015 21.8547 24.2345 21.904 24.2537 21.9648C24.2735 22.026 24.2823 22.0983 24.2823 22.1832C24.2823 22.2599 24.2721 22.326 24.2494 22.38C24.227 22.4341 24.1919 22.4804 24.1468 22.5196C24.2054 22.5484 24.2494 22.5941 24.2815 22.6526C24.3141 22.7112 24.3304 22.7954 24.3304 22.9046C24.3304 22.997 24.3174 23.0727 24.2919 23.1372C24.2676 23.1981 24.2287 23.252 24.1786 23.2943C24.1252 23.3379 24.0633 23.3701 23.9969 23.3887C23.9196 23.4098 23.84 23.4215 23.76 23.4234C23.5374 23.432 23.3146 23.4416 23.0934 23.4516V21.739C23.3068 21.7278 23.519 21.7198 23.7337 21.711ZM25.1345 22.7036L25.5521 22.6967C25.4816 22.478 25.4138 22.2593 25.3428 22.0397C25.2732 22.2611 25.2027 22.4818 25.1345 22.7036ZM25.6385 22.9668C25.4416 22.9691 25.2443 22.9727 25.0453 22.9746C25.0025 23.1133 24.959 23.2525 24.916 23.3904C24.8054 23.3922 24.6946 23.3949 24.5855 23.3971C24.7705 22.8226 24.9576 22.2484 25.1427 21.6729C25.2763 21.6712 25.411 21.6698 25.5438 21.668C25.7295 22.2372 25.9131 22.8065 26.0998 23.3775C25.9896 23.3775 25.8788 23.3775 25.768 23.3788C25.7254 23.241 25.6829 23.1043 25.6385 22.9668ZM26.3679 23.3775V21.6631C26.4764 21.6631 26.5853 21.6655 26.6949 21.6655V23.1049C26.9549 23.1067 27.2148 23.1101 27.4747 23.1151C27.4382 23.2045 27.4029 23.2955 27.368 23.3861C27.0346 23.3806 26.7012 23.3778 26.3679 23.3775ZM27.7628 23.3922V21.6796C27.8709 21.6833 27.978 21.6857 28.0874 21.6894V23.1276C28.3481 23.1347 28.6077 23.1439 28.8666 23.1533C28.8319 23.2441 28.7972 23.3328 28.7613 23.4226C28.4283 23.4116 28.0941 23.4006 27.7628 23.3922ZM31.0823 23.4734C30.9952 23.4937 30.907 23.5087 30.8181 23.5183C30.7304 23.5289 30.6451 23.5305 30.5639 23.5259C30.44 23.5173 30.3364 23.4904 30.2493 23.4416C30.165 23.3942 30.0929 23.3279 30.0387 23.2478C29.9828 23.1615 29.9429 23.0658 29.921 22.9654C29.8951 22.85 29.8825 22.7319 29.8834 22.6136C29.8834 22.4804 29.8961 22.3592 29.921 22.2539C29.9455 22.147 29.9842 22.0589 30.0387 21.9854C30.0932 21.914 30.1624 21.8596 30.2493 21.8253C30.3364 21.7902 30.4427 21.7763 30.5639 21.7841C30.6547 21.7902 30.7414 21.803 30.823 21.8214C30.9028 21.8398 30.9911 21.8677 31.0821 21.904V22.1501C31.0317 22.1372 30.9868 22.1244 30.9456 22.1132C30.9038 22.1036 30.8644 22.0938 30.8269 22.0862C30.7903 22.0797 30.7534 22.0744 30.7171 22.0699C30.6808 22.0664 30.6416 22.0618 30.6014 22.0597C30.4635 22.0516 30.3627 22.0973 30.3044 22.1964C30.2442 22.298 30.2146 22.4427 30.2146 22.6324C30.2146 22.7234 30.2203 22.8067 30.2362 22.8805C30.2493 22.9552 30.2717 23.0205 30.3044 23.0727C30.3364 23.1276 30.3772 23.1696 30.4268 23.2015C30.4747 23.2327 30.5333 23.2508 30.6035 23.2545C30.6416 23.2574 30.6789 23.2574 30.713 23.2574C30.7497 23.2574 30.7854 23.2574 30.8242 23.2545C30.8609 23.2508 30.8999 23.2472 30.9428 23.2423C30.984 23.2378 31.0317 23.2316 31.0823 23.2214V23.4734ZM31.4232 23.5744V21.8614C31.5297 21.8694 31.6371 21.8781 31.7481 21.8873V23.3265C32.0061 23.3484 32.2659 23.3708 32.5258 23.3938C32.4889 23.4816 32.4542 23.5703 32.4193 23.6575C32.0875 23.627 31.7555 23.5994 31.4232 23.5744ZM33.1495 23.1684C33.1495 23.2765 33.1785 23.3555 33.2364 23.4047C33.2944 23.4563 33.3682 23.4861 33.4629 23.4944C33.5614 23.5059 33.6386 23.4928 33.6959 23.4551C33.7532 23.4173 33.7818 23.3443 33.7818 23.2357V22.084C33.8909 22.0956 33.9997 22.1087 34.1113 22.1224V23.2759C34.1113 23.3788 34.0944 23.4657 34.0685 23.535C34.0391 23.604 33.997 23.6577 33.9426 23.6972C33.8869 23.737 33.8177 23.7613 33.7385 23.7727C33.6471 23.7855 33.5544 23.7857 33.4629 23.7733C33.3694 23.7647 33.2772 23.7451 33.1883 23.7148C33.1145 23.6889 33.0468 23.6482 32.9894 23.5952C32.9341 23.5423 32.8921 23.4771 32.8669 23.4049C32.8379 23.3187 32.8238 23.2283 32.8253 23.1374V21.984C32.9334 21.9948 33.0426 22.0048 33.1495 22.0156V23.1684ZM35.212 23.7015C35.2957 23.7123 35.3563 23.7003 35.3905 23.6642C35.4261 23.6285 35.4444 23.5744 35.4444 23.5044C35.4444 23.4226 35.4234 23.361 35.3816 23.3204C35.3383 23.2796 35.2824 23.2545 35.2122 23.2447C35.0906 23.2278 34.968 23.2121 34.8464 23.1966V23.6534C34.968 23.6685 35.0906 23.686 35.212 23.7015ZM35.1643 22.967C35.2479 22.9787 35.3091 22.967 35.343 22.9317C35.3787 22.8983 35.3961 22.8471 35.3961 22.7763C35.3975 22.6967 35.3773 22.6375 35.3375 22.5975C35.2971 22.5594 35.2402 22.5343 35.1643 22.5247C35.0584 22.5101 34.9525 22.4964 34.8464 22.4835V22.9262C34.9525 22.9399 35.0578 22.9538 35.1643 22.967ZM35.1716 22.2539C35.2708 22.2682 35.3532 22.289 35.4242 22.3182C35.4934 22.3468 35.5511 22.3855 35.5936 22.4304C35.636 22.4763 35.6693 22.5318 35.6884 22.5957C35.7082 22.6604 35.7174 22.7352 35.7186 22.8191C35.7186 22.8964 35.7054 22.9599 35.6846 23.0103C35.6607 23.0605 35.6278 23.1019 35.5819 23.1315C35.6403 23.1727 35.6846 23.2239 35.7174 23.2882C35.748 23.3528 35.7635 23.4391 35.7635 23.5497C35.7635 23.6405 35.7513 23.715 35.7266 23.7746C35.7027 23.8304 35.6637 23.8784 35.614 23.9131C35.564 23.9472 35.5038 23.9682 35.4332 23.9753C35.3547 23.9838 35.2755 23.9821 35.1975 23.97C34.9772 23.9411 34.7566 23.9121 34.5345 23.8851V22.1727C34.747 22.1989 34.9598 22.2264 35.1716 22.2539Z" fill="white"/>
<path d="M14.4641 8.45104V3.28139H17.7314L20.0395 8.45104H32.3724L34.784 3.28139H38.0443V8.45104H39.6643V1.66162H12.8441V8.45104H14.4641Z" fill="#06141F"/>
<path d="M27.1982 6.62451C27.1982 6.64491 27.2043 6.65654 27.2163 6.65654C27.2257 6.65526 27.2345 6.65161 27.242 6.64593L30.5765 4.4812C30.6328 4.44182 30.7001 4.42162 30.7689 4.42346H31.5017C31.6139 4.42346 31.69 4.49834 31.69 4.61076V6.01038C31.69 6.17932 31.6525 6.27766 31.5027 6.36764L30.6138 6.9026C30.6049 6.90879 30.5946 6.91253 30.5838 6.91341C30.5732 6.91341 30.5624 6.90484 30.5624 6.87383V5.241C30.5624 5.22161 30.5571 5.20876 30.5442 5.20876C30.5348 5.20989 30.5259 5.21363 30.5185 5.21957L28.0818 6.80323C28.0266 6.84084 27.9613 6.86063 27.8945 6.85995H26.2792C26.1658 6.85995 26.0909 6.78508 26.0909 6.67164V4.65462C26.0909 4.63952 26.0846 4.62565 26.0717 4.62565C26.0624 4.62677 26.0535 4.63044 26.046 4.63626L24.4383 5.60151C24.422 5.61212 24.4179 5.61988 24.4179 5.62722C24.4179 5.63355 24.4212 5.64007 24.4318 5.6517L25.5806 6.79997C25.5957 6.81486 25.6063 6.8267 25.6063 6.83955C25.6063 6.85016 25.5892 6.85873 25.569 6.85873H24.5313C24.4499 6.85873 24.3869 6.8471 24.343 6.80323L23.6467 6.1075C23.644 6.10436 23.6407 6.10179 23.6371 6.09997C23.6334 6.09814 23.6294 6.0971 23.6252 6.09689C23.6177 6.09732 23.6103 6.09956 23.6038 6.10342L22.4398 6.80323C22.3693 6.84608 22.3211 6.85771 22.2515 6.85771H21.1808C21.0665 6.85893 20.9915 6.78283 20.9915 6.67041V5.29772C20.9915 5.12756 21.029 5.03003 21.1798 4.94026L22.074 4.40306C22.0811 4.39843 22.0893 4.39582 22.0977 4.39551C22.1116 4.39551 22.1189 4.40959 22.1189 4.44039V6.27868C22.1189 6.29806 22.1232 6.30663 22.1373 6.30663C22.1468 6.30512 22.1559 6.30149 22.1638 6.29602L25.1848 4.47814C25.2426 4.43835 25.3134 4.41897 25.3838 4.42244H27.0099C27.1221 4.42244 27.1982 4.49732 27.1982 4.60953L27.1972 6.62451H27.1982Z" fill="white"/>
</svg>
