<svg width="54" height="40" viewBox="0 0 54 40" fill="none" xmlns="http://www.w3.org/2000/svg">
<g clip-path="url(#clip0_246_6016)">
<path d="M27.161 0.606934C16.3701 0.606934 7.62146 9.35499 7.62146 20.147C7.62146 30.9379 16.3701 39.6865 27.161 39.6865C37.9524 39.6865 46.701 30.9385 46.701 20.147C46.701 9.35499 37.9524 0.606934 27.161 0.606934Z" fill="#570514"/>
<path d="M27.161 38.9711C16.7644 38.9711 8.3363 30.5441 8.3363 20.1464C8.3363 9.75048 16.7644 1.32178 27.161 1.32178C37.5586 1.32178 45.9868 9.75048 45.9868 20.1464C45.9868 30.5447 37.5586 38.9711 27.161 38.9711Z" fill="#7D0521"/>
<path d="M14.6137 11.584L12.7141 10.1447L13.0522 9.69917L13.8119 10.2748L13.8159 10.2691L13.305 9.36504L13.6505 8.90931L14.1813 9.94976L15.5689 10.3225L15.2121 10.7942L14.3648 10.5385L14.4819 10.7828L14.9501 11.138L14.6137 11.584ZM16.165 9.68951L14.4688 8.01661L14.8609 7.6177L16.5571 9.29117L16.165 9.68951ZM18.0811 7.10288L18.0868 7.09947L17.2287 5.65387L17.6544 5.33849L18.7585 7.48644L18.2544 7.86148L17.1145 6.61874L17.11 6.62272L17.964 8.07741L17.4663 8.4479L15.7235 6.77557L16.1565 6.45338L17.2913 7.69555V7.68589L16.4764 6.21472L16.9105 5.89082L18.0811 7.10288ZM19.8858 4.92993C19.8695 4.89674 19.8517 4.86431 19.8324 4.83276C19.815 4.80166 19.7923 4.77379 19.7654 4.75036C19.7415 4.72799 19.7114 4.71334 19.679 4.70831C19.6408 4.70282 19.6019 4.71 19.5682 4.72877C19.5352 4.74251 19.5075 4.76638 19.489 4.79692C19.4705 4.82747 19.4622 4.8631 19.4653 4.89867C19.4665 4.93445 19.4736 4.96978 19.4864 5.00323C19.5 5.03733 19.5136 5.07312 19.5301 5.10551L19.9631 5.98288C19.9773 6.01243 19.9961 6.04481 20.0182 6.07948C20.0393 6.11357 20.0637 6.14255 20.091 6.16699C20.1172 6.19103 20.1494 6.20753 20.1842 6.21472C20.2221 6.2223 20.2616 6.21626 20.2955 6.19767C20.3308 6.18212 20.3594 6.15452 20.3762 6.11982C20.3899 6.08817 20.3952 6.05353 20.3916 6.01924C20.3877 5.98122 20.3785 5.94392 20.3643 5.90844C20.3501 5.87391 20.335 5.8398 20.3188 5.80615L19.8858 4.92993ZM20.799 5.51635C20.8587 5.63568 20.899 5.74819 20.9217 5.85048C20.9445 5.9539 20.9439 6.04936 20.9217 6.1363C20.896 6.22712 20.8475 6.30986 20.7808 6.37667C20.7115 6.45111 20.6126 6.5193 20.4853 6.5818C20.3581 6.64431 20.2438 6.68124 20.1421 6.69261C20.0398 6.70397 19.9472 6.69261 19.8637 6.65965C19.774 6.62175 19.6948 6.56267 19.633 6.48747C19.5567 6.39572 19.492 6.29496 19.4403 6.18744L19.0119 5.31917C18.9096 5.1112 18.8909 4.92425 18.9539 4.75661C19.0181 4.59012 19.1608 4.45204 19.3801 4.3435C19.6 4.2344 19.7949 4.20713 19.9642 4.25827C20.1336 4.31168 20.2683 4.44124 20.37 4.64808L20.799 5.51635ZM22.3821 3.97074C22.3707 3.93664 22.3594 3.90085 22.3446 3.86561C22.3321 3.83271 22.3145 3.80202 22.2923 3.7747C22.2713 3.74911 22.2438 3.72952 22.2128 3.71787C22.1755 3.70652 22.1354 3.70812 22.0991 3.72242C22.0628 3.73181 22.0304 3.7525 22.0065 3.78151C21.9879 3.80858 21.9762 3.8398 21.9724 3.87243C21.9679 3.908 21.969 3.94406 21.9758 3.97926C21.9832 4.01733 21.9929 4.05313 22.0025 4.08723L22.2906 5.02198C22.3009 5.05494 22.3145 5.0896 22.3304 5.12711C22.3448 5.16189 22.3641 5.19443 22.3878 5.22371C22.4111 5.25326 22.4395 5.27428 22.4725 5.28735C22.5088 5.30065 22.5486 5.30065 22.585 5.28735C22.6224 5.27816 22.6553 5.25576 22.6776 5.22428C22.696 5.19502 22.7067 5.1616 22.7089 5.12711C22.7104 5.08875 22.7069 5.05037 22.6986 5.01289C22.6908 4.9765 22.6813 4.94047 22.6702 4.90493L22.3821 3.97074ZM23.1901 4.69581C23.2299 4.82253 23.2527 4.94016 23.2583 5.04471C23.264 5.15154 23.2481 5.24473 23.2123 5.32656C23.1729 5.41237 23.1123 5.4867 23.0362 5.54249C22.9375 5.61223 22.8275 5.6645 22.7111 5.69705C22.5964 5.73586 22.4759 5.75451 22.3548 5.75217C22.2598 5.74875 22.1671 5.72201 22.0849 5.67432C22.0024 5.62273 21.9337 5.55172 21.8849 5.46748C21.8241 5.36535 21.7763 5.25595 21.7428 5.14188L21.4576 4.21565C21.3894 3.9946 21.4008 3.80765 21.4894 3.65309C21.5798 3.49739 21.7417 3.38318 21.9758 3.31101C22.2105 3.23885 22.4077 3.24225 22.5657 3.32067C22.7248 3.39966 22.8373 3.5491 22.9055 3.76958L23.1901 4.69581ZM24.3045 5.20382L24.0272 2.83767L24.8096 2.74561L25.2608 4.11053L25.2665 4.10882L25.4 2.67686L26.1763 2.58594L26.4536 4.95152L25.9234 5.01403L25.7626 3.1519L25.7569 3.15304L25.5825 5.05437L25.1693 5.10267L24.5698 3.29226H24.5642L24.8312 5.14188L24.3045 5.20382ZM28.8402 5.04812L29.2175 2.69561L29.7698 2.78425L29.6249 3.68719L30.0079 3.74913L30.1522 2.84562L30.7046 2.9337L30.3272 5.28621L29.7749 5.19757L29.9318 4.21849L29.5493 4.15769L29.3919 5.1362L28.8402 5.04812ZM31.2239 5.50897L31.957 3.24396L33.1753 3.63775L33.0275 4.09121L32.3417 3.86846L32.207 4.28611L32.8718 4.50148L32.7247 4.95379L32.0598 4.73843L31.9018 5.22825L32.6235 5.46237L32.478 5.91582L31.2239 5.50897ZM34.4334 5.28451L34.6027 5.36975C34.6336 5.38721 34.669 5.39512 34.7044 5.39248C34.7349 5.38934 34.7641 5.37838 34.7891 5.36065C34.8167 5.34128 34.8406 5.31701 34.8595 5.28906C34.8801 5.25983 34.8983 5.22906 34.9141 5.197C34.9415 5.14816 34.9602 5.09489 34.9692 5.0396C34.9756 5.00094 34.9675 4.96128 34.9465 4.92822C34.9226 4.89256 34.8902 4.86345 34.8521 4.84356C34.8013 4.81446 34.7494 4.78735 34.6964 4.7623L34.4334 5.28451ZM33.8157 6.5068L33.3168 6.2545L34.3907 4.12814L35.1186 4.49522C35.3255 4.59921 35.4562 4.72138 35.5119 4.86231C35.5681 5.00437 35.542 5.18052 35.4357 5.39191C35.3778 5.50555 35.3107 5.59363 35.2346 5.65614C35.1567 5.71978 35.055 5.74819 34.9266 5.74308L34.9243 5.74933C34.9834 5.79542 35.0274 5.85816 35.0505 5.92946C35.0711 6.00232 35.0648 6.08016 35.0328 6.1488L34.9618 6.31246L34.8743 6.5068L34.7913 6.69602C34.7702 6.74399 34.7523 6.79335 34.7379 6.84376C34.7351 6.877 34.7391 6.91048 34.7499 6.94207L34.7351 6.97048L34.1896 6.69545C34.1941 6.67101 34.197 6.64772 34.2026 6.62499C34.2081 6.6025 34.2154 6.58046 34.2242 6.55907C34.2674 6.46247 34.3123 6.37269 34.3561 6.28973C34.3998 6.20676 34.4356 6.13062 34.4612 6.05959C34.4848 6.00194 34.4965 5.94006 34.4953 5.87775C34.4913 5.82661 34.4612 5.78342 34.4044 5.75047L34.2396 5.6675L33.8157 6.5068ZM37.1939 6.59146C37.2149 6.56135 37.2353 6.53123 37.2547 6.49827C37.2736 6.4683 37.2876 6.4355 37.2961 6.4011C37.3036 6.3692 37.3026 6.33591 37.2933 6.3045C37.2799 6.26783 37.255 6.23652 37.2223 6.21529C37.1927 6.192 37.1565 6.17867 37.1188 6.17721C37.0856 6.17858 37.0531 6.18772 37.024 6.20392C36.9938 6.22275 36.9665 6.2457 36.9427 6.27211C36.9166 6.30052 36.8933 6.32894 36.8722 6.35792L36.2989 7.15118C36.2796 7.17845 36.2591 7.21028 36.2387 7.24551C36.219 7.27837 36.2045 7.314 36.1955 7.3512C36.187 7.38561 36.1876 7.42164 36.1972 7.45576C36.2085 7.49298 36.2327 7.52498 36.2654 7.54611C36.295 7.57012 36.3323 7.58263 36.3705 7.58134C36.4051 7.57835 36.4383 7.56662 36.4671 7.54724C36.4992 7.52651 36.5279 7.50103 36.5523 7.47167C36.5779 7.44041 36.6012 7.412 36.6205 7.38359L37.1939 6.59146ZM37.1012 7.67282C37.0228 7.78079 36.9433 7.86943 36.8626 7.93819C36.7902 8.00177 36.7037 8.04717 36.6103 8.07059C36.518 8.091 36.4221 8.08708 36.3318 8.05923C36.2168 8.02301 36.1089 7.96706 36.0131 7.89387C35.9133 7.82474 35.8257 7.73947 35.7539 7.64157C35.6992 7.56365 35.6649 7.47315 35.6545 7.37848C35.6448 7.28926 35.6602 7.19437 35.6971 7.09549C35.7369 6.99605 35.796 6.89263 35.8733 6.78466L36.4415 5.99936C36.5768 5.81184 36.7325 5.70785 36.9103 5.68682C37.0887 5.66523 37.2768 5.7266 37.4757 5.87036C37.6752 6.01413 37.7905 6.17324 37.8235 6.34655C37.8564 6.51986 37.8047 6.70113 37.6689 6.88808L37.1012 7.67282ZM37.353 8.88942L39.0259 7.19266L39.9373 8.09162L39.6032 8.43085L39.0895 7.92399L38.7815 8.23652L39.2799 8.72691L38.9446 9.06672L38.4474 8.57576L38.0854 8.94227L38.6258 9.47528L38.2923 9.81509L37.353 8.88942ZM39.789 10.368L39.6549 10.4691C39.6289 10.4886 39.605 10.5109 39.5839 10.5356C39.5633 10.5576 39.5478 10.5838 39.5384 10.6123C39.5289 10.6411 39.5275 10.672 39.5344 10.7015C39.5427 10.7384 39.5595 10.7728 39.5833 10.8021C39.6231 10.8533 39.6702 10.8771 39.7276 10.8714C39.7845 10.8658 39.8373 10.8447 39.8856 10.8072C39.9229 10.7816 39.9528 10.7468 39.9725 10.7061C39.9901 10.67 40.0012 10.6312 40.0055 10.5913C40.0097 10.5501 40.0087 10.5084 40.0027 10.4674C39.9981 10.4247 39.9944 10.3819 39.9913 10.339C39.9785 10.2474 39.9698 10.1552 39.9652 10.0628C39.9609 9.97971 39.9678 9.8964 39.9856 9.81509C40.0044 9.73667 40.0351 9.66394 40.0771 9.59575C40.1203 9.52756 40.1834 9.46221 40.2692 9.39857C40.4482 9.26389 40.6198 9.21105 40.7863 9.24344C40.9516 9.27469 41.1005 9.37811 41.2312 9.55199C41.3039 9.64859 41.3528 9.7452 41.3778 9.8418C41.4028 9.9384 41.4051 10.0305 41.3858 10.1191C41.367 10.2083 41.3289 10.2918 41.2699 10.3714C41.2057 10.4542 41.1281 10.5257 41.0403 10.5828L40.7317 10.1714L40.8147 10.1003C40.8438 10.0773 40.8695 10.0501 40.8908 10.0197C40.9108 9.99232 40.9232 9.96015 40.9266 9.92646C40.9279 9.88799 40.9167 9.85015 40.8948 9.8185C40.8636 9.76963 40.8266 9.74065 40.784 9.73213C40.7379 9.72367 40.6903 9.73323 40.651 9.75883C40.5885 9.79463 40.5499 9.83952 40.5362 9.89123C40.5218 9.94896 40.516 10.0085 40.5192 10.068C40.5283 10.1941 40.5419 10.3066 40.5556 10.4055C40.5703 10.5049 40.5726 10.5987 40.5635 10.6873C40.5536 10.7776 40.5247 10.8647 40.4789 10.943C40.4317 11.0226 40.3499 11.1067 40.234 11.1948C40.0493 11.3334 39.8714 11.3908 39.7004 11.3664C39.5293 11.3408 39.3731 11.2351 39.2338 11.0482C39.1647 10.9609 39.1109 10.8625 39.0747 10.7572C39.0461 10.6729 39.0358 10.5834 39.0446 10.4947C39.0528 10.4171 39.0785 10.3423 39.1196 10.2759C39.1611 10.2106 39.2128 10.1543 39.2753 10.1072L39.4782 9.95374L39.789 10.368ZM13.2096 28.2568C13.3443 28.1817 13.4687 28.0959 13.3812 27.9442C13.3283 27.8505 13.2562 27.8124 13.1556 27.8686C13.0419 27.9334 13.0385 28.03 13.0334 28.1488C13.0277 28.2738 13.013 28.5062 12.9806 28.6261C12.9419 28.7744 12.8686 28.8562 12.7402 28.9295C12.4578 29.0904 12.2049 28.9864 12.0498 28.7136C11.86 28.3801 11.9793 28.1545 12.2453 28.0033L12.3544 27.9408L12.5124 28.2192L12.4248 28.2687C12.2771 28.3454 12.1964 28.4488 12.2743 28.5869C12.3413 28.7034 12.4345 28.7233 12.547 28.6608C12.6357 28.6096 12.672 28.5363 12.6811 28.4363C12.7112 28.2261 12.6902 27.9993 12.7749 27.8022C12.8155 27.7173 12.8809 27.6468 12.9624 27.5999C13.2175 27.4561 13.4374 27.5192 13.6045 27.8135C13.8568 28.2568 13.5085 28.4397 13.3624 28.525L13.2096 28.2568ZM12.6385 29.612L14.0506 28.6403L14.5609 29.3807L14.3546 29.5245L14.025 29.046L13.6693 29.2904L13.9722 29.7313L13.7653 29.874L13.4625 29.4324L13.0272 29.733L13.3568 30.2104L13.1499 30.3524L12.6385 29.612ZM14.1301 30.653C14.0205 30.7445 13.8506 30.9008 13.9903 31.069C14.1364 31.2451 14.3194 31.0974 14.4461 30.9923L14.7842 30.711C14.8893 30.624 15.128 30.4354 14.9762 30.2524C14.8154 30.0592 14.5984 30.266 14.4961 30.3501L14.1301 30.653ZM14.2313 30.1427C14.5762 29.874 14.8484 29.6933 15.1746 30.0871C15.5024 30.4808 15.2734 30.715 14.9461 31.0048L14.7586 31.1605C14.4063 31.452 14.1273 31.6389 13.7926 31.2343C13.4562 30.8303 13.6909 30.5899 14.0426 30.2984L14.2313 30.1427ZM16.3321 31.394L16.5599 31.6202L15.7189 32.4691C15.4519 32.739 15.2371 32.7805 14.9393 32.4856C14.6381 32.189 14.6779 31.9747 14.945 31.7043L15.786 30.8542L16.0144 31.0792L15.1922 31.9088C15.0763 32.0265 14.9683 32.1503 15.1234 32.3043C15.2706 32.4509 15.395 32.3413 15.5109 32.2248L16.3321 31.394ZM15.803 33.2385L16.8963 31.9179L17.1418 32.1225L16.2099 33.2487L16.6673 33.6278L16.5082 33.821L15.803 33.2385ZM17.6055 34.6125L18.5062 33.1544L18.7778 33.322L18.4215 33.8999L18.8028 34.1346L19.1591 33.5573L19.4318 33.7249L18.5311 35.1847L18.2584 35.0154L18.6704 34.3494L18.2896 34.1142L17.8771 34.7807L17.6055 34.6125ZM19.05 35.4666L19.8159 33.9335L20.6217 34.3358L20.5098 34.5614L19.991 34.3011L19.7966 34.6875L20.2756 34.9273L20.1631 35.1523L19.6847 34.9131L19.4489 35.3859L19.9682 35.645L19.8552 35.87L19.05 35.4666ZM21.003 35.2847L21.2382 35.3768C21.3383 35.4086 21.44 35.374 21.5019 35.2143C21.5718 35.0353 21.5093 34.9762 21.3974 34.9307L21.1757 34.8449L21.003 35.2847ZM20.9121 35.5189L20.6439 36.2076L20.3455 36.0899L20.9689 34.4938L21.5332 34.7154C21.7911 34.8142 21.9525 34.9802 21.8372 35.2745C21.769 35.4484 21.6525 35.6143 21.4417 35.5643L21.44 35.5683C21.607 35.6609 21.6173 35.7945 21.5565 35.9473C21.5309 36.0138 21.3695 36.4019 21.4235 36.4775L21.4121 36.5065L21.0837 36.3786C21.0877 36.2621 21.1706 36.0689 21.2098 35.9621C21.2468 35.8626 21.3008 35.7297 21.2098 35.6592C21.1377 35.6052 21.0502 35.5728 20.9649 35.5399L20.9121 35.5189ZM22.4026 36.1996C22.3634 36.336 22.3117 36.5616 22.523 36.6201C22.7441 36.682 22.8089 36.4565 22.8538 36.2979L22.9731 35.8751C23.01 35.7439 23.0987 35.4524 22.8702 35.3893C22.6282 35.32 22.5668 35.6138 22.531 35.7416L22.4026 36.1996ZM22.1952 35.7212C22.3264 35.3035 22.4475 35.0006 22.9407 35.141C23.4328 35.2785 23.3782 35.6007 23.2726 36.024L23.2066 36.2593C23.0833 36.6991 22.9594 37.0116 22.4537 36.869C21.9468 36.7269 22.0048 36.3962 22.1287 35.9558L22.1952 35.7212ZM23.5663 37.1054L23.8777 35.4194L24.7642 35.5831L24.7181 35.8297L24.1471 35.724L24.0681 36.1496L24.5943 36.2473L24.5488 36.494L24.0238 36.3974L23.9272 36.9162L24.4982 37.0219L24.4528 37.2685L23.5663 37.1054ZM25.7523 36.2201C25.7694 36.0689 25.7705 35.9166 25.5949 35.8996C25.4887 35.8905 25.4159 35.9263 25.4046 36.0416C25.3921 36.1712 25.4688 36.2303 25.5631 36.303C25.6614 36.3786 25.8416 36.5252 25.9223 36.6201C26.0211 36.7377 26.0461 36.8423 26.0313 36.9917C26.0001 37.3145 25.77 37.4617 25.4586 37.4321C25.0761 37.3946 24.9602 37.1679 24.9898 36.8628L25.0023 36.7377L25.3205 36.7679L25.3108 36.869C25.2881 37.0338 25.3267 37.1605 25.483 37.1747C25.6171 37.1878 25.6881 37.1236 25.7006 36.9934C25.7103 36.894 25.6711 36.8207 25.5949 36.7565C25.4415 36.6099 25.2438 36.4974 25.1301 36.3138C25.0853 36.2315 25.0655 36.1379 25.0733 36.0445C25.1017 35.7524 25.2813 35.6098 25.6177 35.6422C26.1251 35.6922 26.0734 36.082 26.0592 36.2496L25.7523 36.2201ZM27.7474 37.2122C27.8145 37.2099 27.8827 37.2134 27.9389 37.1861C28.0242 37.1446 28.031 37.0321 28.027 36.944C28.0202 36.7593 27.9815 36.6826 27.7827 36.6911L27.6582 36.6963L27.6787 37.2151L27.7474 37.2122ZM27.7077 36.4422C27.7855 36.44 27.8855 36.44 27.9338 36.3741C27.9622 36.3297 27.9639 36.2689 27.9605 36.1865C27.956 36.0587 27.9264 35.9967 27.7798 35.9985L27.6321 36.0041L27.648 36.4445L27.7077 36.4422ZM27.369 37.4782L27.3014 35.7649L27.8173 35.7445C27.9554 35.7388 28.0901 35.7427 28.1867 35.8558C28.2628 35.9473 28.2776 36.0445 28.2827 36.161C28.2884 36.3087 28.2628 36.457 28.0912 36.5275V36.5326C28.2725 36.5502 28.3475 36.6985 28.356 36.9201C28.3583 36.9917 28.3577 37.0622 28.3412 37.1304C28.2816 37.3509 28.1611 37.4469 27.9333 37.4566L27.369 37.4782ZM29.1891 36.6656L29.4613 36.6303L29.3135 36.1587C29.2874 36.0814 29.2698 36.0053 29.2504 35.9269C29.2429 35.8892 29.234 35.8519 29.2237 35.8149L29.2197 35.8161C29.2197 35.8524 29.2197 35.8916 29.2232 35.9308C29.2237 36.0104 29.2271 36.0888 29.2215 36.1706L29.1891 36.6656ZM28.8032 37.4077L28.989 35.6547L29.4169 35.599L30.0232 37.2497L29.6823 37.2929L29.5431 36.8735L29.1714 36.9213L29.1442 37.3634L28.8032 37.4077ZM30.8614 35.8553C30.8307 35.7052 30.7835 35.5615 30.6119 35.599C30.5074 35.6223 30.45 35.6797 30.4756 35.7933C30.5034 35.9206 30.5949 35.9524 30.7068 35.9928C30.8233 36.0343 31.0421 36.1178 31.1478 36.1826C31.2779 36.2638 31.3342 36.357 31.366 36.5019C31.4364 36.819 31.2637 37.0304 30.958 37.0986C30.5824 37.1821 30.4023 37.002 30.3358 36.7031L30.3085 36.5792L30.621 36.511L30.6426 36.6093C30.6727 36.773 30.7477 36.8798 30.9017 36.8463C31.0336 36.8167 31.0802 36.7343 31.0523 36.6059C31.0313 36.5093 30.9711 36.4508 30.8784 36.4133C30.6864 36.3224 30.4636 36.2769 30.2983 36.1371C30.2303 36.0726 30.1827 35.9897 30.1613 35.8984C30.0988 35.6132 30.2238 35.4211 30.5534 35.3473C31.0512 35.2364 31.1233 35.6234 31.1626 35.7876L30.8614 35.8553ZM31.9894 36.7968L31.4723 35.162L32.3292 34.8904L32.4059 35.1308L31.8524 35.3063L31.9825 35.7177L32.4928 35.5552L32.569 35.7962L32.0587 35.9575L32.2178 36.461L32.7724 36.2854L32.848 36.5252L31.9894 36.7968ZM33.6139 35.9615C33.6747 35.9354 33.7407 35.9161 33.7833 35.8706C33.8486 35.8018 33.8162 35.6927 33.7833 35.6138C33.7122 35.4421 33.6486 35.3853 33.4651 35.4609L33.3503 35.5081L33.5503 35.9871L33.6139 35.9615ZM33.3099 35.2529C33.3815 35.2239 33.4759 35.1904 33.4975 35.1109C33.5088 35.0597 33.4906 35.0023 33.4588 34.9262C33.41 34.8069 33.3599 34.7597 33.223 34.8114L33.0861 34.8694L33.2548 35.2762L33.3099 35.2529ZM33.3503 36.3428L32.6934 34.7597L33.1707 34.5614C33.2974 34.508 33.4259 34.4648 33.5549 34.5381C33.6571 34.5972 33.706 34.683 33.7515 34.7898C33.8083 34.9273 33.835 35.0756 33.6992 35.2001L33.7009 35.2041C33.8776 35.1586 33.9975 35.2722 34.0839 35.4762C34.1112 35.5416 34.1339 35.6098 34.143 35.6785C34.1634 35.9064 34.0845 36.0382 33.8731 36.1269L33.3503 36.3428ZM34.7732 34.9501L35.0158 34.8216L34.7124 34.4324C34.6612 34.3687 34.6197 34.3017 34.5737 34.2363C34.5538 34.2034 34.5311 34.1704 34.5112 34.1409L34.5067 34.1426C34.5192 34.1767 34.5339 34.2136 34.5493 34.2488C34.5783 34.3239 34.6089 34.3966 34.6322 34.4739L34.7732 34.9501ZM34.6697 35.7791L34.2345 34.071L34.6169 33.8698L35.7573 35.2075L35.4539 35.3654L35.1772 35.0211L34.8453 35.1967L34.972 35.6194L34.6697 35.7791ZM36.158 34.9631L35.2306 33.5215L35.4999 33.3476L36.2898 34.5796L36.7904 34.2585L36.9268 34.4699L36.158 34.9631ZM37.3473 34.1704L36.3063 32.8089L36.5603 32.614L37.4484 33.7778L37.9212 33.4158L38.0729 33.6153L37.3473 34.1704ZM39.3719 31.5758C39.3924 31.6008 39.4162 31.6258 39.4361 31.6497C39.6469 31.8816 39.743 32.127 39.4913 32.3782C39.1191 32.7515 38.8588 32.5401 38.536 32.2168L38.3622 32.0441C38.0627 31.7259 37.857 31.4724 38.2178 31.1099C38.4241 30.9099 38.6406 30.9008 38.8639 31.0911C38.8985 31.1178 38.931 31.147 38.9611 31.1786L38.7378 31.402C38.6508 31.3338 38.5133 31.1803 38.4014 31.2929C38.2241 31.4707 38.4508 31.6679 38.5434 31.7611L38.881 32.0969C38.9804 32.1964 39.1532 32.3515 39.3083 32.1958C39.4327 32.0708 39.2174 31.8867 39.1441 31.8037L39.3719 31.5758ZM40.168 31.6031L38.8548 30.5007L39.0605 30.2547L40.1811 31.1957L40.563 30.7411L40.7562 30.903L40.168 31.6031ZM40.1067 28.8778L40.2902 28.6159L41.271 29.3006C41.5818 29.5177 41.6597 29.7211 41.4204 30.066C41.1789 30.4121 40.9602 30.411 40.6488 30.1933L39.6668 29.5092L39.8504 29.2466L40.809 29.9149C40.9437 30.0086 41.0857 30.0939 41.2102 29.9154C41.3295 29.745 41.2005 29.6427 41.0653 29.5467L40.1067 28.8778ZM41.9841 28.6289C42.0177 28.571 42.0563 28.5153 42.0642 28.4528C42.0722 28.3579 41.9807 28.292 41.9051 28.2499C41.7432 28.1584 41.658 28.1533 41.5602 28.3249L41.5 28.4329L41.9517 28.6886L41.9841 28.6289ZM41.3096 28.2568C41.3488 28.1897 41.4017 28.105 41.3704 28.0295C41.3471 27.9812 41.2977 27.9493 41.2267 27.9084C41.1153 27.8453 41.0454 27.8363 40.9704 27.9635L40.8965 28.092L41.2806 28.3096L41.3096 28.2568ZM42.0125 29.0909L40.5203 28.2477L40.7749 27.7976C40.842 27.6783 40.917 27.5646 41.063 27.5436C41.1812 27.5254 41.2721 27.5641 41.3727 27.6203C41.5034 27.6942 41.6142 27.7936 41.5835 27.9766L41.5881 27.9789C41.6983 27.8334 41.8637 27.8488 42.0563 27.9579C42.1188 27.9931 42.1785 28.0317 42.2285 28.0817C42.3836 28.2477 42.4035 28.4011 42.2898 28.6L42.0125 29.0909Z" fill="white"/>
<path d="M27.161 34.2014C19.3988 34.2014 13.1067 27.9087 13.1067 20.1466C13.1067 12.3844 19.3988 6.09229 27.161 6.09229C34.9231 6.09229 41.2164 12.385 41.2164 20.1466C41.2164 27.9087 34.9237 34.2014 27.161 34.2014Z" fill="#570514"/>
<path d="M32.2643 32.4588C25.4602 35.2762 17.6611 32.0463 14.8427 25.2422C12.0253 18.4398 15.2558 10.6396 22.0588 7.82165C28.8617 5.00488 36.6625 8.23419 39.4787 15.0372C42.2972 21.8413 39.0673 29.6409 32.2643 32.4588Z" fill="white"/>
<path d="M15.7018 14.4777C15.7325 14.3652 15.8223 14.26 15.9007 14.2407C15.9564 14.2271 15.9916 14.2606 15.9979 14.3203C15.9991 14.3516 15.996 14.383 15.9888 14.4135C15.8979 14.73 15.7126 15.7272 15.7126 15.7272C15.7126 15.7272 15.1819 16.2835 14.9307 16.5358C14.8654 16.6006 14.7949 16.5802 14.7739 16.4909C14.7658 16.4403 14.769 16.3884 14.7832 16.3391C14.7975 16.2898 14.8224 16.2443 14.8563 16.2057C15.0546 16.004 15.2563 15.7971 15.4643 15.5738C15.5211 15.2027 15.6007 14.8362 15.7018 14.4777ZM16.2076 14.7118C16.2275 14.5942 16.3206 14.4737 16.4127 14.443C16.4866 14.4191 16.5377 14.4549 16.5491 14.5265C16.5519 14.5511 16.5512 14.576 16.5468 14.6004C16.4872 14.9374 16.4138 15.9727 16.4138 15.9727C16.4138 15.9727 15.8422 16.6381 15.5672 16.9365C15.4944 17.0149 15.4047 17.0069 15.3683 16.9171C15.3313 16.8262 15.3592 16.6898 15.4319 16.6103C15.645 16.375 15.8638 16.1216 16.0882 15.8585C16.1013 15.4738 16.1405 15.0931 16.2076 14.7118ZM16.9224 14.8914C16.9286 14.8286 16.9506 14.7685 16.9862 14.7166C17.0219 14.6646 17.0701 14.6225 17.1264 14.5942C17.2196 14.5567 17.2923 14.5919 17.3083 14.676C17.3118 14.6928 17.3133 14.71 17.3128 14.7271C17.2963 15.0624 17.3588 16.1091 17.3588 16.1091C17.3588 16.1091 16.7639 16.8694 16.4724 17.2268C16.3968 17.3211 16.2877 17.3291 16.228 17.245C16.1718 17.1615 16.186 17.0171 16.2621 16.9222C16.4923 16.6353 16.7201 16.35 16.9497 16.0494C16.9131 15.6645 16.9042 15.2775 16.923 14.8914M17.8055 14.9516C17.7958 14.8334 17.8833 14.6885 18.0026 14.6294C18.1129 14.5748 18.2118 14.6106 18.2356 14.7089L18.2419 14.7374C18.2726 15.076 18.4942 16.108 18.4942 16.108C18.4942 16.108 17.893 16.97 17.589 17.374C17.51 17.482 17.3798 17.5047 17.3014 17.4274C17.2241 17.3507 17.2259 17.2001 17.3037 17.0933C17.5367 16.7773 17.7708 16.4438 18.0032 16.1057C17.9066 15.7227 17.8396 15.3386 17.8049 14.9516M18.8965 15.051C18.8806 14.9982 18.866 14.9449 18.8527 14.8914C18.8215 14.7777 18.9016 14.6226 19.0323 14.5498C19.163 14.472 19.296 14.5061 19.3266 14.6209C19.3409 14.6743 19.3556 14.726 19.3715 14.7766C19.4528 15.0493 19.8204 15.9426 19.8204 15.9426C19.8204 15.9426 19.2329 16.8916 18.9323 17.3541C18.8527 17.4763 18.705 17.5206 18.5999 17.4558C18.4981 17.3899 18.4788 17.2382 18.5567 17.1143C18.7924 16.7493 19.0233 16.3813 19.2494 16.0102C19.1073 15.692 18.9902 15.3698 18.8959 15.051M20.6694 15.7488C20.4307 15.4022 20.2239 15.0488 20.0551 14.6885C20.0023 14.5777 20.0739 14.4191 20.2097 14.3305C20.3512 14.2436 20.5052 14.2583 20.5591 14.368C20.7097 14.68 21.3087 15.6164 21.3087 15.6164C21.3087 15.6164 20.7728 16.6421 20.4802 17.1433C20.4018 17.2774 20.2358 17.3416 20.1097 17.2871C19.9847 17.2325 19.9449 17.0796 20.0222 16.945C20.2478 16.5546 20.4631 16.1511 20.67 15.7488M22.232 15.3232C21.93 15.0186 21.649 14.6937 21.3911 14.351C21.3166 14.2504 21.3683 14.0862 21.5093 13.9861C21.6513 13.885 21.8286 13.8839 21.9047 13.985C22.1207 14.268 22.9162 15.1221 22.9162 15.1221C22.9162 15.1221 22.4628 16.1921 22.2053 16.7319C22.1337 16.8779 21.9587 16.9637 21.8104 16.9251C21.6627 16.887 21.599 16.7393 21.6655 16.5955C21.8684 16.1653 22.0576 15.7437 22.232 15.3232ZM23.4362 16.0472C23.6009 15.6045 23.7487 15.1698 23.876 14.7402C23.5086 14.4732 23.1565 14.1857 22.8213 13.8793C22.7236 13.7878 22.7548 13.6247 22.8929 13.5139C23.0293 13.4026 23.2242 13.3855 23.3225 13.4764C23.6021 13.7265 24.5738 14.3436 24.5738 14.3436C24.5738 14.3436 24.2465 15.5732 24.0362 16.1301C23.9794 16.2813 23.7993 16.3836 23.6333 16.362C23.4697 16.3392 23.3799 16.1983 23.4362 16.0472ZM25.4977 15.6255C25.3233 15.6164 25.213 15.4863 25.2534 15.3334C25.3656 14.904 25.4579 14.4696 25.5301 14.0316C25.1056 13.8035 24.6917 13.5563 24.2896 13.2906C24.172 13.2111 24.1794 13.0531 24.3101 12.9383C24.4402 12.8224 24.6397 12.7906 24.7579 12.8696C25.0954 13.09 26.208 13.6276 26.208 13.6276C26.208 13.6276 26.0381 14.8095 25.891 15.3658C25.8489 15.5181 25.675 15.6329 25.4977 15.6255ZM27.0297 14.4987C27.0793 14.0776 27.1085 13.6543 27.1172 13.2304C26.6516 13.0413 26.1915 12.839 25.7375 12.6235C25.6023 12.5576 25.5824 12.4076 25.6943 12.2888C25.8051 12.1701 26.0074 12.1263 26.1438 12.1905C26.5188 12.3661 27.74 12.8252 27.74 12.8252C27.74 12.8252 27.7343 13.9242 27.6758 14.472C27.6587 14.6209 27.5008 14.747 27.3235 14.7544C27.1456 14.7629 27.0132 14.6476 27.0297 14.4987ZM28.6691 13.5594C28.6583 13.1497 28.6151 12.7508 28.5526 12.3695C28.0599 12.2217 27.5711 12.0614 27.0865 11.8888C26.9371 11.8365 26.8933 11.6978 26.9871 11.5796C27.0803 11.4637 27.2729 11.4115 27.4201 11.4637C27.8269 11.6086 29.1061 11.9837 29.1061 11.9837C29.1061 11.9837 29.2748 12.9866 29.2913 13.5009C29.2936 13.6424 29.1595 13.7691 28.9873 13.785C28.8151 13.8026 28.6725 13.7009 28.6691 13.5594ZM30.0982 12.5866C30.0207 12.2152 29.9174 11.8497 29.7891 11.4927C29.2839 11.3768 28.7844 11.2569 28.2963 11.1319C28.1423 11.091 28.069 10.9671 28.14 10.8534C28.2065 10.7415 28.3861 10.6813 28.5378 10.7222C28.9549 10.8279 30.2556 11.1324 30.2556 11.1324C30.2556 11.1324 30.5681 12.0161 30.6721 12.4928C30.7011 12.6235 30.5966 12.7502 30.4391 12.7769C30.28 12.8019 30.1266 12.7184 30.0982 12.5866ZM31.2642 11.6041C31.1309 11.2643 30.9709 10.9356 30.7858 10.621C30.2982 10.5437 29.8084 10.4591 29.3163 10.3682C29.1595 10.3397 29.0685 10.2289 29.1123 10.1215C29.1566 10.0164 29.3152 9.95335 29.468 9.98403C29.8885 10.063 31.1614 10.2858 31.1614 10.2858C31.1614 10.2858 31.4012 10.6869 31.5086 10.8995C31.6063 11.091 31.6961 11.2898 31.7762 11.4944C31.8245 11.6109 31.7478 11.7325 31.6075 11.7626C31.4665 11.7933 31.312 11.7245 31.2642 11.6041ZM32.1615 10.6574C31.975 10.3539 31.7681 10.0634 31.5421 9.78799C31.0733 9.73747 30.6049 9.68348 30.1368 9.62604C29.9857 9.60615 29.876 9.51239 29.8948 9.41352C29.9118 9.31692 30.0482 9.25441 30.1971 9.27146C30.6011 9.3226 31.8154 9.4675 31.8154 9.4675C31.8154 9.4675 32.3632 10.1494 32.5996 10.5312C32.6036 10.5358 32.6053 10.5398 32.6075 10.5455C32.6598 10.6455 32.6132 10.7489 32.4996 10.783C32.4372 10.7994 32.3713 10.7962 32.3109 10.7737C32.2505 10.7512 32.1985 10.7106 32.162 10.6574M32.7826 9.75446C32.5621 9.48739 32.3166 9.23566 32.0598 9.00098C31.6336 8.97825 31.1949 8.94984 30.7426 8.91745C30.5994 8.90722 30.4784 8.82539 30.4755 8.73561C30.4698 8.64696 30.5835 8.58389 30.7255 8.59639C31.1119 8.6248 32.2427 8.70436 32.2427 8.70436C32.2427 8.70436 32.8735 9.29362 33.1508 9.62661C33.1592 9.63606 33.1666 9.64634 33.1729 9.65729C33.2212 9.73969 33.1957 9.82549 33.107 9.85675C33.0036 9.89084 32.8604 9.84765 32.7831 9.75446M33.165 8.92142C32.9036 8.6856 32.6399 8.47251 32.3615 8.2742C31.9728 8.27022 31.5682 8.2634 31.1568 8.25488C31.0205 8.25317 30.8909 8.18498 30.8659 8.10429C30.8426 8.02531 30.9307 7.96507 31.0648 7.96735C31.4176 7.97587 32.4575 7.9986 32.4575 7.9986C32.4575 7.9986 33.1423 8.49865 33.4599 8.78732C33.4753 8.80146 33.489 8.81727 33.5008 8.83448C33.544 8.89926 33.5366 8.96575 33.4713 8.997C33.3889 9.0345 33.2519 9.00041 33.1644 8.92085M38.6212 25.8038C38.59 25.9158 38.5008 26.0215 38.4218 26.0414C38.3667 26.0539 38.3314 26.0209 38.3252 25.9612C38.3241 25.9299 38.3274 25.8985 38.3348 25.868C38.4246 25.5527 38.6104 24.5531 38.6104 24.5531C38.6104 24.5531 39.1412 23.9974 39.3923 23.7462C39.4565 23.6792 39.5281 23.7008 39.5492 23.7917C39.5574 23.842 39.5542 23.8935 39.54 23.9425C39.5257 23.9915 39.5007 24.0366 39.4668 24.0747C39.2679 24.2775 39.0667 24.4844 38.8576 24.7077C38.8008 25.0771 38.7212 25.4453 38.6212 25.8038ZM38.1155 25.5697C38.0956 25.6862 38.0024 25.8078 37.9092 25.8374C37.8365 25.8618 37.7848 25.8266 37.7728 25.7555C37.7706 25.7303 37.7718 25.7049 37.7763 25.68C37.8348 25.3436 37.9081 24.3082 37.9081 24.3082C37.9081 24.3082 38.4809 23.6428 38.7553 23.3445C38.8292 23.2649 38.9179 23.2746 38.9542 23.3644C38.9906 23.4547 38.9639 23.5917 38.89 23.6712C38.6781 23.9059 38.4587 24.1599 38.2348 24.4224C38.222 24.8072 38.1821 25.1906 38.1155 25.5697ZM37.4006 25.3902C37.3943 25.4528 37.3723 25.5129 37.3367 25.5649C37.301 25.6168 37.2529 25.6589 37.1967 25.6873C37.1035 25.7249 37.0307 25.6896 37.0148 25.6049C37.0103 25.589 37.0097 25.572 37.0103 25.5532C37.0273 25.218 36.9643 24.1713 36.9643 24.1713C36.9643 24.1713 37.5592 23.4115 37.8507 23.0547C37.9268 22.9598 38.0348 22.9524 38.095 23.0365C38.1507 23.1195 38.1371 23.2638 38.061 23.3581C37.8278 23.6466 37.5982 23.9379 37.3722 24.2321C37.4103 24.6196 37.4183 25.0106 37.4006 25.3902ZM36.5176 25.3294C36.5267 25.4487 36.4398 25.5924 36.3199 25.6521C36.2102 25.7067 36.1108 25.6697 36.0869 25.5737L36.0812 25.5441C36.0499 25.2049 35.8278 24.173 35.8278 24.173C35.8278 24.173 36.4301 23.3104 36.733 22.9064C36.8125 22.7984 36.9432 22.7757 37.0205 22.8541C37.0989 22.9308 37.0967 23.0803 37.0182 23.1882C36.7864 23.5042 36.5523 23.8366 36.3193 24.1753C36.4159 24.5583 36.4835 24.9424 36.5182 25.3288M35.4266 25.2299C35.4425 25.2833 35.4567 25.3362 35.4703 25.3902C35.5004 25.5038 35.4215 25.6589 35.2908 25.7317C35.1595 25.8078 35.0271 25.7749 34.9964 25.6595C34.9817 25.6084 34.9674 25.5555 34.9515 25.5038C34.8697 25.2322 34.5026 24.3378 34.5026 24.3378C34.5026 24.3378 35.0896 23.39 35.3908 22.9274C35.4703 22.8058 35.6175 22.7603 35.7232 22.8257C35.8244 22.891 35.8437 23.0433 35.7653 23.1666C35.5289 23.536 35.2993 23.898 35.0731 24.2707C35.2152 24.5878 35.3328 24.9111 35.4272 25.2299M33.6525 24.5327C33.8923 24.8793 34.0992 25.2322 34.2674 25.593C34.3197 25.7027 34.2486 25.8618 34.1122 25.951C33.9713 26.0385 33.8168 26.0215 33.7639 25.9129C33.6128 25.601 33.0155 24.6645 33.0155 24.6645C33.0155 24.6645 33.5497 23.6394 33.8429 23.1377C33.9213 23.0035 34.0867 22.9388 34.2134 22.9945C34.3384 23.0484 34.3782 23.2019 34.3009 23.3354C34.0759 23.7295 33.8593 24.1287 33.6525 24.5327ZM32.0922 24.9572C32.393 25.2628 32.6736 25.5877 32.932 25.93C33.0059 26.0311 32.9547 26.1937 32.8132 26.2948C32.6712 26.3971 32.495 26.3982 32.4183 26.2965C32.2024 26.0129 31.4069 25.1595 31.4069 25.1595C31.4069 25.1595 31.8597 24.0906 32.1177 23.5479C32.1882 23.403 32.3643 23.3166 32.5126 23.3547C32.6604 23.3934 32.7229 23.5422 32.6564 23.6854C32.4541 24.1156 32.266 24.5378 32.0922 24.9572ZM30.8863 24.2332C30.7216 24.677 30.5744 25.1117 30.446 25.5407C30.829 25.818 31.1847 26.1118 31.5018 26.4022C31.5984 26.4931 31.5688 26.6551 31.4302 26.7659C31.2938 26.8784 31.0994 26.8954 30.9994 26.8045C30.7204 26.5545 29.7493 25.9385 29.7493 25.9385C29.7493 25.9385 30.0755 24.7083 30.2863 24.1508C30.3431 23.9991 30.5227 23.8968 30.6897 23.9196C30.8522 23.9434 30.9426 24.0826 30.8863 24.2332ZM28.8242 24.6571C28.9998 24.6645 29.11 24.7952 29.0685 24.9469C28.9567 25.3768 28.8645 25.8116 28.7924 26.2499C29.2322 26.4897 29.6436 26.7278 30.0329 26.9903C30.1511 27.0693 30.1437 27.2273 30.0124 27.3432C29.8828 27.4585 29.6828 27.4892 29.5646 27.4114C29.2271 27.1909 28.115 26.6545 28.115 26.6545C28.115 26.6545 28.2838 25.472 28.4321 24.9151C28.4742 24.7634 28.6481 24.6486 28.8242 24.6571ZM27.2928 25.7822C27.243 26.2033 27.214 26.6266 27.2059 27.0506C27.6883 27.2449 28.1525 27.454 28.5855 27.6586C28.7202 27.7233 28.7395 27.8717 28.6287 27.9927C28.5179 28.1109 28.3156 28.1552 28.1781 28.091C27.8042 27.9143 26.5825 27.4563 26.5825 27.4563C26.5825 27.4563 26.5887 26.3573 26.6484 25.8084C26.6649 25.6612 26.8212 25.5345 26.999 25.5277C27.1786 25.518 27.3098 25.6328 27.2928 25.7822ZM25.654 26.7221C25.6654 27.1312 25.7068 27.5307 25.7699 27.9097C26.2711 28.062 26.7603 28.2223 27.236 28.3916C27.3848 28.4444 27.4297 28.5848 27.3365 28.7002C27.2428 28.8183 27.0502 28.8706 26.903 28.8183C26.4961 28.6729 25.2176 28.2978 25.2176 28.2978C25.2176 28.2978 25.0483 27.2949 25.0312 26.7795C25.0289 26.6386 25.1636 26.5119 25.3352 26.4942C25.5074 26.4789 25.6511 26.5795 25.654 26.7221ZM24.2237 27.6944C24.3067 28.0819 24.4078 28.4433 24.534 28.7888C25.038 28.9053 25.5381 29.0246 26.0268 29.1491C26.1807 29.19 26.254 29.3139 26.183 29.4275C26.116 29.54 25.9381 29.5991 25.7847 29.5593C25.367 29.4531 24.0663 29.1491 24.0663 29.1491C24.0663 29.1491 23.7549 28.266 23.6509 27.7887C23.6208 27.658 23.726 27.5313 23.8839 27.5051C24.043 27.479 24.1965 27.5625 24.2237 27.6944ZM23.0577 28.6774C23.1918 29.0165 23.3517 29.3448 23.5362 29.6593C24.0243 29.7378 24.5147 29.8219 25.0068 29.9133C25.163 29.9418 25.2534 30.052 25.2108 30.16C25.1664 30.264 25.0079 30.3276 24.8545 30.2969C24.2906 30.1949 23.7266 30.0942 23.1623 29.9946C23.1623 29.9946 22.9219 29.5946 22.8145 29.3815C22.7168 29.19 22.627 28.9911 22.5457 28.7871C22.4986 28.67 22.5747 28.5484 22.7151 28.5177C22.8571 28.4882 23.0105 28.5575 23.0577 28.6774ZM22.1616 29.6235C22.3542 29.9355 22.5576 30.2213 22.781 30.4935C23.2496 30.5434 23.7179 30.5972 24.1857 30.6549C24.3368 30.6737 24.4465 30.7686 24.4283 30.8669C24.4113 30.9652 24.2749 31.0282 24.1254 31.0106C23.722 30.9589 22.5065 30.814 22.5065 30.814C22.5065 30.814 21.9593 30.1321 21.7223 29.7497C21.7189 29.7456 21.7165 29.7407 21.7155 29.7355C21.6632 29.636 21.7087 29.5321 21.8224 29.4974C21.885 29.4811 21.9512 29.4845 22.0118 29.5071C22.0725 29.5296 22.1248 29.5703 22.1616 29.6235ZM21.5405 30.5265C21.761 30.7936 22.0065 31.0459 22.2622 31.28C22.6889 31.3033 23.1276 31.3311 23.5805 31.3635C23.7243 31.3737 23.8447 31.455 23.8487 31.5453C23.8527 31.6345 23.739 31.6971 23.5987 31.6851C23.2106 31.6556 22.0798 31.5766 22.0798 31.5766C22.0798 31.5766 21.449 30.9868 21.1723 30.6543C21.1638 30.6448 21.1562 30.6346 21.1495 30.6236C21.1012 30.5424 21.1268 30.456 21.216 30.4236C21.3195 30.3901 21.4627 30.435 21.5399 30.5265M21.1581 31.3607C21.4195 31.5959 21.6831 31.8096 21.961 32.0056C22.3491 32.0102 22.7548 32.017 23.1657 32.0266C23.302 32.0283 23.4316 32.0965 23.4566 32.1772C23.4799 32.2556 23.3924 32.3164 23.2594 32.3136C22.9054 32.3045 21.8655 32.2823 21.8655 32.2823C21.8655 32.2823 21.1808 31.7823 20.8632 31.4936C20.8482 31.4795 20.8344 31.4643 20.8217 31.4482C20.7785 31.3817 20.7876 31.3152 20.8518 31.2845C20.9336 31.2476 21.0711 31.2805 21.1587 31.3607" fill="#7D0521"/>
<path d="M48.0643 13.5078L48.0291 13.5106L46.33 15.3955L46.0391 13.6924L41.7926 14.0834L41.5642 14.5562C41.2119 14.3431 40.7812 14.2311 40.3101 14.2311C40.2164 14.2311 40.1209 14.2368 40.0271 14.2442L37.3536 14.4897C36.4921 14.5692 35.5198 15.0125 34.7351 15.6784C34.2964 15.1238 33.5401 14.8397 32.6866 14.9187L30.0125 15.1636L15.1234 16.5314L16.7798 14.6959L9.31942 15.3824L8.88643 16.2757L4.61212 16.6677L2.70113 20.5966L3.5876 20.5159L0.46228 26.9205L5.30595 26.4773L6.28787 24.4646L7.47094 27.957L12.0197 27.5393L11.4691 25.9113L13.1511 25.7573L15.2553 21.4455L15.0496 25.5817L18.9403 25.2249L18.9818 25.2209L19.5921 24.3197L19.5506 25.1675L23.4396 24.8106L23.4811 24.8072L24.4193 23.4218C24.4477 23.4798 24.4784 23.5355 24.5119 23.5895C24.933 24.2628 25.7069 24.6009 26.6752 24.5129L29.33 24.2708C30.2005 24.1901 31.1796 23.7452 31.9649 23.0758C32.3565 23.5792 32.9753 23.8543 33.7231 23.8543C33.8174 23.8543 33.9157 23.8497 34.0157 23.8401L36.6705 23.5969C37.1996 23.548 37.7559 23.3741 38.2929 23.0934L38.1122 23.465L42.9553 23.0201L43.2223 22.4752L43.5093 24.1588L44.6787 22.8633L48.9917 22.4655L53.6126 12.998L48.0643 13.5078Z" fill="#570514"/>
<path d="M8.46024 18.4234L9.02394 18.3711L7.84541 19.6769L8.46024 18.4234ZM10.1258 23.7404L9.44388 21.7266L13.071 17.7063L10.1258 23.7404ZM30.8711 18.0461L29.4448 20.9697L28.4901 21.0577L29.9164 18.1336L30.8711 18.0461ZM38.2116 17.3727L36.7842 20.2974L35.8307 20.3844L37.2564 17.4602L38.2116 17.3727ZM48.3649 13.9451L48.3308 13.9491L45.9289 16.6107L45.5186 14.2059L42.2029 14.5111L41.7341 15.4793C41.7121 15.43 41.6865 15.3823 41.6574 15.3367C41.3988 14.9219 40.9227 14.6935 40.3181 14.6935C40.243 14.6935 40.1629 14.6974 40.0839 14.7048L37.4104 14.9503C36.3864 15.0435 35.2329 15.726 34.5141 16.6385C34.502 16.4158 34.4342 16.1997 34.3169 16.0101C34.0583 15.5953 33.5821 15.368 32.9758 15.368C32.9008 15.368 32.8224 15.3719 32.7434 15.3782L30.0693 15.6248C29.5522 15.672 28.9748 15.8794 28.4362 16.2067L28.7487 15.7453L25.2648 16.0658L23.5641 18.5774L23.6823 16.2095L20.7644 16.4789L19.0642 18.9888L19.1818 16.6232L13.5824 17.1392L15.2382 15.3043L9.7297 15.8112L9.29498 16.7033L5.02013 17.0954L3.75067 19.7076L4.63997 19.6269L1.51465 26.031L4.89681 25.7207L6.39241 22.6551L7.90508 27.1237L11.1702 26.8231L10.6184 25.1951L12.7414 25.0013L15.4445 19.4638L15.9752 19.4138L15.7116 24.7269L18.6283 24.4592L20.3274 21.9505L20.2114 24.3126L23.1277 24.0456L25.537 20.4878L25.0892 21.4066C24.7784 22.0442 24.7619 22.6431 25.0438 23.0938C25.3029 23.508 25.7785 23.737 26.3814 23.737C26.4581 23.737 26.5371 23.7325 26.6172 23.7256L29.2726 23.4819C30.3108 23.387 31.4728 22.7011 32.1877 21.7828C32.2008 22.0175 32.2672 22.2317 32.3849 22.4204C32.6764 22.8863 33.2418 23.1176 33.9583 23.0523L36.6126 22.8085C37.8911 22.6909 39.3464 21.6686 39.9254 20.4804L41.5932 17.063L41.8659 17.038L39.164 22.5744L42.5461 22.2653L43.5121 20.2889L43.9093 22.6142L46.0891 20.1991L45.2004 22.0215L48.5825 21.7107L52.5597 13.5615L48.3649 13.9451Z" fill="#EB008A"/>
<path d="M14.212 15.8179L10.0019 16.2054L9.15973 17.9392L10.0496 17.8585L6.52991 21.7589L8.19542 26.677L10.6048 26.4554L8.96936 21.6282L14.212 15.8179ZM48.5314 14.3496L45.6623 17.53L45.1725 14.657L42.4756 14.9047L41.6375 16.6396L42.5671 16.5515L39.8646 22.0913L42.2739 21.8697L43.707 18.9415L44.1764 21.6946L47.7648 17.7187L45.901 21.5372L48.3103 21.3156L51.859 14.0444L48.5314 14.3496Z" fill="white"/>
<path d="M13.609 17.556L10.0603 24.8278L12.4691 24.6068L16.0183 17.3344L13.609 17.556ZM5.29279 17.4912L4.45009 19.2244L5.34053 19.1443L2.21521 25.5472L4.62397 25.3273L8.59598 17.1878L5.29279 17.4912ZM29.7169 21.3649L27.7894 21.5417L29.6442 17.7396L31.5711 17.5634L29.7169 21.3649ZM32.782 15.795L30.1078 16.04C29.0413 16.1383 27.8042 16.9815 27.2348 17.9606L25.4642 21.5905C24.9505 22.6435 25.45 23.4146 26.5785 23.31L29.2339 23.0663C30.3641 22.9623 31.6961 22.0252 32.2098 20.9717L33.8963 17.5145C34.4106 16.4605 33.9116 15.6916 32.782 15.795ZM37.0569 20.691L35.1288 20.8683L36.9847 17.0668L38.9116 16.8895L37.0569 20.691ZM40.1225 15.1205L37.4484 15.3666C36.3824 15.4643 35.1442 16.307 34.5753 17.2872L32.8047 20.9183C32.291 21.9701 32.7905 22.7389 33.9196 22.6367L36.5744 22.3929C37.7035 22.2889 39.036 21.3513 39.5497 20.2984L41.2368 16.8406C41.7511 15.7871 41.2522 15.0177 40.1225 15.1205ZM25.4994 16.4633L23.073 20.0472L23.2412 16.6707L20.9995 16.8764L18.5731 20.4597L18.7408 17.0844L16.3257 17.3077L15.4825 19.0414L16.4167 18.9545L16.153 24.2669L18.393 24.0618L20.8177 20.4808L20.6529 23.855L22.8935 23.6481L27.9082 16.2423L25.4994 16.4633Z" fill="white"/>
<path d="M5.34064 19.1439L6.96864 18.1659L4.87183 18.3574L4.4502 19.2246L5.34064 19.1439ZM10.0496 17.8585L12.1868 16.8374L9.58085 17.0727L9.15978 17.9392L10.0496 17.8585Z" fill="#D1D1D1"/>
<path d="M14.2119 15.8179L12.1867 16.8373L7.76465 21.739L9.40118 26.5673L8.19537 26.677L10.6047 26.4554L8.96931 21.6282L14.2119 15.8179ZM43.4086 17.1993L41.492 21.1145L39.8645 22.0913L42.2739 21.8697L43.707 18.9415L43.4086 17.1993ZM44.6338 18.6705L45.6623 17.53L45.1725 14.657L44.0831 15.4491L44.6338 18.6705ZM50.2309 15.0224L47.5289 20.5604L45.9015 21.5378L48.3097 21.3162L51.8589 14.0444L50.2309 15.0224ZM49.0655 15.0525L44.9003 19.6655L44.1763 21.6946L47.7648 17.7187L49.0655 15.0525Z" fill="#D1D1D1"/>
<path d="M14.3858 18.3234L11.6866 23.8529L10.0609 24.8275L12.4697 24.6064L16.0189 17.3341L14.3858 18.3234ZM6.96853 18.166L3.84321 24.5678L2.21521 25.5468L4.62397 25.3269L8.59598 17.1875L6.96853 18.166ZM21.7786 21.9578L23.073 20.0468L23.2412 16.6704L21.9939 17.6154L21.7786 21.9578ZM20.9052 18.6819L17.785 23.2904L16.153 24.2666L18.393 24.0615L20.8177 20.4804L20.9052 18.6819ZM26.1046 17.2369L22.2849 22.8784L20.6523 23.8541L22.8935 23.6478L27.9082 16.2419L26.1046 17.2369ZM16.4167 18.9541L17.4952 18.0279L15.9047 18.1728L15.4825 19.0411L16.4167 18.9541ZM42.5671 16.5516L44.0831 15.4492L42.1142 15.6305L41.6329 16.6397L42.5671 16.5516Z" fill="#D1D1D1"/>
<path d="M17.2782 22.3711L18.5738 20.4595L18.7409 17.0842L17.4953 18.0281L17.2782 22.3711ZM30.0664 16.874L28.439 17.8496L26.1598 22.5223L27.7895 21.5426L29.6442 17.7394L31.5711 17.5632L33.1986 16.5864L30.0664 16.874Z" fill="#D1D1D1"/>
<path d="M33.9111 16.1593L33.1985 16.5866L30.9176 21.261L29.2998 22.2349L26.1597 22.5224L25.4523 22.9486C25.6671 23.2174 26.0546 23.3583 26.5785 23.31L29.2339 23.0663C29.289 23.0617 29.3458 23.0526 29.4021 23.0435C30.4926 22.8685 31.7205 21.9735 32.2092 20.9717L33.8963 17.5145C34.1713 16.9509 34.156 16.4701 33.9111 16.1593ZM37.4075 16.2008L35.78 17.1764L33.5008 21.8491L35.1288 20.8683L36.9847 17.0668L38.9116 16.8895L40.5396 15.9121L37.4075 16.2008Z" fill="#D1D1D1"/>
<path d="M41.2522 15.4858L40.5396 15.9132L38.2581 20.5875L36.6409 21.5615L33.5008 21.849L32.7939 22.2752C33.0082 22.544 33.3963 22.6837 33.9196 22.6366L36.5745 22.3928C36.6301 22.3883 36.6864 22.3786 36.7426 22.3701C37.8325 22.1956 39.0611 21.3001 39.5498 20.2983L41.2369 16.8405C41.5125 16.2774 41.4965 15.7955 41.2522 15.4858Z" fill="#D1D1D1"/>
</g>
<defs>
<clipPath id="clip0_246_6016">
<rect width="53.1499" height="39.08" fill="white" transform="translate(0.46167 0.606934)"/>
</clipPath>
</defs>
</svg>
