<svg width="44" height="40" viewBox="0 0 44 40" fill="none" xmlns="http://www.w3.org/2000/svg">
<path d="M39.3131 23.1865L43.5007 16.2152H36.6092C37.1913 14.198 38.0113 12.2972 39.1139 10.6436C32.9962 10.4495 26.4774 8.98009 21.9181 4.39941C17.3586 8.98009 10.8401 10.4495 4.72205 10.6436C5.82467 12.2972 6.64469 14.198 7.22702 16.2152H0.335327L4.52311 23.1865L1.7082 28.6828H8.16421C8.01138 30.0706 7.77987 31.3886 7.48253 32.5903C7.48253 32.5903 15.845 34.1427 21.9181 39.6527C27.991 34.1427 36.3537 32.5903 36.3537 32.5903C36.0564 31.3884 35.8246 30.0704 35.6715 28.6828H42.1278L39.3131 23.1865Z" fill="#E2E3E4"/>
<path d="M37.6676 23.1865L40.419 17.8668H33.7909C34.1622 15.8168 34.7467 13.9098 35.5933 12.3699C31.3142 12.3242 24.7703 10.4544 21.9181 7.354C19.0658 10.4544 12.5221 12.3242 8.24284 12.3699C9.08923 13.9098 9.6737 15.8168 10.045 17.8668H3.41687L6.16855 23.1865L3.76674 27.6659H10.3994C10.2655 29.1041 10.0559 30.4328 9.7885 31.5618C9.7885 31.5618 15.7903 32.9173 21.9181 38.2843C28.0458 32.9173 34.0476 31.5618 34.0476 31.5618C33.78 30.4328 33.5704 29.1041 33.4368 27.6659H40.0691L37.6676 23.1865Z" fill="black"/>
<path d="M21.9181 31.8447C19.5926 31.8462 17.5882 33.2162 16.6643 35.192L21.9181 38.7143L27.1719 35.192C26.2478 33.2162 24.2434 31.8462 21.9181 31.8447Z" fill="#E2E3E4"/>
<path d="M12.9847 26.2355L10.3844 23.2508L12.617 20.7844H11L9.22997 22.7068V19.0835H7.11694C7.51625 19.4205 7.85543 19.8674 7.85543 20.4697V26.2355H9.22997V23.9282L11.2712 26.2355H12.9847ZM30.794 20.7844V26.2355H29.4197V22.1708C29.4197 21.5687 29.0803 21.1221 28.6807 20.7844H30.794ZM36.5655 25.0865L37.2231 26.2355H31.8177L34.5958 21.9331H32.0017V20.7844H37.1052L34.0926 25.0865H36.5655ZM15.584 24.6629V21.9331H16.5493L17.2074 20.7844H15.584V19.0835L14.21 19.87V20.7846H13.1974V21.9333H14.21V24.738C14.2099 24.9347 14.2486 25.1294 14.3239 25.3111C14.3991 25.4928 14.5094 25.6579 14.6484 25.797C14.7875 25.9361 14.9526 26.0464 15.1343 26.1217C15.316 26.197 15.5107 26.2357 15.7074 26.2357H16.7972V25.0867H16.0076C15.8952 25.0867 15.7875 25.042 15.7081 24.9625C15.6286 24.883 15.584 24.7753 15.584 24.6629ZM26.5874 20.7844L25.2238 23.6556L23.6392 20.6413L22.0536 23.6561L20.6904 20.7844H18.552C19.0376 21.0572 19.5895 21.5169 19.9215 22.191C20.2536 22.8651 21.987 26.3662 21.987 26.3662L23.6389 23.2107L25.2906 26.3662L28.0642 20.7844H26.5874Z" fill="white"/>
<path d="M31.5099 14.7152C29.9165 13.9187 29.2329 13.1603 29.2329 13.1603C27.3108 1.75829 13.6203 -1.02905 7.50538 1.36349C11.3932 2.36248 14.861 3.79787 17.2153 6.37533C13.9578 5.55127 9.48055 5.36659 6.85864 6.1771C10.1392 6.60446 15.0735 8.83014 18.0715 13.0617C20.3951 16.3417 21.6855 17.7412 24.2517 19.1668C25.8839 18.5391 27.281 16.9911 27.7379 15.8618C29.0739 15.9208 30.7118 15.3556 31.5099 14.7152Z" fill="#E2E3E4"/>
<path d="M30.6473 14.7475C24.3232 13.4682 23.921 6.81494 13.5389 6.81494C19.3537 10.009 19.4176 15.538 24.3337 18.3584C24.3337 18.3584 24.8908 17.7739 25.4258 16.4937L26.3428 16.711C26.512 15.5765 26.3031 14.4361 26.3031 14.4361C26.9382 14.6914 28.8342 15.3319 30.6473 14.7475Z" fill="#ED1B23"/>
<path d="M19.0145 6.86764C22.9644 8.09814 25.997 10.171 27.8263 11.9788C26.3391 4.54307 17.0919 -0.0853742 9.22095 1.32386C9.22095 1.32386 15.3528 2.19759 19.0145 6.86764Z" fill="black"/>
<path d="M23.2094 14.5898C23.0851 13.6277 22.4032 12.5327 21.4323 11.7364C22.479 12.1048 23.3851 11.9275 23.7941 11.2729C23.9184 12.2353 24.6004 13.3301 25.5713 14.1264C24.5248 13.7577 23.6185 13.9357 23.2094 14.5898Z" fill="white"/>
<path d="M28.0732 27.8197C27.7818 27.8197 27.5436 27.9312 27.3908 28.1242L27.3159 27.8697H26.587C26.7391 27.998 26.8679 28.168 26.8679 28.3976V29.9442H27.3908V28.6973C27.4507 28.5038 27.6929 28.2702 27.9354 28.2702C28.212 28.2702 28.3477 28.5204 28.3477 28.819V29.9442H28.8704V28.7593C28.8704 28.1021 28.453 27.8197 28.0732 27.8197ZM19.0309 28.9887C19.0309 29.3317 18.8857 29.5522 18.5803 29.5522C18.2749 29.5522 18.1294 29.3317 18.1294 28.9887V27.8656H17.3251C17.477 27.9947 17.6063 28.1646 17.6063 28.394V29.0783H17.6093C17.6093 29.7994 18.2264 29.9939 18.5803 29.9939C18.9337 29.9939 19.5512 29.7997 19.5512 29.0783V27.8656H19.0309V28.9887ZM22.9979 27.8697L22.4793 28.9782L21.876 27.7988L21.2728 28.9787L20.7539 27.8697H19.9401C20.125 27.9738 20.3349 28.1485 20.4613 28.4052C20.5875 28.6614 21.2474 30.0257 21.2474 30.0257L21.8758 28.7767L22.5045 30.0257L23.56 27.8697H22.9979ZM25.0411 27.8095C24.4007 27.8095 23.8928 28.264 23.8928 28.9067C23.8928 29.5491 24.4007 30.0038 25.0411 30.0038C25.6816 30.0038 26.1891 29.5491 26.1891 28.9067C26.1891 28.264 25.6816 27.8095 25.0411 27.8095ZM25.0411 29.5824C24.7116 29.5824 24.4445 29.2991 24.4445 28.9067C24.4445 28.5152 24.7116 28.2309 25.0411 28.2309C25.3705 28.2309 25.6376 28.515 25.6376 28.9067C25.6376 29.2989 25.3705 29.5824 25.0411 29.5824ZM15.8512 29.5829C15.5291 29.5829 15.247 29.3573 15.2289 29.1986L14.9653 29.7417C15.141 29.894 15.4649 29.995 15.8685 29.995C16.4965 29.995 16.8694 29.721 16.8694 29.3438C16.8637 29.035 16.6828 28.8425 16.1659 28.7054C15.8017 28.6108 15.5916 28.5737 15.5916 28.4411C15.5916 28.2937 15.7737 28.2162 16.0071 28.2162C16.2034 28.2162 16.3895 28.2628 16.5578 28.3745L16.762 28.0094C16.6384 27.907 16.2612 27.8181 16.0128 27.8181C15.4055 27.8181 15.0333 28.1202 15.0333 28.4886C15.0276 28.7329 15.2025 28.9407 15.7604 29.0826C16.1131 29.1724 16.3092 29.2152 16.3092 29.3566C16.3094 29.5106 16.1205 29.5829 15.8512 29.5829Z" fill="#E2E3E4"/>
<path d="M24.8029 35.2094C24.7095 35.1257 24.6702 34.9094 24.7209 34.7387L24.7216 34.7371L24.7211 34.7373L24.7209 34.7378C24.645 34.8329 24.5108 34.8911 24.4204 34.8887C24.3463 34.8868 23.8688 34.8804 23.8688 34.8804C23.8307 34.8798 23.7939 34.8944 23.7665 34.9209C23.7391 34.9474 23.7234 34.9837 23.7228 35.0218C23.7222 35.0599 23.7368 35.0967 23.7633 35.1241C23.7898 35.1515 23.8261 35.1672 23.8642 35.1678C23.8642 35.1678 24.2869 35.1756 24.3536 35.1749C24.433 35.1749 24.5374 35.1297 24.5894 35.066L24.6187 34.9926C24.5989 35.0437 24.5802 35.0953 24.5614 35.1466C24.5333 35.2807 24.5657 35.3551 24.6686 35.4425C24.7774 35.5374 24.9426 35.6802 24.9426 35.6802C24.9691 35.7031 25.0039 35.7145 25.0388 35.7119C25.0737 35.7093 25.1061 35.6929 25.129 35.6664C25.1518 35.6399 25.1632 35.6054 25.1606 35.5705C25.158 35.5356 25.1417 35.5032 25.1152 35.4803C25.1152 35.4803 24.8537 35.2548 24.8029 35.2094ZM25.1371 34.43C25.0539 34.3363 25.0391 34.117 25.1088 33.953L25.1097 33.9513L25.109 33.9518L25.1088 33.952C25.0227 34.0383 24.8827 34.0801 24.7934 34.0675C24.7202 34.0578 24.246 33.9972 24.246 33.9972C24.2273 33.9948 24.2083 33.9961 24.19 34.001C24.1718 34.006 24.1548 34.0144 24.1399 34.026C24.1249 34.0375 24.1124 34.0519 24.103 34.0682C24.0936 34.0846 24.0876 34.1026 24.0852 34.1214C24.0828 34.1401 24.0841 34.1591 24.089 34.1773C24.094 34.1955 24.1024 34.2125 24.114 34.2275C24.1255 34.2424 24.1399 34.2549 24.1562 34.2643C24.1726 34.2737 24.1907 34.2797 24.2094 34.2822C24.2094 34.2822 24.6282 34.3375 24.6947 34.3449C24.7734 34.3537 24.8825 34.3204 24.941 34.2634L24.9785 34.1935C24.9538 34.241 24.93 34.2888 24.9063 34.3363C24.8602 34.4626 24.8856 34.5472 24.9773 34.6463L25.2229 34.9134C25.2466 34.9392 25.2797 34.9544 25.3147 34.9558C25.3496 34.9573 25.3837 34.9448 25.4094 34.9211C25.4352 34.8973 25.4504 34.8644 25.4518 34.8295C25.4533 34.7945 25.4407 34.7604 25.417 34.7347C25.417 34.7349 25.1825 34.4809 25.1371 34.43ZM24.1183 37.2848C24.0786 37.3996 23.971 37.499 23.8854 37.5275C23.815 37.5503 23.3623 37.7032 23.3623 37.7032C23.3274 37.7163 23.299 37.7424 23.283 37.7761C23.267 37.8098 23.2647 37.8483 23.2766 37.8837C23.2885 37.919 23.3137 37.9483 23.3467 37.9654C23.3798 37.9826 23.4183 37.9862 23.454 37.9755C23.454 37.9755 23.8552 37.842 23.918 37.8199C23.9926 37.793 24.0955 37.7108 24.1036 37.6385L24.1186 37.286V37.2846L24.1183 37.2848ZM25.8007 34.0278C25.8007 34.0278 25.5965 33.7493 25.557 33.6936C25.4848 33.591 25.4952 33.3716 25.583 33.2164L25.5839 33.2145L25.5834 33.2149L25.5832 33.2154C25.4881 33.2912 25.3441 33.3172 25.2564 33.2948C25.1846 33.2765 24.7206 33.1629 24.7206 33.1629C24.6837 33.1538 24.6446 33.1597 24.6121 33.1794C24.5795 33.1991 24.5561 33.2309 24.547 33.2678C24.5379 33.3048 24.5438 33.3438 24.5635 33.3764C24.5832 33.4089 24.615 33.4323 24.6519 33.4415C24.6519 33.4415 25.0622 33.5441 25.1271 33.5586C25.2046 33.5762 25.3165 33.5553 25.3812 33.5054L25.4261 33.441C25.3966 33.485 25.3678 33.5287 25.3393 33.5727C25.2818 33.6867 25.2944 33.7813 25.374 33.8902L25.5877 34.1833C25.5976 34.198 25.6104 34.2105 25.6253 34.2201C25.6402 34.2297 25.6568 34.2363 25.6743 34.2393C25.6917 34.2424 25.7096 34.2418 25.7269 34.2378C25.7442 34.2338 25.7604 34.2264 25.7747 34.2159C25.789 34.2055 25.8011 34.1922 25.8102 34.177C25.8193 34.1618 25.8252 34.1449 25.8276 34.1274C25.8301 34.1098 25.8289 34.092 25.8243 34.0749C25.8197 34.0578 25.8116 34.0418 25.8007 34.0278ZM24.7739 37.0502C24.7739 37.0502 24.4677 36.8888 24.4083 36.856C24.2985 36.7957 24.2115 36.5936 24.2227 36.4159L24.2229 36.414L24.2227 36.4142V36.4144L24.2224 36.4149C24.1701 36.5247 24.0518 36.6112 23.9636 36.6293C23.8911 36.644 23.4243 36.7448 23.4243 36.7448C23.4051 36.748 23.3868 36.7551 23.3705 36.7656C23.3541 36.776 23.34 36.7897 23.3291 36.8058C23.3182 36.8219 23.3106 36.84 23.3069 36.859C23.3032 36.8781 23.3033 36.8977 23.3074 36.9167C23.3115 36.9357 23.3194 36.9537 23.3306 36.9696C23.3418 36.9855 23.3561 36.9989 23.3726 37.0091C23.3892 37.0193 23.4076 37.026 23.4268 37.0289C23.446 37.0317 23.4656 37.0307 23.4844 37.0258V37.026C23.4844 37.026 23.898 36.9385 23.9629 36.9233C24.0401 36.9052 24.1319 36.8375 24.1678 36.7643L24.1801 36.6852C24.1725 36.7384 24.1661 36.7916 24.1595 36.8446C24.164 36.9768 24.2103 37.0502 24.3296 37.1135L24.6503 37.2832C24.6656 37.292 24.6826 37.2976 24.7001 37.2997C24.7177 37.3018 24.7355 37.3003 24.7525 37.2954C24.7695 37.2905 24.7853 37.2823 24.799 37.2711C24.8128 37.26 24.8241 37.2462 24.8324 37.2305C24.8407 37.2149 24.8457 37.1978 24.8473 37.1802C24.8488 37.1626 24.8468 37.1448 24.8413 37.128C24.8359 37.1112 24.8271 37.0956 24.8155 37.0823C24.8039 37.0689 24.7898 37.058 24.7739 37.0502ZM24.559 36.0218C24.4566 35.949 24.3936 35.7387 24.4245 35.563L24.4249 35.5609L24.4245 35.5616L24.4242 35.5621C24.3596 35.6657 24.2324 35.7377 24.1426 35.7458C24.0689 35.7525 23.5935 35.8003 23.5935 35.8003C23.5569 35.8055 23.5237 35.8247 23.5009 35.8538C23.478 35.8829 23.4673 35.9197 23.471 35.9565C23.4746 35.9934 23.4923 36.0273 23.5204 36.0514C23.5485 36.0755 23.5849 36.0878 23.6218 36.0857C23.6218 36.0857 24.0425 36.0458 24.1088 36.0382C24.1875 36.0289 24.2864 35.9721 24.3306 35.9034L24.3515 35.8269C24.338 35.8794 24.3254 35.9322 24.3125 35.9847C24.298 36.11 24.3403 36.1927 24.4518 36.2685L24.7513 36.4734C24.7802 36.4931 24.8157 36.5006 24.8501 36.4942C24.8671 36.491 24.8834 36.4845 24.8979 36.475C24.9124 36.4656 24.9249 36.4533 24.9347 36.439C24.9444 36.4247 24.9513 36.4086 24.9549 36.3917C24.9585 36.3747 24.9587 36.3573 24.9555 36.3402C24.9523 36.3232 24.9458 36.307 24.9363 36.2925C24.9268 36.2779 24.9146 36.2654 24.9003 36.2557C24.9003 36.2557 24.6144 36.061 24.559 36.0218ZM19.0328 35.2094C19.1262 35.1257 19.1654 34.9094 19.1148 34.7387L19.1141 34.7371L19.1146 34.7373L19.1148 34.7378C19.1906 34.8329 19.3249 34.8911 19.4153 34.8887C19.4894 34.8868 19.9669 34.8804 19.9669 34.8804C20.005 34.8798 20.0418 34.8944 20.0692 34.9209C20.0965 34.9474 20.1123 34.9837 20.1129 35.0218C20.1135 35.0599 20.0989 35.0967 20.0724 35.1241C20.0459 35.1515 20.0095 35.1672 19.9714 35.1678C19.9714 35.1678 19.5488 35.1756 19.482 35.1749C19.4027 35.1749 19.2983 35.1297 19.2463 35.066L19.217 34.9926C19.2365 35.0437 19.2555 35.0953 19.2741 35.1466C19.3026 35.2807 19.27 35.3551 19.1671 35.4425C19.0583 35.5374 18.8931 35.6802 18.8931 35.6802H18.8928C18.8663 35.7031 18.8318 35.7145 18.7969 35.7119C18.762 35.7093 18.7296 35.6929 18.7067 35.6664C18.6839 35.6399 18.6725 35.6054 18.6751 35.5705C18.6776 35.5356 18.694 35.5032 18.7205 35.4803C18.7205 35.4803 18.982 35.2548 19.0328 35.2094ZM18.6986 34.43C18.7821 34.3363 18.7966 34.117 18.7269 33.953L18.726 33.9513L18.7267 33.9518V33.952C18.813 34.0383 18.953 34.0801 19.0426 34.0675C19.1158 34.0578 19.5897 33.9972 19.5897 33.9972C19.6088 33.9939 19.6284 33.9945 19.6473 33.9989C19.6662 34.0034 19.684 34.0116 19.6996 34.0232C19.7153 34.0347 19.7284 34.0493 19.7382 34.066C19.748 34.0827 19.7544 34.1013 19.7569 34.1205C19.7593 34.1398 19.7579 34.1594 19.7526 34.178C19.7473 34.1967 19.7383 34.2141 19.7261 34.2292C19.7139 34.2443 19.6988 34.2568 19.6816 34.2659C19.6645 34.275 19.6457 34.2805 19.6263 34.2822C19.6263 34.2822 19.2075 34.3375 19.1407 34.3449C19.0623 34.3537 18.9532 34.3204 18.8947 34.2634L18.8572 34.1935C18.8819 34.241 18.9057 34.2888 18.9297 34.3363C18.9755 34.4626 18.9499 34.5472 18.8584 34.6463L18.6128 34.9134C18.6011 34.9262 18.587 34.9365 18.5712 34.9438C18.5555 34.9511 18.5385 34.9552 18.5212 34.9559C18.5039 34.9566 18.4866 34.9539 18.4703 34.948C18.4541 34.942 18.4391 34.9329 18.4264 34.9212C18.4136 34.9094 18.4033 34.8953 18.396 34.8796C18.3887 34.8639 18.3846 34.8469 18.3839 34.8295C18.3832 34.8122 18.3859 34.7949 18.3918 34.7787C18.3978 34.7624 18.4069 34.7475 18.4186 34.7347C18.4186 34.7349 18.6535 34.4809 18.6986 34.43ZM19.7174 37.2848C19.757 37.3996 19.8647 37.499 19.9503 37.5275C20.0206 37.5503 20.4734 37.7032 20.4734 37.7032C20.5083 37.7163 20.5367 37.7424 20.5527 37.7761C20.5687 37.8098 20.571 37.8483 20.5591 37.8837C20.5472 37.919 20.522 37.9483 20.4889 37.9654C20.4558 37.9826 20.4174 37.9862 20.3817 37.9755C20.3817 37.9755 19.9805 37.842 19.9177 37.8199C19.8431 37.793 19.7402 37.7108 19.7321 37.6385L19.7171 37.286V37.2846L19.7174 37.2848ZM18.035 34.0278C18.035 34.0278 18.2392 33.7493 18.2784 33.6936C18.3507 33.591 18.3404 33.3716 18.2527 33.2164L18.2518 33.2145L18.252 33.2149L18.2525 33.2154C18.3476 33.2912 18.4914 33.3172 18.5793 33.2948C18.7577 33.2505 18.9362 33.2066 19.1148 33.1629C19.1331 33.1584 19.1521 33.1575 19.1707 33.1603C19.1894 33.1631 19.2073 33.1696 19.2234 33.1793C19.2395 33.1891 19.2536 33.2019 19.2648 33.217C19.276 33.2322 19.284 33.2494 19.2886 33.2677C19.2931 33.286 19.294 33.305 19.2912 33.3236C19.2883 33.3423 19.2819 33.3602 19.2721 33.3763C19.2624 33.3924 19.2496 33.4065 19.2344 33.4177C19.2193 33.4288 19.202 33.4369 19.1837 33.4415C19.1837 33.4415 18.7735 33.5441 18.7084 33.5586C18.6309 33.5762 18.5192 33.5553 18.4545 33.5054L18.4096 33.441C18.4391 33.485 18.4674 33.5287 18.4964 33.5727C18.5536 33.6867 18.541 33.7813 18.4617 33.8902L18.2477 34.1833C18.2375 34.1972 18.2247 34.2091 18.2099 34.2181C18.1951 34.2271 18.1787 34.2331 18.1616 34.2357C18.1445 34.2384 18.1271 34.2376 18.1103 34.2336C18.0935 34.2295 18.0776 34.2221 18.0637 34.2119C18.0497 34.2017 18.0379 34.1889 18.0289 34.1741C18.0199 34.1593 18.0139 34.1429 18.0112 34.1258C18.0086 34.1087 18.0093 34.0913 18.0134 34.0744C18.0175 34.0576 18.0248 34.0418 18.035 34.0278ZM19.0618 37.0502C19.0618 37.0502 19.368 36.8888 19.4274 36.856C19.5374 36.7957 19.6242 36.5936 19.613 36.4159L19.6128 36.414L19.613 36.4142V36.4144L19.6135 36.4149C19.6655 36.5247 19.7839 36.6112 19.8723 36.6293C19.9446 36.644 20.4114 36.7448 20.4114 36.7448C20.4306 36.748 20.4489 36.7551 20.4652 36.7656C20.4816 36.776 20.4957 36.7897 20.5066 36.8058C20.5175 36.8219 20.5251 36.84 20.5288 36.859C20.5325 36.8781 20.5323 36.8977 20.5283 36.9167C20.5242 36.9357 20.5163 36.9537 20.5051 36.9696C20.4939 36.9855 20.4796 36.9989 20.4631 37.0091C20.4465 37.0193 20.4281 37.026 20.4089 37.0289C20.3897 37.0317 20.3701 37.0307 20.3513 37.0258V37.026C20.3513 37.026 19.9377 36.9385 19.8728 36.9233C19.7956 36.9052 19.7038 36.8375 19.6682 36.7643L19.6556 36.6852C19.6629 36.7384 19.6696 36.7916 19.676 36.8446C19.6717 36.9768 19.6256 37.0502 19.506 37.1135C19.3787 37.1812 19.1854 37.2832 19.1854 37.2832C19.1701 37.292 19.1531 37.2976 19.1356 37.2997C19.118 37.3018 19.1002 37.3003 19.0832 37.2954C19.0662 37.2905 19.0504 37.2823 19.0367 37.2711C19.0229 37.26 19.0116 37.2462 19.0033 37.2305C18.995 37.2149 18.9899 37.1978 18.9884 37.1802C18.9869 37.1626 18.9889 37.1448 18.9944 37.128C18.9998 37.1112 19.0086 37.0956 19.0202 37.0823C19.0318 37.0689 19.0459 37.058 19.0618 37.0502ZM19.2769 36.0218C19.3791 35.949 19.4424 35.7387 19.4115 35.563L19.411 35.5609L19.4115 35.5616L19.4117 35.5621C19.4761 35.6657 19.6033 35.7377 19.6933 35.7458C19.767 35.7525 20.2424 35.8003 20.2424 35.8003C20.279 35.8055 20.3122 35.8247 20.3351 35.8538C20.3579 35.8829 20.3686 35.9197 20.365 35.9565C20.3613 35.9934 20.3436 36.0273 20.3155 36.0514C20.2874 36.0755 20.2511 36.0878 20.2141 36.0857C20.2141 36.0857 19.7932 36.0458 19.7271 36.0382C19.6484 36.0289 19.5495 35.9721 19.5053 35.9034L19.4842 35.8269C19.4977 35.8794 19.5103 35.9322 19.5232 35.9847C19.5377 36.11 19.4954 36.1927 19.3841 36.2685L19.0844 36.4734C19.0701 36.4831 19.054 36.49 19.0371 36.4936C19.0201 36.4971 19.0026 36.4973 18.9856 36.4941C18.9686 36.4909 18.9524 36.4844 18.9379 36.4749C18.9234 36.4654 18.9109 36.4532 18.9011 36.4389C18.8914 36.4246 18.8845 36.4085 18.881 36.3916C18.8774 36.3746 18.8772 36.3572 18.8804 36.3401C18.8836 36.3231 18.8901 36.3069 18.8996 36.2924C18.9091 36.2779 18.9213 36.2654 18.9356 36.2557C18.9356 36.2557 19.2213 36.061 19.2769 36.0218Z" fill="#ED1B23"/>
</svg>
