<svg width="49" height="40" viewBox="0 0 49 40" fill="none" xmlns="http://www.w3.org/2000/svg">
<g clip-path="url(#clip0_246_8080)">
<path d="M39.5323 21.8629V21.4315L40.9279 19.5707L44.2874 21.8629H39.5323ZM48.93 13.8215H44.2161L45.9081 11.5668L44.9233 10.3175C42.5351 7.27273 39.4841 4.81255 36.0023 3.12399C32.5205 1.43542 28.6996 0.56292 24.8299 0.572811C20.9603 0.56292 17.1394 1.43542 13.6576 3.12399C10.1758 4.81255 7.1248 7.27273 4.73658 10.3175L3.75179 11.5668L5.44562 13.8233H0.0621338V17.4623H3.12528V25.5226H7.29139V17.6518L13.3595 25.7383H10.664L14.9615 30.8629H18.2328L24.8299 39.6528L31.4252 30.8629H34.6984L39.1815 25.5226H48.93V20.3736L44.5988 17.4173H48.93V13.8215Z" fill="white"/>
<path d="M24.8876 24.8018H27.6712V14.543H24.8876V24.8018Z" fill="#C00C3F"/>
<path d="M36.1096 20.0744L31.9622 14.5427H28.8578L29.7 15.6663V24.8032H32.4011V19.2697L36.5485 24.8032H38.8107V14.5427H36.1096V20.0744Z" fill="#C00C3F"/>
<path d="M20.3772 14.5431V20.8176L19.3193 22.2263L18.2614 20.8176V14.5431H15.6127V20.8176L14.5567 22.2263L13.4987 20.8176V14.5431H10.8483V21.1909L13.5588 24.8018H15.5527L16.9371 22.956L18.3233 24.8018H20.3153L23.0277 21.1909V14.5431H20.3772Z" fill="#C00C3F"/>
<path d="M24.8298 33.9671V38.4502L32.62 28.0715H29.2548L24.8298 33.9671Z" fill="#231F20"/>
<path d="M24.8298 38.4512V33.9681L20.4048 28.0706H17.0397L24.8298 38.4512Z" fill="#C00C3F"/>
<path d="M24.3505 11.2578H22.0545V7.3956H20.9459V12.1938H24.3505V11.2578Z" fill="#6D6E71"/>
<path d="M26.8459 12.2646C27.5925 12.2646 28.3184 12.0752 28.7142 11.7976V9.46786H26.7915V10.3645H27.6938V11.2048C27.435 11.2884 27.1647 11.3308 26.8928 11.3305C25.8968 11.3305 25.5629 10.824 25.5629 9.79424C25.5629 8.81134 25.878 8.2336 26.8778 8.2336C27.4312 8.2336 27.7482 8.40804 28.0089 8.74006L28.6992 8.10604C28.2809 7.50579 27.5437 7.32197 26.8534 7.32197C25.3022 7.32197 24.4862 8.16982 24.4862 9.78487C24.4862 11.3943 25.2215 12.2646 26.8459 12.2646Z" fill="#6D6E71"/>
<path d="M12.2101 26.459L15.2976 30.1411H34.3631L37.4506 26.459H12.2101Z" fill="#6D6E71"/>
<path d="M19.1178 28.8248C19.2646 28.9068 19.4297 28.9506 19.598 28.9523C19.8437 28.9523 19.9356 28.8604 19.9356 28.7422C19.9356 28.6316 19.8456 28.5753 19.8024 28.5528C19.6636 28.4815 19.5004 28.4327 19.3504 28.3708C19.129 28.2583 19.0165 28.1532 19.0165 27.8756C19.0165 27.5474 19.2509 27.3504 19.6842 27.3504C19.8855 27.345 20.0846 27.3922 20.262 27.4873L20.1419 27.7612C20.0028 27.6811 19.8448 27.6396 19.6842 27.6411C19.4591 27.6411 19.3691 27.7237 19.3691 27.8456C19.3691 27.9056 19.3879 27.9525 19.4235 27.9844C19.4571 28.0138 19.4951 28.0379 19.5361 28.0557C19.6524 28.1101 19.8249 28.1701 19.9675 28.2376C20.1401 28.3239 20.2826 28.4308 20.2826 28.7216C20.2826 29.048 20.0275 29.2524 19.6036 29.2524C19.3889 29.2517 19.1775 29.2003 18.9865 29.1024L19.1178 28.8248Z" fill="white"/>
<path d="M21.6165 27.3773H22.7419V27.6699H21.9691V28.1295H22.7157V28.4146H21.9691V28.9323H22.7719V29.2212H21.6165V27.3773Z" fill="white"/>
<path d="M24.4539 28.3216C24.4539 28.6742 24.5458 28.965 24.8553 28.965C25.2192 28.965 25.328 28.7192 25.328 28.2728C25.328 27.9239 25.2398 27.6294 24.9266 27.6294C24.5739 27.6294 24.4539 27.8808 24.4539 28.3216ZM25.6937 28.3084C25.6937 28.9368 25.4218 29.252 24.8628 29.252C24.2869 29.252 24.0956 28.8787 24.0956 28.2897C24.0956 27.6594 24.3619 27.3499 24.9228 27.3499C25.4912 27.3499 25.6937 27.7157 25.6937 28.3084Z" fill="white"/>
<path d="M27.04 27.3771H27.3908V28.5139C27.3908 28.7971 27.479 28.9678 27.7097 28.9678C27.9817 28.9678 28.0792 28.8328 28.0792 28.4651V27.3771H28.43V28.4895C28.43 29.0222 28.1711 29.2529 27.7134 29.2529C27.2595 29.2529 27.04 29.026 27.04 28.4689V27.3771Z" fill="white"/>
<path d="M29.8462 27.3773H30.1988V28.9323H30.9135V29.2212H29.8462V27.3773Z" fill="white"/>
<path d="M24.8298 3.9837V1.29195C21.069 1.28274 17.3557 2.13111 13.972 3.77254C10.5884 5.41398 7.62356 7.80528 5.30289 10.7646L4.66138 11.5769L5.64241 12.8843H9.00756L8.07155 11.6388C10.1475 9.22969 12.7201 7.29823 15.6127 5.97688C18.5054 4.65554 21.6496 3.97559 24.8298 3.9837Z" fill="#C00C3F"/>
<path d="M44.9999 11.5778L44.3583 10.7656C42.0371 7.80643 39.0719 5.41528 35.688 3.77387C32.3041 2.13246 28.5906 1.28399 24.8296 1.29293V3.98467C31.3142 3.98467 37.3654 6.76083 41.5878 11.6379L40.6537 12.8853H44.0188L44.9999 11.5778Z" fill="#231F20"/>
<path d="M0.782349 16.7416H3.84737V24.8037H6.57101V16.7416H9.63416V14.5432H0.782349V16.7416Z" fill="#C00C3F"/>
<path d="M48.2096 16.6961V14.5427H40.5921V18.4706L45.4879 21.8095V22.5842H40.4158V24.8032H48.2096V20.7534L43.282 17.392V16.6961H48.2096Z" fill="#C00C3F"/>
</g>
<defs>
<clipPath id="clip0_246_8080">
<rect width="48.8678" height="39.08" fill="white" transform="translate(0.0621338 0.572754)"/>
</clipPath>
</defs>
</svg>
