<svg width="30" height="31" viewBox="0 0 30 31" fill="none" xmlns="http://www.w3.org/2000/svg">
<path d="M15 15.5C12.9375 15.5 11.1719 14.7656 9.70312 13.2969C8.23437 11.8281 7.5 10.0625 7.5 8C7.5 5.9375 8.23437 4.17188 9.70312 2.70313C11.1719 1.23438 12.9375 0.5 15 0.5C17.0625 0.5 18.8281 1.23438 20.2969 2.70313C21.7656 4.17188 22.5 5.9375 22.5 8C22.5 10.0625 21.7656 11.8281 20.2969 13.2969C18.8281 14.7656 17.0625 15.5 15 15.5ZM0 26.75V25.25C0 24.1875 0.27375 23.2112 0.82125 22.3212C1.36875 21.4312 2.095 20.7512 3 20.2812C4.9375 19.3125 6.90625 18.5862 8.90625 18.1025C10.9062 17.6187 12.9375 17.3762 15 17.375C17.0625 17.3737 19.0937 17.6162 21.0937 18.1025C23.0937 18.5887 25.0625 19.315 27 20.2812C27.9062 20.75 28.6331 21.43 29.1806 22.3212C29.7281 23.2125 30.0012 24.1888 30 25.25V26.75C30 27.7812 29.6331 28.6644 28.8994 29.3994C28.1656 30.1344 27.2825 30.5012 26.25 30.5H3.75C2.71875 30.5 1.83625 30.1331 1.1025 29.3994C0.36875 28.6656 0.00125 27.7825 0 26.75Z" fill="#1D4D9F"/>
</svg>
