<svg width="27" height="31" viewBox="0 0 27 31" fill="none" xmlns="http://www.w3.org/2000/svg">
<path d="M0 27.0714V11.6429C0 11.1 0.119812 10.5857 0.359437 10.1C0.599062 9.61428 0.92925 9.21428 1.35 8.9L11.475 1.18571C12.0656 0.728572 12.7406 0.5 13.5 0.5C14.2594 0.5 14.9344 0.728572 15.525 1.18571L25.65 8.9C26.0719 9.21428 26.4026 9.61428 26.6422 10.1C26.8819 10.5857 27.0011 11.1 27 11.6429V27.0714C27 28.0143 26.6692 28.8217 26.0077 29.4937C25.3462 30.1657 24.552 30.5011 23.625 30.5H18.5625C18.0844 30.5 17.6839 30.3354 17.361 30.0063C17.0381 29.6771 16.8761 29.2703 16.875 28.7857V20.2143C16.875 19.7286 16.713 19.3217 16.389 18.9937C16.065 18.6657 15.6645 18.5011 15.1875 18.5H11.8125C11.3344 18.5 10.9339 18.6646 10.611 18.9937C10.2881 19.3229 10.1261 19.7297 10.125 20.2143V28.7857C10.125 29.2714 9.963 29.6789 9.639 30.008C9.315 30.3371 8.9145 30.5011 8.4375 30.5H3.375C2.44687 30.5 1.65262 30.1646 0.992249 29.4937C0.331875 28.8229 0.001125 28.0154 0 27.0714Z" fill="#1D4D9F"/>
</svg>
