<svg width="59" height="40" viewBox="0 0 59 40" fill="none" xmlns="http://www.w3.org/2000/svg">
<g clip-path="url(#clip0_246_3727)">
<mask id="mask0_246_3727" style="mask-type:luminance" maskUnits="userSpaceOnUse" x="0" y="0" width="59" height="41">
<path d="M0.478027 0.195103H58.3743V40.0039H0.478027V0.195103Z" fill="white"/>
</mask>
<g mask="url(#mask0_246_3727)">
<path d="M44.2817 20.0996C44.2817 27.5728 38.2235 33.6313 30.7504 33.6313C23.2772 33.6313 17.2185 27.5728 17.2185 20.0996C17.2185 12.626 23.2772 6.56749 30.7504 6.56749C38.2235 6.56749 44.2817 12.626 44.2817 20.0996Z" fill="white"/>
<path d="M37.0956 14.6831C37.0956 14.6831 37.8333 14.438 38.1657 14.5188L38.2659 14.2564C37.9802 14.1174 37.2636 14.2845 37.2636 14.2845C37.2636 14.2845 36.9227 13.6621 36.6779 13.6075L36.5576 13.9044C36.8988 14.1004 37.0956 14.6831 37.0956 14.6831Z" fill="#C7A079"/>
<path d="M34.3058 32.1571C34.3058 32.1571 34.0052 31.7418 33.8167 31.7032L33.7283 31.9225C33.9927 32.0878 34.1612 32.4346 34.1612 32.4346C34.1612 32.4346 34.8244 32.2974 35.0877 32.3751L35.1823 32.1606C34.9577 32.0394 34.3058 32.1571 34.3058 32.1571Z" fill="#C7A079"/>
<path d="M35.6526 28.8615C35.6526 28.8615 35.0737 28.294 34.8319 28.3065L34.7988 28.6097C35.1753 28.725 35.5672 29.2583 35.5672 29.2583C35.5672 29.2583 36.2543 28.7769 36.5949 28.7825L36.6447 28.4816C36.3345 28.4103 35.6526 28.8615 35.6526 28.8615Z" fill="#C7A079"/>
<path d="M37.5986 13.7168C37.5986 13.7168 38.3332 13.6009 38.6709 13.6458L38.8233 13.3412C38.5248 13.2336 37.7634 13.3537 37.7634 13.3537C37.7634 13.3537 37.4382 12.7584 37.1905 12.7295L37.0698 13.0244C37.4281 13.1848 37.5986 13.7168 37.5986 13.7168Z" fill="#C7A079"/>
<path d="M38.1915 12.7626C38.1915 12.7626 38.7712 12.7338 39.1027 12.7988L39.2754 12.5023C38.9871 12.3762 38.3889 12.3947 38.3889 12.3947C38.3889 12.3947 38.0028 11.9126 37.7776 11.8217L37.6394 12.0862C37.9844 12.2655 38.1915 12.7626 38.1915 12.7626Z" fill="#C7A079"/>
<path d="M38.7191 11.8951C38.7191 11.8951 39.2736 11.8366 39.5983 11.9243L39.7959 11.6173C39.5189 11.4753 38.941 11.5407 38.941 11.5407C38.941 11.5407 38.6329 11.0126 38.3936 10.953L38.2493 11.195C38.5789 11.3966 38.7191 11.8951 38.7191 11.8951Z" fill="#C7A079"/>
<path d="M39.2712 11.0796C39.2712 11.0796 39.7602 11.1196 40.0764 11.2275L40.2551 10.9904C39.9881 10.8282 39.4537 10.8003 39.4537 10.8003C39.4537 10.8003 39.1789 10.2883 38.9446 10.2127L38.7944 10.4341C39.1094 10.6548 39.2712 11.0796 39.2712 11.0796Z" fill="#C7A079"/>
<path d="M33.947 32.7993C33.947 32.7993 33.6424 32.3903 33.4681 32.3512L33.3867 32.5695C33.6315 32.7353 33.8131 33.0781 33.8131 33.0781C33.8131 33.0781 34.4043 32.9444 34.6494 33.0228L34.7359 32.8076C34.5291 32.6868 33.947 32.7993 33.947 32.7993Z" fill="#C7A079"/>
<path d="M34.6622 31.4479C34.6622 31.4479 34.2473 30.9229 34.028 30.8922L33.947 31.168C34.2658 31.3451 34.5226 31.7998 34.5226 31.7998C34.5226 31.7998 35.2373 31.5411 35.5457 31.6129L35.6346 31.3409C35.3668 31.2156 34.6622 31.4479 34.6622 31.4479Z" fill="#C7A079"/>
<path d="M35.0453 30.7114C35.0453 30.7114 34.5291 30.1066 34.2883 30.0997L34.2322 30.4008C34.5948 30.5534 34.933 31.103 34.933 31.103C34.933 31.103 35.6601 30.6668 35.9992 30.7048L36.0665 30.4068C35.7652 30.3054 35.0453 30.7114 35.0453 30.7114Z" fill="#C7A079"/>
<path d="M35.3757 29.7631C35.3757 29.7631 34.8307 29.173 34.59 29.1748L34.5437 29.4766C34.9122 29.612 35.2767 30.1558 35.2767 30.1558C35.2767 30.1558 35.9864 29.6997 36.3263 29.7234L36.385 29.4226C36.08 29.3353 35.3757 29.7631 35.3757 29.7631Z" fill="#C7A079"/>
<path d="M24.7733 10.3477L25.0236 10.1339C24.8139 10.0142 24.5918 9.32063 24.5918 9.32063C24.5918 9.32063 24.1066 9.30604 23.885 9.23813L23.5657 9.46723L24.3303 9.55668C24.3303 9.55668 24.5083 10.214 24.7733 10.3477Z" fill="#C7A079"/>
<path d="M25.6369 9.73584L25.8996 9.53673C25.6334 9.40265 25.4541 8.73916 25.4541 8.73916C25.4541 8.73916 24.9556 8.69006 24.7697 8.58145L24.5117 8.77991C24.6811 8.91186 25.2021 8.96576 25.2021 8.96576C25.2021 8.96576 25.3617 9.61993 25.6369 9.73584Z" fill="#C7A079"/>
<path d="M23.9464 11.042C24.0202 10.968 24.0964 10.8964 24.1749 10.8275C23.9325 10.5247 23.8479 9.95198 23.8479 9.95198C23.8479 9.95198 23.2815 9.9276 23.0098 9.91128C22.9264 9.98608 22.8086 10.132 22.8086 10.132L23.5539 10.2193C23.5539 10.2193 23.7034 10.7666 23.9464 11.042Z" fill="#C7A079"/>
<path d="M23.2575 11.8101C23.3252 11.7415 23.4041 11.6538 23.4843 11.5845C23.2412 11.2802 23.1221 10.6612 23.1221 10.6612C23.1221 10.6612 22.5777 10.6376 22.3085 10.6198C22.2226 10.6954 22.1495 10.7573 22.1064 10.8419L22.837 10.9223C22.837 10.9223 23.0131 11.5361 23.2575 11.8101Z" fill="#C7A079"/>
<path d="M26.4733 9.12109L26.7536 8.93658C26.4263 8.86936 26.2616 8.1533 26.2616 8.1533C26.2616 8.1533 25.8225 8.14809 25.6758 8.05129C25.5629 8.11219 25.4445 8.15434 25.3313 8.22775C25.4979 8.30788 25.9893 8.3458 25.9893 8.3458C25.9893 8.3458 26.2227 9.0097 26.4733 9.12109Z" fill="#C7A079"/>
<path d="M22.7286 12.3859C22.4996 12.1363 22.2979 11.4975 22.2979 11.4975C22.2979 11.4975 21.7836 11.5229 21.5116 11.5163L21.2727 11.7698C21.5425 11.8143 22.0339 11.7903 22.0339 11.7903C22.0339 11.7903 22.2015 12.3448 22.5139 12.6655L22.7286 12.3859Z" fill="#C7A079"/>
<path d="M27.2755 8.46436C27.347 8.41179 27.5347 8.31053 27.5347 8.31053C27.2348 8.19421 27.2144 7.67274 27.2144 7.67274C27.2144 7.67274 26.5557 7.66191 26.4022 7.58989C26.3084 7.65184 26.208 7.68525 26.1182 7.76149C26.2438 7.86802 26.9108 7.89796 26.9108 7.89796C26.9108 7.89796 26.9802 8.40206 27.2755 8.46436Z" fill="#C7A079"/>
<path d="M20.8818 12.4106C20.8047 12.5154 20.7466 12.5819 20.6726 12.686L21.3723 12.7197C21.3723 12.7197 21.5207 13.3631 21.7567 13.5918L21.9534 13.3008C21.7534 13.0654 21.6255 12.4078 21.6255 12.4078C21.6255 12.4078 21.117 12.4291 20.8818 12.4106Z" fill="#C7A079"/>
<path d="M20.8736 13.3872C20.8736 13.3872 20.4286 13.4488 20.1965 13.3927L19.998 13.6378C20.1815 13.7043 20.6703 13.7053 20.6703 13.7053C20.6703 13.7053 20.9241 14.5475 21.1239 14.6509L21.3055 14.3351C21.0489 14.1238 20.8736 13.3872 20.8736 13.3872Z" fill="#C7A079"/>
<path d="M19.5944 14.4458L19.4124 14.7319L20.0677 14.7313C20.0677 14.7313 20.2257 15.4205 20.5107 15.6392L20.6825 15.3349C20.4933 15.1333 20.2966 14.4294 20.2966 14.4294L19.5944 14.4458Z" fill="#C7A079"/>
<path d="M19.016 15.5593L18.8804 15.8643L19.5206 15.8301C19.5206 15.8301 19.7752 16.4609 20.0123 16.6816C20.0759 16.5768 20.1074 16.4338 20.1645 16.3311C19.8844 16.0595 19.7058 15.5269 19.7058 15.5269L19.016 15.5593Z" fill="#C7A079"/>
<path d="M27.7031 7.40716C27.7338 7.678 28.0099 7.95752 28.0099 7.95752L28.2449 7.79981C28.0329 7.62161 27.9473 7.24528 27.9473 7.24528L27.521 7.19757C27.3071 7.18576 26.8533 7.34376 26.8533 7.34376C27.066 7.33647 27.7031 7.40716 27.7031 7.40716Z" fill="#C7A079"/>
<path d="M52.1538 21.2945L52.1233 21.4596C52.1002 21.58 50.7649 21.8178 49.43 22.0949C49.4723 21.6932 49.5 21.2873 49.5167 20.8789C50.8856 21.0943 52.1538 21.2945 52.1538 21.2945ZM40.842 18.6262L40.3514 22.6578C40.3114 22.905 40.2246 23.2135 40.0144 23.274L38.6803 23.4147L39.1708 19.384C39.208 19.1327 39.2981 18.826 39.5061 18.7658L40.842 18.6262ZM30.7498 33.948C26.589 33.9476 22.8595 32.1105 20.3209 29.2051C20.473 29.1898 20.5865 29.1772 20.6454 29.1713C20.6779 29.1685 20.6962 29.1442 20.7016 29.1006C20.8191 28.1374 22.1815 16.9704 22.1841 16.9485C22.1846 16.9248 22.1566 16.9158 22.1357 16.9197C22.1155 16.9228 21.3945 17.0536 20.7206 17.1811C20.3378 17.2549 19.9599 17.3896 19.5968 17.572C19.6007 17.5564 19.6042 17.541 19.6078 17.5292C19.3268 17.2615 19.2755 16.6592 19.2755 16.6592L18.5039 16.7702L18.4115 17.0676L19.0257 16.9785C19.0257 16.9785 19.0623 17.3952 19.3051 17.7318C18.2638 18.3448 17.3775 19.3569 16.912 20.4995C16.9082 20.3661 16.9019 20.2335 16.9019 20.0991C16.9019 12.4504 23.1019 6.25193 30.7498 6.25055C36.4537 6.25055 41.3501 9.69948 43.4723 14.6251C41.316 14.8524 38.7188 15.1271 38.7188 15.1271C38.3927 15.1612 38.0736 15.2354 37.7627 15.3367L37.7997 15.2281C37.5086 15.109 36.802 15.3256 36.802 15.3256C36.802 15.3256 36.4062 14.7149 36.1608 14.677L36.0519 14.975C36.4017 15.148 36.6519 15.7238 36.6519 15.7238C36.6519 15.7238 36.9456 15.6093 37.2448 15.541C36.8961 15.701 36.5657 15.8981 36.2594 16.129C36.1071 15.9584 35.9007 15.7579 35.7603 15.7458L35.665 16.0469C35.792 16.1002 35.912 16.2074 36.0145 16.3226C35.0032 17.1779 34.2831 18.402 34.1218 19.7297C34.1218 19.7297 33.1693 27.5556 33.1639 27.6124C33.1573 27.6692 33.1539 27.7172 33.2326 27.7126C33.2563 27.7109 34.0141 27.6312 35.041 27.5229L35.0368 27.6058C35.4192 27.6953 35.8516 28.2091 35.8516 28.2091C35.8516 28.2091 36.5064 27.6938 36.8463 27.6747L36.8807 27.3739C36.5672 27.3224 35.9131 27.8098 35.9131 27.8098C35.9131 27.8098 35.6978 27.6246 35.4716 27.4774C37.7038 27.2423 40.8011 26.9141 40.8011 26.9141C41.7271 26.8169 42.6062 26.426 43.3468 25.8442C43.2981 25.9434 43.2526 26.0442 43.2105 26.1464C40.9653 30.7647 36.2297 33.9476 30.7498 33.948ZM58.317 12.9694C55.8627 13.2283 53.4084 13.487 50.954 13.7454C50.1526 13.8296 49.3867 14.1349 48.714 14.5914C46.3599 6.90367 39.2088 1.31269 30.7489 1.31269C22.4401 1.31269 15.3961 6.70903 12.9178 14.1869C10.8854 14.3926 5.74022 14.9308 5.74022 14.9308C1.99578 15.3256 0.935177 18.2369 0.63759 19.9393C0.380473 21.3983 0.508077 22.4277 0.52342 22.7163C0.525273 22.7654 0.54409 22.8253 0.576281 22.8354C0.620687 22.8493 0.680552 22.8263 0.757669 22.7379C0.840519 22.6429 2.23669 20.9141 2.44297 20.6857C2.64874 20.4577 3.5408 19.391 5.2818 19.2086L11.181 18.5865C11.169 18.7114 10.4066 25.3764 10.4066 25.3764C10.2744 26.2544 9.69535 26.7988 8.61472 26.9924C8.61472 26.9924 9.54112 18.9245 9.54198 18.9112C9.5458 18.8977 9.54198 18.881 9.51993 18.8851C9.49642 18.8897 8.18431 19.1135 8.18431 19.1135C6.11643 19.5588 4.36322 21.4853 4.10772 23.5915L3.65775 27.509C2.41426 27.6357 1.59977 27.5212 1.08924 27.4822C0.916594 27.4701 0.754541 27.4484 0.616169 27.4321C0.558736 27.4251 0.51468 27.4791 0.546696 27.5268C0.756976 27.8536 1.25969 28.742 1.90963 29.4282C2.78728 30.3591 4.06841 30.8211 5.65813 30.8211L9.61198 30.4639C11.9744 30.2146 13.3884 29.728 14.2538 29.0951C17.4415 34.9294 23.6328 38.8872 30.7489 38.8872C39.0624 38.8872 46.1087 33.4857 48.5844 26.003C50.9755 25.7516 53.2467 25.5118 53.2467 25.5118C56.8899 25.1278 57.0291 23.4105 57.1043 22.4883C57.1118 22.4016 57.2834 20.9008 57.3057 20.4796C57.3776 19.3628 56.559 18.3585 55.3651 18.0946C54.881 17.987 52.9132 17.6448 51.6516 17.4282C51.6743 17.4107 51.7003 17.398 51.728 17.3907L55.2758 17.0122C56.5101 16.8824 57.4702 15.9762 57.9142 14.5252L58.3738 13.0234C58.3738 13.0234 58.3834 12.9611 58.317 12.9694Z" fill="#C7A079"/>
<path d="M34.2024 15.6876C34.146 15.6932 26.6377 16.4835 26.6377 16.4835C24.3432 16.7274 22.3241 18.7494 22.0379 21.0892C22.0379 21.0892 21.074 29.0143 21.0712 29.0324C21.0693 29.0505 21.0876 29.069 21.113 29.0655C21.1335 29.0634 25.5608 28.6049 26.0891 28.5516C26.1218 28.5482 26.1413 28.5124 26.1464 28.49C26.1497 28.467 27.1036 20.6091 27.1036 20.6091C27.1483 20.4215 27.2358 20.1827 27.4026 20.1297L28.7601 19.987C28.7601 19.987 27.7675 28.1464 27.7518 28.2658C27.7429 28.3319 27.7763 28.3724 27.8426 28.3665C28.5594 28.2906 32.7206 27.8519 32.7415 27.8492C32.7629 27.8478 32.8121 27.8241 32.8146 27.7864C32.9232 26.9096 34.2733 15.829 34.2767 15.767C34.2856 15.7026 34.2647 15.6803 34.2024 15.6876Z" fill="#C7A079"/>
<path d="M15.5581 15.3284C15.0112 14.7641 14.245 14.5009 13.3606 14.5952L5.75936 15.3987C3.10719 15.6765 1.6595 17.5105 1.22469 18.9966C0.95455 19.9261 0.902675 20.4936 0.871122 20.872C0.871122 20.872 0.818609 21.7395 0.830652 22.01C0.830652 22.048 0.828683 22.065 0.850626 22.0758C0.86319 22.0814 0.881601 22.0772 0.907886 22.049C1.04921 21.8916 1.40498 21.398 1.49032 21.2898C1.78137 20.9291 2.31679 20.2468 2.67025 19.9418C3.11153 19.562 4.03185 18.9044 5.26678 18.7749L11.4047 18.1287C11.514 18.1148 11.5847 18.1364 11.5924 18.1496C11.6868 18.2464 11.6328 18.4299 11.6328 18.4299L10.8509 25.4147C10.6816 26.5621 9.81071 27.249 8.16686 27.4603L9.05916 19.4558C9.06188 19.4172 9.04052 19.3956 8.99907 19.4043C8.95663 19.4119 8.25076 19.5585 8.25076 19.5585C6.37469 19.9616 4.78671 21.7057 4.5528 23.6128L4.16224 27.029L4.0494 27.8917L3.82661 27.9167C3.37629 27.9637 2.80521 27.9972 1.66471 27.9167C1.46664 27.9028 1.36706 27.8799 1.34408 27.9094C1.32758 27.9387 1.33695 27.9745 1.39387 28.0702C1.41703 28.111 1.86682 28.9614 2.84209 29.6775C3.44872 30.1211 4.40916 30.3696 5.62325 30.3696C6.2901 30.3696 6.99632 30.3055 7.66351 30.2343L8.6833 30.1266C13.4297 29.6257 14.8757 28.9955 15.2915 25.7764L16.2565 17.6198C16.3674 16.7167 16.1197 15.9038 15.5581 15.3284Z" fill="#071D3D"/>
<path d="M13.3839 15.039L5.78146 15.8415C1.90351 16.2495 1.42725 19.9114 1.40218 20.0594C1.37451 20.2073 1.31169 20.7991 1.3077 20.8434C1.29947 20.8855 1.31673 20.9029 1.35013 20.8597C1.38493 20.813 1.82755 20.2313 1.82755 20.2313C1.8375 20.2154 3.09165 18.5906 5.24256 18.3644L11.383 17.7171C11.6168 17.6924 11.7956 17.738 11.9101 17.8599C12.1392 18.1015 12.0666 18.5788 11.9952 19.084C11.9766 19.2065 11.2755 25.4707 11.2755 25.4707C10.9808 27.5211 8.71344 27.761 7.96635 27.8387L7.7515 27.862C7.7515 27.862 8.61386 19.9361 8.61542 19.9017C8.61728 19.8668 8.5841 19.8536 8.55064 19.8609C8.51932 19.8683 8.30817 19.9131 8.30817 19.9131C6.58407 20.2856 5.12387 21.8853 4.91168 23.6347L4.33625 28.2209C3.91395 28.2606 3.44829 28.2981 3.0495 28.2981C2.8079 28.2981 2.05317 28.2459 1.99573 28.2404C1.94183 28.2352 1.92701 28.2647 1.96042 28.3034C1.99365 28.3434 2.23282 28.6438 2.23282 28.6438C3.01714 29.5744 4.17819 30.0562 5.54738 29.9883C6.9153 29.9225 7.91569 29.7826 8.89495 29.6969C11.7428 29.4442 14.4293 29.1577 14.8725 25.7687L15.8353 17.6044C15.9296 16.8329 15.7191 16.1384 15.2479 15.6545C14.7932 15.1856 14.1165 14.9603 13.3839 15.039Z" fill="#1D467D"/>
<path d="M51.6704 16.9597L55.2598 16.5788C56.1608 16.4835 56.9855 15.7312 57.3232 14.8866C57.4527 14.5597 57.6901 13.7155 57.7444 13.5209C57.751 13.4941 57.7305 13.4833 57.6992 13.4847C57.6675 13.4913 50.9717 14.2119 50.9717 14.2119C48.9273 14.4278 47.0554 16.3004 46.8033 18.3853C46.8033 18.3853 46.6282 19.9244 46.6263 19.9401C46.6263 19.9547 46.6322 19.963 46.6426 19.9644C46.6495 19.9658 52.6539 20.9845 52.6539 20.9845C52.6539 20.9845 52.6094 21.2365 52.5521 21.6232C52.4911 22.0079 49.8975 22.3177 48.8491 22.6182C47.264 23.0711 45.6713 23.4652 44.1942 25.2263C43.9695 25.4972 43.7974 25.8774 43.7051 26.0222C43.6863 26.0535 43.6981 26.0921 43.7439 26.0886C43.7935 26.0848 53.3848 25.0624 53.3848 25.0624C55.3539 24.8553 56.4375 24.1074 56.6031 22.8414L56.6223 22.6871C56.6948 22.158 56.8248 21.1706 56.8613 20.4988C56.9162 19.6079 56.2207 18.7703 55.2438 18.5517C54.6533 18.4225 51.841 17.9393 50.9963 17.7959C51.1024 17.3238 51.3343 17.0418 51.6704 16.9597Z" fill="#071D3D"/>
<path d="M51.6301 16.5544L55.2382 16.1708C56.3927 16.0475 56.8878 14.9742 57.0824 14.3472C57.0824 14.3472 57.1646 14.0695 57.1686 14.043C57.174 14.0162 57.1547 14.0078 57.1176 14.0109C57.0817 14.0141 50.9963 14.6567 50.9963 14.6567C49.1453 14.8507 47.4571 16.5474 47.2261 18.4402C47.2261 18.4402 47.0868 19.6245 47.086 19.6385C47.086 19.652 47.0924 19.6618 47.1044 19.6646C47.1174 19.6652 53.1131 20.7288 53.1131 20.7288C53.1098 20.7683 53.1057 20.8078 53.1007 20.8472L53.0298 21.4293C52.8962 22.2484 52.3118 22.3591 49.8814 22.8123C49.3087 22.9192 45.9435 23.6805 44.7732 25.1684C44.6482 25.3321 44.5594 25.4577 44.5119 25.535C44.4795 25.5872 44.4926 25.6116 44.5463 25.6075C45.1707 25.5371 51.8753 24.8154 52.7834 24.7194C54.9007 24.4966 55.9498 24.1369 56.1838 22.6863C56.3169 21.8498 56.4026 21.118 56.4375 20.5126C56.4795 19.8181 55.9195 19.166 55.1324 18.9903C54.456 18.8405 50.6643 18.1941 50.6278 18.1895C50.5951 18.1847 50.5201 18.1453 50.526 18.0701C50.6454 16.9951 51.1883 16.6515 51.6301 16.5544Z" fill="#1D467D"/>
<path d="M51.2927 15.1749L56.7389 14.5995C56.7853 14.4833 56.8251 14.3722 56.8538 14.2775L51.024 14.893C49.2757 15.0761 47.6785 16.6806 47.4637 18.4662L47.3479 19.4649L47.6451 19.5186L47.734 18.7467C47.9668 16.8599 49.5466 15.3588 51.2927 15.1749Z" fill="white"/>
<path d="M50.8592 18.7071C51.2533 18.7722 54.7246 19.365 55.3531 19.5046C55.5949 19.5576 55.8118 19.6634 55.9878 19.8037C55.7878 19.5238 55.4693 19.2968 55.0823 19.2209C54.4207 19.0938 50.9813 18.4916 50.5869 18.4227C50.5795 18.4227 50.5719 18.4195 50.5681 18.4185C50.593 18.572 50.7222 18.6827 50.8592 18.7071Z" fill="white"/>
<path d="M53.5355 21.749L53.6023 21.2104C53.6251 21.0294 53.6713 20.824 53.4957 20.7902L53.3496 20.7635C53.3456 20.8178 53.2643 21.4663 53.2643 21.4663C53.0907 22.5249 52.6554 22.5521 49.9244 23.0451C48.8777 23.2361 45.6608 24.2395 44.9768 25.2964C45.1732 25.2751 45.3672 25.257 45.5562 25.2369C46.6083 24.3101 49.2621 23.4966 50.196 23.3281C52.9301 22.8365 53.3633 22.8052 53.5355 21.749Z" fill="white"/>
<path d="M20.3612 17.7555C18.748 18.2314 17.2487 20.0006 17.0353 21.7524C17.0353 21.7524 16.1447 29.069 16.1393 29.1306C16.1367 29.1929 16.1779 29.2072 16.2167 29.2054C16.2521 29.1999 19.9262 28.8135 20.2721 28.7769C20.2879 28.7734 20.2987 28.763 20.3013 28.7449C20.3814 28.1001 21.6702 17.4902 21.6714 17.4648C21.6723 17.4454 21.65 17.4206 21.6192 17.4297C21.5908 17.4356 21.0019 17.5661 20.3612 17.7555Z" fill="#071D3D"/>
<path d="M20.8538 18.0767C19.132 18.4482 17.6738 20.0472 17.4601 21.799C17.4601 21.799 16.6291 28.6435 16.6244 28.6835C16.6148 28.726 16.6279 28.7487 16.6909 28.7434C16.748 28.7351 19.6065 28.4336 19.8949 28.4043C19.9115 28.4016 19.918 28.3925 19.9203 28.3768C19.9902 27.81 21.1741 18.0708 21.1757 18.0499C21.1803 18.029 21.1637 18.0096 21.137 18.0151C21.1102 18.0217 20.8538 18.0767 20.8538 18.0767Z" fill="#1D467D"/>
<path d="M20.8619 18.6761L20.9072 18.3078C19.2929 18.6591 17.899 20.1755 17.6983 21.8277L16.8877 28.4829L17.198 28.4502L17.9681 22.108C18.1516 20.4419 19.3869 19.1405 20.8619 18.6761Z" fill="white"/>
<path d="M26.6544 16.9519C24.6073 17.1681 22.7359 19.0421 22.4808 21.1305C22.4808 21.1305 21.5812 28.5244 21.5793 28.5464C21.5758 28.5718 21.5862 28.5902 21.6151 28.5871C21.6435 28.5839 25.256 28.2045 25.6988 28.1543C25.7286 28.154 25.746 28.1234 25.7495 28.1004C25.7514 28.0802 26.6642 20.5787 26.6642 20.5787C26.7763 20.0777 27.0109 19.7822 27.3431 19.7L29.2708 19.4954C29.2708 19.4954 28.2768 27.7105 28.2602 27.7808C28.2456 27.848 28.2797 27.8859 28.3411 27.8789C28.9516 27.8146 32.3474 27.4543 32.3704 27.4525C32.3827 27.4522 32.3944 27.4472 32.4032 27.4387C32.412 27.4301 32.4172 27.4185 32.4177 27.4062C32.5104 26.6616 33.7685 16.365 33.7685 16.2989C33.7726 16.2289 33.7133 16.2069 33.6697 16.2118C33.625 16.2184 26.6544 16.9519 26.6544 16.9519Z" fill="#071D3D"/>
<path d="M26.6762 17.3952C24.8285 17.5912 23.1365 19.2873 22.9079 21.177C22.9079 21.177 22.0711 28.0483 22.0677 28.0821C22.0646 28.1137 22.0698 28.1277 22.0971 28.1246C22.1247 28.1214 24.9306 27.8248 25.3187 27.7841C25.35 27.7806 25.3671 27.7587 25.3723 27.7308C25.3735 27.7141 26.2438 20.5424 26.2438 20.5424C26.4449 19.6201 26.988 19.3632 27.3011 19.2925L29.6304 19.0447C29.6536 19.0447 29.6851 19.0447 29.7159 19.0725C29.7387 19.0955 29.7464 19.1265 29.7399 19.162C29.7399 19.162 28.7486 27.2661 28.7486 27.327C28.7441 27.3862 28.7706 27.421 28.8364 27.4134C29.3845 27.3562 31.9551 27.0837 31.98 27.083C32.0237 27.0802 32.0403 27.0387 32.0433 27.0151C32.1212 26.3735 33.2858 16.7763 33.2954 16.7463C33.2959 16.7164 33.2721 16.7007 33.2464 16.7028C33.2171 16.7063 26.6762 17.3952 26.6762 17.3952Z" fill="#1D467D"/>
<path d="M26.9742 17.9139L32.9892 17.2814L33.0247 16.9674L26.7025 17.6326C24.9529 17.8175 23.3599 19.4182 23.1422 21.2059L22.3345 27.8613L22.644 27.8279L23.4165 21.4886C23.6315 19.7019 25.2278 18.0981 26.9742 17.9139Z" fill="white"/>
<path d="M30.1568 19.19C30.1111 19.1392 30.045 19.1072 29.9762 19.0963C29.9804 19.1278 29.9809 19.1597 29.9779 19.1914L29.0061 27.1572L29.3168 27.1242L30.2487 19.4758C30.2626 19.3665 30.2277 19.2642 30.1568 19.19Z" fill="white"/>
<path d="M4.82106 28.7203L5.41843 23.9464C5.60856 22.3977 6.84198 20.9717 8.325 20.5101C8.35094 20.2622 8.3591 20.1459 8.3591 20.1459C6.74344 20.4937 5.34971 22.0119 5.14591 23.6634L4.55027 28.438C3.74656 28.5194 2.90081 28.5341 2.41431 28.4902C2.51435 28.6093 2.67032 28.7569 2.68532 28.7729C3.19394 28.8627 4.02018 28.7997 4.82106 28.7203Z" fill="white"/>
<path d="M6.07833 16.359L13.6818 15.558C14.2783 15.495 14.8149 15.6447 15.2155 15.9796C15.173 15.9234 15.127 15.87 15.0778 15.8198C14.6682 15.3995 14.0755 15.2057 13.4122 15.2753L5.80611 16.0784C2.0733 16.4722 1.63867 20.0864 1.63867 20.0864C1.63867 20.0864 1.79638 19.8786 2.09785 19.5973C2.45709 18.5094 3.44874 16.6364 6.07833 16.359Z" fill="white"/>
<path d="M8.26429 28.3577C9.0364 28.2759 11.4591 28.0221 11.7821 25.7871C11.7821 25.7871 12.482 19.5211 12.5022 19.4034C12.5851 18.8385 12.6606 18.3023 12.3548 17.9789C12.3073 17.9301 12.2531 17.8883 12.1938 17.855C12.3666 18.1829 12.3001 18.6386 12.2321 19.119C12.2107 19.2402 11.5104 25.5055 11.5104 25.5055C11.1887 27.7415 8.76747 27.9946 7.99137 28.075L7.7581 28.0956L7.7207 28.4116L8.26429 28.3577Z" fill="white"/>
<path d="M40.0811 23.7342L38.1746 23.9354L38.7287 19.3704C38.7906 18.9631 38.9651 18.4524 39.4421 18.3396L41.3514 18.1384L40.7925 22.6995C40.7332 23.1096 40.5565 23.6211 40.0811 23.7342ZM38.7362 15.5929C36.6914 15.808 34.8188 17.6819 34.5651 19.7711C34.5651 19.7711 33.6705 27.1322 33.6684 27.1646C33.6644 27.1967 33.6768 27.2318 33.7213 27.2259C33.7652 27.2217 40.7901 26.4812 40.7901 26.4812C42.8306 26.2647 44.7034 24.3904 44.9587 22.3023C44.9587 22.3023 45.8517 14.9547 45.8573 14.9122C45.8602 14.8663 45.8164 14.8451 45.78 14.8507C45.7388 14.8534 38.7362 15.5929 38.7362 15.5929Z" fill="#071D3D"/>
<path d="M41.2222 22.7256L41.2153 22.7621C41.0712 23.7606 40.5481 24.084 40.1319 24.1773L37.8175 24.4213C37.7932 24.4244 37.7638 24.4234 37.7325 24.3917C37.71 24.3705 37.702 24.3392 37.7065 24.3026L38.3084 19.3494C38.4559 18.3409 38.9843 18.0213 39.3948 17.9325L39.4262 17.9287L41.706 17.6871C41.741 17.6843 41.7709 17.6948 41.7932 17.7153C41.8147 17.7379 41.8238 17.77 41.8188 17.8072L41.2222 22.7256ZM45.3263 15.3442C45.3023 15.347 38.7591 16.0363 38.7591 16.0363C36.9121 16.2316 35.2167 17.9294 34.9914 19.8187C34.9914 19.8187 34.1561 26.6625 34.1537 26.6984C34.1492 26.7364 34.1885 26.7649 34.221 26.7614C34.2524 26.7593 40.7641 26.0728 40.7641 26.0728C42.613 25.8768 44.307 24.1811 44.5388 22.2893C44.5388 22.2893 45.3681 15.4152 45.3751 15.3842C45.3786 15.3529 45.3507 15.3407 45.3263 15.3442Z" fill="#1D467D"/>
<path d="M42.0565 17.8335L41.4527 22.7954C41.2762 23.9992 40.5721 24.3247 40.1674 24.4114L37.84 24.6582C37.8074 24.6615 37.7744 24.6591 37.7427 24.6509C37.7541 24.7226 37.7836 24.7891 37.8336 24.841C37.905 24.9148 38.0091 24.9513 38.1152 24.9405L40.4405 24.6951C40.8438 24.6095 41.5463 24.2819 41.7236 23.0784L42.3276 18.1148C42.3443 18.0097 42.3084 17.9056 42.2337 17.8311C42.1862 17.7816 42.1234 17.7496 42.0546 17.7368C42.0565 17.7691 42.0602 17.8022 42.0565 17.8335Z" fill="white"/>
<path d="M39.056 16.5563L45.0685 15.9224L45.1068 15.6087L38.7846 16.2733C37.0374 16.4564 35.4419 18.0595 35.2264 19.8479L34.417 26.502L34.7271 26.4689L35.4974 20.1284C35.7134 18.3429 37.3116 16.7394 39.056 16.5563Z" fill="white"/>
<path d="M50.2559 20.995C50.0176 20.9577 49.7689 20.9184 49.5166 20.8787V20.8791C49.51 21.0312 49.5016 21.1832 49.4914 21.3351C49.4823 21.4786 49.4714 21.6219 49.4586 21.765C49.4491 21.8747 49.4415 21.9851 49.4299 22.0947C49.6864 22.0411 49.9426 21.9896 50.1901 21.9398C50.2192 21.6261 50.2418 21.311 50.2559 20.995Z" fill="#071D3D"/>
<path d="M12.9177 14.1867C13.224 13.263 13.6019 12.3647 14.0481 11.4998C14.0519 11.4925 14.0558 11.4849 14.0596 11.4776C14.1688 11.2668 14.2818 11.058 14.3986 10.8513C14.4012 10.8467 14.4039 10.8426 14.4061 10.838C14.8712 10.0194 15.3971 9.23682 15.9793 8.49689C16.0021 8.468 16.0244 8.43911 16.0472 8.41022C16.1789 8.24505 16.3132 8.08198 16.45 7.92105C16.4776 7.88869 16.5059 7.85667 16.5337 7.82465C16.9713 7.31788 17.4354 6.83469 17.9242 6.37713C17.9453 6.35733 17.9661 6.33707 17.9873 6.31692C18.124 6.19018 18.2637 6.06727 18.404 5.94476C18.467 5.88941 18.5299 5.83476 18.5934 5.78045C18.726 5.66771 18.8601 5.55688 18.9958 5.44801C19.0699 5.38851 19.1446 5.3299 19.22 5.27218C19.3541 5.16739 19.4883 5.0626 19.6251 4.96197C19.698 4.90836 19.7728 4.85649 19.8468 4.80426C20.0884 4.6319 20.3339 4.46523 20.5833 4.30439C20.6864 4.23752 20.7885 4.17036 20.8928 4.10592C21.0145 4.03071 21.138 3.95903 21.2615 3.88626C21.4952 3.74843 21.732 3.616 21.9718 3.48909C22.1013 3.42071 22.2316 3.35397 22.3628 3.28889C22.4759 3.23244 22.5885 3.17466 22.7031 3.12075C22.889 3.03165 23.0774 2.94805 23.2669 2.86555C23.3821 2.81541 23.4978 2.76631 23.6143 2.71861C23.8063 2.63922 23.9997 2.56298 24.1943 2.48992C24.297 2.45165 24.4009 2.4161 24.5044 2.37957C24.6684 2.32173 24.8334 2.26534 24.9997 2.21207C25.1067 2.17803 25.2136 2.14428 25.3212 2.11185C25.4963 2.05894 25.6724 2.00984 25.8494 1.96184C25.946 1.93567 26.042 1.90887 26.1391 1.88415C26.4033 1.81715 26.6689 1.75588 26.9358 1.70038C26.9619 1.69483 26.9879 1.68991 27.0143 1.68504C27.2764 1.63258 27.5395 1.58546 27.8035 1.54372C27.8961 1.52942 27.989 1.51761 28.082 1.50441C28.2783 1.47615 28.4756 1.45074 28.6736 1.42914C28.7758 1.41802 28.8784 1.40726 28.981 1.39753C29.183 1.37866 29.3855 1.36407 29.5888 1.35156C29.6807 1.34594 29.7721 1.33899 29.8644 1.33517C30.1575 1.32128 30.4522 1.31254 30.7488 1.31254C31.0473 1.31254 31.3438 1.32128 31.6386 1.33517C31.732 1.33934 31.8245 1.34629 31.9175 1.35225C32.12 1.36404 32.3223 1.37934 32.5243 1.39817C32.8228 1.42675 33.1207 1.46217 33.4176 1.50441C33.5168 1.51865 33.6164 1.53185 33.715 1.54754C33.9364 1.58296 34.1571 1.6223 34.377 1.66553C34.4402 1.67809 34.5044 1.68852 34.5676 1.70143C34.8461 1.75899 35.1232 1.82306 35.3988 1.89358C35.475 1.9131 35.55 1.93463 35.6258 1.95519C35.8256 2.0092 36.0243 2.06455 36.2212 2.12436C36.3204 2.15484 36.4192 2.18618 36.5178 2.21838C36.6916 2.27462 36.8647 2.33324 37.0369 2.39421C37.1375 2.42949 37.2378 2.46579 37.3377 2.50312C37.5148 2.56984 37.6909 2.63924 37.866 2.71131C37.9521 2.74686 38.0395 2.78061 38.1253 2.8172C38.3776 2.92471 38.6275 3.03763 38.8749 3.1559C38.9281 3.18131 38.9802 3.2102 39.033 3.23597C39.2292 3.33277 39.424 3.43125 39.6162 3.53431C39.7113 3.58549 39.8048 3.6391 39.8988 3.69132C40.0477 3.77464 40.1956 3.8597 40.3425 3.94647C40.4423 4.00618 40.5417 4.06664 40.6406 4.12786C40.7813 4.21522 40.9207 4.30458 41.0588 4.39592C41.154 4.45862 41.2499 4.52051 41.3437 4.58495C41.499 4.69148 41.6512 4.80079 41.8027 4.91114C41.8746 4.96371 41.9481 5.01385 42.0191 5.06746C42.2281 5.22461 42.4338 5.38618 42.636 5.55205C42.7269 5.62656 42.815 5.70351 42.9046 5.7797C43.024 5.88137 43.1432 5.98268 43.2598 6.08748C43.3563 6.17311 43.4511 6.26116 43.5455 6.34894C43.6521 6.44844 43.7575 6.54905 43.862 6.65075C43.9567 6.74258 44.0505 6.83531 44.1434 6.92894C44.2462 7.03368 44.3467 7.1409 44.4471 7.24778C44.5351 7.34145 44.6242 7.43438 44.7103 7.53014C44.862 7.69867 45.0105 7.86998 45.1559 8.04397C45.2564 8.16565 45.3556 8.28844 45.4534 8.4123C45.5411 8.5223 45.6292 8.63196 45.7141 8.74445C45.8007 8.85787 45.8842 8.97314 45.9681 9.08905C46.0449 9.19458 46.1205 9.301 46.1949 9.40829C46.278 9.528 46.3598 9.64869 46.4402 9.77032C46.5103 9.87704 46.5793 9.98452 46.6471 10.0927C46.7258 10.2177 46.8051 10.342 46.8808 10.4687C46.9458 10.578 47.0078 10.689 47.0708 10.7998C47.2059 11.0358 47.3355 11.2749 47.4597 11.5169C47.5163 11.6259 47.5742 11.7344 47.6283 11.8458C47.6955 11.983 47.7589 12.1226 47.823 12.2615C47.8741 12.3729 47.9254 12.4844 47.9746 12.5972C48.0358 12.7384 48.0954 12.8803 48.1534 13.0229C48.1994 13.1364 48.2444 13.2503 48.2882 13.3648C48.344 13.5092 48.3982 13.6543 48.4508 13.7999C48.4915 13.9152 48.5295 14.0314 48.5683 14.1477C48.6175 14.2953 48.6684 14.4419 48.7139 14.5908C48.924 14.4493 49.1437 14.3225 49.3714 14.2114C49.1885 13.6332 48.9805 13.0615 48.7423 12.4986C47.7585 10.1724 46.3516 8.08397 44.5584 6.2915C42.7642 4.49863 40.6764 3.08874 38.3512 2.10664C35.9427 1.08836 33.3836 0.573144 30.7488 0.573144C28.1138 0.573144 25.557 1.08836 23.1485 2.10664C20.8238 3.08874 18.7349 4.49863 16.9414 6.2915C15.1487 8.08397 13.7409 10.1724 12.7567 12.4986C12.5122 13.0781 12.296 13.6691 12.1086 14.2696C12.4105 14.2386 12.6852 14.2107 12.9177 14.1867Z" fill="#071D3D"/>
<path d="M48.5844 26.0028C48.2792 26.9253 47.9024 27.8226 47.4574 28.6865C47.4519 28.697 47.4465 28.7075 47.4414 28.7182C47.333 28.9276 47.2207 29.135 47.1046 29.3403C47.1018 29.3451 47.0988 29.3504 47.0959 29.3553C46.6317 30.1732 46.1068 30.9552 45.5256 31.6947C45.502 31.725 45.478 31.7556 45.4536 31.7859C45.3229 31.9507 45.1894 32.1132 45.0531 32.2733C45.025 32.306 44.9963 32.3388 44.968 32.3718C44.5343 32.8737 44.0747 33.3526 43.5909 33.8064C43.5646 33.8312 43.5394 33.8566 43.5127 33.8809C43.3773 34.0062 43.2389 34.1285 43.1002 34.2499C43.0358 34.306 42.9718 34.3624 42.9067 34.4174C42.7749 34.5295 42.6416 34.6398 42.5067 34.7481C42.4316 34.8085 42.3559 34.868 42.2795 34.9267C42.1464 35.0305 42.0132 35.1345 41.877 35.2348C41.8021 35.2901 41.725 35.3424 41.6494 35.3967C41.4113 35.5664 41.1695 35.7308 40.9241 35.8897C40.8184 35.9575 40.7139 36.0268 40.6066 36.0929C40.4856 36.1669 40.3638 36.2394 40.2411 36.3105C40.1247 36.3794 40.0075 36.4468 39.8894 36.5128C39.7702 36.5795 39.6502 36.6449 39.5295 36.7088C39.3992 36.7775 39.268 36.8446 39.1359 36.91C39.0235 36.9668 38.9117 37.0235 38.7981 37.0778C38.6065 37.1685 38.4134 37.2556 38.2186 37.3392C38.108 37.3875 37.9969 37.4345 37.8853 37.4802C37.6935 37.5589 37.5004 37.6365 37.3052 37.7089C37.2026 37.7469 37.0987 37.7824 36.9956 37.8186C36.8314 37.8776 36.666 37.9336 36.4998 37.9867C36.3932 38.0213 36.2862 38.0546 36.1788 38.0867C36.0027 38.1395 35.8259 38.1896 35.6483 38.2371C35.5525 38.2632 35.4571 38.2903 35.3605 38.3147C35.0947 38.3822 34.8274 38.444 34.5589 38.4999C34.532 38.5055 34.5053 38.5096 34.4786 38.5152C34.2185 38.5673 33.9574 38.6139 33.6954 38.6551C33.6026 38.6698 33.5093 38.682 33.4164 38.6949C33.2197 38.7233 33.0226 38.7483 32.8251 38.7701C32.7225 38.7811 32.6199 38.7917 32.5173 38.8017C32.315 38.8201 32.1125 38.8353 31.9098 38.8473C31.8179 38.8529 31.726 38.8599 31.6338 38.8644C31.3404 38.8776 31.0459 38.887 30.7489 38.887C30.4606 38.887 30.1739 38.8776 29.8884 38.8651C29.8132 38.8612 29.7382 38.8578 29.6632 38.8536C29.4106 38.839 29.1593 38.8201 28.9097 38.7962C28.8752 38.7927 28.8404 38.7906 28.8061 38.7871C28.529 38.7582 28.2527 38.723 27.9772 38.6816C27.9055 38.6708 27.8338 38.659 27.762 38.6478C27.5335 38.6113 27.3057 38.5707 27.0786 38.526C27.0258 38.5152 26.9727 38.5062 26.9201 38.4951C26.6539 38.4398 26.389 38.3787 26.1255 38.3116C26.0587 38.2952 25.9929 38.2768 25.9265 38.2594C25.7126 38.2026 25.5003 38.142 25.2895 38.078C25.2266 38.0592 25.1633 38.0407 25.1011 38.0212C24.8464 37.9414 24.5934 37.8558 24.3425 37.7646C24.2837 37.743 24.2259 37.7201 24.1674 37.6985C23.9645 37.6227 23.763 37.5434 23.5629 37.4604C23.4945 37.4322 23.4258 37.404 23.358 37.3747C23.1163 37.2716 22.8768 37.1633 22.6397 37.05C22.5912 37.0266 22.5439 37.0023 22.4956 36.9778C22.2997 36.8822 22.1057 36.7828 21.9135 36.6799C21.8424 36.642 21.7713 36.6043 21.7009 36.565C21.4732 36.4404 21.2482 36.3111 21.0258 36.1772C20.9932 36.1574 20.9615 36.1365 20.929 36.1166C20.662 35.9515 20.3989 35.7802 20.1399 35.6027C19.9586 35.4786 19.7794 35.3513 19.6026 35.2208C19.5645 35.1924 19.5257 35.1662 19.4881 35.1377C19.2855 34.9856 19.0875 34.8285 18.8914 34.6687C18.8224 34.6125 18.754 34.5557 18.6862 34.4982C18.5349 34.3713 18.3856 34.242 18.2385 34.1103C18.1858 34.0634 18.1322 34.0174 18.0799 33.9694C17.8965 33.8015 17.7164 33.6299 17.5399 33.4548C17.4759 33.3915 17.4133 33.3271 17.3499 33.2627C17.2196 33.1302 17.0914 32.9957 16.9654 32.8591C16.9078 32.7968 16.8492 32.7356 16.7926 32.6722C16.6277 32.49 16.4667 32.3043 16.3098 32.1152C16.2526 32.0466 16.197 31.9763 16.1408 31.907C16.0272 31.7666 15.9156 31.6246 15.8061 31.4809C15.7492 31.4061 15.6921 31.3326 15.6362 31.2571C15.4907 31.0604 15.3489 30.861 15.2108 30.659C15.1631 30.5883 15.1173 30.5166 15.0707 30.446C14.9701 30.294 14.8717 30.1406 14.7756 29.9857C14.7236 29.9018 14.6715 29.8179 14.621 29.7334C14.4945 29.5229 14.3721 29.3101 14.2538 29.0949C14.0693 29.23 13.8578 29.358 13.6191 29.4789C14.5072 31.1001 15.6186 32.5849 16.9415 33.9088C18.7351 35.702 20.824 37.1095 23.1486 38.0926C25.5572 39.1108 28.114 39.6265 30.7489 39.6265C33.3838 39.6265 35.9429 39.1108 38.3514 38.0926C40.6766 37.1098 42.7643 35.702 44.5585 33.9088C46.3518 32.1145 47.7587 30.0264 48.7424 27.7013C48.9905 27.1154 49.2071 26.5197 49.3953 25.9175C49.1286 25.9453 48.8576 25.9739 48.5844 26.0028Z" fill="#071D3D"/>
<path d="M19.6108 7.77609L19.4998 7.65491C19.4259 7.57588 19.3579 7.52644 19.2949 7.50803C19.2307 7.48886 19.1763 7.49998 19.1325 7.5397C19.0677 7.6013 19.0372 7.65699 19.0418 7.71165C19.0477 7.76665 19.0802 7.82762 19.1421 7.89582L20.0021 8.83298C20.0527 8.88764 20.1049 8.92 20.1561 8.92382C20.2078 8.93042 20.2616 8.90674 20.3166 8.85562C20.3525 8.82395 20.3739 8.78945 20.3814 8.75048C20.3881 8.71369 20.3846 8.67577 20.3713 8.64083C20.3583 8.60293 20.3393 8.56733 20.3152 8.53534C20.2903 8.50228 20.2628 8.46708 20.2305 8.43402L20.071 8.25993L20.516 7.85193L20.7297 8.08346C20.8875 8.25506 20.9593 8.43923 20.9466 8.63278C20.9333 8.82777 20.8166 9.02688 20.5983 9.22708C20.3988 9.40986 20.2078 9.49127 20.0244 9.47245C19.8407 9.45334 19.6571 9.34508 19.4736 9.14667L18.759 8.36889C18.5692 8.16388 18.4792 7.9679 18.4846 7.78026C18.4919 7.59296 18.596 7.40393 18.7986 7.21797C18.9936 7.03733 19.1854 6.94435 19.3702 6.93601C19.5563 6.92906 19.7358 7.01886 19.9086 7.20865L20.0557 7.3663L19.6108 7.77609Z" fill="#071D3D"/>
<path d="M22.0691 7.92432L20.6975 5.74782L21.2077 5.4258L21.735 6.26165L22.09 6.03887L21.5619 5.20331L22.0738 4.8803L23.4446 7.05888L22.9342 7.37882L22.3621 6.47367L22.0084 6.69581L22.5798 7.6023L22.0691 7.92432Z" fill="#071D3D"/>
<path d="M24.4098 4.29686L24.4035 4.29964L24.6662 5.43591L24.9926 5.3057L24.4098 4.29686ZM24.3276 6.59766L23.8989 3.99852L24.575 3.7308L26.0468 5.91355L25.4786 6.13848L25.2143 5.70605L24.7741 5.88119L24.8923 6.37273L24.3276 6.59766Z" fill="#071D3D"/>
<path d="M27.2463 4.12491L27.2411 4.13255L27.5725 5.52889L27.0112 5.63965L26.5137 3.11496L27.1223 2.99558L27.8576 4.31568L27.8688 4.31429L27.5337 2.91447L28.094 2.80308L28.5921 5.3277L27.9862 5.44784L27.2463 4.12491Z" fill="#071D3D"/>
<path d="M30.904 5.20201L30.876 4.9743H30.8679C30.8065 5.08187 30.7388 5.15743 30.6627 5.20091C30.5868 5.24375 30.4821 5.26535 30.3502 5.26708C30.2275 5.26743 30.1211 5.25076 30.0337 5.21139C29.9495 5.17443 29.8764 5.11612 29.8217 5.04222C29.7665 4.9684 29.7275 4.88346 29.7021 4.78492C29.6786 4.68534 29.6664 4.57783 29.6644 4.45492L29.6519 3.399C29.6493 3.11983 29.7113 2.91377 29.8418 2.7776C29.9722 2.64224 30.1752 2.57329 30.4521 2.56981C30.7179 2.56559 30.9209 2.62447 31.0636 2.74211C31.2058 2.86051 31.2779 3.04844 31.2819 3.30434L31.2839 3.49615L30.6789 3.50379L30.6768 3.36143C30.6768 3.24413 30.6627 3.15879 30.6372 3.10767C30.611 3.05961 30.5607 3.03489 30.4854 3.03177C30.3959 3.03489 30.3346 3.05614 30.3024 3.09962C30.2706 3.14316 30.2539 3.21171 30.2561 3.30295L30.2706 4.57534C30.2714 4.65089 30.2901 4.70694 30.3257 4.74561C30.3641 4.78527 30.4203 4.80444 30.4956 4.80305C30.5435 4.8016 30.5822 4.79257 30.6131 4.77416C30.6417 4.75569 30.6627 4.73027 30.6768 4.70242C30.6892 4.67035 30.6984 4.63764 30.7012 4.60325C30.7036 4.56666 30.7052 4.52312 30.7052 4.47055L30.7033 4.26762L30.4867 4.27075L30.48 3.8074L31.3004 3.79837L31.3163 5.19749L30.904 5.20201Z" fill="#071D3D"/>
<path d="M34.2757 4.83353L34.2837 4.83526L34.8177 3.10335L35.3782 3.2137L34.4618 5.65479L33.7949 5.52249L33.9628 3.71115L33.9566 3.70912L33.4106 5.44798L32.7549 5.31812L32.8271 2.71134L33.4001 2.82348L33.2291 4.63234L33.2371 4.62539L33.824 2.90598L34.396 3.01911L34.2757 4.83353Z" fill="#071D3D"/>
<path d="M37.49 4.80762C37.51 4.76205 37.5265 4.7213 37.5365 4.68401C37.5467 4.64944 37.5517 4.61357 37.5515 4.57754C37.5515 4.54234 37.5429 4.50963 37.5249 4.4783C37.5055 4.44866 37.4756 4.42608 37.4307 4.40657C37.3883 4.38747 37.3511 4.38324 37.3146 4.39024C37.2792 4.39858 37.2497 4.41288 37.2237 4.43824C37.1971 4.46483 37.1739 4.49451 37.1544 4.52665C37.1325 4.56311 37.1128 4.60091 37.0956 4.63984L36.6813 5.6118C36.665 5.65066 36.6504 5.69027 36.6378 5.73049C36.6279 5.76983 36.622 5.81008 36.6203 5.85062C36.6203 5.89028 36.6294 5.92548 36.6479 5.95889C36.6663 5.99229 36.6967 6.01701 36.7372 6.03514C36.78 6.0525 36.8193 6.05737 36.8557 6.04868C36.8914 6.03973 36.9234 6.02005 36.9475 5.99229C36.974 5.96388 36.9971 5.93246 37.0164 5.89867C37.0362 5.86388 37.0557 5.82451 37.075 5.78028L37.49 4.80762ZM37.6501 5.97035C37.5315 6.2475 37.3874 6.42744 37.2178 6.51C37.0482 6.59494 36.8276 6.5771 36.5554 6.46125C36.2837 6.3432 36.1154 6.19458 36.0573 6.01215C35.9992 5.83076 36.0284 5.60132 36.1457 5.32602L36.5567 4.36518C36.6538 4.13677 36.795 3.99198 36.9784 3.9258C37.1619 3.85893 37.3733 3.87775 37.6157 3.98254C37.8581 4.08455 38.0176 4.22483 38.0923 4.4024C38.1687 4.57852 38.1582 4.78081 38.0622 5.00852L37.6501 5.97035Z" fill="#071D3D"/>
<path d="M39.5374 6.34486L39.5282 6.3466L38.7792 7.56995L38.3018 7.25383L39.7284 5.11248L40.2445 5.4554L39.8363 6.91056L39.8443 6.91722L40.5931 5.68832L41.0705 6.0068L39.6433 8.14746L39.1301 7.8039L39.5374 6.34486Z" fill="#071D3D"/>
<path d="M17.9118 9.21845L18.1194 9.82075L18.6514 9.47262L18.4232 10.0662L19.0552 10.1417L18.4975 10.4501L18.9337 10.9138L18.309 10.792L18.344 11.4277L17.9436 10.932L17.5619 11.4409L17.5743 10.8042L16.9548 10.9515L17.3722 10.4707L16.8037 10.1828L17.4331 10.0839L17.183 9.49942L17.7285 9.8277L17.9118 9.21845Z" fill="#071D3D"/>
<path d="M41.8935 7.33641L42.1 7.93865L42.6331 7.59092L42.4046 8.18413L43.0364 8.25962L42.4791 8.56879L42.915 9.03179L42.2898 8.91032L42.3256 9.54562L41.9245 9.04991L41.5441 9.55957L41.5555 8.92352L40.9364 9.06907L41.3536 8.58859L40.7861 8.30143L41.4153 8.20115L41.1642 7.61698L41.7087 7.9456L41.8935 7.33641Z" fill="#071D3D"/>
<path d="M22.2068 33.9206L22.7654 33.6115L22.1318 33.5352L22.3608 32.9413L21.8289 33.2909L21.6225 32.6893L21.4376 33.2965L20.8926 32.9685L21.1434 33.5544L20.5144 33.654L21.0818 33.9404L20.6644 34.4212L21.2837 34.2754L21.2722 34.9121L21.6528 34.4021L22.0536 34.8971L22.0184 34.2618L22.6433 34.3833L22.2068 33.9206Z" fill="#071D3D"/>
<path d="M42.7389 31.4157L42.9693 30.8231L42.4354 31.1713L42.2279 30.569L42.0444 31.1782L41.5003 30.8486L41.7506 31.4348L41.1213 31.5347L41.6883 31.8212L41.2705 32.3003L41.8899 32.1551L41.8789 32.7915L42.2602 32.2822L42.6603 32.7772L42.6254 32.1415L43.2496 32.2637L42.8142 31.8L43.3717 31.4916L42.7389 31.4157Z" fill="#071D3D"/>
<path d="M24.0856 33.64L25.4517 34.2238L25.2423 34.7143L24.4768 34.3878L24.3086 34.7815L25.0258 35.0879L24.8242 35.5592L24.107 35.2529L23.9116 35.7117L24.7058 36.0511L24.4964 36.542L23.1013 35.9456L24.0856 33.64Z" fill="#071D3D"/>
<path d="M26.9865 35.419L27.001 35.3605C27.0368 35.2177 27.0086 35.0841 26.8861 35.0531C26.7496 35.019 26.6619 35.1095 26.6345 35.2184C26.5145 35.6992 27.6093 35.7232 27.3867 36.613C27.2568 37.1314 26.8955 37.2867 26.3365 37.1471C25.8117 37.0155 25.5637 36.7617 25.6899 36.2569L25.7113 36.172L26.3247 36.3255L26.3103 36.3829C26.2582 36.5912 26.3247 36.6879 26.4474 36.7185C26.5769 36.7509 26.6775 36.6674 26.7107 36.5344C26.831 36.0536 25.7759 36.0432 25.9919 35.1809C26.1148 34.69 26.4446 34.486 26.9797 34.62C27.532 34.7586 27.7101 35.0454 27.5795 35.5673L26.9865 35.419Z" fill="#071D3D"/>
<path d="M28.8605 35.5782L28.3708 35.5326L28.4221 34.98L30.052 35.1305L30.0012 35.6833L29.5112 35.638L29.3313 37.583L28.6805 37.5231L28.8605 35.5782Z" fill="#071D3D"/>
<path d="M30.4675 36.9368L31.0581 36.927L31.0696 37.6229L30.479 37.6323L30.4675 36.9368Z" fill="#071D3D"/>
<path d="M32.6648 35.8791C32.6226 35.6264 32.6165 35.4171 32.7081 35.2504C32.7996 35.0839 32.9846 34.9649 33.317 34.905C33.9594 34.7891 34.1586 35.0638 34.2247 35.43C34.2846 35.7618 34.2019 35.9944 34.0518 36.2105L33.7382 36.6488C33.6927 36.7142 33.6264 36.801 33.6154 36.8778L34.4586 36.7258L34.546 37.21L32.9354 37.5C32.8746 37.1616 32.9049 36.8347 33.1327 36.4978L33.4828 35.9846C33.5847 35.838 33.6167 35.736 33.5831 35.5529C33.5457 35.3457 33.4684 35.2918 33.3683 35.3099C33.2785 35.3259 33.1972 35.3903 33.247 35.6671L33.266 35.7705L32.6648 35.8791Z" fill="#071D3D"/>
<path d="M35.9761 35.9518C36.0934 36.2867 36.1776 36.3573 36.3068 36.3121C36.4366 36.2672 36.4579 36.1589 36.3407 35.824L36.069 35.0484C35.9519 34.7135 35.8674 34.6425 35.7383 34.6877C35.6088 34.733 35.5872 34.8409 35.7043 35.1758L35.9761 35.9518ZM35.6037 34.3031C36.1536 34.1102 36.4892 34.2721 36.8215 35.22C37.1534 36.1686 36.9921 36.5042 36.4415 36.6972C35.8915 36.8896 35.5558 36.7277 35.2238 35.7798C34.8917 34.8315 35.0533 34.4959 35.6037 34.3031Z" fill="#071D3D"/>
<path d="M38.7033 35.6689L37.8994 34.1782L37.4852 34.4021L37.2917 34.0428C37.6427 33.8496 37.7529 33.6985 37.6836 33.3925L38.0979 33.1694L39.2787 35.3591L38.7033 35.6689Z" fill="#071D3D"/>
<path d="M40.7268 34.438L39.73 33.0691L39.3497 33.3462L39.1096 33.0169C39.4313 32.7784 39.5202 32.6134 39.4106 32.32L39.7909 32.0425L41.2555 34.053L40.7268 34.438Z" fill="#071D3D"/>
<path d="M43.3468 25.844C43.1811 25.9733 43.0083 26.0931 42.8292 26.203C42.2817 27.284 41.5918 28.2868 40.778 29.1846C40.6284 29.3495 40.475 29.5108 40.318 29.6685C40.1781 29.8073 40.0354 29.9432 39.8901 30.0762C39.876 30.0894 39.8626 30.1027 39.8483 30.1155C39.8034 30.157 39.7557 30.1949 39.7101 30.2353C37.3233 32.347 34.1874 33.6313 30.7503 33.6313H30.75C27.0121 33.6313 23.6313 32.1166 21.181 29.6685C21.0109 29.4983 20.8469 29.3225 20.6863 29.1436C20.6765 29.1589 20.664 29.1693 20.6454 29.1711C20.5865 29.177 20.473 29.1895 20.3213 29.2048C20.3215 29.2055 20.3222 29.2063 20.3225 29.2069C21.4297 30.4735 22.7636 31.537 24.2608 32.3338C24.2793 32.3432 24.2983 32.3526 24.3168 32.362C24.5044 32.4609 24.6943 32.5555 24.8863 32.6457C24.9315 32.667 24.9777 32.6865 25.0229 32.707C25.1899 32.7834 25.3584 32.8564 25.5284 32.926C25.5907 32.9514 25.6537 32.9754 25.7164 33.0002C25.8726 33.0612 26.0298 33.1195 26.1881 33.1749C26.2617 33.2007 26.3357 33.2254 26.4101 33.2501C26.5606 33.2996 26.712 33.3464 26.8642 33.3907C26.9462 33.4148 27.0282 33.4388 27.111 33.461C27.2582 33.5011 27.4068 33.538 27.5557 33.5732C27.644 33.5941 27.7317 33.615 27.8203 33.6341C27.9675 33.6661 28.1162 33.6939 28.2651 33.7211C28.3563 33.7375 28.4471 33.7552 28.5388 33.7698C28.6906 33.7939 28.8435 33.8137 28.9966 33.8329C29.087 33.8447 29.1764 33.8579 29.267 33.8676C29.4325 33.8851 29.5997 33.8976 29.7668 33.9087C29.8462 33.9147 29.9245 33.9227 30.0043 33.9272C30.2511 33.9404 30.4997 33.9478 30.7498 33.9478C30.9634 33.9478 31.1753 33.9408 31.3867 33.9314C31.4462 33.9289 31.5054 33.9255 31.5646 33.922C31.7317 33.9119 31.8981 33.8994 32.0633 33.8837C32.1115 33.8795 32.1599 33.876 32.2078 33.8708C32.4133 33.8492 32.6177 33.8231 32.8205 33.7928C32.8669 33.7858 32.913 33.7775 32.9594 33.7702C33.1212 33.7441 33.2821 33.7152 33.4419 33.6842C33.501 33.6721 33.5597 33.6605 33.6184 33.6484C33.8046 33.6095 33.99 33.5668 34.1745 33.5202C34.1888 33.5168 34.2034 33.5136 34.2175 33.5095C34.4125 33.4597 34.6048 33.4036 34.7966 33.3455C35.0004 33.2825 35.2028 33.2153 35.4038 33.1439C35.4554 33.1251 35.5075 33.1077 35.5586 33.0886C35.7418 33.021 35.9235 32.9493 36.1035 32.8734C36.1508 32.8543 36.1971 32.8327 36.2443 32.8125C36.3823 32.7527 36.5194 32.6907 36.6555 32.6266C36.7155 32.5981 36.7755 32.5695 36.8351 32.5406C36.9821 32.4686 37.1277 32.3938 37.272 32.3164C37.3037 32.2997 37.3359 32.284 37.3672 32.267C37.5336 32.1758 37.6981 32.0812 37.8605 31.9833C37.9197 31.9477 37.9782 31.9112 38.0366 31.8754C38.1516 31.8036 38.2657 31.7304 38.3789 31.6557C38.4346 31.6184 38.4906 31.5829 38.5454 31.5453C38.6985 31.441 38.8496 31.3336 38.9985 31.2233C39.049 31.186 39.098 31.1467 39.1479 31.1084C39.2541 31.0273 39.3592 30.9447 39.463 30.8605C39.5229 30.8125 39.5826 30.7637 39.6419 30.7136C39.747 30.6253 39.8508 30.5353 39.9531 30.4438C40.0027 30.4 40.0532 30.3564 40.1021 30.3116C40.2292 30.1948 40.3541 30.0756 40.4767 29.954C40.5336 29.898 40.5895 29.8409 40.6456 29.7838C40.7284 29.6988 40.8104 29.6129 40.8915 29.5262C40.9456 29.467 41.0006 29.4092 41.054 29.3497C41.1726 29.2177 41.289 29.0834 41.4025 28.9468C41.4504 28.8895 41.4962 28.8309 41.543 28.7725C41.6181 28.6794 41.6921 28.5852 41.7647 28.4902C41.8174 28.4211 41.8694 28.3516 41.9207 28.2816C41.9914 28.1848 42.0609 28.0872 42.1293 27.9888C42.1804 27.915 42.2317 27.8419 42.2816 27.7671C42.3707 27.6331 42.4577 27.4977 42.5423 27.3608C42.5879 27.2863 42.6323 27.2108 42.6768 27.1356C42.7329 27.0406 42.788 26.9449 42.842 26.8487C42.8849 26.7718 42.9281 26.6952 42.9693 26.6179C43.0478 26.4711 43.1237 26.3229 43.1969 26.1733C43.2013 26.1643 43.206 26.1555 43.2105 26.1462C43.2526 26.044 43.2981 25.9432 43.3468 25.844Z" fill="#071D3D"/>
<path d="M17.5663 17.057C18.1438 14.5425 19.4174 12.2947 21.1809 10.5307C22.4059 9.30558 23.8641 8.31556 25.4829 7.63111C27.1019 6.94596 28.8818 6.5672 30.7502 6.5672C36.2879 6.5672 41.0458 9.89566 43.1398 14.6595C43.2516 14.6476 43.3626 14.6362 43.4722 14.6246C43.3602 14.3646 43.2392 14.1102 43.1123 13.8588C43.0768 13.7895 43.0418 13.7199 43.0056 13.6509C42.9519 13.549 42.8968 13.4478 42.8404 13.3474C42.8023 13.2793 42.7634 13.2116 42.7237 13.1444C42.5969 12.9262 42.4643 12.7115 42.326 12.5004C42.311 12.4774 42.2964 12.4533 42.281 12.4304C42.219 12.3367 42.1541 12.2456 42.0895 12.1533C42.0425 12.0857 41.9948 12.0187 41.9465 11.9521C41.8815 11.8631 41.8156 11.7747 41.7487 11.6871C41.6964 11.6193 41.6434 11.552 41.5896 11.4853C41.4968 11.3681 41.4021 11.2525 41.3055 11.1385C41.2237 11.0424 41.1417 10.946 41.0575 10.852C40.9889 10.7764 40.919 10.7023 40.849 10.6278C40.7849 10.5591 40.7201 10.4911 40.6545 10.4238C40.584 10.3514 40.5127 10.2798 40.4406 10.209C40.3679 10.1379 40.2942 10.0678 40.2196 9.99872C40.1494 9.93225 40.0795 9.86573 40.0079 9.801C39.8804 9.68671 39.7511 9.57459 39.6198 9.46468C39.5508 9.4076 39.4807 9.3519 39.411 9.29586C39.3257 9.22746 39.2397 9.15991 39.153 9.09322C39.0816 9.03857 39.0105 8.98495 38.9381 8.93169C38.8383 8.85849 38.7376 8.78677 38.6357 8.71655C38.5762 8.67515 38.5178 8.633 38.4577 8.5923C38.3047 8.48988 38.1497 8.39051 37.9928 8.29425C37.927 8.25395 37.8599 8.21528 37.7932 8.17556C37.6857 8.11169 37.5773 8.04937 37.4681 7.98862C37.3993 7.95014 37.3301 7.9122 37.2607 7.87479C37.1305 7.80565 36.9992 7.73844 36.8669 7.6732C36.8206 7.65027 36.7755 7.62659 36.729 7.6043C36.5551 7.5211 36.3795 7.4416 36.2023 7.36582C36.1398 7.33937 36.0766 7.31395 36.0139 7.28784C35.8854 7.23514 35.7562 7.18432 35.6262 7.1354C35.5607 7.11068 35.4956 7.08595 35.4296 7.06227C35.2683 7.00431 35.1058 6.94942 34.9424 6.89762C34.9128 6.88818 34.8832 6.87776 34.8538 6.86803C34.6616 6.80912 34.4682 6.75432 34.2736 6.70366C34.2134 6.68769 34.1529 6.67344 34.0921 6.65845C33.9471 6.62226 33.8014 6.58851 33.6545 6.55713C33.5913 6.54358 33.5287 6.53032 33.4653 6.51747C33.2763 6.47984 33.0862 6.44539 32.8947 6.4158C32.8804 6.41337 32.8668 6.41059 32.8526 6.40851C32.6477 6.37713 32.4408 6.35212 32.2329 6.32983C32.1715 6.32288 32.1101 6.31837 32.0488 6.31205C31.8929 6.29747 31.7365 6.2856 31.579 6.27691C31.5163 6.27269 31.4533 6.26892 31.3904 6.26574C31.1779 6.25636 30.9645 6.25011 30.7497 6.25011C23.1019 6.2515 16.9019 12.4499 16.9019 20.0986C16.9019 20.233 16.9082 20.3656 16.912 20.499C17.0004 20.2817 17.1085 20.0712 17.2257 19.865C17.2425 18.9014 17.3584 17.9618 17.5663 17.057Z" fill="#071D3D"/>
<path d="M32.2538 11.1803L34.7581 10.9065C34.8223 10.8994 34.8808 10.8406 34.8888 10.775L35.0625 9.34843C35.0704 9.28283 35.0249 9.23536 34.9606 9.24236L31.6849 9.60057C31.6341 9.60618 31.5829 9.63282 31.5433 9.67427L30.5093 10.7557L29.7144 9.87424C29.6839 9.84043 29.6378 9.82451 29.587 9.83001L26.5561 10.1615C26.5052 10.167 26.4538 10.1937 26.4142 10.2353L25.4384 11.2585C25.4014 11.2974 25.3775 11.3461 25.3715 11.3947L24.8842 15.3971C24.8763 15.4627 24.9218 15.5103 24.986 15.5032L26.3824 15.3505C26.4466 15.3435 26.5052 15.2847 26.5132 15.219L26.9074 11.9809C26.9206 11.8726 27.0171 11.7756 27.123 11.764L28.6107 11.6013C28.7166 11.5897 28.7918 11.668 28.7787 11.7763L28.3843 15.0144C28.3763 15.08 28.4219 15.1275 28.4862 15.1205L29.8825 14.9677C29.9467 14.9607 30.0052 14.9018 30.0132 14.8362L30.1251 13.9169L30.9196 14.7963C30.9501 14.8301 30.9961 14.846 31.0469 14.8404L34.3227 14.4822C34.3869 14.4752 34.4454 14.4163 34.4534 14.3507L34.6271 12.9242C34.6351 12.8586 34.5895 12.8111 34.5253 12.8181L32.021 13.0919C31.9151 13.1035 31.8399 13.0252 31.8531 12.917L32.0381 11.3973C32.0513 11.289 32.1479 11.1919 32.2538 11.1803Z" fill="#071D3D"/>
</g>
</g>
<defs>
<clipPath id="clip0_246_3727">
<rect width="57.9542" height="39.08" fill="white" transform="translate(0.478271 0.572754)"/>
</clipPath>
</defs>
</svg>
