<svg width="51" height="50" viewBox="0 0 51 50" fill="none" xmlns="http://www.w3.org/2000/svg">
<path d="M12.9394 45.6906L15.7369 39.3704C15.2534 38.9905 14.7871 38.6196 14.3382 38.2577C13.8892 37.8957 13.4575 37.5069 13.0431 37.0911C12.7668 37.1947 12.4995 37.2727 12.2411 37.3252C11.9828 37.3777 11.6975 37.4033 11.3853 37.4019C10.2456 37.4019 9.27032 36.9964 8.45941 36.1855C7.64849 35.3746 7.24235 34.3986 7.24097 33.2575C7.24097 32.5668 7.38809 31.9362 7.68234 31.3656C7.97659 30.7951 8.38204 30.3206 8.89871 29.942C8.62242 29.1477 8.43247 28.3451 8.32886 27.5342C8.22525 26.7233 8.17345 25.8681 8.17345 24.9688C8.17345 24.0695 8.22525 23.2151 8.32886 22.4055C8.43247 21.596 8.62242 20.7927 8.89871 19.9956C8.38066 19.6157 7.97521 19.1412 7.68234 18.572C7.38947 18.0029 7.24235 17.3722 7.24097 16.6801C7.24097 15.5404 7.64711 14.5651 8.45941 13.7542C9.2717 12.9433 10.247 12.5372 11.3853 12.5358C11.6961 12.5358 11.9814 12.562 12.2411 12.6145C12.5008 12.667 12.7682 12.7444 13.0431 12.8466C14.1828 11.6033 15.4868 10.5672 16.9553 9.73834C18.4238 8.90947 19.9862 8.28781 21.6426 7.87338C21.8153 6.83729 22.2905 5.97388 23.0682 5.28316C23.846 4.59243 24.7522 4.24707 25.7869 4.24707C26.8216 4.24707 27.7286 4.60141 28.5077 5.3101C29.2868 6.01878 29.7614 6.87321 29.9313 7.87338C31.589 8.28781 33.1521 8.90118 34.6206 9.71347C36.0891 10.5258 37.3925 11.5356 38.5308 12.743C38.8071 12.6394 39.0661 12.562 39.3079 12.5109C39.5496 12.4598 39.8087 12.4335 40.0849 12.4322C41.2246 12.4322 42.2006 12.8383 43.0129 13.6506C43.8252 14.4629 44.2307 15.4382 44.2293 16.5765C44.2293 17.2672 44.0912 17.8806 43.8149 18.4166C43.5386 18.9526 43.1587 19.4099 42.6752 19.7884C42.9515 20.6173 43.1414 21.4634 43.245 22.3268C43.3486 23.1902 43.4004 24.0709 43.4004 24.9688C43.4004 25.8668 43.3486 26.7392 43.245 27.586C43.1414 28.4328 42.9515 29.2527 42.6752 30.0457C43.1587 30.4256 43.5386 30.8835 43.8149 31.4195C44.0912 31.9555 44.2293 32.5682 44.2293 33.2575C44.2293 34.3972 43.8238 35.3725 43.0129 36.1834C42.202 36.9944 41.226 37.4005 40.0849 37.4019C39.8087 37.4019 39.5496 37.3756 39.3079 37.3231C39.0661 37.2706 38.8071 37.1933 38.5308 37.0911C38.1164 37.5055 37.6937 37.9109 37.2626 38.3074C36.8316 38.7039 36.3564 39.0928 35.837 39.4741L38.5308 45.6906H34.6973L32.7287 41.1318C32.2452 41.339 31.779 41.5207 31.33 41.6768C30.881 41.8329 30.4148 41.962 29.9313 42.0643C29.7586 43.0658 29.2834 43.9209 28.5056 44.6296C27.7279 45.3383 26.8223 45.692 25.789 45.6906C24.7557 45.6892 23.8495 45.3438 23.0703 44.6545C22.2912 43.9651 21.816 43.1017 21.6447 42.0643C21.1266 41.9607 20.6348 41.8315 20.1693 41.6768C19.7037 41.5221 19.2285 41.3404 18.7436 41.1318L16.775 45.6906H12.9394ZM16.8766 36.6766L20.0885 29.424C19.6049 28.8023 19.2251 28.1116 18.9488 27.3518C18.6725 26.592 18.5343 25.7977 18.5343 24.9688C18.5343 23.0003 19.2513 21.299 20.6852 19.8651C22.1192 18.4311 23.8198 17.7148 25.7869 17.7162C27.7541 17.7176 29.4554 18.4346 30.8907 19.8671C32.326 21.2997 33.0423 23.0003 33.0396 24.9688C33.0396 25.7977 32.8924 26.6093 32.5982 27.4036C32.3039 28.198 31.8985 28.906 31.3818 29.5276L34.5937 36.6766C34.9045 36.4003 35.2071 36.1503 35.5013 35.9265C35.7955 35.7027 36.0801 35.4347 36.355 35.1225C36.1824 34.8462 36.0705 34.5443 36.0193 34.2169C35.9682 33.8895 35.942 33.5697 35.9406 33.2575C35.9406 32.1524 36.3205 31.2026 37.0803 30.4083C37.8401 29.614 38.7726 29.1822 39.8777 29.1132C40.085 28.4225 40.2404 27.7407 40.344 27.0679C40.4476 26.3952 40.4994 25.6955 40.4994 24.9688C40.4994 24.2422 40.4476 23.5259 40.344 22.82C40.2404 22.1141 40.085 21.4144 39.8777 20.7209C38.7726 20.6518 37.8401 20.2201 37.0803 19.4258C36.3205 18.6314 35.9406 17.6817 35.9406 16.5765C35.9406 16.2657 35.9841 15.9638 36.0711 15.671C36.1582 15.3781 36.2528 15.0928 36.355 14.8152C35.3535 13.8136 34.2483 12.9675 33.0396 12.2768C31.8308 11.586 30.5529 11.0507 29.206 10.6708C28.8261 11.2579 28.3426 11.7159 27.7555 12.0447C27.1684 12.3735 26.5122 12.5372 25.7869 12.5358C25.0617 12.5344 24.4055 12.37 23.8184 12.0426C23.2313 11.7152 22.7477 11.2579 22.3679 10.6708C20.9519 11.0507 19.6395 11.595 18.4307 12.3037C17.2219 13.0124 16.1168 13.8841 15.1152 14.9188C15.2188 15.1951 15.3142 15.4803 15.4012 15.7746C15.4882 16.0688 15.5311 16.3707 15.5297 16.6801C15.5297 17.7853 15.167 18.7267 14.4418 19.5045C13.7165 20.2823 12.8013 20.7222 11.6961 20.8245C11.4889 21.5152 11.3335 22.1976 11.2299 22.8718C11.1263 23.5459 11.0745 24.2449 11.0745 24.9688C11.0745 25.6927 11.1263 26.3924 11.2299 27.0679C11.3335 27.7435 11.4889 28.4252 11.6961 29.1132C12.8013 29.1822 13.7165 29.614 14.4418 30.4083C15.167 31.2026 15.5297 32.1524 15.5297 33.2575C15.5297 33.5684 15.5041 33.8709 15.453 34.1651C15.4019 34.4594 15.2893 34.744 15.1152 35.0189C15.3915 35.3297 15.6768 35.615 15.971 35.8747C16.2653 36.1344 16.5671 36.4017 16.8766 36.6766ZM19.9848 38.438C20.3647 38.6106 20.7536 38.7661 21.1515 38.9042C21.5493 39.0424 21.9548 39.1632 22.3679 39.2668C22.7477 38.6797 23.2313 38.2225 23.8184 37.8951C24.4055 37.5677 25.0617 37.4033 25.7869 37.4019C26.5122 37.4005 27.1684 37.5649 27.7555 37.8951C28.3426 38.2252 28.8261 38.6825 29.206 39.2668C29.6205 39.1632 30.0087 39.0424 30.3706 38.9042C30.7325 38.7661 31.1041 38.6106 31.4854 38.438L28.4808 31.7034C28.0663 31.8761 27.6346 32.0059 27.1857 32.093C26.7367 32.18 26.2704 32.2228 25.7869 32.2214C25.2689 32.2214 24.7764 32.1696 24.3095 32.066C23.8425 31.9624 23.4026 31.807 22.9895 31.5998L19.9848 38.438Z" fill="#4C4C4C"/>
</svg>
