<svg width="33" height="33" viewBox="0 0 33 33" fill="none" xmlns="http://www.w3.org/2000/svg">
<path d="M16.1936 16.8573H8.20089V19.5215H16.1936V16.8573ZM24.1862 16.8573H16.1936V19.5215H24.1862V16.8573ZM26.8505 14.193C26.8505 14.8996 26.5698 15.5773 26.0701 16.0769C25.5705 16.5766 24.8928 16.8573 24.1862 16.8573V19.5215C25.5994 19.5215 26.9548 18.9601 27.954 17.9608C28.9533 16.9615 29.5147 15.6062 29.5147 14.193H26.8505ZM24.1862 11.5288C24.8928 11.5288 25.5705 11.8095 26.0701 12.3091C26.5698 12.8088 26.8505 13.4864 26.8505 14.193H29.5147C29.5147 12.7798 28.9533 11.4245 27.954 10.4253C26.9548 9.42597 25.5994 8.86458 24.1862 8.86458V11.5288ZM23.4882 8.25847C22.8573 6.85161 21.833 5.65724 20.5387 4.81935C19.2444 3.98146 17.7354 3.53581 16.1936 3.53613V6.20036C17.2219 6.19988 18.2283 6.49695 19.0915 7.05573C19.9548 7.61451 20.6379 8.41112 21.0584 9.34947L23.4882 8.25847ZM16.1936 3.53613C14.6517 3.53581 13.1427 3.98146 11.8484 4.81935C10.5541 5.65724 9.52979 6.85161 8.89892 8.25847L11.3287 9.35081C11.7491 8.4122 12.4321 7.61531 13.2953 7.05629C14.1586 6.49726 15.1651 6.2 16.1936 6.20036V3.53613ZM8.20089 8.86458C6.7877 8.86458 5.43238 9.42597 4.4331 10.4253C3.43383 11.4245 2.87244 12.7798 2.87244 14.193H5.53666C5.53666 13.4864 5.81736 12.8088 6.317 12.3091C6.81664 11.8095 7.49429 11.5288 8.20089 11.5288V8.86458ZM2.87244 14.193C2.87244 15.6062 3.43383 16.9615 4.4331 17.9608C5.43238 18.9601 6.7877 19.5215 8.20089 19.5215V16.8573C7.49429 16.8573 6.81664 16.5766 6.317 16.0769C5.81736 15.5773 5.53666 14.8996 5.53666 14.193H2.87244ZM8.89892 8.25847C8.69244 8.71805 8.37273 8.86458 8.20089 8.86458V11.5288C9.73282 11.5288 10.8371 10.4471 11.3287 9.35081L8.89892 8.25847ZM24.1862 8.86458C24.0131 8.86458 23.6947 8.71805 23.4882 8.25847L21.0584 9.34947C21.5487 10.4431 22.653 11.5288 24.1862 11.5288V8.86458Z" fill="#4C4C4C"/>
<path d="M16.1935 26.1818V23.5176M22.8541 27.5139V23.5176M9.53296 28.846V23.5176" stroke="#4C4C4C" stroke-width="1.42092" stroke-linecap="round"/>
</svg>
