<svg width="53" height="40" viewBox="0 0 53 40" fill="none" xmlns="http://www.w3.org/2000/svg">
<path d="M27.7387 39.3816C19.7086 39.4867 12.7465 34.627 9.77887 27.6547C9.90866 27.6023 10.0328 27.5341 10.1517 27.455C13.0399 34.297 19.8529 39.0598 27.733 38.956C36.2648 38.8406 43.3928 33.0672 45.5936 25.2541C45.7258 25.304 45.8631 25.3388 46.0031 25.358C43.7502 33.3443 36.451 39.2636 27.7387 39.3816ZM8.25223 20.4022C8.11527 9.80255 16.6307 1.05972 27.2345 0.913269C37.6445 0.783646 46.2577 8.9845 46.7029 19.3089C46.5641 19.2741 46.4208 19.2551 46.2747 19.2531C45.8017 9.17243 37.4125 1.21217 27.2399 1.33879C16.8501 1.48224 8.54379 10.011 8.67825 20.3969C8.68408 20.8368 8.70624 21.2726 8.74189 21.7046C8.59861 21.7295 8.4586 21.7706 8.32453 21.8269C8.28284 21.3531 8.25872 20.8779 8.25223 20.4022ZM48.6215 22.3124C48.6215 20.9679 47.9479 19.8284 47.0126 19.4171C46.6229 8.8722 37.8462 0.476753 27.2305 0.609043C16.4589 0.757824 7.80888 9.63877 7.94783 20.4062C7.955 20.9364 7.98415 21.4615 8.03313 21.9805C7.23907 22.4762 6.69043 23.5213 6.69043 24.7344C6.69043 26.4252 7.7539 27.7959 9.06578 27.7959C9.20956 27.7959 9.34968 27.7767 9.48663 27.7449C12.4941 34.8429 19.5743 39.7932 27.7429 39.6858C36.6188 39.5658 44.0513 33.5181 46.3163 25.3694C47.5954 25.3212 48.6215 23.9727 48.6215 22.3124Z" fill="#BEC0C2"/>
<path d="M14.8786 16.4836C16.9048 9.54797 24.1729 5.56534 31.1132 7.59314C38.051 9.61895 42.0315 16.886 40.0055 23.8239C37.9784 30.76 30.7099 34.7402 23.7706 32.7147C16.834 30.6874 12.8515 23.422 14.8786 16.4836Z" fill="white"/>
<path d="M34.4503 11.3012L34.8362 9.97464L35.1946 9.81852L33.869 9.1231C33.7479 9.05779 33.6521 9.09861 33.6193 9.16242L33.5798 9.24639C33.5448 9.31453 33.5843 9.42083 33.6921 9.47698L34.7221 10.0203L34.3704 10.1756L34.0828 11.1891C34.047 11.3065 34.0944 11.4071 34.1686 11.432L34.2532 11.4578C34.3204 11.4778 34.4143 11.434 34.4503 11.3012Z" fill="#BEC0C2"/>
<path d="M33.0962 11.7673L33.5699 10.4743L33.9364 10.3451L32.6625 9.55441C32.5454 9.48127 32.4477 9.51476 32.4103 9.57607L32.3653 9.65388C32.3265 9.72235 32.3573 9.82965 32.4614 9.89363L33.4521 10.5094L33.092 10.6389L32.7328 11.6279C32.6908 11.7445 32.7308 11.8486 32.8015 11.8774L32.8858 11.9091C32.9522 11.9344 33.0489 11.8966 33.0962 11.7673Z" fill="#BEC0C2"/>
<path d="M31.7102 12.1332L32.27 10.8792L32.6469 10.7754L31.4282 9.8955C31.3172 9.81503 31.2169 9.83935 31.1757 9.8985L31.1238 9.97564C31.0819 10.0388 31.1054 10.1481 31.2046 10.2196L32.1506 10.9055L31.7834 11.009L31.3577 11.9695C31.3079 12.0824 31.3415 12.1887 31.4093 12.2234L31.4913 12.2607C31.5566 12.291 31.6559 12.2602 31.7102 12.1332Z" fill="#BEC0C2"/>
<path d="M30.3027 12.4007L30.9473 11.1882L31.329 11.1119L30.1732 10.1474C30.0699 10.0568 29.9676 10.0768 29.9216 10.1339L29.8651 10.2046C29.8172 10.2641 29.8348 10.3763 29.9291 10.4537L30.8273 11.2059L30.4521 11.2837L29.9623 12.2115C29.905 12.3178 29.9306 12.428 29.9976 12.4645L30.0766 12.5114C30.1387 12.5444 30.2394 12.5233 30.3027 12.4007Z" fill="#BEC0C2"/>
<path d="M28.8804 12.5637L29.6073 11.4014L29.9933 11.3544L28.9034 10.3071C28.8061 10.2103 28.7046 10.2216 28.6548 10.2748L28.5937 10.3419C28.5422 10.3996 28.5527 10.5107 28.6395 10.5954L29.485 11.4107L29.1058 11.4611L28.5555 12.3487C28.4902 12.4549 28.5085 12.5658 28.5698 12.6077L28.6476 12.6568C28.7068 12.6965 28.8084 12.6803 28.8804 12.5637Z" fill="#BEC0C2"/>
<path d="M27.4517 12.6222L28.2529 11.5164L28.6443 11.4987L27.6281 10.3756C27.5375 10.2728 27.4315 10.2753 27.3811 10.3245L27.3141 10.3873C27.2606 10.4406 27.2619 10.5536 27.3437 10.6427L28.1316 11.5191L27.7511 11.5407L27.1395 12.3874C27.0678 12.4856 27.079 12.597 27.1395 12.6445L27.2111 12.7003C27.2676 12.7425 27.3711 12.7356 27.4517 12.6222Z" fill="#BEC0C2"/>
<path d="M26.0199 12.5801L26.8961 11.5349L27.2866 11.5431L26.3501 10.3505C26.2658 10.2405 26.1612 10.2374 26.1067 10.2822L26.0372 10.3405C25.9786 10.3893 25.9726 10.5021 26.0485 10.5973L26.7734 11.5278L26.3911 11.5214L25.7266 12.322C25.6475 12.4143 25.6502 12.5268 25.7063 12.5789L25.7751 12.6392C25.8273 12.6867 25.9312 12.686 26.0199 12.5801Z" fill="#BEC0C2"/>
<path d="M24.5944 12.4327L25.5399 11.4541L25.9291 11.4899L25.075 10.2332C24.9996 10.1184 24.8968 10.107 24.8396 10.1472L24.7648 10.2003C24.7018 10.2438 24.688 10.3575 24.759 10.4576L25.4181 11.4364L25.0391 11.4039L24.319 12.1527C24.2337 12.2403 24.2295 12.3541 24.2828 12.4107L24.3463 12.4726C24.3973 12.5245 24.4996 12.5327 24.5944 12.4327Z" fill="#BEC0C2"/>
<path d="M23.1818 12.1826L24.1918 11.2764L24.5778 11.34L23.8124 10.0242C23.7441 9.90369 23.6418 9.8847 23.5814 9.92185L23.5027 9.96734C23.4391 10.009 23.4192 10.1195 23.4811 10.2248L24.0729 11.2496L23.695 11.1886L22.9261 11.8857C22.8363 11.965 22.8241 12.0769 22.8734 12.1351L22.9327 12.2059C22.9791 12.2602 23.0822 12.2755 23.1818 12.1826Z" fill="#BEC0C2"/>
<path d="M21.7905 11.8312L22.86 10.9994L23.2392 11.0911L22.5646 9.72472C22.5071 9.59759 22.4048 9.5726 22.342 9.60442L22.2618 9.64591C22.1954 9.6819 22.1675 9.78936 22.2219 9.90016L22.7433 10.9658L22.37 10.876L21.5556 11.5153C21.4593 11.5894 21.441 11.7007 21.4853 11.762L21.5398 11.836C21.5821 11.8951 21.6852 11.9171 21.7905 11.8312Z" fill="#BEC0C2"/>
<path d="M20.4267 11.3815L21.55 10.6284L21.9232 10.7489L21.3433 9.33434C21.2919 9.20655 21.1933 9.17306 21.128 9.20055L21.0452 9.23521C20.9769 9.26586 20.9392 9.37183 20.9882 9.48645L21.4347 10.5847L21.0715 10.4709L20.2135 11.0493C20.1123 11.1152 20.0837 11.2244 20.1262 11.2912L20.1755 11.3666C20.2135 11.4275 20.3146 11.4576 20.4267 11.3815Z" fill="#BEC0C2"/>
<path d="M19.0945 10.832L20.2676 10.1614L20.6305 10.3095L20.1483 8.85903C20.1067 8.72558 20.0112 8.68426 19.9422 8.70758L19.8584 8.73707C19.7876 8.7634 19.7433 8.86653 19.7836 8.98216L20.155 10.1121L19.7978 9.97015L18.9058 10.4856C18.8005 10.5441 18.7663 10.6513 18.8008 10.7179L18.845 10.7987C18.8798 10.8645 18.9777 10.9002 19.0945 10.832ZM19.6698 29.2915L19.4709 30.5591L19.1497 30.7525L20.4911 31.2152C20.613 31.2592 20.6991 31.2097 20.7213 31.1455L20.75 31.0649C20.7733 30.9978 20.7246 30.9071 20.615 30.8676L19.5722 30.5039L19.8844 30.3142L20.034 29.3467C20.0517 29.233 19.9942 29.1462 19.9227 29.1347L19.8383 29.1211C19.7711 29.1116 19.687 29.1651 19.6698 29.2915Z" fill="#BEC0C2"/>
<path d="M20.8965 28.6851L20.6068 29.9371L20.2749 30.1051L21.5796 30.6619C21.6989 30.7147 21.7879 30.6712 21.8155 30.6091L21.8485 30.5296C21.8778 30.4639 21.834 30.3688 21.7281 30.3233L20.7129 29.8871L21.0398 29.7207L21.2539 28.7652C21.2816 28.6542 21.2304 28.5636 21.1574 28.5454L21.0755 28.5276C21.0105 28.5126 20.9235 28.5599 20.8965 28.6851Z" fill="#BEC0C2"/>
<path d="M22.161 28.1658L21.7851 29.3931L21.4429 29.536L22.7058 30.1848C22.8211 30.2456 22.912 30.2081 22.9445 30.149L22.9825 30.074C23.0158 30.0082 22.98 29.9107 22.8774 29.8587L21.8956 29.3527L22.2318 29.2096L22.5152 28.2714C22.5488 28.1608 22.5042 28.0672 22.4354 28.0455L22.3534 28.0217C22.2881 28.0019 22.1971 28.0432 22.161 28.1658Z" fill="#BEC0C2"/>
<path d="M23.4606 27.7381L23.0016 28.9347L22.6477 29.0557L23.8628 29.7903C23.9727 29.8574 24.0665 29.8284 24.102 29.7718L24.1474 29.6966C24.184 29.6353 24.1545 29.536 24.0562 29.4759L23.1134 28.9026L23.4573 28.7828L23.8058 27.8671C23.8473 27.7593 23.809 27.663 23.7427 27.6352L23.6615 27.6065C23.5984 27.5825 23.5049 27.6172 23.4606 27.7381Z" fill="#BEC0C2"/>
<path d="M24.787 27.4L24.2447 28.5627L23.885 28.6582L25.0436 29.4751C25.1482 29.5529 25.2447 29.5284 25.2847 29.4723L25.3342 29.4034C25.3762 29.3455 25.353 29.2425 25.2585 29.177L24.357 28.5391L24.7102 28.4434L25.1226 27.5522C25.1704 27.4509 25.1404 27.3501 25.0746 27.3207L24.9961 27.2828C24.9352 27.2557 24.84 27.2825 24.787 27.4Z" fill="#BEC0C2"/>
<path d="M26.1335 27.1564L25.5096 28.2786L25.1445 28.3475L26.2445 29.2456C26.3438 29.3289 26.4401 29.3129 26.4841 29.2589L26.5382 29.1932C26.5842 29.1369 26.5679 29.0351 26.4794 28.9613L25.6255 28.2612L25.9841 28.1918L26.4564 27.3344C26.5121 27.2326 26.4881 27.131 26.4271 27.0961L26.3504 27.056C26.2911 27.0227 26.1953 27.0438 26.1335 27.1564Z" fill="#BEC0C2"/>
<path d="M27.4933 27.0094L26.7942 28.0849L26.4219 28.1272L27.4574 29.0999C27.5498 29.1897 27.6505 29.1802 27.6964 29.1317L27.7559 29.0695C27.8039 29.0169 27.7962 28.9113 27.7128 28.8346L26.91 28.0749L27.2706 28.0301L27.8041 27.2082C27.8665 27.1124 27.8496 27.0089 27.7892 26.9699L27.7178 26.9223C27.6605 26.8868 27.5631 26.9008 27.4933 27.0094Z" fill="#BEC0C2"/>
<path d="M28.8608 26.9568L28.0874 27.9806L27.7134 27.9993L28.6782 29.0404C28.765 29.1372 28.8641 29.1339 28.9138 29.0886L28.9769 29.0298C29.0296 28.9814 29.0281 28.8766 28.9505 28.7932L28.2042 27.9798L28.5693 27.9601L29.1564 27.1772C29.2257 27.0873 29.216 26.9825 29.1604 26.9376L29.0907 26.887C29.0379 26.8457 28.9393 26.8532 28.8608 26.9568Z" fill="#BEC0C2"/>
<path d="M30.2288 27.0007L29.3853 27.9672L29.0112 27.9597L29.9004 29.0676C29.9794 29.1681 30.0785 29.1724 30.1302 29.1315L30.1992 29.077C30.2561 29.0333 30.2623 28.9269 30.189 28.8387L29.5019 27.975L29.8658 27.9817L30.5082 27.2421C30.584 27.156 30.5814 27.0497 30.5275 27.001L30.4629 26.9477C30.4114 26.9032 30.3129 26.9022 30.2288 27.0007Z" fill="#BEC0C2"/>
<path d="M31.59 27.1398L30.6817 28.044L30.3103 28.0103L31.1167 29.1784C31.1893 29.2852 31.2875 29.296 31.3438 29.2574L31.4159 29.2104C31.4746 29.1683 31.4866 29.0655 31.4214 28.9715L30.7958 28.061L31.1597 28.0933L31.8521 27.3992C31.9326 27.3194 31.9377 27.2154 31.8879 27.1644L31.8264 27.1035C31.7796 27.055 31.6805 27.048 31.59 27.1398Z" fill="#BEC0C2"/>
<path d="M32.938 27.3762L31.9671 28.2151L31.6001 28.1535L32.3242 29.3752C32.3868 29.4883 32.486 29.5052 32.5443 29.4712L32.6177 29.428C32.6794 29.3907 32.6997 29.2894 32.6412 29.1904L32.0811 28.2388L32.4421 28.2969L33.1809 27.6531C33.2684 27.579 33.2795 27.4747 33.2332 27.4199L33.1772 27.3551C33.1337 27.3033 33.0336 27.2899 32.938 27.3762Z" fill="#BEC0C2"/>
<path d="M34.2657 27.7048L33.238 28.474L32.8755 28.3861L33.5131 29.6569C33.5692 29.7722 33.6662 29.7977 33.726 29.7677L33.803 29.7298C33.8663 29.6966 33.8956 29.5968 33.8432 29.4943L33.3513 28.5065L33.7045 28.5876L34.4881 27.9974C34.5814 27.9304 34.6014 27.8274 34.5576 27.7689L34.5061 27.7015C34.4664 27.6473 34.368 27.6265 34.2657 27.7048Z" fill="#BEC0C2"/>
<path d="M35.5673 28.1263L34.4892 28.8221L34.1338 28.7084L34.6799 30.0196C34.7279 30.1406 34.8209 30.1716 34.8855 30.1459L34.963 30.1134C35.0297 30.0843 35.0658 29.987 35.0203 29.882L34.5996 28.8607L34.9487 28.9683L35.7689 28.434C35.8652 28.3732 35.8922 28.2716 35.8547 28.2121L35.808 28.1403C35.7711 28.0818 35.6748 28.0557 35.5673 28.1263Z" fill="#BEC0C2"/>
<path d="M36.8372 28.6389L35.7126 29.2544L35.3657 29.1183L35.8179 30.4643C35.8577 30.5876 35.948 30.6264 36.0122 30.6054L36.0946 30.5775C36.1624 30.5551 36.2043 30.459 36.1676 30.3514L35.8197 29.3036L36.1586 29.4355L37.017 28.9585C37.1171 28.9047 37.1513 28.8062 37.1166 28.7434L37.076 28.6679C37.0421 28.609 36.9485 28.5746 36.8372 28.6389Z" fill="#BEC0C2"/>
<path d="M18.4777 11.4069C17.1355 11.6448 16.0224 12.7679 15.9434 13.964C15.9404 14.0099 15.939 14.0558 15.9391 14.1018C15.9391 14.6363 16.149 15.1165 16.5389 15.4663C17.0254 15.902 17.7378 16.0758 18.4927 15.9418C19.8343 15.7056 20.9481 14.5826 21.0279 13.3851C21.0662 12.7946 20.8556 12.2614 20.4326 11.8824C19.9456 11.4461 19.2335 11.2729 18.4777 11.4069ZM5.51769 14.8034L4.92173 17.1164C4.92173 17.1164 5.37757 16.9941 5.69763 16.9078C5.30177 18.6722 3.26447 27.7678 3.25114 27.8289C3.14568 28.1736 2.694 28.4271 2.30296 28.5507L1.97075 28.6556L0.92627 32.1128L2.21383 31.578C6.42938 29.8281 12.7334 28.139 12.7969 28.1223L13.1297 28.0334L14.5911 23.9976L13.015 24.3691C12.801 24.4189 12.6674 24.5102 12.5806 24.6139C12.3832 24.8558 11.7456 25.5182 11.1459 25.7148L8.37038 26.4792L8.35705 26.4824C8.37038 26.4229 11.5203 12.6871 11.5203 12.6871L5.51769 14.8034Z" fill="#A1A1A4"/>
<path d="M15.1371 16.9465L14.5633 19.1915C14.5633 19.1915 14.9092 19.1014 15.2237 19.0184C14.8535 20.4334 14.0428 23.5369 14.0428 23.5369C13.951 23.9117 13.9065 24.2753 13.9065 24.6182C13.9065 25.3742 14.1244 26.0303 14.5458 26.4972C14.9423 26.9365 15.7077 27.4207 17.1031 27.2288C18.1854 27.0812 19.1905 26.5575 20.092 25.6711L20.7003 25.0732L18.8293 23.9501L18.4649 24.2974C18.4384 24.3233 18.4113 24.3451 18.3856 24.3668C18.396 24.2859 18.4123 24.1906 18.4384 24.0805C18.4366 24.0858 20.3699 16.1676 20.3699 16.1676L20.66 14.9786L15.1371 16.9465Z" fill="#A1A1A4"/>
<path d="M26.9379 15.5012C27.0158 15.4924 27.0996 15.4914 27.1783 15.4957L25.4862 22.3355C25.4214 22.5859 25.0389 22.8025 24.5978 22.8337C24.579 22.835 24.5599 22.8302 24.5399 22.8253C24.6283 22.4743 26.2899 15.8382 26.2986 15.8029C26.3609 15.7073 26.6771 15.5305 26.9379 15.5012ZM27.3482 12.9347C24.159 13.3276 21.7551 15.2311 21.0774 17.9014L20.1277 21.7439L20.1314 21.7277C19.7948 22.9546 19.9254 23.9235 20.5206 24.6076C21.208 25.3968 22.4086 25.6854 24.0898 25.4659C27.2947 25.0471 29.6674 23.3022 30.2839 20.9113C30.2842 20.9087 31.3577 16.6598 31.3577 16.6598C31.6591 15.422 31.5071 14.4569 30.9095 13.7841C30.2221 13.0139 29.0245 12.7273 27.3482 12.9347ZM40.4929 10.1987C39.8316 10.3055 39.0619 10.5752 38.3659 10.9196C38.4261 10.6805 38.4911 10.4241 38.4911 10.4241L32.9162 12.4972L32.3822 14.7275L33.0444 14.5275L30.8187 23.6432L35.5263 22.4911L37.4316 14.6068C37.5394 14.1407 37.7718 13.8486 38.1745 13.6725L37.0454 18.4245C37.0472 18.4182 36.9833 18.6674 36.9833 18.6674C36.7322 19.6298 36.3891 20.9485 37.1125 21.7625C37.5121 22.2125 38.132 22.384 38.9549 22.2714C40.4106 22.0714 41.6911 21.3127 42.7624 20.0145L43.2389 19.4378C43.2389 19.4378 41.6358 18.4212 41.4844 18.3259C41.8413 16.8367 42.7215 13.1598 42.7215 13.1598C42.8108 12.7951 42.8564 12.4599 42.8564 12.1542C42.8564 11.5699 42.691 11.0954 42.3627 10.7385C41.9332 10.2726 41.2521 10.0767 40.4929 10.1987ZM4.54639 34.6168L4.25366 33.7749L5.24615 33.3244C10.5443 31.0627 17.8512 28.5199 25.2933 26.3468C32.9275 24.1182 39.7095 22.5823 43.9014 22.1332L44.6465 22.0529L44.6043 24.1827L44.08 24.2845C40.4639 24.9821 27.6733 27.9271 14.9175 36.5361L14.5618 36.7759L14.1979 36.548C11.4309 34.8167 7.56636 34.5791 5.50923 34.5911C5.2045 34.5865 4.54639 34.6168 4.54639 34.6168Z" fill="#A1A1A4"/>
<path d="M47.4749 8.96087C44.7773 9.52701 43.2628 11.4607 43.3211 14.2687C43.3556 15.9491 44.3994 17.3352 45.4092 18.6755C46.2756 19.825 47.0938 20.9113 47.121 22.0031C47.1708 24.0319 46.2763 24.3174 45.9795 24.3846C45.4569 24.5019 45.0704 24.1855 44.9614 24.0527C45.8692 23.6292 46.7813 22.8229 46.7813 21.6662C46.7813 21.5907 46.7774 21.5141 46.7698 21.4358C46.6941 20.6895 46.3331 20.281 46.0438 20.0686C45.4001 19.5979 44.6372 19.7103 44.4189 19.7558C42.8306 20.0867 41.821 21.6553 42.12 23.3273C42.6042 26.0343 45.1345 26.8691 47.2811 26.4975C48.8346 26.2286 50.1326 25.4474 50.9353 24.2966C51.7294 23.1565 51.998 21.731 51.7111 20.1747C51.4145 18.5627 50.5525 17.292 49.7191 16.0619C48.8544 14.7864 48.0363 13.5806 47.9764 12.1333C47.9569 11.6716 48.0906 11.3264 48.2314 11.1894C48.2862 11.1363 48.3216 11.1333 48.355 11.1355C48.4055 11.139 48.5235 11.1475 48.6495 11.3386C48.93 11.7657 48.9685 12.6499 48.7363 13.31L48.6589 13.5301L49.0586 14.6599L52.8647 12.8802L52.8114 12.41C52.6867 11.2784 52.1219 10.2981 51.2234 9.64614C50.2069 8.91072 48.876 8.66747 47.4749 8.96087Z" fill="#A1A1A4"/>
<path d="M18.5603 11.8741C17.4428 12.0717 16.4808 13.0239 16.417 13.9962C16.4144 14.0308 16.4133 14.0654 16.4135 14.1C16.4135 14.4989 16.5681 14.8554 16.8554 15.113C17.2327 15.4514 17.7992 15.5835 18.4102 15.475C19.5279 15.2781 20.49 14.3264 20.5548 13.3534C20.5838 12.9126 20.4278 12.5156 20.1157 12.2362C19.7387 11.8973 19.1719 11.7657 18.5603 11.8741ZM5.91412 15.1668L5.58407 16.4471C5.58407 16.4471 6.11988 16.3033 6.33181 16.2456C6.20435 16.8159 3.71271 27.9384 3.70838 27.9566C3.51994 28.6009 2.76253 28.9036 2.44581 29.0032L2.35201 29.0331L1.67041 31.2903L2.03245 31.1402C6.2775 29.3783 12.6107 27.6812 12.674 27.6645L12.7681 27.6387L13.8462 24.6609L13.2819 24.7932C13.0393 24.8503 12.9495 24.8722 12.9212 24.9461C12.7743 25.1181 12.0607 25.9183 11.2868 26.1682L8.48074 26.9408C8.20084 27.0083 7.99557 26.9979 7.90977 26.9111C7.83263 26.8321 7.8243 26.6549 7.88644 26.4103C7.88794 26.4056 10.8653 13.4218 10.8653 13.4218L5.91412 15.1668ZM15.5337 17.3081L15.2219 18.529C15.2219 18.529 15.7088 18.4017 15.8875 18.3547C15.7439 18.9027 14.5043 23.6466 14.5043 23.6466C14.4207 23.9876 14.3802 24.3152 14.3802 24.6216C14.3802 25.2582 14.5565 25.8012 14.8985 26.1802C15.2178 26.5339 15.8495 26.9223 17.0386 26.7595C18.0168 26.6256 18.9328 26.1457 19.7599 25.3332L19.9313 25.1654L18.8948 24.5431L18.7934 24.6411C18.5719 24.8515 18.3509 24.973 18.1349 25.0019C18.0346 25.0163 18.002 24.9805 17.9875 24.9651C17.8975 24.8667 17.8414 24.5486 17.977 23.9725L19.9905 15.721L15.5337 17.3081ZM25.8429 15.6686C25.9239 15.3419 26.5131 15.0727 26.8839 15.03C27.1961 14.9949 27.6247 15.0427 27.7285 15.161C27.7388 15.1721 27.7445 15.1817 27.738 15.2096L25.9464 22.4498C25.828 22.9075 25.2873 23.2604 24.631 23.3072C24.4328 23.321 24.2165 23.2407 24.102 23.1119C24.0534 23.0564 24.0302 22.9996 24.0302 22.939C24.0302 22.9235 24.0321 22.9073 24.0354 22.8905C24.0384 22.877 25.8429 15.6686 25.8429 15.6686ZM27.4069 13.4054C24.4151 13.7745 22.1657 15.5415 21.5369 18.0188L20.5882 21.858C20.2967 22.9182 20.3942 23.7392 20.8782 24.296C21.4468 24.949 22.5358 25.1907 24.0287 24.9961C27.0372 24.6024 29.2581 22.9933 29.8242 20.7932L30.8985 16.5437C31.159 15.4704 31.044 14.6488 30.5548 14.1007C29.9782 13.4524 28.9182 13.2188 27.4069 13.4054ZM40.5692 10.667C39.6362 10.818 38.4343 11.334 37.6271 11.9013L37.8092 11.1847L33.3186 12.8539L33.0355 14.0354C33.0355 14.0354 33.5243 13.8884 33.7021 13.8344L31.4647 22.9971L35.1336 22.0999L36.9711 14.4951C37.1261 13.8218 37.5168 13.3879 38.164 13.1668C38.4151 13.0819 38.6086 13.1177 38.689 13.192C38.7072 13.2085 38.7627 13.2598 38.7275 13.3963L37.5068 18.5343C37.5079 18.5328 37.442 18.7871 37.442 18.7871C37.2185 19.6468 36.9126 20.8235 37.4665 21.4478C37.755 21.7731 38.2337 21.8913 38.8906 21.8014C40.2243 21.6188 41.4043 20.9162 42.3969 19.7129L42.5309 19.551L41.4686 18.8772L41.3673 19.021C41.1277 19.3582 40.8581 19.5093 40.7483 19.4943C40.742 19.4752 40.7391 19.455 40.7398 19.4349C40.7398 19.4039 40.7442 19.3645 40.758 19.3209L40.7602 19.3146L42.2596 13.0499C42.3411 12.721 42.3811 12.4223 42.3811 12.156C42.3811 11.6932 42.2593 11.3263 42.0142 11.0604C41.6948 10.7143 41.168 10.5706 40.5692 10.667ZM43.9516 22.6053C39.7867 23.0511 33.035 24.5813 25.4261 26.8027C18.002 28.9701 10.7141 31.5067 5.43262 33.7608L5.23452 33.8466L5.31149 34.1126L5.50626 34.1171C7.6152 34.104 11.5807 34.3514 14.4497 36.1469L14.5525 36.2114L14.6518 36.1436C27.4824 27.4838 40.351 24.5208 43.9897 23.8192L44.1377 23.7905L44.1613 22.5826L43.9516 22.6053Z" fill="white"/>
<path d="M47.5722 9.42558C45.083 9.9474 43.7417 11.6638 43.795 14.2591C43.8263 15.7866 44.8238 17.1101 45.7881 18.3898C46.7018 19.6019 47.5643 20.7477 47.5943 21.9921C47.6337 23.5881 47.1303 24.5327 46.098 24.7996C45.704 24.9008 45.201 24.7996 44.8158 24.5394C44.5374 24.3518 44.3538 24.0967 44.2746 23.812C45.1453 23.5432 46.3066 22.7893 46.3066 21.6564C46.3066 21.5992 46.3038 21.5424 46.298 21.4841C46.2513 21.0244 46.071 20.6769 45.7638 20.4513C45.3779 20.1694 44.8663 20.1469 44.5161 20.2202C43.1585 20.5031 42.329 21.8027 42.5869 23.2428C43.0142 25.6319 45.2776 26.3621 47.1998 26.0304C48.628 25.7836 49.8159 25.0717 50.5453 24.0252C51.2666 22.9911 51.5085 21.6902 51.2444 20.2604C50.9657 18.7469 50.1325 17.5176 49.3261 16.3275C48.4221 14.9947 47.5672 13.7359 47.5019 12.1535C47.479 11.6105 47.632 11.1108 47.8999 10.8499C48.0407 10.7131 48.2051 10.6505 48.3879 10.6628C48.6551 10.6818 48.8762 10.8209 49.0453 11.078C49.4086 11.632 49.4684 12.6588 49.1831 13.4677L49.1618 13.5293L49.3311 14.0087L52.355 12.5943L52.3402 12.462C52.2299 11.4652 51.7341 10.6024 50.9442 10.0307C50.0382 9.37444 48.8409 9.15934 47.5722 9.42558Z" fill="white"/>
<path d="M20.3693 13.3415C20.3093 14.2347 19.4181 15.1091 18.3781 15.2915C17.3373 15.4764 16.5423 14.9008 16.6017 14.0078C16.6607 13.1131 17.5526 12.2399 18.5931 12.0566C19.6332 11.8718 20.4281 12.4475 20.3693 13.3415ZM13.0946 25.0278L13.5551 24.9192L12.6263 27.485C12.6263 27.485 6.26763 29.1807 1.96094 30.9678L2.50175 29.1807C3.08988 28.9948 3.71117 28.6116 3.88745 28.0061L6.58035 15.9859L5.84344 16.1852L6.06836 15.3082L10.609 13.7075L7.70697 26.364C7.53702 27.0288 7.82876 27.2872 8.53052 27.1193L11.3442 26.3442C12.2726 26.044 13.0946 25.0278 13.0946 25.0278ZM18.9208 24.7744C18.6825 25.0023 18.4278 25.1496 18.159 25.1858C17.6892 25.2521 17.6274 24.6496 17.7962 23.9295L19.7288 16.0107L15.6892 17.4501L15.4805 18.2696L16.1477 18.094L14.6839 23.6929C14.2912 25.3041 14.8225 26.8753 17.0129 26.5749C18.0116 26.4378 18.8833 25.9328 19.6297 25.2003L18.9208 24.7744ZM30.7184 16.4979C31.3064 14.0772 29.85 13.2903 27.4292 13.5889C24.638 13.934 22.3551 15.5514 21.7168 18.0635L20.7686 21.9022C20.1075 24.3069 21.5864 25.1268 24.0044 24.8116C26.7769 24.4492 29.0653 22.9963 29.6446 20.7468L30.7184 16.4979ZM24.6443 23.4925C24.241 23.5203 23.7741 23.2411 23.8531 22.8522L25.663 15.6234C25.7683 15.1959 26.4455 14.8925 26.8631 14.8453C27.2274 14.8038 28.0128 14.8525 27.9182 15.2515L26.1268 22.4942C25.9765 23.0751 25.3276 23.4437 24.6443 23.4925ZM33.4765 12.9936L33.2914 13.7633L33.9591 13.5624L31.7174 22.7439L34.9798 21.946L36.7905 14.4511C36.9783 13.6414 37.4714 13.2064 38.104 12.9899C38.5957 12.8228 39.0146 13.0208 38.9076 13.4415L37.6872 18.5767C37.4094 19.6936 36.6662 21.9186 38.8654 21.6172C40.5069 21.3924 41.5982 20.3886 42.2536 19.594L41.5184 19.1282C41.2498 19.5065 40.8987 19.7368 40.6793 19.669C40.5492 19.6277 40.528 19.4344 40.5812 19.265L42.0785 13.0058C42.5477 11.1061 41.5029 10.7036 40.5983 10.8503C39.4764 11.031 38.0042 11.7427 37.3123 12.3895L37.5429 11.4811L33.4765 12.9936Z" fill="#0066B3"/>
<path d="M47.3168 12.1604C47.2789 11.2442 47.7022 10.4296 48.4013 10.478C49.5138 10.5554 49.7823 12.327 49.3593 13.5296L49.4378 13.7538L52.1562 12.4836C51.9279 10.4305 50.0117 9.10426 47.6097 9.60726C45.023 10.1492 43.934 11.9746 43.9805 14.255C44.0403 17.1312 47.715 19.3244 47.7805 21.987C47.8295 23.9745 47.0359 24.7489 46.1446 24.9798C45.345 25.1861 44.1806 24.6637 44.0516 23.6813C44.9788 23.4567 46.2317 22.6651 46.1129 21.5028C45.9965 20.3524 44.994 20.3099 44.5543 20.4015C43.4382 20.634 42.6333 21.6749 42.7351 22.9418C33.4501 24.2314 15.8735 29.5059 5.50537 33.9317C8.4162 33.9137 11.9783 34.3807 14.5479 35.9894C24.8507 29.0361 35.8491 25.3465 42.9423 23.8434C43.5843 25.5546 45.4137 26.1506 47.1687 25.8478C49.8033 25.3927 51.618 23.3134 51.0621 20.2951C50.4849 17.1575 47.446 15.2482 47.3168 12.1604ZM18.5286 8.98597C17.8681 9.49646 17.4441 9.20306 17.1314 8.73988L17.6647 8.32769C17.8531 8.57127 18.0221 8.76837 18.3155 8.54178C18.4954 8.4025 18.4937 8.21757 18.36 8.04463C18.0051 7.58528 16.9093 8.38634 16.3227 7.62693C16.0141 7.22757 15.9593 6.76223 16.6092 6.26007C17.1289 5.85904 17.5667 5.89303 17.9438 6.45367L17.4241 6.85503C17.2767 6.6641 17.0951 6.49432 16.8793 6.66093C16.7064 6.79438 16.6777 6.96916 16.8138 7.14577C17.188 7.62976 18.2292 6.75806 18.8486 7.55995C19.3589 8.22089 18.9349 8.67241 18.5286 8.98597ZM19.7731 5.07515L19.7651 5.07881L20.1087 6.4635L20.6843 6.1776L19.7731 5.07515ZM19.7673 7.98365L19.133 4.69977L19.9289 4.30491L22.1462 6.80222L21.5104 7.11794L21.033 6.5578L20.2093 6.96666L20.3634 7.68775L19.7673 7.98365ZM22.6442 6.59312L21.9362 3.44837L22.9949 3.21078L23.9682 5.23825L23.9767 5.23626L24.0185 2.9802L25.042 2.74994L25.7498 5.89469L25.1095 6.03865L24.5635 3.61248L24.5547 3.61448L24.495 6.17677L23.8681 6.31771L22.7471 4.02134L22.7384 4.02301L23.2844 6.449L22.6442 6.59312ZM27.4098 5.94052C26.5748 5.93535 26.4219 5.44318 26.4607 4.88521L27.1349 4.88988C27.1331 5.19777 27.1451 5.45651 27.5153 5.45935C27.7431 5.46051 27.8554 5.31406 27.857 5.09497C27.8604 4.515 26.5037 4.47035 26.5097 3.51068C26.5127 3.00619 26.7564 2.606 27.5776 2.61116C28.2339 2.61516 28.558 2.91222 28.5093 3.58582L27.8532 3.58133C27.8547 3.34058 27.8159 3.09449 27.5436 3.09315C27.3245 3.09182 27.1946 3.21128 27.1933 3.43454C27.1893 4.04616 28.547 4.00118 28.5406 5.0145C28.5355 5.84954 27.9232 5.94385 27.4098 5.94052ZM32.0263 3.2461L31.5654 5.48484C31.468 5.95701 31.0986 6.40069 30.2942 6.23508C29.5681 6.08546 29.2959 5.63729 29.4183 5.04282L29.8792 2.80409L30.5393 2.94004L30.0876 5.13479C30.0071 5.52415 30.1419 5.71143 30.3825 5.76091C30.6711 5.82022 30.8418 5.65494 30.914 5.30506L31.3658 3.11015L32.0263 3.2461ZM32.1286 6.63278L33.4346 3.68612L34.2672 4.05499L34.1465 6.44267L34.1547 6.44651L35.0592 4.40604L35.6345 4.66112L34.3286 7.60777L33.5163 7.24773L33.6675 4.7366L33.6592 4.73293L32.7042 6.88785L32.1286 6.63278ZM37.5142 7.07762C37.6936 6.83854 37.8093 6.59662 37.5204 6.38636C37.181 6.13961 36.8474 6.59812 36.4794 7.10328C35.8858 7.91883 35.8599 8.12126 36.1708 8.34719C36.261 8.41283 36.3741 8.46198 36.4781 8.4938L36.8984 7.91617L36.6024 7.70074L36.8939 7.29988L37.735 7.91217L36.7738 9.23338C36.6045 9.15424 36.1908 8.94148 35.9741 8.78404C35.0572 8.1166 35.2282 7.66126 35.9484 6.67276C36.4266 6.01549 36.9449 5.37137 37.8364 6.02032C38.3708 6.40918 38.4847 6.95083 38.0554 7.47199L37.5142 7.07762ZM22.3598 35.1473L22.6805 35.2493C22.7854 35.2828 22.9535 35.2594 23.0242 35.037C23.0778 34.8687 23.0027 34.7083 22.8409 34.657L22.5455 34.5632L22.3598 35.1473ZM22.0407 36.1508L22.3074 36.2356C22.4091 36.2679 22.6388 36.3376 22.7406 36.0169C22.8053 35.8136 22.7684 35.6653 22.5272 35.5887L22.2476 35.4997L22.0407 36.1508ZM21.4489 36.3507L22.1781 34.0582L23.0292 34.3288C23.3942 34.4447 23.6626 34.6457 23.5072 35.1347C23.4234 35.3984 23.2326 35.5472 22.956 35.5154L22.954 35.5217C23.2788 35.6775 23.2979 35.9247 23.198 36.2393C23.0132 36.8202 22.5002 36.685 22.2969 36.6203L21.4489 36.3507ZM24.6453 35.203L24.6388 35.2016L24.2264 36.1835L24.6986 36.2693L24.6453 35.203ZM23.3436 36.9407L24.4299 34.6931L25.0821 34.8118L25.2942 37.2956L24.7729 37.2006L24.7374 36.6523L24.062 36.5293L23.8322 37.0295L23.3436 36.9407ZM26.3146 37.4002C25.6926 37.3644 25.5973 36.9917 25.6478 36.5773L26.1501 36.6063C26.137 36.8359 26.1358 37.0293 26.4119 37.0455C26.5816 37.0552 26.6711 36.95 26.6806 36.7871C26.7054 36.3547 25.6958 36.2696 25.7371 35.5545C25.7584 35.1785 25.9555 34.8896 26.5676 34.9249C27.0566 34.953 27.2869 35.1866 27.2246 35.687L26.7356 35.6588C26.7459 35.4792 26.7266 35.2948 26.5237 35.2829C26.3607 35.2734 26.2589 35.3577 26.2494 35.524C26.2231 35.9797 27.2367 35.9982 27.1931 36.7534C27.1573 37.3754 26.6973 37.4222 26.3146 37.4002ZM27.6501 37.4015L27.5228 34.9992L28.8339 34.9297L28.8537 35.2993L28.045 35.3419L28.0763 35.9344L28.8215 35.8949L28.8412 36.2641L28.0958 36.3036L28.1329 37.0057L28.9681 36.9615L28.9876 37.3309L27.6501 37.4015ZM29.8865 36.8361L30.1626 36.7896C30.2677 36.7719 30.5038 36.7288 30.4478 36.3969C30.4123 36.1866 30.312 36.0718 30.0623 36.1138L29.773 36.1626L29.8865 36.8361ZM29.7116 35.7978L30.0434 35.7419C30.1521 35.7236 30.291 35.6257 30.2522 35.3959C30.2229 35.2218 30.0831 35.1135 29.9155 35.1418L29.6098 35.1931L29.7116 35.7978ZM29.4516 37.2842L29.0521 34.9119L29.9326 34.7636C30.3107 34.7001 30.6411 34.756 30.7264 35.2621C30.7722 35.5347 30.6707 35.7546 30.4102 35.8524L30.4113 35.8591C30.7712 35.8492 30.9015 36.0603 30.9561 36.3859C31.0576 36.9872 30.5394 37.1015 30.329 37.1366L29.4516 37.2842ZM31.771 34.8036L31.7647 34.8054L31.8453 35.8671L32.3047 35.7284L31.771 34.8036ZM31.4046 36.9435L31.3468 34.4479L31.9818 34.2561L33.3027 36.3702L32.7955 36.5235L32.5136 36.0518L31.8565 36.2503L31.88 36.8001L31.4046 36.9435ZM33.6452 36.2183L32.6984 34.0067L33.1609 33.8088L33.9504 35.6528L34.643 35.3564L34.8001 35.7239L33.6452 36.2183ZM35.116 35.5598L33.9638 33.4481L34.4054 33.2071L35.3663 34.968L36.0274 34.6075L36.219 34.9582L35.116 35.5598ZM36.4976 33.3458C36.1089 32.8414 35.739 32.3611 36.3961 31.8546C36.8028 31.5416 37.1392 31.6399 37.4386 32.0612L37.0479 32.3621C36.8526 32.1087 36.7345 32.0484 36.6159 32.1398C36.3914 32.3126 36.5252 32.5462 36.9013 33.0344C37.2776 33.5229 37.4694 33.7116 37.6938 33.5389C37.8786 33.3964 37.6875 33.165 37.5769 33.0105L37.9702 32.7073C38.3628 33.2166 38.2856 33.537 37.9136 33.8239C37.2561 34.3304 36.8821 33.8446 36.4976 33.3458ZM38.7988 33.0419L37.139 31.3L37.5034 30.9531L38.8872 32.4054L39.4325 31.8858L39.7083 32.1755L38.7988 33.0419ZM39.1611 29.1256L40.4667 30.2237C40.7421 30.4556 40.902 30.8556 40.5072 31.3248C40.1511 31.748 39.7603 31.7675 39.4134 31.4757L38.108 30.3775L38.4319 29.9926L39.7118 31.0694C39.9389 31.2601 40.1095 31.2385 40.2276 31.098C40.3692 30.9301 40.3214 30.7588 40.1173 30.5874L38.8373 29.5104L39.1611 29.1256Z" fill="#0066B3"/>
<path d="M41.2904 29.6082L41.4422 29.3731C41.5 29.2836 41.6277 29.0802 41.3448 28.8974C41.1655 28.7818 41.013 28.7784 40.8756 28.9914L40.7165 29.2375L41.2904 29.6082ZM40.4059 29.0369L40.5885 28.7543C40.6482 28.6617 40.6697 28.4934 40.4737 28.3668C40.3253 28.271 40.151 28.3009 40.0589 28.4439L39.8908 28.7041L40.4059 29.0369ZM41.3283 30.2314L39.3071 28.9259L39.7915 28.176C39.9996 27.8543 40.2635 27.6477 40.6947 27.9264C40.9269 28.0765 41.0209 28.2996 40.9174 28.558L40.9229 28.5617C41.1583 28.2893 41.4021 28.3358 41.6793 28.5145C42.1915 28.8454 41.9266 29.3051 41.8108 29.4842L41.3283 30.2314Z" fill="#0066B3"/>
</svg>
