<svg width="67" height="40" viewBox="0 0 67 40" fill="none" xmlns="http://www.w3.org/2000/svg">
<g clip-path="url(#clip0_246_5199)">
<path d="M62.7024 22.3299C63.04 21.8542 63.2855 21.3019 63.4389 20.7342L63.7765 19.4607C63.8992 19.0003 63.9606 18.5247 63.9606 18.0644C63.9606 17.7575 63.9299 17.4507 63.8685 17.1591L64.4055 17.1131L65.8018 11.8963L63.2855 8.9043L53.6497 9.74819C53.0974 9.07308 52.4836 8.4133 51.8238 7.79956C51.563 4.96101 49.1694 2.72085 46.2541 2.72085C45.5637 2.72085 44.9192 2.8436 44.3055 3.07375C40.485 1.47802 36.066 0.572754 31.3402 0.572754C23.0854 0.572754 15.7205 3.34994 11.0254 7.66147L1.7732 8.49002L6.25352 12.5407L0.0700684 35.6174L2.80122 38.5941L20.8452 35.3566C24.052 36.3846 27.5964 36.9523 31.3402 36.9523C37.8152 36.9523 43.7378 35.2492 48.2641 32.4259L49.5376 39.6528L54.555 28.3599L66.3388 23.1584L62.7024 22.3299Z" fill="#D5D5D6"/>
<path d="M64.8965 12.1112L62.9326 9.7636L53.2815 10.6075C52.6217 9.74825 51.8545 8.9197 51.0106 8.15252C50.9339 5.59015 48.8318 3.53412 46.2388 3.53412C45.5483 3.53412 44.8886 3.68755 44.2902 3.9484C40.5156 2.33732 36.0814 1.40137 31.3402 1.40137C23.1468 1.40137 15.8739 4.17855 11.3476 8.4594L3.70649 9.14986L7.15879 12.2799L0.975342 35.3873L3.10809 37.7042L20.9066 34.5127C24.0827 35.5407 27.6271 36.1238 31.3556 36.1238C38.1834 36.1238 44.3822 34.1905 48.8779 31.0604L49.9059 36.8603L53.9566 27.7309L63.7458 23.404L61.1527 22.821C61.8585 22.2379 62.4109 21.4247 62.641 20.5194L62.9786 19.2459C63.086 18.847 63.132 18.448 63.132 18.0645C63.132 17.6502 63.0553 17.2512 62.9326 16.883C62.8865 16.7296 62.8098 16.5761 62.7484 16.438L63.7611 16.346L64.8965 12.1112Z" fill="#CF0022"/>
<path d="M47.2515 29.0352C44.1521 31.1526 40.2855 32.5642 36.066 33.1779C38.1988 32.3954 40.1781 31.3981 41.9426 30.2013C42.05 30.1246 42.1727 30.0478 42.2801 29.9711L38.7204 30.6002C34.7772 32.6256 29.8826 33.8224 24.5584 33.8224C24.052 33.8224 23.5457 33.807 23.0547 33.7917C25.6324 34.4514 28.4249 34.8197 31.3249 34.8197C38.1527 34.8197 44.2902 32.8404 48.5863 29.6796L48.3255 28.2373C48.0033 28.4981 47.635 28.7743 47.2515 29.0352Z" fill="white"/>
<path d="M3.16943 34.8193L3.82921 35.5558L49.4609 27.4391L49.3228 26.6259L3.16943 34.8193ZM52.4529 26.2269L50.1667 31.367L50.7958 31.9961L53.082 26.856L58.084 24.6465L57.4549 24.0175L52.4529 26.2269ZM62.0733 11.8193L61.5516 13.7373L58.2221 14.0288C58.084 14.0441 57.9459 14.1669 57.9152 14.305L57.547 15.6552C57.5163 15.7933 57.593 15.9007 57.7157 15.8854L58.3448 15.824L58.5596 15.0261C58.5903 14.888 58.6977 14.8267 58.8051 14.8113L62.1807 14.5198L62.7024 12.6019L62.0733 11.8193ZM41.3135 20.6265L41.9426 20.5652L42.2034 19.5678L46.6684 19.1842L47.4509 16.2536C47.5123 16.0235 47.543 15.8087 47.543 15.6092C47.543 15.4097 47.5123 15.2103 47.4509 15.0415C47.3895 14.8727 47.3128 14.7193 47.1901 14.5812C47.0827 14.4584 46.6837 13.9828 46.561 13.8447C46.8678 14.2436 46.9753 14.8267 46.7911 15.4864L46.0086 18.4171L41.5436 18.8006L41.114 20.3964C41.0987 20.5345 41.1754 20.6419 41.3135 20.6265Z" fill="#970022"/>
<path d="M52.1001 15.3944L55.0307 15.1336L55.4756 13.4458C55.491 13.3691 55.5217 13.3077 55.5524 13.231L54.8772 12.4331L54.3709 14.351L51.517 14.5965C51.3789 14.6119 51.2408 14.7346 51.2101 14.8727L49.3536 21.7927L46.6378 22.0382L46.8833 21.1329L46.1007 22.0995L40.1474 22.6212C39.2422 22.6979 38.5977 22.2376 38.429 21.4858L37.2935 22.8821L35.6518 23.0202C35.2375 23.0508 34.9 22.9434 34.7005 22.7133C34.5164 22.9588 34.2248 23.1429 33.9487 23.1582L31.3403 23.3884C30.435 23.4651 29.7906 23.0048 29.6218 22.253L28.4864 23.6492L26.998 23.7873C26.3843 23.8334 25.8933 23.6492 25.5864 23.281C25.7092 23.4344 26.1081 23.9101 26.2155 24.0328C26.3229 24.1556 26.4457 24.263 26.5838 24.355C26.7218 24.4318 26.8906 24.5085 27.0594 24.5392C27.2435 24.5698 27.4276 24.5852 27.6425 24.5698L28.9006 24.4624L30.0514 23.0508C30.2202 23.2503 30.481 23.5572 30.5577 23.6492C30.6651 23.772 30.7879 23.8794 30.926 23.9714C31.0641 24.0482 31.2328 24.1249 31.4016 24.1556C31.5858 24.1863 31.7699 24.2016 31.9847 24.1863L34.5931 23.9561C34.8693 23.9254 35.1608 23.7566 35.3449 23.5111C35.5444 23.726 35.8666 23.8487 36.2962 23.818L37.7078 23.6953L38.8586 22.2837C39.0274 22.4831 39.2882 22.79 39.3649 22.8821C39.4723 23.0048 39.5951 23.1122 39.7332 23.2043C39.8713 23.281 40.04 23.3577 40.2088 23.3884C40.3929 23.4191 40.5771 23.4344 40.7919 23.4191L46.7452 22.8974L47.006 22.5752L47.2822 22.8514L49.998 22.6059L51.8699 15.6246C51.9006 15.4865 52.008 15.4098 52.1001 15.3944ZM60.8152 17.0669C60.7078 16.9441 60.3089 16.4685 60.1861 16.3304C60.493 16.7293 60.6004 17.3124 60.4163 17.9721L59.9253 19.8133C59.7718 20.4117 59.1888 20.9488 58.6518 20.9948L52.6524 21.5165L52.9133 23.0048L53.7879 23.2043L53.6191 22.2683L58.7131 21.8234C59.6031 21.7466 60.4623 20.9641 60.7078 20.0282L61.0453 18.7546C61.1067 18.5245 61.1374 18.3097 61.1374 18.1102C61.1374 17.9107 61.1067 17.7113 61.0453 17.5425C60.9993 17.3584 60.9226 17.2049 60.8152 17.0669Z" fill="#970022"/>
<path d="M52.3302 19.66L53.1588 19.5986L53.0974 19.2764L52.0847 18.2638L52.3302 19.66ZM55.2455 16.9749C55.3529 17.113 55.7825 17.604 55.8899 17.7421C55.9973 17.8648 56.1201 17.9722 56.2582 18.0643C56.3963 18.141 56.565 18.2177 56.7338 18.2484C56.9179 18.2791 57.1021 18.2944 57.3169 18.2791L57.7005 18.2484L57.8692 17.65C57.8999 17.5119 57.8232 17.4045 57.7005 17.4199L56.6878 17.5119C56.0434 17.5426 55.5524 17.3431 55.2455 16.9749ZM36.956 21.0103L37.5851 20.9489L40.8839 8.62802L40.2395 7.86084L36.7719 20.7801C36.7412 20.9182 36.8179 21.0256 36.956 21.0103ZM43.0474 16.4225C43.0781 16.2844 43.2161 16.1617 43.3542 16.1464L43.968 16.085L44.1368 15.4866C44.1674 15.3485 44.0907 15.2411 43.968 15.2564L42.7098 15.3638C42.5717 15.3792 42.4336 15.5019 42.4029 15.64L41.9733 17.2357L42.8479 17.159L43.0474 16.4225ZM13.5417 11.083L12.8973 10.3005L8.21753 27.7614L9.09211 27.6847L13.5417 11.083ZM17.0861 24.2477C16.902 24.4932 16.6104 24.6774 16.3343 24.6927L13.7259 24.9229C13.1428 24.9689 12.6518 24.8001 12.3449 24.4472L12.9433 25.1684C13.0507 25.2911 13.1735 25.3985 13.3116 25.4906C13.4497 25.5673 13.6185 25.644 13.7872 25.6747C13.9714 25.7054 14.1555 25.7207 14.3703 25.7054L16.9787 25.4752C17.2549 25.4445 17.5464 25.2758 17.7305 25.0303C17.93 25.2451 18.2522 25.3678 18.6818 25.3371L20.3236 25.199L20.6151 24.8461L20.8606 25.153L23.5764 24.9075L25.4944 17.7421L26.3536 17.6654L26.5224 17.067C26.5531 16.9289 26.4763 16.8215 26.3536 16.8368L24.8653 16.9749L22.932 24.1096L20.2162 24.3551L20.4617 23.4499L19.6792 24.4012L18.0374 24.5393C17.6078 24.5853 17.2702 24.4626 17.0861 24.2477ZM17.5617 18.4172L17.7305 17.8188C17.7612 17.6807 17.6845 17.5733 17.5617 17.5886L13.3423 17.9569L13.9867 18.7241L17.5617 18.4172Z" fill="#970022"/>
<path d="M14.8919 22.9438L15.521 22.8824L15.7511 22.0538C15.7818 21.9157 15.9199 21.793 16.058 21.7777L16.6717 21.7163L16.9019 20.8724L15.4136 21.0105C15.2755 21.0258 15.1374 21.1486 15.1067 21.2867L14.7231 22.729C14.6771 22.8517 14.7538 22.9591 14.8919 22.9438ZM32.5063 21.3941L33.1353 21.3327L34.2401 17.1899C34.2708 17.0518 34.4089 16.9291 34.547 16.9137L35.1607 16.8524L35.3909 16.0085L33.9025 16.1466C33.7644 16.1619 33.6263 16.2847 33.5957 16.4228L32.3221 21.1639C32.2915 21.302 32.3682 21.4094 32.5063 21.3941ZM19.3415 22.5448L19.9706 22.4835L21.0293 18.5555C21.0907 18.3254 21.1214 18.1105 21.1214 17.9111C21.1214 17.7116 21.0907 17.5121 21.0293 17.3434C20.9679 17.1746 20.8912 17.0212 20.7685 16.8831C20.661 16.7603 20.2621 16.2847 20.1394 16.1466C20.4462 16.5455 20.5536 17.1286 20.3695 17.7883L19.1574 22.3147C19.1267 22.4528 19.2034 22.5602 19.3415 22.5448ZM28.1487 21.7777L28.7778 21.7163L29.8365 17.7883C29.8979 17.5582 29.9286 17.3434 29.9286 17.1439C29.9286 16.9444 29.8979 16.745 29.8365 16.5762C29.7751 16.4074 29.6984 16.254 29.5756 16.1159C29.4682 15.9931 29.0693 15.5175 28.9466 15.3794C29.2534 15.7783 29.3608 16.3614 29.1767 17.0212L27.9646 21.5475C27.9339 21.6856 28.0106 21.793 28.1487 21.7777Z" fill="#970022"/>
<path d="M57.9152 14.3054C57.9459 14.1674 58.084 14.0446 58.2221 14.0293L61.5516 13.7377L62.0733 11.8198L56.7644 12.2801C56.2121 12.3261 55.6443 12.8632 55.4909 13.4616L54.9999 15.3028C54.647 16.6223 55.3988 17.6043 56.6724 17.4816L57.685 17.3895C57.8231 17.3742 57.8998 17.4816 57.8538 17.6197L57.4856 18.9699C57.4549 19.108 57.3168 19.2307 57.1787 19.2461L52.3148 19.6757L52.0693 18.2641L49.7831 23.4042L47.7424 24.3094L8.21746 27.7617L12.8972 10.3008L7.92593 10.7457L9.29151 11.9886L3.16943 34.8198L49.3228 26.6263L50.1667 31.3675L52.4529 26.2274L57.4702 24.0179L52.9285 23.0052L52.6677 21.5169L58.667 20.9952C59.2194 20.9492 59.7871 20.4122 59.9405 19.8138L60.4315 17.9726C60.7844 16.653 60.0326 15.671 58.7591 15.7784L57.7464 15.8705C57.6083 15.8858 57.5316 15.7784 57.5776 15.6403L57.9152 14.3054Z" fill="white"/>
<path d="M46.2387 12.2494C48.4165 12.2494 50.182 10.4839 50.182 8.30608C50.182 6.12826 48.4165 4.36279 46.2387 4.36279C44.0609 4.36279 42.2954 6.12826 42.2954 8.30608C42.2954 10.4839 44.0609 12.2494 46.2387 12.2494Z" fill="white"/>
<path d="M43.8452 5.16053C40.2241 3.61084 35.9432 2.70557 31.3402 2.70557C29.6831 2.70557 28.072 2.82831 26.5223 3.04312C32.7518 3.31931 38.3215 5.25259 42.2955 8.2139C42.3262 6.97107 42.9245 5.86634 43.8452 5.16053ZM54.3708 14.3667L54.8772 12.4487L50.0593 12.8783C49.5069 12.9244 48.9392 13.4614 48.7858 14.0598L47.1594 20.1358L41.3135 20.6422C41.1754 20.6575 41.0987 20.5501 41.1447 20.412L41.5743 18.8163L46.0393 18.4327L46.8218 15.5021C47.1747 14.1825 46.4229 13.2005 45.1494 13.308L41.2674 13.6455C40.7151 13.6915 40.1474 14.2286 39.9939 14.827L38.4903 20.4427C38.4442 20.5961 38.4289 20.7496 38.4135 20.903L36.9866 21.0258C36.8485 21.0411 36.7718 20.9337 36.8178 20.7956L40.2855 7.87634L35.8205 8.27527L37.1861 9.5181L35.9586 14.1212L32.4909 14.428C31.9386 14.4741 31.3709 15.0111 31.2174 15.6095L29.7138 21.2252C29.6677 21.3787 29.6524 21.5321 29.637 21.6855L28.2101 21.8083C28.072 21.8236 27.9953 21.7162 28.0413 21.5781L29.2535 17.0518C29.6064 15.7322 28.8545 14.7502 27.581 14.8577L22.7171 15.2873L20.7992 22.4527L19.4029 22.5755C19.2648 22.5908 19.1881 22.4834 19.2341 22.3453L20.4463 17.819C20.7992 16.4994 20.0473 15.5174 18.7738 15.6248L13.9099 16.0544L13.3882 17.9724L17.6077 17.6041C17.7458 17.5888 17.8225 17.6962 17.7765 17.8343L17.3776 19.338L13.9406 19.6448C13.3882 19.6909 12.8052 20.1972 12.6517 20.7803L12.1301 22.7596C11.7772 24.0791 12.529 25.0611 13.8025 24.9537L16.4109 24.7235C16.6871 24.6929 16.9786 24.5241 17.1627 24.2786C17.3622 24.4934 17.6844 24.6161 18.114 24.5855L19.7558 24.4474L20.5383 23.4961L20.2928 24.4013L23.0086 24.1558L24.9266 16.9904L26.4149 16.8523C26.553 16.837 26.6297 16.9444 26.5837 17.0825L25.3715 21.6088C25.0186 22.9284 25.7705 23.9103 27.044 23.8029L28.5323 23.6648L29.6677 22.2686C29.8365 23.0204 30.4809 23.4807 31.3862 23.404L33.9946 23.1739C34.2708 23.1432 34.5623 22.9744 34.7464 22.7289C34.9459 22.9437 35.2681 23.0664 35.6977 23.0358L37.3395 22.8977L38.4749 21.5014C38.6437 22.2532 39.2881 22.7135 40.1934 22.6368L46.1467 22.1151L46.9292 21.1485L46.6837 22.0538L49.3995 21.8083L51.2561 14.8883C51.2868 14.7502 51.4249 14.6275 51.563 14.6122L54.3708 14.3667ZM42.4029 15.6555C42.4336 15.5174 42.5716 15.3947 42.7097 15.3793L43.9679 15.2719C44.106 15.2566 44.1827 15.364 44.1367 15.5021L43.7071 17.0978L41.9732 17.2512L42.4029 15.6555ZM16.4416 22.5601C16.4109 22.6982 16.2728 22.821 16.1347 22.8363L14.8766 22.9437C14.7385 22.959 14.6617 22.8516 14.7078 22.7135L15.0914 21.2713C15.122 21.1332 15.2601 21.0104 15.3982 20.9951L16.8866 20.857L16.4416 22.5601ZM34.056 21.0258C34.0253 21.1638 33.8872 21.2866 33.7491 21.3019L32.4909 21.4093C32.3528 21.4247 32.2761 21.3173 32.3222 21.1792L33.5957 16.438C33.6264 16.2999 33.7645 16.1772 33.9025 16.1619L35.3909 16.0238L34.056 21.0258Z" fill="white"/>
<path d="M14.3089 23.9255C13.6031 23.9869 13.1889 23.4499 13.3883 22.7134L13.8486 21.0102C13.8947 20.8261 14.0174 20.6573 14.1555 20.5346L13.0815 19.9822C12.8513 20.1817 12.6672 20.4579 12.5905 20.7494L12.0688 22.7287C11.7159 24.0483 12.4677 25.0303 13.7412 24.9229L16.3496 24.6927C16.6258 24.662 16.9173 24.4932 17.1015 24.2477C17.3009 24.4625 17.6231 24.5853 18.0528 24.5546L19.6638 24.4165L19.2956 23.5112L14.3089 23.9255ZM23.7606 16.1003L22.6558 15.2564L20.2162 24.3551L22.932 24.1096L21.8273 23.2657L23.7606 16.1003ZM35.7899 8.25977L37.1555 9.48725L35.9126 14.1057L37.0174 14.9495L38.6131 8.99626L35.7899 8.25977ZM44.8579 17.7574L40.4083 18.141L41.5591 18.8008L46.024 18.4172L44.8579 17.7574ZM49.2769 13.2464C49.0467 13.4612 48.8626 13.7374 48.7859 14.0443L46.6378 22.0383L49.3536 21.7928L48.2489 20.9489L49.9827 14.4586C50.0287 14.2744 50.1515 14.1057 50.2895 13.9676L49.2769 13.2464ZM50.7959 13.7374C50.6271 13.7528 50.4583 13.8448 50.3049 13.9676L51.3329 14.6887C51.3943 14.6427 51.4557 14.612 51.517 14.5966L54.3709 14.3512L53.5117 13.4919L50.7959 13.7374ZM28.1028 22.7287L27.5658 22.7748C26.86 22.8361 26.4457 22.2991 26.6451 21.5626L27.8573 17.0363C28.0568 16.3151 27.6425 15.7628 26.9367 15.8241L23.7606 16.1003L24.8653 16.9442L26.3536 16.8061C26.4917 16.7908 26.5684 16.8982 26.5224 17.0363L25.3103 21.5626C24.9574 22.8822 25.7092 23.8641 26.9827 23.7567L28.471 23.6186L28.1028 22.7287Z" fill="#D5D5D6"/>
<path d="M18.467 19.9825L14.6311 20.32C14.4623 20.3354 14.2782 20.4274 14.1401 20.5502L15.2142 21.1026C15.2755 21.0565 15.3369 21.0258 15.3983 21.0105L16.8866 20.8724L16.4416 22.5602C16.4263 22.6216 16.3803 22.6983 16.3189 22.7443L17.1168 23.6803C17.3162 23.6649 17.5157 23.4808 17.5617 23.2813L18.467 19.9825ZM18.1294 16.5916L14.7078 16.8831L13.8486 16.0238L13.3269 17.9418L17.5464 17.5735C17.6845 17.5582 17.7612 17.6656 17.7152 17.8037L17.3162 19.3074L18.467 19.9671L19.05 17.7884C19.2495 17.0825 18.8352 16.5302 18.1294 16.5916ZM44.551 14.29L41.9886 14.5202C41.8199 14.5355 41.6511 14.6276 41.4977 14.7503L42.5257 15.4715C42.587 15.4254 42.6484 15.3948 42.7098 15.3794L43.968 15.272C44.1061 15.2567 44.1828 15.3641 44.1367 15.5022L43.7071 17.0979L44.8579 17.7577L45.4716 15.4868C45.6711 14.7657 45.2568 14.2287 44.551 14.29ZM60.6924 12.8784L57.4856 13.1546C57.3168 13.1699 57.1481 13.262 56.9946 13.3848L58.0227 14.1059C58.084 14.0599 58.1454 14.0292 58.2068 14.0138L61.5363 13.7223L60.6924 12.8784Z" fill="#D5D5D6"/>
<path d="M55.9819 12.6636L57.0099 13.3847C56.8718 13.5228 56.7491 13.6916 56.7031 13.8757L56.2734 15.4714C56.074 16.1926 56.4883 16.745 57.1941 16.6836L58.2067 16.5915C58.9125 16.5301 59.3268 17.0672 59.1273 17.8037L58.6977 19.3994C58.6517 19.5835 58.5289 19.7523 58.3909 19.8904L57.3628 19.1692C57.4242 19.1232 57.4549 19.0618 57.4856 18.9851L57.8538 17.6349C57.8845 17.4968 57.8078 17.3894 57.6851 17.4047L56.6724 17.4968C55.3989 17.6042 54.647 16.6376 54.9999 15.318L55.4909 13.4614" fill="#D5D5D6"/>
<path d="M58.4061 19.8749C58.268 20.013 58.0839 20.0897 57.9151 20.1051L53.3581 20.504L52.3147 19.6601L52.6369 21.5167L58.6363 20.995C58.9125 20.9643 59.1886 20.8262 59.4188 20.6114L58.4061 19.8749ZM36.9098 21.9463L31.9232 22.3759C31.2174 22.4373 30.8031 21.9003 31.0025 21.1638L32.3835 15.993C32.4295 15.8089 32.5522 15.6401 32.6903 15.502L31.6623 14.7808C31.4322 14.9957 31.248 15.2718 31.1713 15.5787L29.6677 21.1944C29.3148 22.514 30.0666 23.496 31.3401 23.3886L33.9485 23.1584C34.2247 23.1277 34.5162 22.959 34.7003 22.7135C34.8998 22.9283 35.222 23.051 35.6516 23.0203L37.2934 22.8822L36.9098 21.9463ZM45.717 21.1791L40.7304 21.6087C40.0245 21.6701 39.6103 21.1331 39.8097 20.3966L41.1907 15.2258C41.2367 15.0417 41.3594 14.8729 41.4975 14.7348L40.4695 14.0137C40.2394 14.2285 40.0552 14.5047 39.9785 14.8115L38.4749 20.4273C38.1219 21.7468 38.8738 22.7288 40.1473 22.6214L46.1006 22.0997L45.717 21.1791Z" fill="#D5D5D6"/>
<path d="M49.3228 26.6262L47.1287 26.1352L5.2715 32.8863L10.9793 11.5588L7.92593 10.7456L9.29151 11.9884L3.16943 34.8196L49.3228 26.6262Z" fill="#D5D5D6"/>
<path d="M33.1814 15.2872C33.0126 15.3025 32.8439 15.3946 32.6904 15.5173L33.7184 16.2385C33.7798 16.1925 33.8412 16.1618 33.9026 16.1464L35.3909 16.0083L34.056 20.995C34.0407 21.0564 33.9946 21.1331 33.9333 21.1791L34.7311 22.1151C34.9306 22.0997 35.1301 21.9156 35.1761 21.7161L37.002 14.9189L33.1814 15.2872Z" fill="#D5D5D6"/>
<path d="M52.3454 23.5879L51.7777 20.3657L50.228 23.8487L47.8344 24.9074L7.25073 29.4644L8.7544 30.83L47.5429 25.5212L49.9058 26.0428L50.4735 29.265L52.0232 25.782L55.4295 24.2783L52.3454 23.5879Z" fill="#FAC109"/>
<path d="M51.4248 22.729L51.8237 24.1099L53.1433 24.5549L51.6396 25.3681L50.8264 26.9025L50.4275 25.5062L49.1079 25.0612L50.6116 24.2634L51.4248 22.729Z" fill="#004537"/>
<path d="M43.0933 5.91225C41.1907 5.12973 39.1346 4.53133 36.9712 4.16309C38.9812 4.94561 40.8378 5.92759 42.4795 7.0937C42.6176 6.66408 42.8324 6.26515 43.0933 5.91225Z" fill="#FAC109"/>
<path d="M47.0979 11.0526C45.1033 11.0526 43.4922 9.44154 43.4922 7.44688C43.4922 6.28077 44.0446 5.23741 44.9038 4.57764C43.3848 5.13 42.2954 6.58764 42.2954 8.29077C42.2954 10.4696 44.0599 12.2341 46.2387 12.2341C47.9418 12.2341 49.3995 11.1447 49.9518 9.62566C49.2921 10.5002 48.264 11.0526 47.0979 11.0526Z" fill="#D5D5D6"/>
<path d="M47.2361 9.65611L47.006 9.13443L46.8372 9.33389L47.0367 9.7942L46.8832 9.96298L47.4663 10.1931L47.6197 10.009L47.1134 9.7942L47.2361 9.65611ZM47.7885 9.11908L47.6811 8.56672L47.4663 8.7355L47.5737 9.21115L47.3896 9.36458L47.9113 9.70214L48.1107 9.5487L47.6504 9.24183L47.7885 9.11908ZM48.4483 8.72015L48.4329 8.15244L48.2181 8.25985V8.76618L48.0033 8.87359L48.4483 9.30321L48.6784 9.18046L48.2795 8.79687L48.4483 8.72015ZM49.1694 8.44397L49.2768 7.8916L49.0313 7.95298L48.9393 8.44397L48.7091 8.50534L49.0467 9.01168L49.2922 8.95031L48.9853 8.49L49.1694 8.44397ZM49.9366 8.32122L50.1361 7.79954L49.8906 7.81488L49.7065 8.27519L49.461 8.29053L49.7065 8.85824L49.952 8.8429L49.7525 8.33656L49.9366 8.32122ZM46.7912 10.2852L46.469 9.82489L46.3462 10.055L46.6224 10.454L46.515 10.6688L47.1134 10.7762L47.2361 10.546L46.6991 10.454L46.7912 10.2852ZM46.4843 10.991L46.07 10.6074L45.9933 10.8529L46.3616 11.1905L46.2848 11.4206L46.8986 11.4053L46.9753 11.1598L46.4229 11.1751L46.4843 10.991ZM46.3155 11.7428L45.8399 11.4513L45.8092 11.6968L46.2235 11.9576L46.2081 12.2031L46.8065 12.065L46.8372 11.8195L46.3002 11.927L46.3155 11.7428ZM45.5484 6.51068L44.9806 6.28053L44.8272 6.48L45.3335 6.69481L45.2108 6.8329L45.441 7.33923L45.6097 7.15511L45.3949 6.69481L45.5484 6.51068ZM44.5357 6.78687L44.3362 6.9403L44.7965 7.24717L44.6431 7.35458L44.7658 7.90694L44.9653 7.75351L44.8579 7.26252L45.0574 7.12442L44.5357 6.78687ZM43.9987 7.1858L43.7685 7.2932L44.1674 7.69214L43.9987 7.76885V8.33656L44.2288 8.21382V7.72282L44.4436 7.61542L43.9987 7.1858ZM43.4003 7.46198L43.1394 7.5387L43.4463 7.99901L43.2775 8.04504L43.1701 8.5974L43.4156 8.53603L43.5077 8.04504L43.7378 7.98366L43.4003 7.46198ZM42.7865 7.63076L42.5257 7.6461L42.7405 8.15244L42.5564 8.16779L42.3416 8.68947L42.6024 8.67412L42.7865 8.21382L43.0167 8.19847L42.7865 7.63076ZM45.978 6.66412L46.1007 6.43396L45.8092 6.03503L45.9319 5.82022L45.3335 5.71282L45.1955 5.92763L45.7478 6.03503L45.6558 6.20381L45.978 6.66412ZM45.9473 5.54404L46.3616 5.94297L46.4383 5.69747L46.07 5.34457L46.1467 5.12976H45.533L45.4563 5.37526H46.0087L45.9473 5.54404ZM46.1314 4.83824L46.6071 5.12976L46.6377 4.88427L46.2081 4.62343L46.2388 4.37793L45.6404 4.51602L45.6097 4.76152L46.1467 4.65411L46.1314 4.83824Z" fill="#CF0022"/>
<path d="M15.3677 12.0958L16.0121 11.3133C16.4571 11.6816 16.9327 11.9271 17.5004 11.9271C17.9454 11.9271 18.2216 11.7429 18.2216 11.4514V11.4361C18.2216 11.1599 18.0528 11.0218 17.2089 10.807C16.1962 10.5461 15.5518 10.27 15.5518 9.27264V9.25729C15.5518 8.35202 16.2729 7.75362 17.301 7.75362C18.0221 7.75362 18.6512 7.98378 19.1575 8.38271L18.5898 9.21126C18.1449 8.90439 17.7152 8.72027 17.2856 8.72027C16.8713 8.72027 16.6412 8.91973 16.6412 9.14989V9.16523C16.6412 9.48745 16.856 9.59485 17.7152 9.825C18.7279 10.0858 19.2956 10.4541 19.2956 11.3287V11.344C19.2956 12.3413 18.5438 12.8937 17.4544 12.8937C16.7333 12.8937 15.9661 12.6329 15.3677 12.0958ZM19.6332 12.0958L20.2776 11.3133C20.7226 11.6816 21.1982 11.9271 21.7659 11.9271C22.2109 11.9271 22.4871 11.7429 22.4871 11.4514V11.4361C22.4871 11.1599 22.3183 11.0218 21.4744 10.807C20.4617 10.5461 19.8173 10.27 19.8173 9.27264V9.25729C19.8173 8.35202 20.5385 7.75362 21.5665 7.75362C22.2876 7.75362 22.9167 7.98378 23.423 8.38271L22.8553 9.21126C22.4104 8.90439 21.9807 8.72027 21.5511 8.72027C21.1215 8.72027 20.9067 8.91973 20.9067 9.14989V9.16523C20.9067 9.48745 21.1215 9.59485 21.9807 9.825C22.9934 10.0858 23.5611 10.4541 23.5611 11.3287V11.344C23.5611 12.3413 22.8093 12.8937 21.7199 12.8937C20.9988 12.8937 20.2316 12.6329 19.6332 12.0958ZM24.0214 10.3313C24.0214 8.90439 25.1262 7.73828 26.6452 7.73828C27.5504 7.73828 28.0875 7.98378 28.6092 8.42874L27.9187 9.25729C27.5351 8.93508 27.1975 8.75095 26.6145 8.75095C25.8166 8.75095 25.1875 9.45676 25.1875 10.3007V10.316C25.1875 11.2366 25.8166 11.8964 26.7066 11.8964C27.1055 11.8964 27.4584 11.789 27.7346 11.5895V10.8684H26.6145V9.91706H28.7779V12.0805C28.2716 12.5101 27.5504 12.8784 26.6452 12.8784C25.0955 12.9091 24.0214 11.8197 24.0214 10.3313Z" fill="white"/>
</g>
<defs>
<clipPath id="clip0_246_5199">
<rect width="66.2841" height="39.08" fill="white" transform="translate(0.0700684 0.572754)"/>
</clipPath>
</defs>
</svg>
