<svg width="33" height="32" viewBox="0 0 33 32" fill="none" xmlns="http://www.w3.org/2000/svg">
<path d="M13.9169 2.69385L10.7198 7.22303C11.7855 6.95661 12.8512 6.69019 13.9169 6.69019C14.9826 6.69019 16.0483 6.95661 17.114 7.22303M25.9059 6.69019C24.4273 6.69019 23.2417 7.87577 23.2417 9.35441V18.3595C22.3891 19.1188 21.9096 20.2111 21.9096 21.3434C21.9096 23.5547 23.6946 25.3398 25.9059 25.3398C28.1172 25.3398 29.9023 23.5547 29.9023 21.3434C29.9023 20.2111 29.4227 19.1188 28.5701 18.3728V9.35441C28.5701 7.87577 27.3846 6.69019 25.9059 6.69019ZM25.9059 8.0223C26.6386 8.0223 27.238 8.62175 27.238 9.35441V10.6865H24.5738V9.35441C24.5738 8.62175 25.1733 8.0223 25.9059 8.0223ZM7.92239 8.95478L2.32751 9.35441L4.72532 14.4164C4.85853 13.3508 5.25816 12.2851 5.79101 11.3526C6.45706 10.4201 7.12312 9.62084 7.92239 8.95478ZM13.9169 9.35441C10.187 9.35441 7.25633 12.2851 7.25633 16.015C7.25633 19.7449 10.187 22.6755 13.9169 22.6755C17.6468 22.6755 20.5775 19.7449 20.5775 16.015C20.5775 12.2851 17.6468 9.35441 13.9169 9.35441ZM4.85853 17.6135L2.46073 22.6755L7.92239 23.2084C7.25633 22.5423 6.45706 21.6099 5.92422 20.6774C5.25816 19.7449 4.99174 18.6792 4.85853 17.6135ZM10.7198 24.8069L13.9169 29.3361L17.114 24.8069C16.0483 25.0733 14.9826 25.3398 13.9169 25.3398C12.718 25.3398 11.6523 25.0733 10.7198 24.8069Z" fill="#4C4C4C"/>
</svg>
