<svg width="33" height="33" viewBox="0 0 33 33" fill="none" xmlns="http://www.w3.org/2000/svg">
<path d="M3.43063 13.5699C3.03317 13.5699 2.65199 13.412 2.37094 13.1309C2.0899 12.8499 1.93201 12.4687 1.93201 12.0713C1.93201 11.6738 2.0899 11.2926 2.37094 11.0116C2.65199 10.7305 3.03317 10.5726 3.43063 10.5726H15.4197C15.8171 10.5726 16.1983 10.4147 16.4793 10.1337C16.7604 9.85265 16.9183 9.47147 16.9183 9.07401C16.9183 8.67655 16.7604 8.29536 16.4793 8.01432C16.1983 7.73327 15.8171 7.57538 15.4197 7.57538C14.9371 7.58942 14.4783 7.78838 14.1383 8.13112C13.854 8.3903 13.4809 8.53022 13.0963 8.5219C12.7117 8.51359 12.345 8.35767 12.0721 8.08644C11.7993 7.81521 11.6412 7.44944 11.6306 7.06487C11.6201 6.6803 11.7578 6.30638 12.0153 6.02055C12.9189 5.11479 14.1403 4.5973 15.4197 4.57812C16.612 4.57812 17.7556 5.0518 18.5987 5.89494C19.4419 6.73808 19.9155 7.88162 19.9155 9.07401C19.9155 10.2664 19.4419 11.4099 18.5987 12.2531C17.7556 13.0962 16.612 13.5699 15.4197 13.5699H3.43063ZM26.4096 9.07401C25.1285 9.09188 23.9051 9.60948 23.0002 10.5164C22.7427 10.8023 22.605 11.1762 22.6156 11.5607C22.6262 11.9453 22.7842 12.3111 23.0571 12.5823C23.3299 12.8536 23.6966 13.0095 24.0812 13.0178C24.4659 13.0261 24.839 12.8862 25.1233 12.627C25.4645 12.2831 25.9253 12.084 26.4096 12.0713C26.807 12.0713 27.1882 12.2292 27.4693 12.5102C27.7503 12.7912 27.9082 13.1724 27.9082 13.5699C27.9082 13.9673 27.7503 14.3485 27.4693 14.6296C27.1882 14.9106 26.807 15.0685 26.4096 15.0685H4.42972C4.03226 15.0685 3.65108 15.2264 3.37003 15.5075C3.08898 15.7885 2.93109 16.1697 2.93109 16.5671C2.93109 16.9646 3.08898 17.3458 3.37003 17.6268C3.65108 17.9079 4.03226 18.0658 4.42972 18.0658H26.4096C27.602 18.0658 28.7455 17.5921 29.5886 16.749C30.4318 15.9058 30.9055 14.7623 30.9055 13.5699C30.9055 12.3775 30.4318 11.234 29.5886 10.3908C28.7455 9.54768 27.602 9.07401 26.4096 9.07401ZM19.416 19.5644H5.4288C5.03134 19.5644 4.65016 19.7223 4.36911 20.0033C4.08807 20.2844 3.93018 20.6656 3.93018 21.063C3.93018 21.4605 4.08807 21.8417 4.36911 22.1227C4.65016 22.4038 5.03134 22.5616 5.4288 22.5616H19.416C19.8134 22.5616 20.1946 22.7195 20.4757 23.0006C20.7567 23.2816 20.9146 23.6628 20.9146 24.0603C20.9146 24.4577 20.7567 24.8389 20.4757 25.12C20.1946 25.401 19.8134 25.5589 19.416 25.5589C18.9331 25.5448 18.474 25.3459 18.1334 25.0032C17.9975 24.8523 17.8324 24.7307 17.6481 24.6456C17.4638 24.5605 17.2641 24.5138 17.0612 24.5082C16.8583 24.5026 16.6564 24.5383 16.4676 24.6131C16.2789 24.6879 16.1074 24.8003 15.9634 24.9434C15.8195 25.0865 15.7061 25.2574 15.6301 25.4457C15.5542 25.634 15.5173 25.8357 15.5217 26.0386C15.5261 26.2416 15.5717 26.4415 15.6557 26.6263C15.7397 26.8112 15.8603 26.977 16.0104 27.1137C16.9143 28.0198 18.1362 28.5373 19.416 28.5562C20.6084 28.5562 21.7519 28.0825 22.5951 27.2393C23.4382 26.3962 23.9119 25.2527 23.9119 24.0603C23.9119 22.8679 23.4382 21.7243 22.5951 20.8812C21.7519 20.0381 20.6084 19.5644 19.416 19.5644Z" fill="#4C4C4C"/>
</svg>
