<svg width="37" height="37" viewBox="0 0 37 37" fill="none" xmlns="http://www.w3.org/2000/svg">
<path d="M7.80469 14.4531C9.11962 14.4531 10.405 14.0632 11.4984 13.3327C12.5917 12.6021 13.4438 11.5638 13.947 10.3489C14.4502 9.1341 14.5819 7.79732 14.3254 6.50765C14.0688 5.21797 13.4356 4.03334 12.5058 3.10354C11.576 2.17373 10.3914 1.54053 9.10173 1.284C7.81206 1.02747 6.47528 1.15913 5.26044 1.66234C4.0456 2.16554 3.00725 3.01769 2.27671 4.11102C1.54617 5.20435 1.15625 6.48975 1.15625 7.80469C1.15816 9.56738 1.85924 11.2573 3.10564 12.5037C4.35205 13.7501 6.042 14.4512 7.80469 14.4531ZM7.80469 3.46875C8.66225 3.46875 9.50056 3.72305 10.2136 4.19949C10.9266 4.67593 11.4824 5.35311 11.8106 6.1454C12.1387 6.93769 12.2246 7.8095 12.0573 8.65059C11.89 9.49168 11.477 10.2643 10.8707 10.8707C10.2643 11.4771 9.49168 11.89 8.65059 12.0573C7.8095 12.2246 6.93769 12.1388 6.1454 11.8106C5.35311 11.4824 4.67593 10.9267 4.19949 10.2136C3.72305 9.50057 3.46875 8.66226 3.46875 7.80469C3.47009 6.65514 3.92734 5.55305 4.7402 4.7402C5.55305 3.92734 6.65514 3.47009 7.80469 3.46875ZM34.4662 2.76489C33.4362 1.73491 32.0392 1.15627 30.5826 1.15627C29.126 1.15627 27.729 1.73491 26.699 2.76489L26.3034 3.16054C24.7756 4.68886 23.3068 6.27505 21.9002 7.91562L21.8773 7.94236L11.8447 21.2076L5.67632 27.376C5.09512 27.0421 4.4124 26.9306 3.75517 27.0624C3.09794 27.1942 2.51096 27.5602 2.10342 28.0924C1.69588 28.6246 1.49554 29.2867 1.53966 29.9556C1.58378 30.6244 1.86937 31.2545 2.34329 31.7285L5.27149 34.6566C5.74573 35.1302 6.37578 35.4155 7.04453 35.4594C7.71329 35.5033 8.37523 35.3029 8.90732 34.8954C9.43942 34.4879 9.80545 33.9011 9.93739 33.244C10.0693 32.587 9.95818 31.9043 9.62463 31.323L15.7845 25.1631L28.7851 15.7137L28.8459 15.6664C30.7954 14.0401 32.6707 12.3269 34.4661 10.532C35.4945 9.50118 36.072 8.10454 36.072 6.64846C36.0721 5.19237 35.4945 3.79572 34.4662 2.76489ZM32.8309 8.89684C31.0937 10.6334 29.2797 12.2914 27.3943 13.8659L14.278 23.3996L6.42109 31.2563L7.54641 32.3817C7.58914 32.4236 7.62314 32.4735 7.64646 32.5285C7.66978 32.5836 7.68195 32.6428 7.68226 32.7026C7.68257 32.7624 7.67103 32.8216 7.64829 32.8769C7.62555 32.9323 7.59207 32.9825 7.54978 33.0248C7.5075 33.0671 7.45725 33.1006 7.40194 33.1233C7.34663 33.1461 7.28736 33.1576 7.22756 33.1573C7.16776 33.157 7.10861 33.1448 7.05354 33.1215C6.99847 33.0982 6.94856 33.0642 6.90671 33.0215L3.97851 30.0934C3.89366 30.0085 3.84599 29.8935 3.84599 29.7735C3.84598 29.6535 3.89364 29.5384 3.97848 29.4536C4.06331 29.3687 4.17838 29.321 4.29837 29.321C4.41836 29.321 4.53343 29.3687 4.61828 29.4535L5.74367 30.579L13.5932 22.7299L23.6793 9.39396C25.0403 7.80772 26.4612 6.27386 27.9388 4.79569L28.3345 4.40011C28.6294 4.10312 28.98 3.86726 29.3662 3.70607C29.7524 3.54487 30.1667 3.46151 30.5852 3.46077C31.0037 3.46002 31.4183 3.5419 31.8051 3.70171C32.1919 3.86153 32.5433 4.09613 32.8393 4.39207C33.1352 4.68801 33.3698 5.03945 33.5296 5.42626C33.6894 5.81306 33.7713 6.22761 33.7706 6.64613C33.7698 7.06464 33.6865 7.4789 33.5253 7.86513C33.3641 8.25136 33.1278 8.60196 32.8309 8.89684Z" fill="#4C4C4C"/>
</svg>
