<svg width="45" height="31" viewBox="0 0 45 31" fill="none" xmlns="http://www.w3.org/2000/svg">
<path d="M2.50001 30.5C1.79167 30.5 1.19834 30.26 0.720009 29.78C0.241676 29.3 0.00167529 28.7066 8.62068e-06 28C-0.00165805 27.2933 0.238342 26.7 0.720009 26.22C1.20168 25.74 1.79501 25.5 2.50001 25.5H42.5C43.2083 25.5 43.8025 25.74 44.2825 26.22C44.7625 26.7 45.0017 27.2933 45 28C44.9983 28.7066 44.7583 29.3008 44.28 29.7825C43.8017 30.2641 43.2083 30.5033 42.5 30.5H2.50001ZM2.50001 18C1.79167 18 1.19834 17.76 0.720009 17.28C0.241676 16.8 0.00167529 16.2066 8.62068e-06 15.5C-0.00165805 14.7933 0.238342 14.2 0.720009 13.72C1.20168 13.24 1.79501 13 2.50001 13H42.5C43.2083 13 43.8025 13.24 44.2825 13.72C44.7625 14.2 45.0017 14.7933 45 15.5C44.9983 16.2066 44.7583 16.8008 44.28 17.2825C43.8017 17.7641 43.2083 18.0033 42.5 18H2.50001ZM2.50001 5.49999C1.79167 5.49999 1.19834 5.25999 0.720009 4.77999C0.241676 4.3 0.00167529 3.70666 8.62068e-06 3C-0.00165805 2.29333 0.238342 1.7 0.720009 1.22C1.20168 0.74 1.79501 0.5 2.50001 0.5H42.5C43.2083 0.5 43.8025 0.74 44.2825 1.22C44.7625 1.7 45.0017 2.29333 45 3C44.9983 3.70666 44.7583 4.30083 44.28 4.7825C43.8017 5.26416 43.2083 5.50333 42.5 5.49999H2.50001Z" fill="#1D4D9F"/>
</svg>
