<svg width="240" height="180" viewBox="0 0 240 180" fill="none" xmlns="http://www.w3.org/2000/svg">
<g clip-path="url(#clip0_137_3754)">
<path d="M115.692 0C71.0776 0 34.3421 33.3592 28.9447 76.4507C28.0942 80.1385 27.5599 83.778 27.1908 87.3794H22.9404C22.9404 138.531 64.4603 179.999 115.692 179.999C166.923 179.999 208.456 138.531 208.456 87.3794H203.207C203.207 91.1683 202.882 94.8763 202.413 98.5383C201.537 94.7905 200.099 91.0571 197.958 87.3794H203.207C203.207 39.116 164.022 0 115.692 0Z" fill="#042445"/>
<path d="M115.696 174.757C164.026 174.757 203.205 135.639 203.205 87.3841H197.962C197.962 132.742 161.125 169.513 115.696 169.513C70.2683 169.513 33.431 132.742 33.431 87.3841H28.1875C28.1875 135.639 67.3667 174.757 115.696 174.757Z" fill="#D01031"/>
<path d="M115.697 5.2464C93.8789 5.2464 72.9544 13.9002 57.5266 29.304C42.0989 44.7078 33.4316 65.5999 33.4316 87.3841H38.6843C38.6843 66.9908 46.798 47.4327 61.2407 33.0124C75.6833 18.5921 95.2717 10.4908 115.697 10.4906C125.81 10.4906 135.825 12.4794 145.168 16.3437C154.512 20.2079 163.002 25.8718 170.153 33.0121C177.305 40.1523 182.978 48.629 186.848 57.9582C190.718 67.2873 192.71 77.2863 192.71 87.3841H197.963C197.963 76.5976 195.835 65.9168 191.7 55.9513C187.566 45.9859 181.507 36.9311 173.868 29.3039C166.228 21.6767 157.16 15.6265 147.179 11.4987C137.198 7.3709 126.5 5.24637 115.697 5.2464Z" fill="#62B1E3"/>
<path d="M168.204 87.3841C168.204 101.288 162.672 114.623 152.825 124.455C142.978 134.286 129.623 139.81 115.697 139.81C101.771 139.81 88.4157 134.286 78.5687 124.455C68.7217 114.623 63.1897 101.288 63.1897 87.3841C63.1897 73.48 68.7217 60.1453 78.5687 50.3136C88.4157 40.4819 101.771 34.9585 115.697 34.9585C129.623 34.9585 142.978 40.4819 152.825 50.3136C162.672 60.1453 168.204 73.48 168.204 87.3841ZM61.3369 44.4259L69.2199 51.302L74.2016 45.6039L72.7246 44.3126L69.2811 48.2393L62.884 42.6546L61.3369 44.4259ZM78.1081 42.3404C75.3639 44.6267 73.1878 43.7279 71.1253 41.2585C69.0714 38.7978 68.5645 36.4679 71.3 34.1905C74.0967 31.8606 76.2642 32.838 78.3003 35.2724C80.3804 37.7681 80.8959 40.0194 78.1083 42.3404M72.5847 35.7349C70.863 37.1659 71.7719 38.3614 72.943 39.7577C74.2102 41.2846 75.1892 42.1835 76.8234 40.8222C78.309 39.5744 78.1081 38.6931 76.509 36.7734C75.0666 35.0457 74.1491 34.426 72.5847 35.7349Z" fill="white"/>
<path d="M82.8012 28.8066L87.0835 36.1015L84.9948 37.3318L80.7125 30.0279L78.0382 31.5903L77.0331 29.871L84.4793 25.517L85.4842 27.2358L82.8012 28.8066ZM92.677 24.269L95.7182 32.1661L93.4635 33.0386L90.4133 25.1417L87.5292 26.2497L86.8039 24.3912L94.8617 21.2935L95.5783 23.1521L92.677 24.269ZM100.176 30.6651L98.0429 20.4297L105.55 18.8764L105.952 20.831L100.77 21.9043L101.224 24.0857L105.708 23.1607L106.11 25.0806L101.626 26.0142L102.09 28.2569L107.272 27.1833L107.674 29.1118L100.176 30.6651ZM122.758 25.7175C122.671 27.7594 120.748 28.9463 118.354 28.8415C116.877 28.7804 115.487 28.248 114.858 27.4452C114.124 26.5028 113.792 24.9323 113.888 23.3529C113.94 22.0527 114.202 20.6302 114.805 19.845C115.845 18.475 116.955 18.1609 118.721 18.2395C120.845 18.3267 122.723 19.5395 122.872 21.9916L120.486 21.8868C120.434 20.9444 119.831 20.3075 118.651 20.255C117.794 20.2202 117.148 20.4297 116.894 20.9008C116.469 21.6833 116.244 22.5585 116.239 23.4487C116.186 24.5831 116.396 25.6653 116.824 26.215C117.095 26.5553 117.724 26.7997 118.424 26.8083C119.568 26.8433 120.268 26.3808 120.303 25.5867L120.337 24.8187L118.231 24.7315L118.31 22.9426L122.863 23.126L122.758 25.7175ZM124.733 29.3824L127.076 29.8012L128.894 19.5045L126.551 19.0858L124.733 29.3824ZM136.209 32.3231L136.051 30.0282L132.451 28.8763L131.044 30.674L128.658 29.906L135.832 21.2238L137.781 21.8521L138.568 33.0738L136.209 32.3231ZM135.737 24.8623L133.735 27.2705L135.964 27.9774L135.737 24.8623ZM145.831 36.9479L144.826 29.1816L141.793 34.7663L139.704 33.6319L144.686 24.4434L146.303 25.3161L147.316 33.0997L150.349 27.5063L152.455 28.6407L147.465 37.8292L145.831 36.9479ZM158.451 35.5605L153.181 42.1835L151.284 40.6825L156.554 34.0597L154.125 32.1311L155.366 30.5693L162.13 35.9357L160.889 37.489L158.451 35.5605ZM158.765 47.768C157.795 46.66 157.384 45.3423 157.481 43.5535L159.613 43.5098C159.482 44.8709 159.683 45.6214 160.365 46.3894C161.134 47.288 161.885 47.4975 162.462 47.0089C162.794 46.7297 162.934 46.0839 162.41 45.3162L161.754 44.2776C160.906 42.9688 160.635 41.1799 162.025 39.9758C163.52 38.6931 165.521 38.9723 167.094 40.7786C167.986 41.8413 168.45 43.1975 168.396 44.5831L166.325 44.6529C166.395 43.1696 165.923 42.5585 165.521 42.096C164.874 41.346 164.228 41.2499 163.607 41.7733C163.179 42.1485 163.24 42.6287 163.659 43.3093C163.782 43.5185 164.166 44.0857 164.271 44.2342C165.364 45.8309 165.416 47.7072 164.079 48.8502C162.576 50.159 160.408 49.6704 158.765 47.768ZM223.394 85.5603L240 68.981H181.838L184.888 57.6459H166.832L163.791 68.981H50.3427L61.7038 57.6371H23.2674C20.3259 57.6417 17.4678 58.6133 15.1347 60.4019C12.8015 62.1904 11.1232 64.6964 10.359 67.5325L0.378669 104.731C-0.0592262 106.333 -0.118228 108.014 0.206324 109.642C0.530876 111.27 1.23009 112.8 2.24875 114.112C4.3113 116.808 7.44882 118.344 10.8398 118.344H210.451C213.392 118.343 216.251 117.374 218.584 115.586C220.918 113.799 222.596 111.293 223.359 108.457L229.32 86.2498H222.704L223.394 85.5603Z" fill="white"/>
<path d="M53.0785 115.726L64.9204 71.5987H66.5809L54.7389 115.726H53.0785ZM88.8317 110.857H79.7427C79.0791 110.864 78.423 110.716 77.8262 110.426C77.2295 110.136 76.7084 109.712 76.3042 109.186C75.8999 108.661 75.6235 108.048 75.4967 107.398C75.37 106.748 75.3964 106.077 75.5739 105.438L82.1461 80.953C82.4921 79.6665 83.2534 78.5298 84.312 77.7189C85.3706 76.9081 86.6674 76.4684 88.0016 76.4679H108.592L98.052 115.726H96.3912L106.494 78.0648H88.0016C87.0202 78.0665 86.0669 78.3915 85.2894 78.9894C84.512 79.5873 83.9539 80.4247 83.7017 81.3716L77.1296 105.857C77.0186 106.257 77.0022 106.677 77.0817 107.085C77.1613 107.492 77.3346 107.876 77.588 108.205C77.8414 108.534 78.168 108.8 78.5419 108.982C78.9158 109.163 79.3269 109.256 79.7427 109.251H90.4311L88.8317 110.857ZM117.786 115.726L127.006 81.3719C127.26 80.425 127.82 79.5885 128.599 78.992C129.378 78.3956 130.333 78.0727 131.315 78.0734H149.807L139.696 115.726H141.365L151.896 76.4679H131.315C129.98 76.4694 128.682 76.9093 127.623 77.7198C126.563 78.5304 125.8 79.6665 125.45 80.953L116.125 115.726H117.786ZM179.408 110.857H166.369C165.708 110.861 165.054 110.711 164.461 110.418C163.868 110.126 163.351 109.7 162.952 109.173C162.545 108.651 162.265 108.042 162.134 107.394C162.004 106.746 162.027 106.076 162.2 105.438L174.331 60.2636H175.991L171.639 76.4679H190.534L188.926 78.0734H171.211L163.756 105.857C163.645 106.257 163.628 106.678 163.708 107.085C163.787 107.493 163.961 107.876 164.214 108.205C164.468 108.534 164.794 108.8 165.168 108.982C165.542 109.163 165.953 109.256 166.369 109.251H179.837L179.408 110.857ZM186.933 109.251H209.875C210.855 109.25 211.807 108.926 212.585 108.33C213.362 107.734 213.921 106.898 214.174 105.953L217.259 94.4608H196.381L199.999 80.953C200.346 79.6649 201.109 78.5268 202.169 77.7146C203.229 76.9023 204.527 76.4611 205.863 76.459H228.787L227.179 78.0645H205.863C204.882 78.0668 203.929 78.3908 203.15 78.9869C202.372 79.5829 201.811 80.4179 201.554 81.3632L198.469 92.8553H219.357L215.73 106.363C215.384 107.65 214.623 108.788 213.565 109.601C212.506 110.413 211.21 110.855 209.875 110.857H186.505L186.933 109.251ZM23.8533 65.1328C22.5191 65.1333 21.2223 65.573 20.1637 66.3838C19.1051 67.1947 18.3439 68.3314 17.9978 69.6179L8.38438 105.438C8.21078 106.076 8.18751 106.745 8.31639 107.393C8.44527 108.041 8.72279 108.65 9.12718 109.173C9.52744 109.699 10.0444 110.124 10.6373 110.417C11.2303 110.709 11.883 110.86 12.5443 110.857H36.3158L42.7307 86.9569H28.6427L27.0345 88.5535H40.642L35.0836 109.26H12.5443C12.1298 109.262 11.7207 109.168 11.3491 108.984C10.9775 108.801 10.6536 108.534 10.403 108.205C10.1468 107.877 9.97074 107.494 9.88882 107.087C9.80691 106.679 9.82141 106.258 9.93118 105.857L19.5446 70.037C19.7987 69.0902 20.3588 68.2536 21.1379 67.6572C21.917 67.0607 22.8716 66.7378 23.8533 66.7386H48.892L50.4913 65.1331L23.8533 65.1328Z" fill="white"/>
<path d="M104.108 52.7853C100.402 52.7853 98.497 55.0541 98.497 57.6195C98.497 60.1764 100.499 62.4543 104.108 62.4543C107.647 62.4543 109.727 60.1764 109.727 57.6195C109.727 55.0541 107.822 52.7853 104.108 52.7853ZM111.169 53.1608V54.225H114.665V62.061H117.401V54.2252H120.906V53.1608H111.169ZM122.129 53.1608V54.225H125.625V62.061H128.36V54.2252H131.856V53.1608H122.129ZM89.4344 53.1697V60.8919C89.4344 61.6946 89.8534 62.0699 90.5878 62.0699H97.2737V60.9969H92.6852C92.2306 60.9969 92.1435 60.7436 92.1435 60.386V53.1697H89.4344ZM134.766 53.1697C134.119 53.1697 133.499 53.3 133.499 54.4608V60.7788C133.499 61.9568 134.085 62.0788 134.854 62.0788H141.95V61.0057H136.837C136.226 61.0057 136.209 60.7349 136.209 60.3772V57.864H141.863V56.8084L136.209 56.8079V54.8708C136.209 54.3036 136.418 54.2339 136.908 54.2339H141.95V53.1697H134.766ZM104.108 53.7805C105.794 53.7805 107.079 55.5252 107.079 57.6195C107.079 59.7225 105.795 61.433 104.108 61.433C102.421 61.433 101.137 59.7225 101.137 57.6195C101.137 55.5252 102.421 53.7805 104.108 53.7805ZM23.2761 60.2634C20.9107 60.2632 18.6112 61.0421 16.7341 62.4793C14.8571 63.9165 13.5072 65.9318 12.8937 68.2127L2.91311 105.403C2.58738 106.618 2.54593 107.892 2.79196 109.126C3.03799 110.359 3.56491 111.52 4.33198 112.518C5.09905 113.516 6.08571 114.324 7.21567 114.88C8.34562 115.437 9.58859 115.726 10.8485 115.726H40.4843L49.2851 82.934H32.6539L28.6423 86.9478H42.73L36.315 110.857H12.5441C11.8812 110.862 11.2261 110.714 10.6305 110.423C10.0349 110.133 9.51495 109.708 9.11166 109.183C8.70837 108.657 8.43272 108.046 8.30643 107.396C8.18015 106.746 8.20667 106.076 8.3839 105.438L17.9973 69.6177C18.3435 68.3312 19.1049 67.1945 20.1635 66.3837C21.2222 65.573 22.5191 65.1334 23.8533 65.1331H50.4909L55.3672 60.2638L23.2761 60.2634ZM168.851 60.2638L156.729 105.412C156.405 106.627 156.365 107.899 156.611 109.132C156.858 110.364 157.386 111.524 158.153 112.52C158.919 113.517 159.906 114.325 161.035 114.88C162.164 115.436 163.406 115.725 164.665 115.726H178.097L179.399 110.857H166.36C165.699 110.859 165.046 110.708 164.453 110.416C163.86 110.124 163.343 109.699 162.943 109.173C162.538 108.65 162.261 108.041 162.132 107.393C162.003 106.745 162.026 106.076 162.2 105.438L174.322 60.2638H168.851ZM175.982 60.2638L171.629 76.4677H190.516L195.393 71.5989H178.411L181.453 60.2638H175.982ZM23.8526 66.7297C22.8709 66.7289 21.9164 67.0518 21.1373 67.6481C20.3582 68.2445 19.7981 69.0809 19.5439 70.0277L19.5444 70.0282L9.93094 105.848C9.82118 106.249 9.80666 106.67 9.88853 107.078C9.9704 107.485 10.1464 107.868 10.4025 108.196C10.6531 108.525 10.977 108.792 11.3486 108.975C11.7202 109.159 12.1294 109.253 12.5438 109.251H35.0831L40.6415 88.5446H27.0343L23.0138 92.5584H34.0869L30.9143 104.382H15.8037L24.6045 71.5989H44.0147L48.8915 66.7297H23.8526ZM59.4488 71.5901L47.6068 115.717H53.0865L64.9285 71.5901H59.4488ZM66.5888 71.5901L54.7468 115.717H60.218L72.0601 71.5901H66.5888ZM87.4244 71.5989C85.0604 71.6006 82.7629 72.3804 80.8875 73.8174C79.0121 75.2545 77.6635 77.2687 77.0504 79.5483L70.1115 105.403C69.786 106.618 69.7444 107.89 69.99 109.123C70.2355 110.356 70.7616 111.517 71.5277 112.514C72.2938 113.512 73.2793 114.321 74.4081 114.878C75.537 115.434 76.7789 115.725 78.038 115.726H83.9545L88.8313 110.857H79.742C79.0784 110.864 78.4223 110.716 77.8256 110.426C77.2289 110.136 76.7078 109.712 76.3036 109.186C75.8993 108.661 75.6229 108.049 75.4961 107.398C75.3694 106.748 75.3958 106.077 75.5732 105.438L82.1451 80.9528C82.4912 79.6662 83.2525 78.5294 84.3111 77.7186C85.3698 76.9078 86.6666 76.4681 88.0009 76.4677H108.591L98.0513 115.726H103.531L115.373 71.5989H87.4244ZM130.729 71.5989C128.365 71.6006 126.067 72.3804 124.192 73.8174C122.316 75.2545 120.968 77.2687 120.355 79.5483L110.645 115.726H116.116L125.45 80.9532V80.9525C125.796 79.6661 126.557 78.5294 127.616 77.7186C128.674 76.9078 129.971 76.468 131.305 76.4674H151.896L141.356 115.726H146.835L158.677 71.5987L130.729 71.5989ZM205.286 71.5989C202.922 71.6007 200.624 72.3804 198.749 73.8175C196.873 75.2546 195.525 77.2688 194.912 79.5483L189.834 98.4573H210.722L209.131 104.391H188.244L186.942 109.26H209.874C210.857 109.26 211.812 108.936 212.592 108.338C213.371 107.74 213.93 106.901 214.182 105.953L217.268 94.4697H196.38L200.007 80.9619C200.353 79.6743 201.114 78.5364 202.172 77.724C203.231 76.9116 204.528 76.4701 205.863 76.4677H228.795L233.672 71.5989H205.286ZM131.305 78.0645C130.325 78.0658 129.372 78.3896 128.595 78.986C127.818 79.5823 127.259 80.4178 127.005 81.3632L117.785 115.717H123.256L132.057 82.934H143.025L134.225 115.717H139.695L149.798 78.0648L131.305 78.0645ZM88.0014 78.0734C87.0204 78.0756 86.0673 78.3995 85.2887 78.9955C84.5102 79.5914 83.9494 80.4263 83.6926 81.3716C82.0582 87.4972 77.1203 105.857 77.1203 105.857C77.0113 106.258 76.9964 106.678 77.0768 107.085C77.1571 107.492 77.3304 107.875 77.5833 108.205C77.8362 108.534 78.1618 108.8 78.5348 108.984C78.9077 109.167 79.318 109.261 79.7336 109.26H90.4309L93.4633 106.232L90.9113 115.726H96.391L106.494 78.0736L88.0014 78.0734ZM171.21 78.0734L163.755 105.857C163.645 106.258 163.628 106.679 163.708 107.086C163.787 107.494 163.961 107.878 164.214 108.208C164.467 108.538 164.794 108.804 165.168 108.987C165.541 109.17 165.953 109.263 166.369 109.26H179.836L181.147 104.391H169.628L175.379 82.9429H184.048L188.925 78.0736L171.21 78.0734ZM205.863 78.0734C204.883 78.0746 203.93 78.3984 203.153 78.9946C202.375 79.5909 201.817 80.4263 201.563 81.3716L198.477 92.8642H219.356L215.729 106.371C215.383 107.658 214.622 108.795 213.564 109.606C212.505 110.417 211.209 110.856 209.874 110.857H186.504L185.202 115.726H210.451C212.816 115.726 215.115 114.947 216.992 113.51C218.87 112.073 220.219 110.058 220.833 107.777L225.902 88.8677H205.023L206.614 82.9429H222.31L227.187 78.0736L205.863 78.0734ZM88.7523 82.9426H99.7121L93.9526 104.391H82.9933L88.7523 82.9426Z" fill="#D01031"/>
<path d="M57.002 131.607L65.0335 124.906L69.9451 130.778L68.4156 132.052L65.0247 127.995L63.3029 129.426L66.2395 132.934L64.7275 134.199L61.7998 130.691L60.0343 132.166L63.4255 136.215L61.9135 137.48L57.002 131.607ZM66.1171 141.738C65.0419 140.735 64.5003 139.461 64.4215 137.672L66.5455 137.419C66.5455 138.78 66.8251 139.513 67.5766 140.203C68.4243 141.031 69.1935 141.162 69.7265 140.621C70.0236 140.307 70.0937 139.653 69.5081 138.937L68.7478 137.968C67.7688 136.756 67.3318 135.002 68.5903 133.667C69.9451 132.236 71.9726 132.323 73.7119 133.963C74.7052 134.933 75.303 136.235 75.3898 137.62L73.3272 137.899C73.2574 136.415 72.7243 135.848 72.2784 135.429C71.5531 134.74 70.9063 134.714 70.3383 135.299C69.9538 135.709 70.0586 136.18 70.5394 136.817C70.7682 137.111 71.0043 137.399 71.2474 137.681C72.4882 139.164 72.733 141.023 71.5181 142.288C70.146 143.737 67.9438 143.466 66.1171 141.738ZM80.4674 141.904L75.7394 148.92L73.7292 147.567L78.4572 140.551L75.888 138.824L77.0064 137.175L84.1644 141.991L83.0457 143.64L80.4674 141.904ZM78.4661 151.581L80.9482 152.951L82.259 150.56L79.777 149.19L78.4661 151.581ZM90.4831 146.93L89.5915 149.286L92.2046 148.693L89.4691 155.944L91.6454 156.764L95.3858 146.86L93.6117 146.197L90.4831 146.93ZM100.796 148.344C103.059 148.894 104.169 150.805 103.732 152.585C103.454 153.496 102.98 154.336 102.342 155.046L98.9342 158.841L96.347 158.213L99.4322 154.906C98.9305 154.912 98.4339 154.804 97.9799 154.59C97.5259 154.377 97.1262 154.064 96.8108 153.674C96.4954 153.285 96.2726 152.829 96.159 152.341C96.0454 151.853 96.0441 151.345 96.155 150.857C96.6093 149.007 98.4009 147.759 100.796 148.344ZM99.5983 153.038C100.708 153.309 101.233 152.794 101.416 152.026C101.6 151.285 101.233 150.543 100.315 150.316C99.3362 150.08 98.6805 150.552 98.4796 151.389C98.2785 152.201 98.6894 152.82 99.5983 153.038ZM107.953 160.578C105.349 160.307 104.143 158.684 104.335 156.825C104.393 156.343 104.581 155.885 104.877 155.499C105.174 155.114 105.57 154.815 106.022 154.635C105.671 154.388 105.395 154.05 105.221 153.659C105.047 153.267 104.982 152.835 105.034 152.41C105.227 150.569 106.817 149.522 109.046 149.757C111.449 150.002 112.664 151.424 112.489 153.161C112.461 153.592 112.314 154.007 112.064 154.359C111.814 154.712 111.471 154.989 111.073 155.159C111.465 155.434 111.78 155.804 111.988 156.235C112.196 156.665 112.291 157.142 112.262 157.62C112.078 159.391 110.61 160.857 107.953 160.578ZM108.399 155.953C107.534 155.857 106.835 156.442 106.765 157.079C106.695 157.75 107.079 158.405 108.146 158.51C109.256 158.632 109.754 158.065 109.824 157.393C109.894 156.747 109.352 156.049 108.399 155.953ZM108.836 151.721C107.98 151.633 107.464 152.044 107.394 152.698C107.333 153.3 107.84 153.833 108.609 153.92C109.465 154.007 110.033 153.571 110.112 152.951C110.191 152.314 109.727 151.817 108.836 151.721M114.115 160.769L114.062 159.068L118.187 154.635C118.659 154.103 118.913 153.571 118.904 153.143C118.886 152.558 118.45 152.078 117.593 152.105C116.588 152.131 116.151 152.89 116.098 153.789L113.782 153.859C113.756 151.546 115.6 150.15 117.523 150.098C119.507 150.045 121.255 151.11 121.307 153.091C121.334 153.963 121.028 154.845 120.136 155.813L117.462 158.658L121.552 158.545L121.613 160.56L114.115 160.769ZM133.822 158.44L129.208 159.557L126.735 149.4L131.087 148.344C133.35 147.794 135.028 148.658 135.474 150.482C135.578 151.219 135.427 151.97 135.046 152.611C135.719 153.021 136.427 153.675 136.628 154.504C137.1 156.424 136.007 157.907 133.822 158.44ZM131.777 150.229L129.496 150.787L130.012 152.899L132.372 152.323C133.071 152.157 133.281 151.494 133.167 151.023C133.13 150.878 133.064 150.743 132.973 150.625C132.883 150.506 132.769 150.407 132.64 150.333C132.51 150.259 132.367 150.212 132.219 150.194C132.071 150.176 131.921 150.188 131.777 150.229ZM132.843 154.208L130.467 154.784L131.035 157.096L133.473 156.502C134.198 156.328 134.408 155.682 134.268 155.106C134.128 154.522 133.613 154.024 132.843 154.208ZM146.993 150.107C147.902 152.262 146.53 154.068 144.222 155.037C141.976 155.988 139.678 155.726 138.769 153.571L136.016 147.061L138.245 146.127L141.024 152.698C141.408 153.588 142.405 153.632 143.445 153.187C144.502 152.742 145.166 152 144.79 151.11L142.011 144.539L144.24 143.597L146.993 150.107ZM153.985 150.176C152.717 150.927 151.345 151.084 149.597 150.665L149.947 148.553C151.267 148.937 152.044 148.876 152.918 148.352C153.95 147.768 154.299 147.061 153.923 146.407C153.705 146.023 153.093 145.778 152.245 146.145L151.101 146.599C149.658 147.192 147.841 147.122 146.914 145.543C145.927 143.841 146.573 141.93 148.636 140.717C149.846 140.035 151.266 139.827 152.621 140.133L152.315 142.183C150.864 141.843 150.174 142.192 149.65 142.497C148.785 143.004 148.566 143.614 148.977 144.321C149.265 144.81 149.746 144.845 150.497 144.557C150.841 144.419 151.182 144.273 151.52 144.12C153.294 143.344 155.147 143.64 156.029 145.159C157.043 146.869 156.161 148.911 153.985 150.176ZM165.049 141.721L163.021 140.63L160.128 143.065L160.898 145.211L158.984 146.825L155.435 136.136L157 134.819L166.945 140.133L165.049 141.721ZM158.468 138.152L159.447 141.119L161.238 139.609L158.468 138.152ZM173.107 133.143L165.294 132.489L170.118 136.625L168.571 138.422L160.627 131.625L161.815 130.237L169.655 130.883L164.813 126.747L166.369 124.932L174.321 131.73L173.107 133.143Z" fill="white"/>
</g>
<defs>
<clipPath id="clip0_137_3754">
<rect width="240" height="180" fill="white"/>
</clipPath>
</defs>
</svg>
